<svg width="173" height="54" viewBox="0 0 173 54" fill="none" xmlns="http://www.w3.org/2000/svg">
<path d="M89.217 34.5801C89.0889 34.5801 88.9769 34.6922 88.9769 34.8362C89.4891 41.256 91.7939 44.4738 95.9234 44.4738C100.053 44.4738 100.485 43.3372 101.766 41.0639C102.038 40.5516 102.278 40.1193 102.422 39.8632C102.566 39.607 102.726 39.623 102.902 39.6871C103.414 39.8792 104.391 40.2474 104.407 40.2474L108.536 42.3606C109.144 42.6328 109.608 42.8249 109.881 42.969C110.073 43.049 110.153 43.2731 110.073 43.4653C109.913 43.8975 109.608 44.6179 109.432 44.8901C106.471 50.4773 101.942 53.263 95.8114 53.263C89.6811 53.263 86.3999 51.3258 83.5028 47.4676C80.6058 43.5933 79.1652 38.4383 79.1652 31.9866C79.1652 25.5348 80.5898 20.636 83.4548 16.6977C86.3199 12.7594 90.3214 10.7903 95.5073 10.7903C100.693 10.7903 104.343 12.5993 107.112 16.2334C109.865 19.8675 111.241 24.4782 111.241 30.0495C111.273 31.2021 111.113 33.2673 111.033 34.1639C111.017 34.404 110.809 34.5961 110.553 34.5961H89.201L89.217 34.5801ZM95.5233 19.3392C92.162 19.3392 90.0493 21.7727 89.217 26.6395C89.1849 26.7836 89.297 26.9116 89.441 26.9116H101.205C101.349 26.9116 101.461 26.7836 101.429 26.6395C100.661 21.7727 98.6925 19.3392 95.5233 19.3392Z" fill="black"/>
<path d="M172.8 50.4293C172.848 50.6054 172.768 50.7815 172.624 50.8776C169.887 52.4785 166.766 53.1349 163.837 53.1349C160.907 53.1349 157.85 52.2223 155.978 50.4133C154.089 48.6042 153.161 45.8667 153.161 42.2485V0.400233C153.161 0.176102 153.337 0 153.561 0H162.46C162.684 0 162.86 0.176102 162.86 0.400233V11.7668H170.335C170.559 11.7668 170.735 11.9429 170.735 12.1671V19.5474C170.735 19.7715 170.559 19.9476 170.335 19.9476H162.86V40.8237C162.86 43.1771 163.901 44.3618 165.981 44.3618C168.062 44.3618 167.902 44.1537 168.91 43.7534C169.519 43.4813 170.031 43.2251 170.367 43.033C170.591 42.9209 170.863 43.033 170.927 43.2731L172.832 50.4133L172.8 50.4293Z" fill="black"/>
<path d="M123.646 52.0302C123.582 52.1583 123.438 52.2384 123.31 52.2384H113.93C113.626 52.2384 113.434 51.9182 113.594 51.662L125.182 31.3622L114.09 12.4873C113.93 12.2311 114.122 11.8949 114.426 11.8949H123.918C124.062 11.8949 124.19 11.975 124.27 12.087L130.832 23.9659C130.832 23.9659 130.848 23.9819 130.864 23.9819H131.008C131.008 23.9819 131.04 23.9819 131.04 23.9659L137.587 12.087C137.651 11.9589 137.795 11.8789 137.939 11.8789H147.43C147.735 11.8789 147.927 12.2151 147.767 12.4712L136.787 31.3462L148.247 51.646C148.391 51.9022 148.199 52.2384 147.911 52.2384H138.547C138.403 52.2384 138.275 52.1583 138.195 52.0302L131.024 39.1267H130.816L123.646 52.0462V52.0302Z" fill="black"/>
<path d="M57.0931 10.7743C61.5427 10.7743 65.1601 12.1991 67.9771 15.0648C70.7942 17.9304 72.1867 21.7887 72.1867 26.6875V51.8701C72.1867 52.0943 72.0106 52.2704 71.7865 52.2704H63.0473C62.8232 52.2704 62.6471 52.0943 62.6471 51.8701V26.4794C62.6471 24.4782 62.1189 22.9093 61.0786 21.7887C60.0222 20.668 58.6937 20.1077 57.0771 20.1077C55.3645 20.1077 53.9879 20.668 52.9316 21.7887C51.8752 22.9093 51.363 24.4782 51.363 26.4794V51.8701C51.363 52.0943 51.1869 52.2704 50.9628 52.2704H42.2236C41.9995 52.2704 41.8235 52.0943 41.8235 51.8701V26.6875C41.8235 21.8047 43.232 17.9304 46.033 15.0648C48.85 12.1991 52.5154 10.7743 57.0611 10.7743H57.0931Z" fill="black"/>
<path d="M34.3167 12.2951V36.6293C34.3167 46.0908 26.7459 53.9353 17.2864 53.9994C7.76287 54.0794 0 46.395 0 36.8694V12.2951C0 12.071 0.176065 11.8949 0.400148 11.8949H8.29106C8.51515 11.8949 8.69121 12.071 8.69121 12.2951V36.6933C8.69121 41.4321 12.5646 45.4024 17.3024 45.3383C21.624 45.2903 25.1613 42.0084 25.6415 37.814V20.9722C25.6415 20.7481 25.4654 20.572 25.2413 20.572H21.9281C21.704 20.572 21.528 20.7481 21.528 20.9722V36.8534C21.528 39.2548 19.5752 41.2079 17.1743 41.2079C14.7735 41.2079 12.8207 39.2548 12.8207 36.8534V12.2951C12.8207 12.071 12.9968 11.8949 13.2209 11.8949H33.9325C34.1566 11.8949 34.3327 12.071 34.3327 12.2951H34.3167Z" fill="black"/>
</svg>
