<svg width="331" height="52" viewBox="0 0 331 52" fill="none" xmlns="http://www.w3.org/2000/svg">
<path d="M330.897 5.93695C330.897 2.65826 328.239 0 324.96 0H6.04681C2.76812 0 0.109863 2.66078 0.109863 5.93947V46.0631C0.109863 49.3417 2.76812 52 6.04681 52H324.96C328.239 52 330.897 49.3392 330.897 46.0605V5.93695ZM33.8375 41.4905H25.7114L25.0708 40.7011L24.9926 37.6747H26.9068V27.6671H16.3923V37.6772H18.3091L18.299 41.4905C18.1275 41.7276 17.6887 41.0139 17.5878 41.0139H8.74543L8.74038 37.6747H10.6572V14.797H8.74038L8.74543 10.9836H18.3041L18.3091 14.7995H16.3923V23.3771H26.9068V14.797H24.9901L24.9951 10.9836H34.5538V14.7995H32.1628V36.9634L34.5285 37.6999C34.5285 38.9887 34.9724 40.6129 33.835 41.4931L33.8375 41.4905ZM39.3305 41.0164V37.6747L41.2448 37.6772V14.797H39.328L39.3331 10.9836H48.8917L48.6874 14.3556L46.4756 15.0668L46.9598 37.4678L48.8741 37.6948L48.8942 41.0164H39.3305ZM76.0367 23.5183L71.5954 28.1438H60.8413V37.6772H62.758V41.4931C61.4617 41.5208 53.3205 41.6469 53.1691 40.739L53.2171 37.6974L55.5853 36.9634V14.797H53.1918L53.1944 10.9836H71.5954C71.8829 10.9836 75.5298 14.7415 75.6836 15.0088C76.7606 16.8726 75.9207 21.2535 76.0367 23.5183ZM102.925 24.5952C102.781 24.8424 99.5676 28.1438 99.3129 28.1438H88.5588V37.6772H90.4756L90.4882 40.6885C90.3898 41.0013 89.4087 41.4905 89.2776 41.4905H81.6307L80.9901 40.7011L80.9119 37.6747H82.8261V14.797H80.9094L80.9144 10.9836H99.3154L103.28 15.1324C103.119 17.5536 104.054 22.6381 102.927 24.5952H102.925ZM131.711 36.5776L126.816 41.2863L113.525 40.6961C112.445 39.0139 109.893 37.9571 109.628 35.9823C108.801 29.7755 109.959 21.6646 109.837 15.2787L114.228 11.0769L127.643 11.0971C127.855 11.2182 130.854 14.2169 131.109 14.5624C131.429 14.9962 131.772 15.3846 131.822 15.9521L131.709 36.575L131.711 36.5776ZM160.733 20.0429H155.472C155.896 18.0378 155.116 15.2409 152.836 14.8071C150.322 14.3304 144.624 14.2497 144.014 17.4275C144.788 21.6444 142.836 32.3581 144.254 35.7579C145.767 39.3846 157.21 38.512 155.472 32.4288H160.735C160.576 33.8941 161.099 35.8411 160.486 37.1904C160.047 38.1564 156.428 41.3594 155.262 41.5132C153.204 41.7882 145.787 41.7907 143.792 41.4603C141.406 41.0668 140.698 37.8512 138.375 37.0996L138.281 15.9975C139.215 14.3934 141.906 11.2005 143.742 10.9559C145.27 10.7516 155.479 10.7995 156.423 11.2282C156.685 11.3468 160.367 15.0189 160.486 15.2812C161.099 16.628 160.576 18.5776 160.735 20.0404L160.733 20.0429ZM195.141 41.4905H185.583L185.578 37.6747H187.497L186.059 31.9571H176.022L174.574 37.4351L175.971 37.7049L176.022 41.4905H166.94L166.907 37.9672L168.781 36.8953C170.181 29.8159 174.458 22.2774 175.971 15.4578C176.241 14.2472 174.826 14.9861 174.11 14.797L173.631 10.9861H188.448V14.802H186.059C186.014 15.1728 186.082 15.5284 186.15 15.8941C186.476 17.6293 192.637 35.8386 193.298 36.8953C193.913 37.8815 195.028 37.4628 195.172 37.9672L195.139 41.4905H195.141ZM234.334 37.6747V41.4905H225.013L224.372 40.7011L224.294 37.6747H226.685V20.517L216.887 35.7755L207.568 20.517V37.6772H209.484L209.479 41.4905H199.921L199.916 37.6747H201.832V14.797H199.916L199.921 10.9836H207.568L216.655 26.7112L226.208 10.9836H234.334V14.7995H231.943V37.6797H234.337L234.334 37.6747ZM261.954 23.5183L257.512 28.1438H246.998C245.815 28.9105 246.756 30.0101 246.783 31.2207C246.831 33.3695 246.703 35.5359 246.756 37.6797L248.675 37.6747L248.67 41.4905H239.111L239.106 37.6747H241.023V14.797L239.323 14.3581L239.111 10.9836H257.512C257.8 10.9836 261.447 14.7415 261.6 15.0088C262.677 16.8726 261.837 21.2535 261.954 23.5183ZM291.207 14.797V36.9609L286.569 41.3922L273.747 41.5284L268.743 36.9609V14.797H266.826L266.831 10.9836H276.39L276.395 14.7995H274.478V35.5309C274.478 35.6822 276.294 37.4502 276.728 37.5788C278.859 38.2093 284.589 38.116 285.373 35.4325L285.474 14.7945L283.555 14.7995L283.56 10.9836H293.119L293.124 14.7995H291.207V14.797ZM321.797 19.0895H316.539C317.986 13.3544 305.868 13.4905 305.179 17.0315C303.262 26.8777 310.564 23.8386 317.157 24.4288L321.547 28.6305L321.696 36.8651C321.588 37.2257 318.155 40.8121 317.757 41.0391C315.348 42.4187 307.152 40.9407 303.969 41.4981C303.605 39.8789 299.772 37.6797 299.434 37.1021C299 36.3607 299.507 34.3733 299.328 33.3846H305.066C303.959 39.3871 315.638 39.0795 316.523 34.57C318.289 25.594 309.467 28.6936 303.969 28.0454L299.578 23.8436L299.429 15.6091C300.819 14.1513 302.821 11.2207 304.803 10.9584C306.4 10.7465 315.951 10.7238 317.157 11.082C317.434 11.1627 321.404 14.5549 321.553 14.7995C322.175 15.8184 321.628 17.8714 321.797 19.0895Z" fill="black"/>
<path d="M176.98 29.5738H184.627C184.034 25.6671 182.244 21.9067 181.043 18.1286L176.98 29.5738Z" fill="black"/>
<path d="M126.218 17.0391C125.416 14.2926 119.273 14.2749 117.099 14.8979C116.677 15.0189 115.994 15.5889 115.774 15.9596C114.251 18.5069 115.913 31.6494 115.424 35.4351C117.252 38.9079 125.588 38.9811 126.291 34.5523C127.101 29.4451 125.83 22.3657 126.221 17.0416L126.218 17.0391Z" fill="black"/>
<path d="M254.884 14.797H246.281C246.102 15.3115 246.761 15.8436 246.761 15.9874V24.3279H254.647C256.508 24.3279 256.582 18.8071 256.312 17.425C256.276 17.2484 255.013 14.8726 254.884 14.7945V14.797Z" fill="black"/>
<path d="M95.9686 14.797H88.5613V23.6141C88.5613 23.7175 87.6736 24.4388 88.8564 24.7491C89.7946 24.9937 93.4516 24.9458 94.5084 24.7793C98.0519 24.2169 98.6925 20.4767 98.1099 17.4275C97.9787 16.7364 96.241 14.7945 95.9712 14.7945L95.9686 14.797Z" fill="black"/>
<path d="M68.7253 14.797H60.8387V24.0908C62.2435 24.9357 66.0872 25.1122 67.7593 24.7945C70.9649 24.1816 71.613 18.9987 70.3369 16.5246C70.1654 16.1942 68.8438 14.7945 68.7253 14.7945V14.797Z" fill="black"/>
</svg>
