<svg width="703" height="473" viewBox="0 0 703 473" fill="none" xmlns="http://www.w3.org/2000/svg">
<path fill-rule="evenodd" clip-rule="evenodd" d="M437.08 316.3L407.26 131.77V131.75C407.09 130.7 406.8 129.7 406.41 128.75C406.38 128.68 406.36 128.61 406.33 128.55C406.28 128.44 406.23 128.34 406.18 128.24C405.48 126.69 404.52 125.31 403.36 124.15C403.25 124.04 403.14 123.95 403.03 123.85L388.96 109.93L382.96 103.9C379.49 100.42 374.25 98.85 369.16 100.37C368.79 100.38 368.42 100.45 368.06 100.59L330.97 114.92C330.65 114.95 330.33 115.02 330.03 115.13C325.29 116.95 321.91 121.2 321.18 126.22C321.13 126.55 321.15 126.88 321.2 127.2L291.64 332.82C291.5 333.12 291.39 333.45 291.34 333.79C290.66 338.46 292.37 342.71 295.33 345.61L301.02 351.2L315.73 365.83C318.26 368.35 321.76 369.91 325.51 369.94C326.87 369.96 328.26 369.78 329.66 369.36C330.02 369.34 330.39 369.28 330.74 369.14L427.26 331.99C427.61 331.97 427.97 331.9 428.31 331.77C433.75 329.68 437.23 324.47 437.26 318.8C437.28 317.98 437.22 317.14 437.08 316.31V316.3ZM295.56 340.07C295.51 339.96 295.45 339.85 295.4 339.73C295.37 339.65 295.35 339.56 295.31 339.48C295.39 339.68 295.47 339.88 295.56 340.07Z" fill="black"/>
<path d="M519.63 127.89C519.62 128.06 519.62 128.21 519.62 128.38C519.62 128.54 519.61 128.7 519.61 128.86C519.59 129.49 519.57 130.1 519.53 130.72C519.52 130.93 519.52 131.14 519.51 131.36C519.5 131.51 519.49 131.65 519.48 131.81C519.48 131.89 519.47 131.97 519.47 132.04C519.43 132.7 519.38 133.37 519.31 134.04C519.3 134.19 519.29 134.34 519.27 134.49C519.26 134.61 519.25 134.72 519.24 134.85C519.22 135.06 519.21 135.27 519.18 135.49C519.14 135.93 519.08 136.36 519.03 136.8C519 137.05 518.96 137.29 518.94 137.54C518.9 137.85 518.86 138.17 518.82 138.49C518.8 138.61 518.78 138.74 518.76 138.86C518.72 139.22 518.66 139.56 518.6 139.91C518.59 140.03 518.57 140.16 518.56 140.28C518.48 140.73 518.4 141.18 518.34 141.64C518.31 141.82 518.27 142 518.24 142.19C518.2 142.47 518.15 142.76 518.09 143.04C518.06 143.24 518.01 143.44 517.98 143.64C517.88 144.16 517.78 144.7 517.68 145.23C517.65 145.39 517.61 145.54 517.58 145.69C517.57 145.76 517.56 145.81 517.55 145.88C517.51 146.1 517.46 146.33 517.4 146.55C517.27 147.2 517.12 147.84 516.98 148.49C516.95 148.64 516.91 148.78 516.88 148.93C516.65 149.96 516.39 150.98 516.12 152C516.1 152.09 516.08 152.17 516.05 152.26C516.01 152.43 515.96 152.61 515.92 152.77C515.72 153.52 515.52 154.27 515.31 155.01C515.27 155.18 515.22 155.36 515.16 155.52C515.15 155.56 515.14 155.6 515.13 155.64C514.87 156.53 514.61 157.43 514.34 158.32C514.3 158.47 514.25 158.6 514.21 158.74C514.15 158.91 514.11 159.07 514.05 159.24C513.86 159.85 513.66 160.47 513.46 161.07C513.38 161.3 513.31 161.54 513.24 161.77C512.97 162.57 512.69 163.38 512.41 164.18C512.38 164.28 512.34 164.39 512.31 164.49C512.2 164.8 512.09 165.12 511.98 165.43C511.92 165.59 511.87 165.74 511.8 165.91C511.65 166.33 511.5 166.77 511.34 167.19C511.26 167.4 511.18 167.61 511.11 167.82C510.84 168.53 510.57 169.24 510.31 169.94C510.22 170.16 510.13 170.4 510.04 170.63C509.86 171.09 509.67 171.56 509.49 172.01C509.42 172.16 509.37 172.3 509.31 172.46C509.2 172.72 509.1 172.98 508.99 173.25C508.98 173.29 508.96 173.34 508.95 173.37C508.6 174.2 508.27 175.02 507.92 175.84C507.81 176.1 507.71 176.34 507.6 176.59C507.34 177.22 507.06 177.84 506.8 178.45C506.76 178.55 506.72 178.65 506.68 178.75C506.61 178.9 506.55 179.05 506.48 179.2L505.37 181.68C505.28 181.87 505.18 182.07 505.09 182.27C504.8 182.91 504.51 183.54 504.21 184.17C504.11 184.4 504 184.63 503.89 184.86C503.87 184.9 503.85 184.96 503.82 185.02C503.52 185.63 503.23 186.25 502.93 186.86C502.84 187.05 502.75 187.23 502.66 187.42C502.59 187.57 502.53 187.71 502.45 187.86C502.42 187.94 502.37 188.02 502.34 188.08C502.08 188.62 501.82 189.15 501.55 189.69C501.42 189.96 501.28 190.24 501.14 190.5C501.11 190.59 501.06 190.68 501.02 190.76C500.99 190.83 500.95 190.88 500.93 190.95C500.74 191.32 500.55 191.68 500.37 192.04C500.21 192.32 500.07 192.61 499.92 192.89C499.79 193.15 499.66 193.4 499.53 193.66C499.47 193.75 499.43 193.85 499.38 193.94C499.22 194.23 499.08 194.52 498.92 194.8C498.76 195.1 498.62 195.39 498.46 195.68C498.31 195.96 498.16 196.24 498.01 196.52C498 196.54 497.99 196.56 497.98 196.59C497.87 196.78 497.77 196.98 497.67 197.17C497.49 197.49 497.32 197.81 497.16 198.11C496.97 198.47 496.78 198.81 496.59 199.16C496.55 199.25 496.49 199.34 496.44 199.42C496.28 199.7 496.14 199.98 495.98 200.26C495.65 200.87 495.3 201.48 494.96 202.08C494.78 202.4 494.6 202.73 494.41 203.04C494.22 203.39 494.03 203.72 493.84 204.04C493.65 204.39 493.46 204.71 493.26 205.04C493.08 205.35 492.9 205.65 492.72 205.97C492.39 206.54 492.06 207.11 491.73 207.67C491.57 207.94 491.42 208.21 491.26 208.46C491.05 208.82 490.84 209.16 490.63 209.52C490.5 209.73 490.36 209.94 490.24 210.16C490.02 210.52 489.8 210.87 489.59 211.22C489.51 211.34 489.44 211.48 489.37 211.6C489.14 211.98 488.9 212.36 488.68 212.73C488.52 212.98 488.38 213.21 488.23 213.44C488.22 213.46 488.2 213.48 488.19 213.51C488.11 213.64 488.03 213.77 487.94 213.9C487.93 213.92 487.91 213.96 487.9 213.98C487.67 214.35 487.44 214.71 487.22 215.06C487.15 215.16 487.1 215.26 487.03 215.37C487.02 215.38 487.01 215.39 487 215.41C487 215.42 486.99 215.42 486.99 215.43C486.79 215.74 486.6 216.04 486.41 216.33C486.34 216.44 486.28 216.55 486.2 216.66C485.57 217.64 484.98 218.57 484.41 219.43C484.33 219.54 484.25 219.66 484.18 219.79C484.05 220 483.91 220.2 483.78 220.4C483.75 220.44 483.72 220.49 483.69 220.52C483.65 220.59 483.6 220.65 483.56 220.72C483.5 220.81 483.45 220.89 483.39 220.97C483.3 221.13 483.2 221.27 483.11 221.41C482.95 221.64 482.8 221.87 482.65 222.08C482.59 222.17 482.53 222.27 482.47 222.36C482.27 222.66 482.07 222.94 481.88 223.22C481.84 223.29 481.8 223.35 481.76 223.42C481.63 223.6 481.5 223.79 481.38 223.97C481.37 223.98 481.37 223.99 481.36 224C481.34 224.02 481.33 224.04 481.3 224.07C481.27 224.13 481.23 224.18 481.19 224.24C481.11 224.36 481.02 224.49 480.94 224.6C480.92 224.63 480.91 224.66 480.88 224.69C480.82 224.76 480.78 224.84 480.73 224.9C480.72 224.91 480.7 224.93 480.69 224.94C480.65 225.02 480.59 225.09 480.54 225.16C480.52 225.19 480.5 225.22 480.47 225.25C480.39 225.36 480.31 225.48 480.24 225.58C480.24 225.59 480.23 225.59 480.23 225.6C480.21 225.62 480.2 225.64 480.19 225.66C480.17 225.68 480.16 225.72 480.13 225.74C480.04 225.86 479.96 225.99 479.88 226.1C479.86 226.13 479.84 226.16 479.82 226.18C479.65 226.41 479.51 226.62 479.41 226.76C479.41 226.76 479.403 226.767 479.39 226.78C479.39 226.78 479.35 226.85 479.32 226.88L479.3 226.9C479.26 226.97 479.22 227.02 479.19 227.06C479.18 227.07 479.18 227.08 479.17 227.09C479.15 227.12 479.14 227.13 479.14 227.13L464.78 212.77V212.48C464.78 212.48 464.78 212.41 464.79 212.38V211.98C464.8 211.87 464.8 211.75 464.8 211.61V211.45C464.81 211.05 464.82 210.56 464.82 209.99V207.75C464.82 207.46 464.81 207.16 464.81 206.86V206.56C464.8 206.19 464.8 205.81 464.79 205.42V205.27C464.77 204.37 464.75 203.37 464.71 202.32C464.71 202.22 464.71 202.1 464.7 202C464.69 201.59 464.68 201.16 464.66 200.73C464.66 200.58 464.65 200.44 464.65 200.29C464.63 199.87 464.61 199.43 464.59 198.98C464.58 198.83 464.57 198.69 464.57 198.54C464.55 198.06 464.53 197.58 464.49 197.08C464.49 196.96 464.48 196.85 464.48 196.72C464.4 195.47 464.32 194.15 464.23 192.79C464.22 192.68 464.21 192.56 464.2 192.43C464.17 191.87 464.12 191.31 464.08 190.74C464.07 190.55 464.05 190.36 464.04 190.17C464 189.66 463.95 189.13 463.91 188.61C463.9 188.4 463.88 188.19 463.85 187.97C463.81 187.42 463.76 186.88 463.7 186.32C463.68 186.13 463.67 185.94 463.64 185.74C463.57 185.06 463.51 184.37 463.43 183.67C463.42 183.6 463.42 183.54 463.41 183.47C463.33 182.69 463.24 181.88 463.15 181.08C463.13 180.95 463.12 180.8 463.09 180.66C463.01 180.02 462.93 179.38 462.86 178.72C462.83 178.46 462.79 178.21 462.76 177.95C462.69 177.4 462.61 176.86 462.55 176.31C462.51 176.01 462.46 175.71 462.43 175.41C462.35 174.87 462.27 174.33 462.2 173.78C462.16 173.48 462.11 173.19 462.07 172.89C461.98 172.3 461.89 171.71 461.8 171.1C461.76 170.84 461.72 170.6 461.68 170.34C461.55 169.5 461.4 168.65 461.26 167.79C461.23 167.6 461.19 167.4 461.16 167.2C461.05 166.54 460.93 165.87 460.8 165.21C460.74 164.86 460.68 164.53 460.61 164.19C460.51 163.65 460.41 163.12 460.3 162.58C460.23 162.19 460.15 161.81 460.08 161.43C459.98 160.93 459.88 160.43 459.77 159.92C459.69 159.52 459.61 159.12 459.52 158.71C459.41 158.21 459.3 157.69 459.19 157.19C459.1 156.79 459.01 156.4 458.92 156.01C458.8 155.43 458.65 154.84 458.52 154.26C458.37 153.67 458.23 153.08 458.08 152.48C457.95 151.91 457.8 151.33 457.66 150.76C457.56 150.37 457.46 149.99 457.36 149.6C457.23 149.09 457.09 148.57 456.95 148.06C456.85 147.67 456.74 147.28 456.63 146.89C456.48 146.38 456.34 145.86 456.19 145.35C456.08 144.96 455.97 144.57 455.84 144.18C455.69 143.67 455.54 143.15 455.38 142.64C455.26 142.25 455.15 141.86 455.02 141.47C454.85 140.95 454.69 140.41 454.51 139.88C454.4 139.51 454.28 139.14 454.15 138.76C453.96 138.18 453.76 137.6 453.56 137.02C453.46 136.71 453.35 136.38 453.25 136.07C452.94 135.18 452.61 134.3 452.29 133.4C452.27 133.33 452.23 133.25 452.21 133.19C451.9 132.36 451.58 131.55 451.27 130.72C451.15 130.42 451.02 130.12 450.9 129.82C450.67 129.23 450.43 128.65 450.2 128.07C450.05 127.71 449.91 127.37 449.76 127.02C449.53 126.48 449.29 125.94 449.06 125.4C448.9 125.04 448.75 124.69 448.59 124.33C448.36 123.81 448.11 123.27 447.86 122.74C447.7 122.39 447.54 122.04 447.37 121.69C447.11 121.14 446.86 120.61 446.59 120.06C446.43 119.74 446.28 119.41 446.11 119.09C445.81 118.48 445.5 117.87 445.18 117.27C445.05 117.01 444.92 116.77 444.79 116.52C444.34 115.66 443.87 114.81 443.41 113.97C443.37 113.89 443.32 113.81 443.28 113.75C442.86 112.98 442.41 112.22 441.96 111.47C441.81 111.21 441.66 110.97 441.5 110.71C441.15 110.14 440.81 109.57 440.45 109C440.33 108.8 440.19 108.61 440.07 108.42C439.24 107.13 438.38 105.84 437.5 104.59C437.41 104.46 437.32 104.33 437.23 104.21C436.31 102.94 435.39 101.69 434.43 100.46C433.97 100.11 433.51 99.77 433.06 99.42C432.85 99.26 432.64 99.1 432.42 98.94C431.63 98.37 430.83 97.82 430.03 97.28C429.97 97.25 429.92 97.21 429.86 97.18C429.11 96.69 428.35 96.2 427.58 95.73C427.32 95.57 427.07 95.43 426.81 95.27C426.24 94.94 425.68 94.61 425.11 94.29C424.66 94.04 424.22 93.8 423.76 93.56C423.28 93.3 422.79 93.05 422.3 92.79C421.83 92.56 421.36 92.33 420.89 92.11C420.39 91.88 419.9 91.64 419.38 91.41C418.9 91.2 418.41 90.99 417.92 90.77C417.42 90.56 416.9 90.35 416.38 90.13C415.88 89.93 415.38 89.74 414.86 89.55C414.34 89.36 413.81 89.16 413.27 88.97C412.75 88.79 412.22 88.62 411.68 88.45C411.14 88.28 410.61 88.1 410.06 87.94C409.52 87.78 408.97 87.63 408.42 87.48C407.87 87.32 407.31 87.17 406.76 87.03C406.19 86.88 405.63 86.75 405.06 86.62C404.49 86.5 403.92 86.36 403.34 86.24C402.76 86.13 402.18 86.02 401.59 85.91C401.02 85.8 400.44 85.7 399.86 85.61C399.15 85.49 398.42 85.39 397.69 85.29C397.14 85.21 396.61 85.13 396.06 85.07C395.3 84.98 394.52 84.9 393.75 84.84C393.21 84.78 392.69 84.73 392.15 84.69C391.3 84.62 390.44 84.58 389.57 84.53C389.09 84.51 388.61 84.47 388.12 84.45C387.01 84.42 385.88 84.41 384.74 84.39C384.48 84.39 384.24 84.38 383.97 84.39C382.57 84.39 381.15 84.43 379.71 84.49C379.27 84.51 378.82 84.55 378.37 84.58C377.37 84.64 376.35 84.69 375.31 84.78C374.73 84.82 374.14 84.89 373.55 84.95C372.63 85.04 371.72 85.13 370.78 85.24C370.14 85.32 369.49 85.41 368.83 85.5C367.94 85.62 367.04 85.75 366.13 85.88C365.45 85.99 364.75 86.11 364.05 86.23C363.15 86.39 362.24 86.54 361.34 86.72C360.61 86.85 359.89 87 359.16 87.16C358.24 87.34 357.33 87.54 356.4 87.75C355.65 87.91 354.9 88.08 354.15 88.26C353.22 88.48 352.27 88.72 351.33 88.96C350.56 89.16 349.8 89.35 349.02 89.56C348.06 89.83 347.08 90.11 346.1 90.39C345.33 90.61 344.55 90.84 343.77 91.07C342.75 91.38 341.73 91.71 340.7 92.04C339.93 92.29 339.16 92.53 338.38 92.79C337.29 93.15 336.18 93.54 335.08 93.93C334.33 94.19 333.6 94.44 332.85 94.71C331.61 95.17 330.36 95.65 329.1 96.13C328.45 96.38 327.83 96.6 327.18 96.86C325.26 97.62 323.32 98.4 321.35 99.23C318.55 100.41 315.7 101.62 312.82 102.86C312.62 102.95 312.42 103.04 312.22 103.13C309.34 104.36 306.44 105.62 303.5 106.91C303.48 106.91 303.46 106.92 303.43 106.93C302.75 107.23 302.05 107.54 301.35 107.85C299.14 108.82 296.91 109.8 294.66 110.81C293.49 111.32 292.29 111.86 291.12 112.38C289.3 113.19 287.47 114.01 285.63 114.84C284.35 115.42 283.04 116 281.75 116.59C279.99 117.38 278.21 118.18 276.43 118.99C275.09 119.59 273.75 120.2 272.4 120.81C270.59 121.64 268.77 122.46 266.94 123.3C265.65 123.89 264.35 124.48 263.04 125.07C261 126 258.94 126.93 256.89 127.88C255.86 128.35 254.85 128.81 253.82 129.28C253.14 129.6 252.45 129.92 251.75 130.23C250.05 131.01 248.36 131.78 246.65 132.57C243.35 134.08 240.03 135.6 236.69 137.12C236.61 137.15 236.54 137.19 236.48 137.22C235.15 137.82 233.82 138.44 232.49 139.04C232.32 139.12 232.14 139.2 231.98 139.27C230.91 139.76 229.84 140.25 228.76 140.74C228.75 140.74 228.74 140.75 228.74 140.75C228.13 141.03 227.52 141.31 226.91 141.59C226.41 141.81 225.89 142.05 225.38 142.28C224.07 142.88 222.76 143.49 221.44 144.08C221.18 144.2 220.93 144.31 220.68 144.43C220.22 144.64 219.78 144.84 219.32 145.06C218.07 145.63 216.82 146.2 215.56 146.77C214.87 147.08 214.16 147.41 213.47 147.72C213.25 147.82 213.02 147.92 212.81 148.02C211.75 148.5 210.68 148.98 209.62 149.46C208.96 149.76 208.3 150.05 207.66 150.35C207.02 150.64 206.39 150.92 205.75 151.21C205.25 151.43 204.73 151.67 204.22 151.9C203.77 152.1 203.34 152.3 202.89 152.49C202.56 152.65 202.22 152.79 201.89 152.95C200.49 153.58 199.1 154.2 197.71 154.83C197.46 154.94 197.22 155.05 196.97 155.16C196.71 155.27 196.46 155.38 196.2 155.51C195.61 155.77 195.02 156.03 194.44 156.29C193.11 156.88 191.79 157.47 190.48 158.05C190.12 158.21 189.77 158.37 189.41 158.53C189.06 158.69 188.71 158.84 188.35 159C188.34 159.01 188.32 159.01 188.29 159.02C187.11 159.54 185.92 160.07 184.74 160.59C183.95 160.94 183.17 161.28 182.38 161.63C182.22 161.7 182.08 161.76 181.93 161.83C181.64 161.95 181.35 162.09 181.07 162.21C180.38 162.51 179.69 162.81 178.99 163.11C178.19 163.47 177.37 163.82 176.57 164.17C175.74 164.54 174.91 164.9 174.08 165.26C173.6 165.46 173.12 165.67 172.64 165.89C172.05 166.15 171.45 166.4 170.85 166.66C169.53 167.23 168.23 167.8 166.91 168.36C166.32 168.62 165.73 168.88 165.12 169.14C163.26 169.93 161.4 170.73 159.54 171.52C159.12 171.7 158.68 171.89 158.26 172.07C157.72 172.29 157.19 172.52 156.65 172.75C155.73 173.13 154.81 173.52 153.9 173.91C153.14 174.22 152.38 174.55 151.62 174.86C151.22 175.03 150.81 175.19 150.4 175.36C150.12 175.48 149.83 175.61 149.54 175.73C149.12 175.91 148.68 176.08 148.26 176.25C147.45 176.6 146.64 176.92 145.84 177.25C144.8 177.67 143.77 178.11 142.74 178.52C142.39 178.67 142.06 178.81 141.71 178.94C141.2 179.15 140.69 179.35 140.19 179.57C139.1 180.02 138 180.45 136.91 180.9C136.16 181.2 135.41 181.5 134.67 181.8C134.47 181.88 134.27 181.96 134.07 182.03C133.05 182.44 132.05 182.83 131.04 183.24C130.38 183.51 129.71 183.76 129.05 184.03C128.48 184.25 127.92 184.48 127.35 184.7C126.78 184.92 126.21 185.14 125.64 185.36C124.97 185.63 124.3 185.9 123.63 186.15C123.27 186.28 122.92 186.42 122.56 186.56C121.56 186.95 120.54 187.33 119.53 187.72C119.3 187.81 119.06 187.9 118.82 187.99C118.61 188.08 118.38 188.16 118.17 188.25C117.5 188.5 116.84 188.75 116.17 189C115.02 189.44 113.88 189.87 112.73 190.29C112.37 190.42 112 190.56 111.64 190.69C111.31 190.81 110.97 190.94 110.64 191.06C110.61 191.07 110.58 191.08 110.55 191.09C109.48 191.49 108.41 191.88 107.33 192.27C106.58 192.54 105.85 192.81 105.11 193.07C104.92 193.14 104.73 193.22 104.54 193.28C104.33 193.35 104.13 193.43 103.91 193.5C103.24 193.73 102.58 193.97 101.91 194.2C101.2 194.46 100.47 194.71 99.76 194.97C99 195.24 98.24 195.49 97.48 195.76C96.99 195.93 96.5 196.09 96.01 196.27C95.51 196.44 95.01 196.62 94.5 196.78C93.05 197.28 91.61 197.76 90.17 198.24C90.05 198.28 89.92 198.33 89.79 198.37C89.68 198.4 89.57 198.44 89.46 198.48C89.42 198.49 89.36 198.51 89.3 198.52C87.59 199.09 85.9 199.64 84.21 200.18C83.82 200.3 83.43 200.43 83.04 200.55C82.55 200.71 82.07 200.86 81.59 201.01C80.78 201.27 79.95 201.53 79.15 201.78C78.5 201.98 77.86 202.17 77.21 202.37C76.74 202.52 76.27 202.66 75.8 202.79C75.65 202.83 75.5 202.89 75.35 202.94C74.94 203.06 74.52 203.17 74.11 203.3C73.44 203.5 72.78 203.7 72.11 203.89C71.18 204.16 70.25 204.43 69.32 204.69C68.99 204.78 68.65 204.88 68.32 204.98C67.93 205.08 67.55 205.19 67.16 205.29C66.13 205.58 65.11 205.86 64.08 206.14C63.49 206.3 62.9 206.45 62.32 206.61C62.28 206.62 62.23 206.63 62.19 206.64C62.07 206.67 61.96 206.71 61.83 206.74C60.79 207.01 59.76 207.26 58.74 207.52C58.41 207.61 58.05 207.7 57.71 207.79C57.67 207.8 57.62 207.81 57.58 207.82C57.07 207.94 56.56 208.07 56.06 208.19C55.58 208.3 55.1 208.42 54.61 208.54C53.84 208.72 53.06 208.91 52.29 209.09C51.82 209.19 51.36 209.29 50.89 209.4C50.31 209.52 49.73 209.66 49.16 209.78C49.08 209.8 48.99 209.82 48.91 209.84C48.22 210 47.54 210.13 46.86 210.28C46.39 210.37 45.93 210.47 45.48 210.56C44.79 210.71 44.1 210.84 43.4 210.97C42.95 211.06 42.5 211.14 42.05 211.23C41.5 211.33 40.96 211.43 40.42 211.53C40.22 211.56 40.02 211.6 39.81 211.64C38.81 211.81 37.81 211.99 36.82 212.14C36.76 212.15 36.71 212.16 36.65 212.17C36.25 212.24 35.86 212.28 35.47 212.35C35 212.42 34.54 212.5 34.07 212.56C33.2 212.68 32.32 212.81 31.46 212.93C31.04 212.99 30.6 213.04 30.18 213.09C30.18 213.09 30.1734 213.093 30.16 213.1C29.85 213.13 29.53 213.18 29.22 213.22C27.86 213.38 26.52 213.52 25.2 213.64C25.18 213.65 25.16 213.65 25.12 213.65C24.94 213.67 24.77 213.68 24.6 213.69C24.23 213.72 23.87 213.75 23.52 213.78C22.43 213.87 21.34 213.95 20.27 214C20 214.02 19.73 214.04 19.47 214.06C19.22 214.07 18.99 214.08 18.74 214.09C17.27 214.16 15.82 214.21 14.4 214.22L0.0400391 199.85C1.58004 199.35 3.13004 198.82 4.66004 198.29C5.10004 198.14 5.53004 197.99 5.97004 197.84C7.14004 197.43 8.31004 197.01 9.49004 196.59C9.88004 196.44 10.27 196.31 10.65 196.18C12.43 195.53 14.2 194.87 15.97 194.2C16.3 194.07 16.65 193.93 17 193.81C18.78 193.13 20.56 192.44 22.32 191.73C22.36 191.71 22.41 191.7 22.45 191.67C24.26 190.94 26.06 190.22 27.85 189.47C28.21 189.32 28.55 189.18 28.9 189.03C30.65 188.29 32.41 187.56 34.16 186.8C34.42 186.69 34.68 186.58 34.94 186.45C36.6 185.74 38.27 185 39.92 184.25C40.08 184.18 40.22 184.12 40.38 184.05C40.42 184.03 40.47 184.01 40.53 183.98C42.28 183.2 44.04 182.39 45.78 181.58C46.11 181.42 46.44 181.27 46.77 181.11C48.52 180.3 50.28 179.47 52.02 178.62C52.15 178.56 52.28 178.5 52.4 178.44C54.09 177.63 55.77 176.8 57.45 175.96C57.71 175.84 57.97 175.7 58.23 175.58C59.95 174.72 61.67 173.85 63.38 172.97C63.67 172.82 63.96 172.68 64.25 172.52C67.77 170.72 71.25 168.88 74.72 167.01C75.01 166.85 75.3 166.7 75.59 166.54C77.29 165.61 78.98 164.69 80.67 163.75C80.89 163.63 81.12 163.5 81.34 163.38C83 162.45 84.66 161.53 86.31 160.59C86.42 160.52 86.53 160.47 86.64 160.4C88.35 159.43 90.06 158.45 91.76 157.45C92.03 157.29 92.31 157.14 92.57 156.98C94.27 155.99 95.97 154.99 97.66 153.99C97.76 153.93 97.86 153.88 97.96 153.81C99.62 152.83 101.28 151.85 102.93 150.84C103.12 150.73 103.31 150.62 103.5 150.51C105.17 149.49 106.86 148.47 108.53 147.44C108.76 147.29 108.99 147.16 109.22 147.02C112.64 144.92 116.03 142.8 119.4 140.67C119.61 140.52 119.84 140.39 120.05 140.26C121.71 139.2 123.38 138.14 125.03 137.08C125.21 136.97 125.38 136.86 125.55 136.75C127.21 135.68 128.89 134.6 130.55 133.51C130.58 133.49 130.61 133.48 130.64 133.45C132.33 132.36 134 131.25 135.66 130.16C135.88 130.01 136.11 129.87 136.32 129.72C137.98 128.63 139.65 127.53 141.3 126.43C141.36 126.4 141.41 126.36 141.46 126.32C143.13 125.21 144.81 124.1 146.47 122.97C146.57 122.9 146.68 122.84 146.78 122.77C148.43 121.65 150.08 120.54 151.74 119.42C151.93 119.3 152.11 119.17 152.3 119.05C155.64 116.78 158.95 114.52 162.27 112.25C162.4 112.15 162.55 112.05 162.68 111.96C164.33 110.82 165.98 109.69 167.63 108.56C167.73 108.49 167.83 108.43 167.92 108.36C171.3 106.04 174.66 103.7 178.01 101.38C178.09 101.32 178.17 101.27 178.23 101.21C181.63 98.85 185.03 96.5 188.4 94.14C191.22 92.18 194.05 90.22 196.85 88.27C197.5 87.82 198.13 87.38 198.78 86.93C199.18 86.65 199.59 86.36 200.01 86.08C200.74 85.58 201.46 85.06 202.2 84.56C202.62 84.27 203.05 83.97 203.47 83.68C204.16 83.2 204.87 82.72 205.56 82.23C206.01 81.93 206.45 81.62 206.9 81.31C207.61 80.81 208.33 80.32 209.04 79.83C209.44 79.55 209.83 79.28 210.23 79.02C211.01 78.47 211.79 77.94 212.57 77.4C212.9 77.17 213.25 76.93 213.59 76.7C214.65 75.99 215.7 75.26 216.76 74.53C216.8 74.5 216.86 74.46 216.92 74.42C218.06 73.65 219.2 72.87 220.34 72.1L220.94 71.7C221.84 71.07 222.75 70.46 223.66 69.85C223.99 69.63 224.32 69.4 224.65 69.18C225.43 68.66 226.2 68.13 226.98 67.61C227.36 67.35 227.73 67.11 228.11 66.85C228.85 66.36 229.58 65.87 230.32 65.37C230.71 65.11 231.1 64.86 231.48 64.6C232.23 64.11 232.96 63.62 233.7 63.13C234.07 62.88 234.44 62.64 234.81 62.39C235.6 61.87 236.4 61.35 237.18 60.83C237.5 60.63 237.82 60.42 238.13 60.2C239.15 59.54 240.16 58.87 241.18 58.21C241.27 58.15 241.35 58.1 241.43 58.05C242.55 57.32 243.65 56.6 244.77 55.88C244.99 55.73 245.21 55.6 245.43 55.46C246.3 54.9 247.18 54.33 248.05 53.77C248.38 53.56 248.73 53.35 249.07 53.12C249.83 52.64 250.58 52.16 251.34 51.69C251.71 51.44 252.09 51.21 252.46 50.98C253.19 50.53 253.91 50.08 254.64 49.62C255.03 49.39 255.41 49.14 255.8 48.91C256.53 48.45 257.24 48.01 257.97 47.57C258.34 47.34 258.71 47.1 259.09 46.88C259.86 46.41 260.63 45.94 261.39 45.47C261.71 45.27 262.04 45.08 262.35 44.88C263.37 44.27 264.37 43.66 265.39 43.06C265.46 43.02 265.52 42.97 265.6 42.93C266.69 42.27 267.79 41.62 268.89 40.98C269.12 40.85 269.37 40.7 269.62 40.56C270.46 40.07 271.28 39.59 272.12 39.1C272.48 38.9 272.83 38.69 273.19 38.49C273.9 38.08 274.63 37.65 275.36 37.25C275.75 37.02 276.14 36.79 276.54 36.57C277.22 36.18 277.91 35.8 278.61 35.41C279.01 35.19 279.41 34.96 279.82 34.74C280.51 34.35 281.2 33.97 281.9 33.59C282.29 33.38 282.67 33.15 283.06 32.94C283.81 32.54 284.54 32.14 285.29 31.73C285.61 31.55 285.95 31.37 286.28 31.19C287.26 30.67 288.24 30.15 289.22 29.63C289.31 29.59 289.4 29.54 289.49 29.5C290.57 28.93 291.66 28.37 292.73 27.83C293.01 27.68 293.29 27.54 293.56 27.41C294.35 27.01 295.15 26.61 295.94 26.2C296.31 26.02 296.69 25.83 297.06 25.64C297.75 25.31 298.46 24.96 299.15 24.62C299.55 24.42 299.96 24.22 300.38 24.02C301.04 23.7 301.71 23.38 302.38 23.06C302.78 22.87 303.19 22.67 303.61 22.48C304.28 22.17 304.96 21.85 305.63 21.54C306.03 21.35 306.42 21.17 306.82 20.98C307.55 20.66 308.26 20.33 308.99 20.01C309.32 19.85 309.67 19.7 310.02 19.54C311 19.1 311.97 18.68 312.96 18.26C313.04 18.23 313.13 18.19 313.21 18.16C314.28 17.7 315.34 17.24 316.41 16.8C316.71 16.68 317 16.57 317.3 16.44C318.06 16.13 318.82 15.81 319.59 15.5C319.97 15.34 320.36 15.2 320.75 15.04C321.42 14.77 322.1 14.52 322.77 14.25C323.18 14.09 323.6 13.94 324.02 13.78C324.67 13.52 325.33 13.28 325.97 13.04C326.39 12.88 326.81 12.73 327.23 12.57C327.89 12.34 328.55 12.1 329.21 11.87C329.62 11.72 330.02 11.58 330.43 11.43C331.13 11.18 331.85 10.95 332.55 10.7C332.91 10.59 333.25 10.47 333.61 10.34C334.57 10.03 335.54 9.71 336.51 9.4C336.6 9.38 336.69 9.34 336.78 9.31C337.84 8.99 338.89 8.66 339.95 8.34C340.27 8.25 340.59 8.16 340.91 8.06C341.65 7.85 342.38 7.64 343.12 7.42C343.52 7.31 343.91 7.21 344.31 7.1C344.97 6.92 345.64 6.73 346.3 6.56C346.72 6.45 347.15 6.34 347.56 6.23C348.21 6.07 348.85 5.91 349.49 5.75C349.91 5.65 350.34 5.55 350.76 5.44C351.42 5.29 352.08 5.14 352.72 4.99C353.13 4.9 353.53 4.8 353.94 4.71C354.65 4.55 355.37 4.41 356.08 4.26C356.43 4.18 356.77 4.11 357.12 4.04C358.11 3.85 359.11 3.65 360.1 3.47C360.17 3.46 360.22 3.45 360.29 3.44C361.34 3.25 362.4 3.07 363.46 2.9C363.79 2.84 364.12 2.79 364.45 2.74C365.18 2.63 365.9 2.52 366.63 2.42C367.03 2.35 367.43 2.31 367.85 2.25C368.5 2.16 369.16 2.07 369.81 1.99C370.23 1.93 370.66 1.89 371.08 1.84C371.73 1.76 372.36 1.69 373.01 1.63C373.43 1.59 373.86 1.55 374.29 1.51C374.94 1.45 375.6 1.4 376.25 1.34C376.65 1.31 377.06 1.27 377.47 1.24C378.18 1.2 378.9 1.15 379.61 1.11C379.96 1.09 380.3 1.07 380.65 1.05C381.67 0.99 382.69 0.95 383.71 0.93C383.74 0.93 383.79 0.92 383.83 0.92C384.89 0.89 385.95 0.88 387.01 0.86H388.03C388.74 0.86 389.47 0.86 390.2 0.87C390.6 0.88 391.01 0.89 391.42 0.9C392.08 0.91 392.74 0.93 393.4 0.96C393.84 0.97 394.26 0.99 394.68 1.02C395.33 1.05 395.97 1.09 396.61 1.12C397.05 1.14 397.47 1.18 397.9 1.2C398.56 1.26 399.22 1.3 399.88 1.36C400.28 1.39 400.69 1.43 401.11 1.47C401.82 1.54 402.55 1.6 403.26 1.68C403.61 1.72 403.95 1.76 404.3 1.79C405.37 1.91 406.43 2.05 407.5 2.2C409.09 2.41 410.66 2.67 412.22 2.94C412.72 3.02 413.22 3.12 413.73 3.21C414.79 3.4 415.84 3.6 416.88 3.81C417.48 3.93 418.07 4.06 418.67 4.19C419.61 4.39 420.55 4.6 421.48 4.82C422.09 4.98 422.71 5.12 423.32 5.28C423.78 5.39 424.25 5.49 424.69 5.61C425.29 5.77 425.88 5.93 426.49 6.1C426.77 6.18 427.05 6.26 427.32 6.33C428.69 6.71 430.04 7.12 431.38 7.55C431.68 7.64 431.97 7.74 432.26 7.83C433.48 8.23 434.67 8.63 435.87 9.06C436.06 9.14 436.25 9.19 436.45 9.27C436.55 9.3 436.65 9.34 436.75 9.37C437.97 9.82 439.18 10.3 440.38 10.78C440.65 10.89 440.9 10.99 441.17 11.1C442.48 11.64 443.78 12.19 445.05 12.77C445.13 12.8 445.21 12.84 445.28 12.88C446.51 13.44 447.72 14.02 448.92 14.62C449.15 14.73 449.38 14.84 449.61 14.95C450.83 15.58 452.03 16.21 453.23 16.88C453.45 17 453.67 17.13 453.89 17.25C455.03 17.9 456.17 18.56 457.28 19.25C457.37 19.31 457.46 19.35 457.55 19.41C458.72 20.14 459.86 20.88 461 21.64C461.23 21.81 461.47 21.96 461.7 22.12C462.82 22.89 463.91 23.67 464.99 24.48C465.14 24.59 465.27 24.7 465.41 24.8C466.41 25.56 467.4 26.33 468.37 27.12C468.55 27.27 468.73 27.41 468.91 27.56C469.94 28.42 470.94 29.29 471.94 30.18C472.14 30.37 472.35 30.56 472.55 30.75C473.57 31.68 474.56 32.61 475.53 33.6L489.9 47.96C491.04 49.11 492.16 50.28 493.24 51.49C493.62 51.9 493.98 52.35 494.35 52.77C495.05 53.57 495.75 54.37 496.43 55.19C496.84 55.7 497.24 56.25 497.65 56.78C498.25 57.55 498.84 58.31 499.42 59.09C499.83 59.67 500.23 60.27 500.64 60.85C501.18 61.62 501.72 62.39 502.24 63.17C502.64 63.8 503.02 64.43 503.41 65.07C503.9 65.86 504.39 66.64 504.86 67.45C505.24 68.11 505.6 68.79 505.97 69.47C506.42 70.27 506.86 71.09 507.29 71.91C507.66 72.61 507.99 73.33 508.34 74.04C508.74 74.88 509.14 75.7 509.52 76.56C509.85 77.3 510.17 78.06 510.48 78.81C510.85 79.66 511.21 80.52 511.54 81.39C511.64 81.65 511.75 81.88 511.85 82.14C512.26 83.25 512.66 84.36 513.06 85.49C513.08 85.55 513.09 85.61 513.12 85.67C513.61 87.11 514.07 88.58 514.52 90.07C514.62 90.4 514.72 90.75 514.81 91.1C515.26 92.64 515.67 94.2 516.06 95.8C516.09 95.95 516.13 96.1 516.16 96.25C516.51 97.72 516.83 99.22 517.13 100.74C517.2 101.11 517.28 101.48 517.34 101.85C517.65 103.49 517.93 105.14 518.18 106.83C518.22 107.09 518.26 107.34 518.29 107.6C518.41 108.49 518.55 109.39 518.66 110.29C518.74 110.94 518.81 111.61 518.87 112.27C518.9 112.58 518.94 112.91 518.97 113.23C519.15 114.95 519.29 116.69 519.41 118.45C519.43 118.82 519.45 119.18 519.47 119.54C519.58 121.38 519.66 123.24 519.7 125.12C519.72 125.99 519.72 126.87 519.71 127.75L519.63 127.89Z" fill="black"/>
<path d="M404.85 66.46C430.54 76.41 446.64 96.96 456.68 118.68C466.58 140.1 470.99 163.47 472.96 181.34C474.2 179.11 475.45 176.77 476.71 174.34C486.8 154.83 495.94 131.19 495.51 111.11C494.84 80.08 484.84 57.32 469.37 41.42C453.79 25.42 431.87 15.59 406.09 11.99C347.07 3.76 288.79 37.27 222.55 82.51C213.23 88.88 203.77 95.46 194.16 102.15C163.03 123.82 130.33 146.57 95.64 166.6C110.45 161.06 125.84 154.82 141.51 148.16C169.23 136.38 197.65 123.36 225.18 110.75L225.99 110.38C253.17 97.93 279.51 85.86 303.17 75.91C345.9 57.94 379.17 56.51 404.85 66.46Z" fill="#FA8D0B"/>
<path fill-rule="evenodd" clip-rule="evenodd" d="M702.87 273.9C700.51 274.68 698.15 275.48 695.8 276.31C695.71 276.34 695.62 276.38 695.52 276.41C693.23 277.21 690.96 278.04 688.7 278.88C688.54 278.95 688.39 278.99 688.24 279.06C686.46 279.72 684.68 280.41 682.92 281.1C682.59 281.22 682.26 281.36 681.94 281.48C678.36 282.9 674.8 284.36 671.26 285.86C670.95 285.98 670.65 286.12 670.33 286.25C668.59 287 666.85 287.74 665.12 288.51C664.9 288.61 664.67 288.71 664.45 288.81C662.81 289.53 661.18 290.27 659.57 291.02C659.36 291.12 659.15 291.21 658.93 291.31C657.21 292.1 655.5 292.9 653.79 293.72C653.48 293.86 653.17 294.01 652.85 294.15C649.39 295.81 645.95 297.49 642.53 299.22C642.21 299.39 641.89 299.54 641.57 299.7C639.89 300.56 638.21 301.42 636.55 302.27C636.34 302.38 636.13 302.49 635.91 302.6C634.36 303.41 632.81 304.23 631.26 305.05C631 305.18 630.75 305.32 630.49 305.46C628.84 306.34 627.2 307.22 625.56 308.12C625.25 308.29 624.92 308.47 624.6 308.64C622.99 309.52 621.39 310.41 619.78 311.32C619.71 311.35 619.66 311.39 619.59 311.42C617.94 312.35 616.3 313.28 614.66 314.22C614.31 314.41 613.97 314.61 613.62 314.81C612.01 315.74 610.41 316.66 608.8 317.6C608.59 317.72 608.38 317.85 608.16 317.97C606.7 318.83 605.24 319.7 603.78 320.56C603.47 320.75 603.16 320.94 602.84 321.13C601.28 322.06 599.72 323 598.16 323.94L597.12 324.58C595.68 325.46 594.24 326.34 592.81 327.22C592.62 327.34 592.43 327.45 592.24 327.57C590.69 328.54 589.14 329.5 587.59 330.47C587.21 330.72 586.82 330.95 586.44 331.19C584.91 332.15 583.39 333.12 581.86 334.09C581.63 334.23 581.39 334.38 581.17 334.52C579.8 335.39 578.44 336.27 577.08 337.14C576.7 337.39 576.32 337.63 575.94 337.88C574.47 338.83 573 339.79 571.53 340.74C571.14 341 570.76 341.24 570.37 341.5C569.08 342.35 567.78 343.19 566.49 344.05C566.2 344.23 565.92 344.42 565.63 344.61C564.16 345.58 562.7 346.55 561.24 347.53L559.97 348.37C558.51 349.35 557.06 350.32 555.6 351.3C555.35 351.47 555.11 351.63 554.86 351.8C553.57 352.66 552.29 353.53 551 354.4C550.58 354.69 550.15 354.98 549.73 355.27C548.31 356.22 546.91 357.19 545.49 358.15C545.1 358.42 544.7 358.69 544.3 358.96C543.12 359.77 541.93 360.59 540.74 361.4C540.37 361.65 540 361.9 539.65 362.15C538.25 363.11 536.84 364.08 535.45 365.04C535 365.35 534.56 365.65 534.12 365.97C532.74 366.92 531.37 367.86 529.98 368.82C529.77 368.96 529.55 369.12 529.33 369.27C527.98 370.21 526.64 371.13 525.29 372.07C524.93 372.32 524.58 372.56 524.22 372.82C521.02 375.04 517.84 377.25 514.68 379.45C513.71 380.13 512.73 380.8 511.76 381.48C511.39 381.74 511.02 381.99 510.67 382.24C510.08 382.65 509.49 383.06 508.9 383.48C507.51 384.45 506.1 385.42 504.71 386.39C504.5 386.53 504.29 386.68 504.07 386.84C502.73 387.77 501.38 388.69 500.05 389.62C499.74 389.84 499.41 390.07 499.1 390.29C497.64 391.29 496.18 392.3 494.73 393.3C494.45 393.5 494.16 393.69 493.88 393.89C492.43 394.88 490.99 395.87 489.56 396.87C489.47 396.93 489.38 396.99 489.29 397.05C487.79 398.09 486.28 399.11 484.79 400.13C484.52 400.32 484.25 400.5 483.99 400.68C482.5 401.69 481 402.71 479.51 403.72C479.34 403.84 479.16 403.95 478.99 404.08C477.59 405.03 476.18 405.97 474.78 406.92C474.59 407.04 474.39 407.18 474.2 407.3C472.74 408.28 471.27 409.26 469.8 410.23C469.53 410.42 469.25 410.6 468.99 410.78C467.5 411.77 466.01 412.75 464.53 413.72C464.44 413.78 464.35 413.83 464.27 413.89C462.85 414.82 461.44 415.74 460.02 416.65C459.76 416.82 459.5 416.98 459.24 417.15C457.8 418.09 456.36 419.01 454.93 419.93C454.66 420.1 454.41 420.26 454.14 420.43C452.7 421.34 451.25 422.26 449.83 423.16C449.77 423.19 449.72 423.23 449.67 423.26C448.21 424.17 446.75 425.08 445.29 425.98C445 426.16 444.71 426.34 444.42 426.52C442.99 427.4 441.57 428.27 440.14 429.13C439.93 429.26 439.71 429.4 439.48 429.53C438.14 430.33 436.8 431.14 435.47 431.93C435.28 432.04 435.08 432.16 434.89 432.28C433.46 433.12 432.05 433.94 430.63 434.77C430.33 434.95 430.03 435.12 429.73 435.29C428.3 436.1 426.88 436.93 425.44 437.73C425.32 437.8 425.18 437.87 425.06 437.94C423.71 438.7 422.36 439.44 421.01 440.19C420.74 440.33 420.49 440.48 420.22 440.62C418.82 441.38 417.42 442.14 416.02 442.88C415.74 443.02 415.46 443.18 415.17 443.33C413.77 444.08 412.36 444.81 410.96 445.54C410.92 445.56 410.87 445.58 410.83 445.61C409.39 446.35 407.97 447.06 406.54 447.77C406.25 447.91 405.95 448.06 405.66 448.2C404.26 448.89 402.86 449.57 401.47 450.24C401.24 450.35 401 450.46 400.77 450.57C399.45 451.19 398.14 451.81 396.82 452.41C396.64 452.5 396.45 452.58 396.27 452.67C394.87 453.31 393.46 453.93 392.06 454.55C391.77 454.67 391.48 454.81 391.19 454.93C389.77 455.54 388.36 456.14 386.94 456.74C386.81 456.8 386.66 456.85 386.52 456.91C385.19 457.47 383.86 458 382.52 458.53C382.29 458.63 382.04 458.73 381.8 458.82C380.41 459.37 379.01 459.9 377.61 460.43C377.34 460.53 377.07 460.62 376.8 460.72C373.92 461.78 371.05 462.77 368.17 463.71C367.91 463.79 367.65 463.88 367.38 463.97C365.98 464.42 364.56 464.85 363.16 465.26C362.95 465.33 362.74 465.39 362.52 465.45C361.16 465.85 359.8 466.24 358.43 466.61C358.34 466.63 358.25 466.65 358.16 466.69C358.13 466.69 358.08 466.7 358.05 466.71C356.86 467.03 355.68 467.33 354.49 467.64C354.23 467.7 353.99 467.75 353.73 467.82C352.79 468.04 351.87 468.27 350.93 468.48C350.58 468.56 350.25 468.64 349.92 468.71C348.96 468.92 348.01 469.12 347.06 469.31C346.84 469.37 346.6 469.41 346.37 469.45C345.19 469.7 344.01 469.92 342.83 470.13C342.61 470.16 342.38 470.21 342.16 470.24C341.2 470.41 340.24 470.57 339.28 470.72C338.95 470.78 338.6 470.82 338.27 470.88C337.34 471.02 336.41 471.15 335.48 471.28C335.22 471.31 334.96 471.35 334.7 471.38C333.52 471.54 332.33 471.67 331.14 471.8C330.96 471.81 330.79 471.83 330.62 471.84C329.62 471.94 328.6 472.04 327.6 472.12C327.28 472.15 326.94 472.18 326.62 472.2C325.69 472.27 324.77 472.33 323.84 472.39C323.56 472.4 323.29 472.42 323.02 472.43C321.83 472.5 320.63 472.54 319.44 472.57C319.33 472.57 319.22 472.57 319.11 472.58C318.05 472.6 316.98 472.61 315.91 472.62H314.94C314.03 472.61 313.11 472.6 312.2 472.58C311.9 472.58 311.61 472.57 311.31 472.57C310.12 472.54 308.92 472.49 307.73 472.43C307.69 472.43 307.64 472.42 307.6 472.42C306.47 472.35 305.34 472.28 304.21 472.19C303.88 472.17 303.54 472.13 303.21 472.11C302.33 472.03 301.44 471.94 300.56 471.85C300.23 471.82 299.89 471.78 299.55 471.74C298.38 471.61 297.2 471.46 296.02 471.29C294.75 471.12 293.48 470.92 292.23 470.72C292.19 470.71 292.15 470.7 292.11 470.7C291.8 470.64 291.49 470.59 291.16 470.53C290.2 470.36 289.23 470.2 288.27 470.02C287.81 469.93 287.36 469.83 286.9 469.73C286.1 469.57 285.28 469.42 284.49 469.24C283.98 469.13 283.49 469.01 282.97 468.89C282.22 468.71 281.48 468.54 280.73 468.37C280.62 468.34 280.52 468.31 280.41 468.29C280.23 468.25 280.06 468.2 279.89 468.16C279.46 468.05 279.02 467.93 278.6 467.81C278.1 467.68 277.6 467.55 277.11 467.42C276.4 467.22 275.68 467.01 274.98 466.81C274.56 466.69 274.14 466.56 273.73 466.44C272.92 466.19 272.11 465.94 271.31 465.67C271 465.57 270.69 465.48 270.37 465.37C269.26 465 268.15 464.62 267.05 464.22L251.81 458.67C250.58 458.22 249.37 457.76 248.17 457.28C247.84 457.15 247.5 457 247.18 456.87C246.31 456.51 245.45 456.16 244.59 455.79C244.2 455.61 243.81 455.42 243.41 455.24C242.64 454.89 241.86 454.54 241.1 454.18C240.67 453.97 240.25 453.76 239.83 453.54C239.11 453.18 238.39 452.84 237.68 452.46C237.25 452.24 236.81 451.99 236.38 451.76C235.7 451.39 235.02 451.04 234.34 450.65C233.91 450.4 233.47 450.15 233.04 449.89C232.39 449.51 231.74 449.12 231.09 448.73C230.66 448.46 230.22 448.18 229.79 447.91C229.17 447.51 228.54 447.12 227.92 446.71C227.49 446.42 227.06 446.12 226.63 445.82C226.03 445.41 225.43 445 224.85 444.57C224.42 444.26 223.99 443.95 223.56 443.62C222.99 443.2 222.41 442.76 221.85 442.33C221.42 442 221 441.66 220.58 441.33C220.03 440.88 219.49 440.44 218.94 439.98C218.52 439.62 218.12 439.27 217.7 438.91C217.16 438.45 216.64 438 216.13 437.53C215.72 437.15 215.32 436.77 214.92 436.39C214.41 435.91 213.92 435.43 213.42 434.95C213.03 434.56 212.63 434.16 212.24 433.76C211.76 433.27 211.28 432.78 210.81 432.28C210.42 431.87 210.03 431.44 209.65 431.02C209.19 430.52 208.74 430.01 208.29 429.49C207.91 429.06 207.54 428.61 207.18 428.17C206.75 427.65 206.31 427.11 205.89 426.59C205.52 426.13 205.17 425.68 204.81 425.21C204.62 424.96 204.42 424.72 204.23 424.46C204 424.15 203.76 423.82 203.53 423.5C203.24 423.1 202.94 422.69 202.65 422.27C202.22 421.66 201.79 421.04 201.37 420.42C201.1 420.01 200.82 419.61 200.56 419.19C200.13 418.52 199.7 417.84 199.28 417.16C199.05 416.77 198.81 416.4 198.58 416.01C198.09 415.2 197.62 414.37 197.16 413.54C197 413.27 196.85 413 196.7 412.73C196.09 411.62 195.5 410.49 194.93 409.33C194.82 409.11 194.72 408.87 194.61 408.65C194.15 407.72 193.72 406.79 193.28 405.84C193.1 405.43 192.92 405 192.74 404.58C192.41 403.8 192.06 403.02 191.75 402.23C191.55 401.75 191.37 401.26 191.18 400.78C190.89 400.03 190.6 399.28 190.33 398.52C190.14 398 189.96 397.47 189.78 396.95C189.51 396.2 189.27 395.45 189.02 394.68C188.84 394.14 188.67 393.6 188.52 393.06C188.29 392.28 188.05 391.5 187.84 390.72C187.68 390.17 187.53 389.62 187.38 389.07C187.17 388.26 186.97 387.43 186.77 386.61C186.64 386.06 186.5 385.53 186.38 384.97C186.18 384.09 186 383.2 185.81 382.31C185.71 381.8 185.6 381.3 185.51 380.78C185.3 379.7 185.12 378.6 184.93 377.49C184.89 377.16 184.82 376.82 184.76 376.49C184.54 375.03 184.34 373.56 184.15 372.06C184.12 371.73 184.08 371.38 184.05 371.03C183.93 370 183.8 368.98 183.72 367.93C183.71 367.81 183.7 367.7 183.69 367.57C183.6 366.48 183.52 365.35 183.44 364.24C183.41 363.67 183.36 363.1 183.33 362.52C183.23 360.83 183.16 359.1 183.13 357.35C182.15 312.13 223.57 255.61 223.57 255.61L238.82 261.16C238.82 261.16 238.82 261.27 238.81 261.46V261.49C238.81 261.59 238.8 261.71 238.8 261.85V261.95C238.8 262.06 238.79 262.2 238.79 262.34V262.51C238.79 262.7 238.78 262.9 238.78 263.12V263.87C238.78 263.94 238.78 264.01 238.77 264.08V264.99C238.77 265.3 238.77 265.64 238.78 265.98V267.09C238.79 267.19 238.79 267.29 238.79 267.4C238.79 267.94 238.8 268.5 238.81 269.09C238.82 269.37 238.82 269.65 238.83 269.94C238.83 270.05 238.84 270.17 238.84 270.3C238.85 270.68 238.86 271.08 238.87 271.47C238.87 271.57 238.87 271.67 238.88 271.77C238.89 272.26 238.91 272.77 238.94 273.3C238.94 273.4 238.94 273.51 238.95 273.62C238.96 274.05 238.98 274.5 239.01 274.95C239.01 275.09 239.02 275.23 239.03 275.37C239.05 275.94 239.09 276.52 239.11 277.11C239.12 277.11 239.12 277.12 239.12 277.12C239.14 277.7 239.18 278.29 239.22 278.88C239.23 279.05 239.24 279.21 239.25 279.38C239.27 279.88 239.31 280.41 239.35 280.93C239.36 281.05 239.36 281.18 239.37 281.31C239.41 281.95 239.46 282.59 239.51 283.25C239.52 283.39 239.53 283.54 239.54 283.7C239.55 283.83 239.56 283.99 239.58 284.13C239.6 284.52 239.64 284.92 239.67 285.32C239.69 285.51 239.7 285.69 239.73 285.87C239.79 286.56 239.85 287.26 239.92 287.99C239.92 288.01 239.93 288.03 239.93 288.07C240 288.75 240.06 289.44 240.14 290.14C240.16 290.34 240.18 290.53 240.2 290.73C240.27 291.34 240.34 291.96 240.41 292.58C240.42 292.72 240.44 292.86 240.45 293C240.54 293.75 240.63 294.5 240.73 295.27C240.75 295.44 240.77 295.6 240.8 295.78C240.88 296.4 240.97 297.04 241.05 297.67C241.08 297.87 241.11 298.07 241.14 298.27C241.24 299.06 241.36 299.86 241.47 300.67C241.48 300.73 241.49 300.77 241.49 300.83C241.6 301.59 241.72 302.35 241.85 303.12C241.88 303.33 241.92 303.55 241.95 303.77C242.06 304.46 242.18 305.15 242.3 305.85C242.33 305.99 242.36 306.14 242.38 306.3C242.52 307.12 242.67 307.96 242.83 308.8C242.86 308.99 242.91 309.18 242.94 309.38C243.06 310.06 243.2 310.75 243.33 311.43C243.37 311.64 243.42 311.85 243.45 312.07C243.63 312.93 243.8 313.8 243.99 314.67C244 314.74 244.02 314.8 244.03 314.87C244.2 315.66 244.38 316.46 244.55 317.27C244.61 317.5 244.66 317.74 244.71 317.97C244.89 318.71 245.06 319.44 245.23 320.18C245.26 320.34 245.3 320.48 245.33 320.63C245.54 321.51 245.76 322.38 245.99 323.26C246.05 323.46 246.1 323.67 246.16 323.87C246.34 324.58 246.53 325.29 246.73 326C246.79 326.22 246.84 326.45 246.91 326.67C247.16 327.55 247.4 328.44 247.67 329.32C247.69 329.41 247.71 329.5 247.75 329.58C247.98 330.38 248.23 331.19 248.47 331.99C248.55 332.24 248.61 332.48 248.69 332.73C248.94 333.48 249.17 334.23 249.43 334.98C249.47 335.12 249.52 335.27 249.56 335.41C249.86 336.29 250.16 337.17 250.46 338.05C250.54 338.26 250.62 338.47 250.69 338.69C250.94 339.39 251.19 340.09 251.46 340.8C251.54 341.02 251.63 341.26 251.71 341.48C252.04 342.36 252.38 343.24 252.74 344.11C252.77 344.21 252.82 344.3 252.85 344.4C253.16 345.18 253.49 345.96 253.82 346.74C253.92 346.97 254.02 347.22 254.12 347.45C254.44 348.2 254.77 348.93 255.09 349.67C255.16 349.8 255.21 349.94 255.27 350.08C255.66 350.93 256.06 351.79 256.46 352.63C256.56 352.84 256.67 353.05 256.77 353.27C257.09 353.94 257.43 354.61 257.76 355.28C257.87 355.49 257.98 355.71 258.09 355.94C258.52 356.78 258.96 357.61 259.41 358.44C259.48 358.55 259.54 358.66 259.6 358.77C259.98 359.46 260.37 360.15 260.77 360.84C260.96 361.16 261.14 361.49 261.33 361.8C261.65 362.35 261.97 362.88 262.3 363.42C262.49 363.73 262.69 364.04 262.88 364.37C263.23 364.92 263.58 365.47 263.94 366.02C264.12 366.3 264.3 366.58 264.49 366.86C264.98 367.61 265.49 368.34 266.01 369.08C266.05 369.15 266.1 369.21 266.15 369.28C266.71 370.08 267.29 370.86 267.87 371.63C268.06 371.89 268.26 372.14 268.45 372.4C268.86 372.92 269.26 373.44 269.68 373.96C269.91 374.25 270.15 374.53 270.39 374.82C270.78 375.3 271.17 375.77 271.57 376.24C271.83 376.53 272.07 376.82 272.33 377.11C272.74 377.58 273.18 378.06 273.6 378.53C273.83 378.79 274.07 379.04 274.31 379.29C274.85 379.87 275.39 380.43 275.95 380.98C276.08 381.11 276.22 381.26 276.36 381.39C277.05 382.08 277.76 382.76 278.49 383.42C278.69 383.61 278.9 383.79 279.1 383.98C279.62 384.45 280.16 384.92 280.71 385.38C280.98 385.6 281.26 385.84 281.52 386.06C282.02 386.47 282.51 386.87 283.02 387.28C283.31 387.51 283.6 387.74 283.89 387.96C283.92 387.98 283.95 387.99 283.97 388.02C284.46 388.4 284.97 388.77 285.47 389.13C285.75 389.34 286.03 389.54 286.32 389.74C286.46 389.84 286.62 389.94 286.78 390.05C287.26 390.38 287.74 390.71 288.24 391.03C288.43 391.16 288.62 391.29 288.81 391.42C289.06 391.58 289.31 391.72 289.56 391.88C290.35 392.38 291.17 392.87 291.99 393.35C292.29 393.52 292.6 393.68 292.9 393.85C292.98 393.89 293.04 393.93 293.11 393.97C293.83 394.37 294.56 394.75 295.31 395.13C295.6 395.29 295.91 395.43 296.21 395.59C296.22 395.59 296.24 395.59 296.25 395.6C297.42 395.89 298.6 396.16 299.82 396.39C299.98 396.42 300.14 396.46 300.31 396.49C301.58 396.74 302.86 396.96 304.17 397.15C305.12 397.29 306.08 397.42 307.05 397.53C307.33 397.55 307.62 397.59 307.91 397.62C308.61 397.69 309.33 397.75 310.04 397.81C310.36 397.84 310.69 397.87 311.01 397.89C311.79 397.95 312.58 397.99 313.37 398.02C313.6 398.03 313.83 398.05 314.06 398.05C315.07 398.09 316.09 398.12 317.13 398.13H317.99C318.76 398.13 319.53 398.12 320.31 398.11C320.69 398.1 321.07 398.09 321.45 398.08C322.19 398.06 322.92 398.02 323.67 397.98C324.04 397.97 324.39 397.95 324.76 397.92C325.83 397.85 326.91 397.78 328 397.69C328.2 397.67 328.41 397.65 328.61 397.62C329.52 397.53 330.45 397.44 331.37 397.33C331.8 397.29 332.23 397.23 332.65 397.17C333.4 397.07 334.13 396.97 334.88 396.87C335.34 396.8 335.79 396.74 336.25 396.67C337.06 396.54 337.89 396.4 338.72 396.26C339.09 396.2 339.46 396.15 339.82 396.08C340.96 395.87 342.12 395.65 343.29 395.41C343.74 395.31 344.19 395.21 344.65 395.11C345.43 394.94 346.21 394.78 347 394.6C347.52 394.48 348.05 394.35 348.57 394.23C349.34 394.04 350.12 393.85 350.9 393.65C351.4 393.52 351.9 393.39 352.42 393.26C353.59 392.95 354.78 392.62 355.99 392.28C356.44 392.15 356.89 392.01 357.34 391.88C358.23 391.62 359.12 391.36 360.03 391.08C360.6 390.9 361.18 390.71 361.75 390.53C362.54 390.27 363.32 390.02 364.11 389.75C364.73 389.55 365.35 389.35 365.97 389.13C366.51 388.95 367.05 388.75 367.6 388.56C368.28 388.33 368.96 388.08 369.65 387.84C370.26 387.62 370.9 387.38 371.52 387.15C372.14 386.92 372.76 386.68 373.39 386.45C374.15 386.15 374.93 385.85 375.71 385.54C376.21 385.35 376.71 385.15 377.21 384.95C378.5 384.43 379.81 383.89 381.13 383.34C382.99 382.55 384.89 381.75 386.78 380.94L388.65 380.14C390.22 379.46 391.8 378.78 393.39 378.09C393.75 377.93 394.1 377.79 394.45 377.63C396.57 376.72 398.7 375.78 400.85 374.84C401.51 374.55 402.15 374.26 402.81 373.97C404.85 373.07 406.9 372.16 408.97 371.24C409.65 370.94 410.34 370.63 411.02 370.33C412.59 369.63 414.16 368.93 415.75 368.22C416.57 367.84 417.4 367.47 418.24 367.11C420.2 366.23 422.16 365.34 424.15 364.45C425.09 364.02 426.03 363.59 426.99 363.16C428.52 362.47 430.07 361.77 431.62 361.06C432.87 360.49 434.12 359.92 435.38 359.34C436.93 358.64 438.47 357.94 440.03 357.22C440.93 356.81 441.84 356.41 442.74 355.99C444.98 354.95 447.23 353.93 449.51 352.89C449.73 352.79 449.96 352.68 450.18 352.58C452.79 351.39 455.4 350.19 458.02 348.99C466.52 345.1 475.12 341.15 483.77 337.22C484.16 337.04 484.55 336.87 484.94 336.7C486.09 336.18 487.24 335.65 488.37 335.14C489.07 334.82 489.76 334.5 490.47 334.19C491.5 333.72 492.51 333.25 493.54 332.8C494.34 332.44 495.13 332.08 495.94 331.72C496.91 331.27 497.89 330.84 498.87 330.39C499.73 330.01 500.58 329.62 501.43 329.24C502.36 328.82 503.28 328.4 504.21 327.99C505.12 327.58 506.03 327.18 506.94 326.76C507.83 326.36 508.73 325.97 509.63 325.57C510.56 325.16 511.48 324.75 512.41 324.33C513.3 323.93 514.18 323.54 515.06 323.15C516.02 322.73 516.97 322.31 517.91 321.89C518.77 321.51 519.63 321.13 520.48 320.75C521.46 320.32 522.44 319.89 523.42 319.46C524.26 319.09 525.08 318.74 525.91 318.38C526.9 317.93 527.91 317.5 528.91 317.06C529.72 316.7 530.54 316.36 531.35 316C532.39 315.55 533.42 315.11 534.46 314.65C535.23 314.33 535.99 313.99 536.76 313.67C537.86 313.19 538.97 312.72 540.07 312.25C540.77 311.95 541.47 311.65 542.18 311.35C543.42 310.83 544.65 310.3 545.88 309.78C546.45 309.55 547.01 309.31 547.56 309.07C551.16 307.55 554.75 306.07 558.32 304.6C558.82 304.4 559.31 304.2 559.81 303.99C561.09 303.47 562.37 302.94 563.66 302.43C564.28 302.17 564.91 301.93 565.53 301.67C566.67 301.21 567.82 300.74 568.94 300.3C569.64 300.02 570.32 299.74 571.01 299.48C572.08 299.06 573.15 298.63 574.22 298.21C574.93 297.93 575.65 297.65 576.36 297.37C577.4 296.97 578.42 296.57 579.45 296.17C580.19 295.89 580.92 295.6 581.65 295.32C582.65 294.94 583.66 294.55 584.66 294.17C585.4 293.89 586.13 293.61 586.87 293.33C587.86 292.96 588.85 292.59 589.84 292.23C590.58 291.95 591.31 291.68 592.05 291.42C593.03 291.05 594 290.7 594.98 290.34C595.7 290.07 596.44 289.82 597.16 289.55C598.13 289.2 599.1 288.86 600.06 288.51C600.78 288.25 601.51 288 602.23 287.74C603.2 287.41 604.16 287.07 605.12 286.74C605.83 286.49 606.54 286.25 607.25 286C608.22 285.67 609.18 285.34 610.15 285.02C610.83 284.79 611.52 284.55 612.2 284.33C613.2 284 614.18 283.67 615.18 283.35C615.83 283.14 616.46 282.93 617.11 282.73C618.16 282.38 619.19 282.06 620.23 281.74C620.8 281.55 621.38 281.37 621.95 281.19C623.14 280.81 624.32 280.45 625.51 280.1C625.92 279.98 626.33 279.84 626.74 279.72C628.39 279.23 630.03 278.75 631.66 278.28C633.01 277.89 634.34 277.52 635.66 277.15C636.22 276.99 636.75 276.85 637.3 276.7C638.15 276.48 638.98 276.24 639.82 276.03C640.44 275.86 641.06 275.71 641.67 275.55C642.43 275.35 643.17 275.16 643.92 274.97C644.56 274.81 645.2 274.66 645.84 274.5C646.55 274.32 647.27 274.15 647.97 273.99C648.62 273.85 649.25 273.69 649.9 273.54L651.97 273.07C652.61 272.94 653.24 272.79 653.86 272.66C654.57 272.5 655.26 272.37 655.97 272.23C656.57 272.11 657.16 271.97 657.76 271.86C658.57 271.69 659.39 271.55 660.19 271.39C661.04 271.23 661.86 271.09 662.7 270.94C663.52 270.8 664.36 270.65 665.17 270.52C665.73 270.43 666.28 270.35 666.83 270.26C667.51 270.16 668.19 270.05 668.86 269.96C669.43 269.87 670 269.8 670.55 269.73C671.2 269.64 671.84 269.56 672.49 269.47C673.05 269.4 673.59 269.35 674.15 269.28C674.8 269.21 675.43 269.15 676.07 269.08C676.59 269.02 677.13 268.98 677.65 268.92C678.31 268.86 678.97 268.82 679.61 268.76C680.1 268.73 680.59 268.69 681.07 268.66C681.78 268.62 682.49 268.57 683.2 268.54C683.6 268.53 684.01 268.5 684.41 268.48C685.5 268.44 686.59 268.41 687.66 268.4L702.91 273.95L702.87 273.9Z" fill="black"/>
<path d="M282.15 456.05C341.08 464.27 399.28 430.8 465.42 385.63C474.73 379.27 484.18 372.7 493.77 366.02C524.86 344.38 557.5 321.66 592.14 301.67C577.35 307.2 561.99 313.43 546.34 320.08C518.66 331.85 490.28 344.84 462.79 357.43L461.98 357.8C434.84 370.23 408.54 382.28 384.91 392.22C342.25 410.16 309.03 411.59 283.38 401.65C257.73 391.72 241.65 371.2 231.63 349.51C221.75 328.12 217.34 304.79 215.37 286.95C214.13 289.18 212.88 291.51 211.63 293.94C201.55 313.42 192.43 337.03 192.86 357.08C193.53 388.07 203.51 410.79 218.96 426.66C234.52 442.64 256.41 452.46 282.15 456.05Z" fill="#5CBE6D"/>
<path d="M334.3 128.11C334.34 127.82 334.54 127.57 334.81 127.47L372.74 112.91C373.22 112.73 373.75 113.03 373.83 113.54L403.64 298.15C403.7 298.53 403.49 298.9 403.13 299.04L305.59 336.49C305.01 336.71 304.41 336.23 304.49 335.62L334.3 128.12V128.11Z" fill="#FDFDEF"/>
<path d="M372.09 275.92L354.05 171.34L336.93 289.07L372.09 275.92Z" fill="#3CA3F9"/>
<path d="M357.7 136.69L348.83 139.64L324.93 303.95L383.06 282.21L357.7 136.68V136.69ZM372.09 275.92L336.93 289.07L354.05 171.34L372.09 275.92Z" fill="black"/>
</svg>
