<svg width="336" height="101" viewBox="0 0 336 101" fill="none" xmlns="http://www.w3.org/2000/svg">
<path d="M94.5171 54.75C94.5171 54.75 89.4355 67.3104 83.1022 66.7303C79.655 66.4156 78.5646 63.587 78.569 61.857L78.6474 19.1383H61.5239V62.9089C61.5091 70.0457 66.6971 76.5747 75.8803 76.9932C84.524 77.3887 94.5022 64.6346 94.5022 64.6346L94.4853 75.6225L111.528 75.4822L111.632 19.1468H94.5958L94.5171 54.75Z" fill="black"/>
<path d="M151.708 19.3941C145.436 19.3835 139.914 22.5098 136.121 27.2577L136.059 19.1454H119.091L118.961 97.416L136.006 97.4437L136.042 69.1113C139.17 73.6594 145.004 77.13 151.601 77.1428C163.39 77.1641 173.685 65.1794 173.717 48.3088C173.749 31.4381 163.497 19.4153 151.708 19.3941ZM146.318 69.7383C142.099 69.7383 137.674 64.6821 136.059 60.5697L136.104 35.9163C137.734 31.81 142.175 26.7774 146.392 26.7774C152.449 26.788 155.25 33.8885 155.223 48.2726C155.195 62.6567 152.373 69.7488 146.318 69.7383Z" fill="black"/>
<path d="M179.844 75.8357H196.872L196.978 19.1454H179.844V75.8357Z" fill="black"/>
<path d="M261.761 19.2658C244.456 19.2658 233.726 32.5149 233.707 48.0891C233.675 64.9598 245.674 76.3239 260.581 77.0145C267.403 77.3292 276.895 73.0826 281.409 68.4475L278.644 64.4497C269.641 72.2263 265.637 71.2846 265.637 71.2846C254.39 71.2657 252.386 62.4986 252.416 47.4665L285.507 47.526C284.635 29.6244 274.226 19.2636 261.761 19.2658ZM268.959 42.2487L252.42 42.219C252.437 33.3501 254.934 22.1859 261.748 22.1859C266.991 22.1859 269.522 34.9889 268.959 42.2487Z" fill="black"/>
<path d="M235.411 18.8642L226.024 18.8387L226.053 0L201.455 24.1987L208.7 24.2157L208.751 75.7628H225.879L226.011 24.0946L235.398 24.1201L235.411 18.8642Z" fill="black"/>
<path d="M321.754 18.6706C316.472 20.2008 311.415 24.4089 307.957 28.6595L307.974 18.9171H290.839V75.6076H299.881L307.881 75.6225L307.936 38.9756V37.2756C310.246 33.3735 314.288 27.8179 318.426 28.1962C321.188 28.4513 323.484 31.4839 323.495 34.2787L335.383 22.6322C335.61 22.4026 328.809 16.6303 321.754 18.6706Z" fill="black"/>
<path d="M35.2193 74.2967C35.2193 82.4387 28.6206 89.0372 20.4786 89.0372C12.3366 89.0372 5.73797 82.4387 5.73797 74.2967C5.73797 74.0712 5.74587 73.8476 5.75576 73.6259C5.99517 76.96 8.77315 79.5894 12.1684 79.5894C15.6033 79.5894 18.4089 76.8967 18.589 73.5052H18.5989V54.9063H0V73.5052C0.0534223 88.4299 12.1684 100.513 27.1069 100.513C42.0116 100.513 54.1048 88.4833 54.2119 73.604L54.2139 0H35.2193V74.2967Z" fill="black"/>
</svg>
