<svg width="267" height="233" viewBox="0 0 267 233" fill="none" xmlns="http://www.w3.org/2000/svg">
<path fill-rule="evenodd" clip-rule="evenodd" d="M0 166.422H64.1027V185.926H45.7166V232.809H19.0045V185.926H0V166.422Z" fill="black"/>
<path fill-rule="evenodd" clip-rule="evenodd" d="M96.5669 193.245L83.0744 232.809H57.4197L82.5802 166.422H110.434L136.198 232.809H110.235L96.5669 193.245Z" fill="black"/>
<path fill-rule="evenodd" clip-rule="evenodd" d="M130.074 166.422H194.176V185.926H175.791V232.809H149.079V185.926H130.074V166.422Z" fill="black"/>
<path fill-rule="evenodd" clip-rule="evenodd" d="M226.642 193.245L213.148 232.809H187.494L212.655 166.422H240.508L266.273 232.809H240.311L226.642 193.245Z" fill="black"/>
<path fill-rule="evenodd" clip-rule="evenodd" d="M227.142 44.5666C224.759 39.8802 221.612 35.3835 217.709 31.1702C208.933 21.6955 196.547 13.8133 181.888 8.37512C167.118 2.89593 150.26 0 133.137 0C116.013 0 99.1548 2.89593 84.3859 8.37512C69.7259 13.8133 57.3389 21.6955 48.5633 31.1702C44.6603 35.3847 41.5114 39.8837 39.1272 44.5725C58.2055 39.9598 90.8429 33.8647 121.148 33.2241C124.072 33.1621 126.084 34.0965 127.409 35.7746C129.025 37.8204 128.901 45.1158 128.859 48.3748L127.996 132.679C129.705 132.736 131.42 132.774 133.137 132.774C134.867 132.774 136.589 132.743 138.297 132.685L137.435 48.3748C137.392 45.1158 137.269 37.8204 138.885 35.7746C140.211 34.0965 142.221 33.1621 145.145 33.2241C175.437 33.8647 208.061 39.9563 227.142 44.5666Z" fill="black"/>
<path fill-rule="evenodd" clip-rule="evenodd" d="M231.211 55.5273C203.285 49.2144 184.64 48.0481 166.237 47.0269C150.199 46.1381 149.992 51.8644 151.595 62.8099C151.693 63.4774 151.824 64.3182 151.978 65.2796C157.357 97.143 164.054 124.565 165.207 129.213C204.311 120.28 232.513 95.4977 232.513 66.3862C232.513 62.7221 232.065 59.0919 231.211 55.5273Z" fill="black"/>
<path fill-rule="evenodd" clip-rule="evenodd" d="M114.699 62.8099C116.301 51.8644 116.095 46.1381 100.058 47.0269C81.6481 48.0481 62.9973 49.2156 35.0615 55.532C34.2078 59.0954 33.7605 62.7233 33.7605 66.3862C33.7605 78.97 38.879 91.1474 48.5633 101.605C57.3389 111.078 69.7259 118.96 84.3859 124.398C89.6977 126.369 95.294 127.979 101.062 129.265C102.147 124.905 109.001 96.9111 114.444 64.4786C114.541 63.8545 114.63 63.283 114.699 62.8099Z" fill="black"/>
</svg>
