<svg width="226" height="113" viewBox="0 0 226 113" fill="none" xmlns="http://www.w3.org/2000/svg">
<path d="M89.35 53.53C86.24 50.21 83.8 45.89 85.69 41.39C87.34 37.96 88.8 34.46 89.53 30.5C89.84 34.65 92.33 38.32 93.55 42.28C93.98 44.18 94.04 46.19 93.31 48.14C92.52 50.27 91.18 52.17 89.65 53.82L89.34 53.52L89.35 53.53Z" fill="black"/>
<path d="M112.28 50.48C110.39 51.91 107.83 52.14 105.94 51.19L104.9 50.42L94.96 37.65C98.25 38.24 100.63 36.64 102.52 33.73C104.41 30.94 104.35 27.02 102.52 24.23C100.45 21.2 96.24 20.19 92.82 20.67C86.79 21.56 82.52 26.91 81.17 32.55C79.83 38.97 80.8 45.02 82.94 50.66C83.43 51.85 84.1 53.09 84.95 54.16C78.61 51.37 72.99 46.26 70.07 39.43C66.84 32.01 66.9 22.68 70.74 15.2C73.79 9.38 79.16 4.03 85.8 1.78C92.75 -1.07 102.15 -0.469999 108.91 3.33C117.14 7.49 123.37 17.7 123.43 26.9C123.67 36.34 119.53 44.95 112.27 50.47L112.28 50.48Z" fill="black"/>
<path d="M10.49 76.45V91.43H0V47.02C4.45 46.79 8.84 46.72 13.3 46.72C23.79 46.72 29.77 50.93 29.77 59.75C29.77 63.13 28.67 66.03 26.48 68.4C24.77 70.29 22.58 71.54 20.08 72.25C20.99 73.49 21.79 74.5 22.33 75.33L33.8 91.38H20.75L10.5 76.46L10.49 76.45ZM12.44 55.84C11.71 55.84 11.1 55.84 10.49 55.9V65.79L12.2 65.85C15.49 65.85 18.79 64.49 18.79 60.7C18.79 57.5 17.08 55.84 12.45 55.84H12.44Z" fill="black"/>
<path d="M62.15 76.21L61.97 77.28H43.06C43.36 81.43 45.68 83.38 50.26 83.38C54.16 83.38 56.84 82.43 60.26 80.84L61.3 89.66C57.09 91.32 53.49 92.09 48.92 92.09C38.01 92.09 32.45 86.23 32.45 75.03C32.45 69.94 33.79 65.73 36.6 62.41C39.4 59.04 43.31 57.38 48.19 57.38C52.76 57.38 56.42 58.8 58.98 61.88C61.3 64.6 62.4 68.16 62.4 72.42C62.46 73.73 62.34 74.97 62.16 76.21H62.15ZM51.04 66.97C50.37 66.2 49.39 65.73 47.99 65.73C45.61 65.73 44.09 67.21 43.48 69.4H52.08C51.9 68.33 51.53 67.51 51.04 66.97Z" fill="black"/>
<path d="M67.45 91.43V44.83C70.13 49.15 73.79 52.59 77.88 55.19V91.49L67.45 91.43Z" fill="black"/>
<path d="M84.41 58.09H94.84V91.37H84.41V58.09Z" fill="black"/>
<path d="M117.34 89L115.69 90.24C113.68 91.42 111.42 92.02 108.98 92.02C106 92.02 103.49 91.25 101.6 89.53C99.77 87.81 98.92 85.44 98.92 82.66C98.92 78.57 100.87 75.37 104.47 73.13C107.64 71.23 111.79 70.23 116.73 70.11V69.7C116.73 67.33 115.51 66.03 111.97 66.03C107.89 66.03 105.26 67.27 101.79 69.22L100.82 59.69C104.96 58.15 108.75 57.38 113.2 57.38C118.02 57.38 121.8 58.33 124.18 60.58C126.25 62.59 127.17 65.61 127.17 69.4V82.25C127.17 85.33 127.29 88.41 127.41 91.43H117.35V89H117.34ZM116.67 77.81C110.63 77.99 108.92 79.65 108.92 81.48C108.92 82.9 109.47 83.55 111.36 83.55C112.88 83.55 114.1 82.96 115.2 81.65C116.12 80.47 116.6 79.22 116.66 77.8L116.67 77.81Z" fill="black"/>
<path d="M143.26 61.46C144.72 58.8 148.01 57.37 152.22 57.37C159.11 57.37 162.65 61.28 162.65 68.5V91.48H152.28V70.46C152.28 67.32 151.24 66.55 149.72 66.55C148.2 66.55 146.86 67.26 145.64 69.04C144.42 70.76 143.75 72.83 143.75 75.32V91.49H133.38V58.09H143.32V59.33C143.32 60.04 143.32 60.75 143.26 61.46Z" fill="black"/>
<path d="M183.02 92.02C172.96 92.02 167.9 86.39 167.9 75.8C167.9 70.53 169.24 66.15 172.1 62.83C175.15 59.22 179.54 57.5 185.09 57.5C187.83 57.5 190.15 57.97 192.77 58.68L191.67 68.21C189.54 67.44 187.34 66.61 185.02 66.61C180.08 66.61 178.68 70.69 178.68 74.96C178.68 80.47 180.75 82.6 184.78 82.6C187.89 82.6 189.29 81.95 191.91 80.59L192.76 90.12C189.35 91.48 186.6 92.01 183 92.01L183.02 92.02Z" fill="black"/>
<path d="M225.59 76.21L225.41 77.28H206.5C206.87 81.43 209.12 83.38 213.7 83.38C217.6 83.38 220.28 82.43 223.7 80.84L224.73 89.66C220.52 91.32 216.92 92.09 212.35 92.09C201.44 92.09 195.88 86.23 195.88 75.03C195.88 69.94 197.22 65.73 200.03 62.41C202.83 59.04 206.74 57.38 211.56 57.38C216.38 57.38 219.79 58.8 222.35 61.88C224.67 64.6 225.76 68.16 225.76 72.42C225.82 73.73 225.76 74.97 225.58 76.21H225.59ZM214.43 66.97C213.76 66.2 212.79 65.73 211.38 65.73C209 65.73 207.48 67.21 206.87 69.4H215.47C215.29 68.33 214.98 67.51 214.43 66.97Z" fill="black"/>
<path fill-rule="evenodd" clip-rule="evenodd" d="M0.07 105.29H162.12V111.87H0.07V105.29Z" fill="black"/>
<path d="M168.3 107.11H167.46V110.91C167.46 111.41 167.35 111.78 167.13 112.01C166.91 112.24 166.62 112.36 166.27 112.36C165.89 112.36 165.59 112.24 165.38 111.99C165.17 111.74 165.07 111.38 165.07 110.9V101.8C165.07 101.28 165.19 100.91 165.42 100.68C165.65 100.45 166.02 100.33 166.54 100.33H170.44C170.98 100.33 171.44 100.35 171.82 100.4C172.2 100.45 172.55 100.54 172.85 100.68C173.22 100.84 173.55 101.06 173.83 101.35C174.11 101.64 174.33 101.98 174.48 102.36C174.63 102.74 174.7 103.15 174.7 103.58C174.7 104.46 174.45 105.17 173.95 105.69C173.45 106.22 172.7 106.59 171.69 106.81C172.11 107.04 172.52 107.37 172.91 107.81C173.3 108.25 173.64 108.72 173.95 109.22C174.26 109.72 174.49 110.17 174.66 110.57C174.83 110.97 174.91 111.25 174.91 111.4C174.91 111.55 174.86 111.71 174.76 111.86C174.66 112.01 174.52 112.13 174.35 112.22C174.18 112.31 173.98 112.35 173.75 112.35C173.48 112.35 173.26 112.29 173.07 112.16C172.89 112.03 172.73 111.87 172.6 111.68C172.47 111.49 172.29 111.2 172.06 110.83L171.1 109.23C170.76 108.64 170.45 108.2 170.18 107.89C169.91 107.58 169.63 107.37 169.35 107.26C169.07 107.15 168.72 107.09 168.29 107.09L168.3 107.11ZM169.67 102.14H167.46V105.39H169.6C170.18 105.39 170.66 105.34 171.05 105.24C171.44 105.14 171.74 104.97 171.95 104.73C172.16 104.49 172.26 104.16 172.26 103.74C172.26 103.41 172.18 103.12 172.01 102.87C171.84 102.62 171.61 102.43 171.32 102.31C171.04 102.19 170.49 102.13 169.67 102.13V102.14Z" fill="black"/>
<path d="M185.25 102.19H179.85V105.09H184.82C185.19 105.09 185.46 105.17 185.64 105.34C185.82 105.5 185.91 105.72 185.91 105.99C185.91 106.26 185.82 106.48 185.64 106.65C185.46 106.82 185.19 106.9 184.82 106.9H179.85V110.26H185.43C185.81 110.26 186.09 110.35 186.28 110.52C186.47 110.69 186.57 110.93 186.57 111.22C186.57 111.51 186.47 111.73 186.28 111.9C186.09 112.07 185.81 112.16 185.43 112.16H178.92C178.4 112.16 178.02 112.04 177.8 111.81C177.58 111.58 177.46 111.2 177.46 110.69V101.8C177.46 101.46 177.51 101.18 177.61 100.96C177.71 100.74 177.87 100.58 178.09 100.48C178.31 100.38 178.59 100.33 178.92 100.33H185.24C185.62 100.33 185.91 100.41 186.09 100.58C186.28 100.75 186.37 100.97 186.37 101.25C186.37 101.53 186.28 101.75 186.09 101.92C185.91 102.09 185.62 102.17 185.24 102.17L185.25 102.19Z" fill="black"/>
<path d="M196.64 102.32H194.03V110.91C194.03 111.4 193.92 111.77 193.7 112.01C193.48 112.25 193.2 112.37 192.85 112.37C192.5 112.37 192.21 112.25 191.98 112.01C191.76 111.77 191.65 111.4 191.65 110.91V102.32H189.04C188.63 102.32 188.33 102.23 188.13 102.05C187.93 101.87 187.83 101.63 187.83 101.34C187.83 101.05 187.93 100.79 188.14 100.61C188.35 100.43 188.65 100.34 189.04 100.34H196.65C197.06 100.34 197.37 100.43 197.57 100.61C197.77 100.79 197.87 101.03 197.87 101.33C197.87 101.63 197.77 101.86 197.56 102.04C197.36 102.22 197.05 102.31 196.64 102.31V102.32Z" fill="black"/>
<path d="M206.31 110.83L205.75 109.35H200.94L200.38 110.87C200.16 111.46 199.97 111.86 199.82 112.07C199.66 112.28 199.41 112.38 199.05 112.38C198.75 112.38 198.48 112.27 198.25 112.05C198.02 111.83 197.9 111.58 197.9 111.3C197.9 111.14 197.93 110.97 197.98 110.8C198.03 110.63 198.12 110.39 198.25 110.08L201.27 102.4C201.36 102.18 201.46 101.91 201.58 101.61C201.7 101.3 201.83 101.04 201.97 100.84C202.11 100.64 202.29 100.47 202.51 100.34C202.73 100.21 203.01 100.15 203.34 100.15C203.67 100.15 203.95 100.21 204.17 100.34C204.39 100.47 204.57 100.63 204.71 100.83C204.85 101.03 204.96 101.24 205.06 101.47C205.15 101.7 205.27 102 205.42 102.39L208.51 110.02C208.75 110.6 208.87 111.02 208.87 111.29C208.87 111.56 208.76 111.82 208.53 112.04C208.3 112.27 208.03 112.38 207.7 112.38C207.51 112.38 207.35 112.35 207.22 112.28C207.09 112.21 206.97 112.12 206.88 112.01C206.79 111.89 206.69 111.72 206.59 111.48C206.48 111.24 206.39 111.03 206.32 110.85L206.31 110.83ZM201.57 107.55H205.1L203.32 102.67L201.57 107.55Z" fill="black"/>
<path d="M211.22 110.91V101.59C211.22 101.11 211.33 100.74 211.55 100.5C211.77 100.26 212.06 100.14 212.4 100.14C212.74 100.14 213.05 100.26 213.28 100.5C213.5 100.74 213.61 101.1 213.61 101.59V110.91C213.61 111.4 213.5 111.76 213.28 112.01C213.06 112.25 212.76 112.37 212.4 112.37C212.04 112.37 211.77 112.25 211.55 112C211.33 111.75 211.22 111.39 211.22 110.91Z" fill="black"/>
<path d="M219.13 101.59V110.2H223.98C224.37 110.2 224.66 110.29 224.87 110.48C225.08 110.67 225.18 110.9 225.18 111.19C225.18 111.48 225.08 111.72 224.87 111.9C224.67 112.08 224.37 112.17 223.97 112.17H218.19C217.67 112.17 217.29 112.05 217.07 111.82C216.85 111.59 216.73 111.21 216.73 110.7V101.59C216.73 101.11 216.84 100.74 217.06 100.5C217.28 100.26 217.56 100.14 217.92 100.14C218.28 100.14 218.57 100.26 218.8 100.5C219.02 100.74 219.13 101.1 219.13 101.59Z" fill="black"/>
</svg>
