<svg width="255" height="101" viewBox="0 0 255 101" fill="none" xmlns="http://www.w3.org/2000/svg">
<path d="M5.55542 22.7695H22.7688V5.5561C22.7688 2.48452 20.2791 0 17.2128 0C14.1412 0 11.6567 2.48976 11.6567 5.5561V11.6521H5.56067C2.48908 11.6521 0.00456499 14.1418 0.00456499 17.2082C0.00456499 20.2797 2.49433 22.7642 5.56067 22.7642L5.55542 22.7695Z" fill="black"/>
<path d="M30.1746 5.5561V22.7695H47.388C50.4596 22.7695 52.9441 20.2797 52.9441 17.2135C52.9441 14.1418 50.4544 11.6573 47.388 11.6573H41.2921V5.56135C41.2868 2.48976 38.8023 0 35.7308 0C32.6644 0 30.1746 2.48976 30.1746 5.5561Z" fill="black"/>
<path d="M22.7695 47.3892V30.1757H5.5561C2.48452 30.1757 0 32.6655 0 35.7318C0 38.8035 2.48976 41.288 5.5561 41.288H11.6521V47.3839C11.6521 50.4555 14.1418 52.94 17.2082 52.94C20.2797 52.94 22.7642 50.4502 22.7642 47.3839L22.7695 47.3892Z" fill="black"/>
<path d="M38.2676 30.202L53.7251 55.0472H53.8299V30.202H61.4566V67.234H53.3111L37.906 42.4412H37.8011V67.234H30.1746V30.202H38.2676Z" fill="black"/>
<path d="M65.2775 48.6678C65.3823 46.9381 65.8121 45.502 66.5721 44.3645C67.3322 43.2218 68.3019 42.3097 69.476 41.6179C70.65 40.9259 71.9709 40.4332 73.4439 40.1398C74.9115 39.8462 76.3897 39.6994 77.8783 39.6994C79.2254 39.6994 80.5934 39.7938 81.9772 39.9825C83.361 40.1712 84.6243 40.5433 85.7617 41.099C86.9043 41.6546 87.8373 42.4198 88.5607 43.4053C89.2892 44.3907 89.6509 45.6958 89.6509 47.3207V61.2739C89.6509 62.4847 89.7191 63.6431 89.8606 64.7491C89.9968 65.8551 90.2432 66.6833 90.5891 67.2389H83.1199C82.9836 66.8248 82.8683 66.4002 82.7844 65.9704C82.6953 65.5406 82.6377 65.095 82.601 64.6495C81.4269 65.8603 80.0431 66.7095 78.4496 67.1917C76.8562 67.674 75.2312 67.9203 73.5749 67.9203C72.2959 67.9203 71.1009 67.763 69.9949 67.4538C68.8889 67.1446 67.9192 66.657 67.0911 66.0019C66.2629 65.3466 65.6129 64.5133 65.1465 63.5121C64.6799 62.5109 64.444 61.3159 64.444 59.9321C64.444 58.412 64.7114 57.1592 65.246 56.1738C65.7807 55.1885 66.4725 54.4022 67.3216 53.8151C68.1708 53.2281 69.1353 52.7877 70.2255 52.4942C71.3158 52.2007 72.4113 51.97 73.5173 51.7918C74.6232 51.6189 75.7135 51.4826 76.7828 51.3778C77.852 51.2729 78.8061 51.1209 79.6342 50.9112C80.4624 50.7016 81.1228 50.4028 81.6051 50.0045C82.0873 49.6061 82.3127 49.0295 82.2813 48.2694C82.2813 47.4728 82.1501 46.8438 81.8934 46.3773C81.6365 45.9108 81.2906 45.5491 80.8555 45.2871C80.4204 45.0302 79.9225 44.8572 79.3511 44.7681C78.7798 44.6843 78.1666 44.6371 77.5113 44.6371C76.0594 44.6371 74.9167 44.9463 74.0886 45.5701C73.2604 46.1938 72.773 47.2317 72.6366 48.6836H65.2722L65.2775 48.6678ZM82.2917 54.1139C81.9824 54.3917 81.5893 54.6066 81.1228 54.7638C80.6563 54.9211 80.1532 55.0469 79.6185 55.1518C79.0839 55.2566 78.523 55.3404 77.9306 55.4085C77.3436 55.4766 76.7565 55.5658 76.1695 55.6654C75.6139 55.7702 75.074 55.9065 74.5341 56.0794C73.9995 56.2525 73.533 56.4883 73.1346 56.7819C72.7363 57.0753 72.4166 57.4475 72.1753 57.8983C71.9343 58.349 71.8138 58.9204 71.8138 59.6123C71.8138 60.3042 71.9343 60.8232 72.1753 61.2739C72.4166 61.7246 72.7467 62.0758 73.1609 62.3379C73.5749 62.5948 74.0571 62.7783 74.6128 62.8831C75.1631 62.9879 75.7344 63.0403 76.3267 63.0403C77.7786 63.0403 78.9004 62.7992 79.6971 62.3118C80.4938 61.8295 81.0808 61.2477 81.4583 60.5768C81.8409 59.9006 82.0716 59.2192 82.1607 58.5273C82.2446 57.8354 82.2917 57.285 82.2917 56.8657V54.1139Z" fill="black"/>
<path d="M101.397 40.4183V45.3977H101.502C101.848 44.5696 102.314 43.799 102.901 43.0914C103.488 42.3838 104.165 41.7758 104.925 41.2778C105.685 40.7747 106.497 40.3867 107.362 40.1089C108.227 39.8312 109.123 39.6949 110.061 39.6949C110.544 39.6949 111.084 39.7839 111.671 39.9518V46.7973C111.325 46.7292 110.911 46.6662 110.423 46.6138C109.941 46.5613 109.474 46.5352 109.024 46.5352C107.676 46.5352 106.534 46.7606 105.601 47.2113C104.668 47.6621 103.913 48.2754 103.347 49.0511C102.776 49.8269 102.372 50.739 102.126 51.7767C101.884 52.8146 101.764 53.9364 101.764 55.1471V67.2343H94.3995V40.4183H101.402H101.397Z" fill="black"/>
<path d="M115.36 48.6678C115.465 46.9381 115.895 45.502 116.655 44.3645C117.414 43.2218 118.384 42.3097 119.559 41.6179C120.733 40.9259 122.054 40.4332 123.526 40.1398C124.994 39.8462 126.472 39.6994 127.961 39.6994C129.307 39.6994 130.676 39.7938 132.06 39.9825C133.443 40.1712 134.707 40.5433 135.844 41.099C136.987 41.6546 137.92 42.4198 138.644 43.4053C139.372 44.3907 139.733 45.6958 139.733 47.3207V61.2739C139.733 62.4847 139.802 63.6431 139.943 64.7491C140.079 65.8551 140.325 66.6833 140.671 67.2389H133.203C133.066 66.8248 132.951 66.4002 132.867 65.9704C132.778 65.5406 132.72 65.095 132.684 64.6495C131.509 65.8603 130.125 66.7095 128.533 67.1917C126.939 67.674 125.314 67.9203 123.657 67.9203C122.379 67.9203 121.183 67.763 120.078 67.4538C118.971 67.1446 118.002 66.657 117.173 66.0019C116.345 65.3466 115.695 64.5133 115.229 63.5121C114.762 62.5109 114.527 61.3159 114.527 59.9321C114.527 58.412 114.794 57.1592 115.328 56.1738C115.863 55.1885 116.555 54.4022 117.404 53.8151C118.253 53.2281 119.217 52.7877 120.308 52.4942C121.398 52.2007 122.494 51.97 123.6 51.7918C124.705 51.6189 125.796 51.4826 126.865 51.3778C127.934 51.2729 128.889 51.1209 129.716 50.9112C130.545 50.7016 131.205 50.4028 131.688 50.0045C132.169 49.6061 132.395 49.0295 132.363 48.2694C132.363 47.4728 132.233 46.8438 131.975 46.3773C131.72 45.9108 131.374 45.5491 130.938 45.2871C130.503 45.0302 130.005 44.8572 129.434 44.7681C128.862 44.6843 128.249 44.6371 127.594 44.6371C126.142 44.6371 124.999 44.9463 124.171 45.5701C123.343 46.1938 122.855 47.2317 122.719 48.6836H115.355L115.36 48.6678ZM132.374 54.1139C132.065 54.3917 131.672 54.6066 131.205 54.7638C130.739 54.9211 130.235 55.0469 129.701 55.1518C129.166 55.2566 128.605 55.3404 128.013 55.4085C127.426 55.4766 126.839 55.5658 126.251 55.6654C125.696 55.7702 125.156 55.9065 124.617 56.0794C124.082 56.2525 123.615 56.4883 123.218 56.7819C122.819 57.0753 122.499 57.4475 122.258 57.8983C122.016 58.349 121.896 58.9204 121.896 59.6123C121.896 60.3042 122.016 60.8232 122.258 61.2739C122.499 61.7246 122.83 62.0758 123.243 62.3379C123.657 62.5948 124.14 62.7783 124.695 62.8831C125.245 62.9879 125.817 63.0403 126.409 63.0403C127.861 63.0403 128.983 62.7992 129.78 62.3118C130.577 61.8295 131.163 61.2477 131.541 60.5768C131.923 59.9006 132.154 59.2192 132.243 58.5273C132.327 57.8354 132.374 57.285 132.374 56.8657V54.1139Z" fill="black"/>
<path d="M154.923 75.2222C153.503 76.1552 151.531 76.6217 149.011 76.6217C148.251 76.6217 147.496 76.5956 146.756 76.5431C146.012 76.4907 145.263 76.433 144.503 76.3596V70.2899C145.195 70.3581 145.902 70.4262 146.631 70.4996C147.359 70.5677 148.083 70.5834 148.812 70.552C149.781 70.4471 150.499 70.0698 150.966 69.4093C151.432 68.7541 151.668 68.0255 151.668 67.2288C151.668 66.6417 151.563 66.0861 151.358 65.5672L141.971 40.4128H149.802L155.872 58.7741H155.977L161.836 40.4128H169.463L158.261 70.5467C157.466 72.7273 156.359 74.2787 154.944 75.217L154.923 75.2222Z" fill="black"/>
<path d="M171.363 48.6678C171.468 46.9381 171.898 45.502 172.658 44.3645C173.418 43.2218 174.388 42.3097 175.562 41.6179C176.735 40.9259 178.057 40.4332 179.53 40.1398C180.997 39.8462 182.476 39.6994 183.964 39.6994C185.311 39.6994 186.679 39.7938 188.063 39.9825C189.447 40.1712 190.71 40.5433 191.847 41.099C192.99 41.6546 193.922 42.4198 194.646 43.4053C195.375 44.3907 195.736 45.6958 195.736 47.3207V61.2739C195.736 62.4847 195.805 63.6431 195.947 64.7491C196.082 65.8551 196.329 66.6833 196.675 67.2389H189.206C189.069 66.8248 188.953 66.4002 188.87 65.9704C188.78 65.5406 188.723 65.095 188.687 64.6495C187.512 65.8603 186.129 66.7095 184.535 67.1917C182.942 67.674 181.316 67.9203 179.66 67.9203C178.382 67.9203 177.186 67.763 176.081 67.4538C174.974 67.1446 174.005 66.657 173.177 66.0019C172.348 65.3466 171.698 64.5133 171.232 63.5121C170.766 62.5109 170.53 61.3159 170.53 59.9321C170.53 58.412 170.797 57.1592 171.332 56.1738C171.867 55.1885 172.559 54.4022 173.407 53.8151C174.257 53.2281 175.221 52.7877 176.311 52.4942C177.401 52.2007 178.496 51.97 179.603 51.7918C180.709 51.6189 181.799 51.4826 182.868 51.3778C183.938 51.2729 184.891 51.1209 185.72 50.9112C186.548 50.7016 187.209 50.4028 187.691 50.0045C188.173 49.6061 188.398 49.0295 188.367 48.2694C188.367 47.4728 188.236 46.8438 187.979 46.3773C187.722 45.9108 187.376 45.5491 186.941 45.2871C186.506 45.0302 186.008 44.8572 185.437 44.7681C184.866 44.6843 184.252 44.6371 183.598 44.6371C182.145 44.6371 181.002 44.9463 180.175 45.5701C179.346 46.1938 178.859 47.2317 178.722 48.6836H171.358L171.363 48.6678ZM188.377 54.1139C188.068 54.3917 187.675 54.6066 187.209 54.7638C186.742 54.9211 186.239 55.0469 185.705 55.1518C185.169 55.2566 184.608 55.3404 184.016 55.4085C183.429 55.4766 182.843 55.5658 182.255 55.6654C181.7 55.7702 181.16 55.9065 180.62 56.0794C180.085 56.2525 179.618 56.4883 179.22 56.7819C178.822 57.0753 178.502 57.4475 178.262 57.8983C178.02 58.349 177.899 58.9204 177.899 59.6123C177.899 60.3042 178.02 60.8232 178.262 61.2739C178.502 61.7246 178.832 62.0758 179.247 62.3379C179.66 62.5948 180.143 62.7783 180.698 62.8831C181.249 62.9879 181.82 63.0403 182.413 63.0403C183.864 63.0403 184.986 62.7992 185.783 62.3118C186.58 61.8295 187.167 61.2477 187.544 60.5768C187.926 59.9006 188.158 59.2192 188.246 58.5273C188.331 57.8354 188.377 57.285 188.377 56.8657V54.1139Z" fill="black"/>
<path d="M207.483 40.4178V44.1497H207.64C208.573 42.593 209.784 41.4608 211.272 40.7532C212.761 40.0456 214.282 39.6892 215.838 39.6892C217.809 39.6892 219.424 39.9565 220.687 40.4912C221.95 41.0257 222.94 41.77 223.669 42.7241C224.397 43.6728 224.906 44.8312 225.2 46.1993C225.494 47.5673 225.64 49.0769 225.64 50.7385V67.2338H218.276V52.0909C218.276 49.8789 217.93 48.2277 217.237 47.1375C216.545 46.0473 215.319 45.5021 213.552 45.5021C211.546 45.5021 210.093 46.0996 209.197 47.2895C208.296 48.4846 207.849 50.445 207.849 53.1758V67.2338H200.486V40.4178H207.488H207.483Z" fill="black"/>
<path d="M229.448 48.6678C229.553 46.9381 229.983 45.502 230.743 44.3645C231.502 43.2218 232.472 42.3097 233.647 41.6179C234.821 40.9259 236.147 40.4332 237.614 40.1398C239.082 39.8462 240.561 39.6994 242.049 39.6994C243.396 39.6994 244.764 39.7938 246.148 39.9825C247.532 40.1712 248.795 40.5433 249.932 41.099C251.075 41.6546 252.009 42.4198 252.732 43.4053C253.46 44.3907 253.821 45.6958 253.821 47.3207V61.2739C253.821 62.4847 253.89 63.6431 254.031 64.7491C254.167 65.8551 254.414 66.6833 254.76 67.2389H247.291C247.154 66.8248 247.04 66.4002 246.955 65.9704C246.867 65.5406 246.808 65.095 246.772 64.6495C245.597 65.8603 244.214 66.7095 242.621 67.1917C241.033 67.674 239.407 67.9203 237.745 67.9203C236.467 67.9203 235.271 67.763 234.166 67.4538C233.059 67.1446 232.09 66.657 231.262 66.0019C230.433 65.3466 229.783 64.5133 229.317 63.5121C228.851 62.5109 228.615 61.3159 228.615 59.9321C228.615 58.412 228.882 57.1592 229.416 56.1738C229.952 55.1885 230.644 54.4022 231.492 53.8151C232.342 53.2281 233.306 52.7877 234.396 52.4942C235.486 52.2007 236.583 51.97 237.688 51.7918C238.794 51.6189 239.884 51.4826 240.953 51.3778C242.023 51.2729 242.977 51.1209 243.805 50.9112C244.633 50.7016 245.294 50.4028 245.776 50.0045C246.258 49.6061 246.483 49.0295 246.452 48.2694C246.452 47.4728 246.321 46.8438 246.064 46.3773C245.802 45.9108 245.456 45.5491 245.026 45.2871C244.591 45.0302 244.093 44.8572 243.522 44.7681C242.95 44.6843 242.337 44.6371 241.683 44.6371C240.23 44.6371 239.087 44.9463 238.26 45.5701C237.431 46.1938 236.944 47.2317 236.807 48.6836H229.443L229.448 48.6678ZM246.462 54.1139C246.154 54.3917 245.76 54.6066 245.294 54.7638C244.827 54.9211 244.324 55.0469 243.79 55.1518C243.254 55.2566 242.693 55.3404 242.101 55.4085C241.514 55.4766 240.928 55.5658 240.34 55.6654C239.785 55.7702 239.245 55.9065 238.705 56.0794C238.171 56.2525 237.703 56.4883 237.306 56.7819C236.907 57.0753 236.587 57.4475 236.346 57.8983C236.105 58.349 235.984 58.9204 235.984 59.6123C235.984 60.3042 236.105 60.8232 236.346 61.2739C236.587 61.7246 236.918 62.0758 237.332 62.3379C237.745 62.5948 238.228 62.7783 238.783 62.8831C239.334 62.9879 239.905 63.0403 240.497 63.0403C241.949 63.0403 243.071 62.7992 243.868 62.3118C244.665 61.8295 245.252 61.2477 245.629 60.5768C246.011 59.9006 246.243 59.2192 246.331 58.5273C246.415 57.8354 246.462 57.285 246.462 56.8657V54.1139Z" fill="black"/>
<path d="M35.0597 78.3672V86.8954H44.0544V78.3672H48.9395V100.586H44.0544V90.9995H35.0597V100.586H30.1746V78.3672H35.0597Z" fill="black"/>
<path d="M56.8749 96.7283C57.5406 97.373 58.4946 97.6927 59.7368 97.6927C60.6279 97.6927 61.3984 97.4673 62.0379 97.0218C62.6826 96.5762 63.0757 96.1045 63.2225 95.6065H67.1117C66.488 97.5355 65.5341 98.914 64.2499 99.7474C62.9656 100.576 61.4089 100.99 59.5796 100.99C58.3163 100.99 57.1736 100.785 56.1568 100.382C55.14 99.978 54.2803 99.4015 53.5727 98.652C52.8651 97.9024 52.3199 97.0113 51.9373 95.9734C51.5547 94.9356 51.3607 93.793 51.3607 92.5507C51.3607 91.3085 51.56 90.2287 51.9531 89.1908C52.3461 88.153 52.9071 87.2567 53.6356 86.4966C54.3642 85.7418 55.229 85.1443 56.2355 84.7093C57.2418 84.2742 58.3583 84.054 59.5796 84.054C60.9476 84.054 62.1427 84.3162 63.1596 84.8456C64.1765 85.375 65.0099 86.0878 65.6651 86.9789C66.3203 87.87 66.792 88.8868 67.0803 90.0295C67.3686 91.1721 67.4734 92.362 67.3895 93.6095H55.7795C55.8423 95.0404 56.204 96.0783 56.8697 96.723L56.8749 96.7283ZM61.8702 88.263C61.3408 87.6813 60.5389 87.393 59.459 87.393C58.7514 87.393 58.1696 87.5136 57.703 87.7494C57.2366 87.9905 56.8644 88.284 56.5814 88.6352C56.3036 88.9864 56.1045 89.3638 55.9891 89.7569C55.8738 90.15 55.8056 90.5064 55.7847 90.8157H62.9762C62.7665 89.694 62.3996 88.8449 61.8702 88.263Z" fill="black"/>
<path d="M69.8363 89.4474C69.8992 88.4096 70.1561 87.55 70.6121 86.8633C71.0681 86.1766 71.6499 85.6316 72.3523 85.2123C73.0599 84.7981 73.8514 84.4994 74.732 84.3265C75.6125 84.1482 76.4984 84.0643 77.3947 84.0643C78.2019 84.0643 79.0248 84.1219 79.8531 84.2373C80.6812 84.3526 81.4412 84.5728 82.1227 84.9082C82.8092 85.2385 83.3702 85.6997 83.8052 86.292C84.2402 86.8843 84.4604 87.6653 84.4604 88.6402V97.0111C84.4604 97.7397 84.5024 98.4316 84.5862 99.0972C84.6701 99.7629 84.8168 100.261 85.0212 100.591H80.5396C80.4558 100.345 80.3877 100.088 80.3352 99.8311C80.2829 99.5743 80.2462 99.3069 80.2251 99.0396C79.5175 99.7681 78.6894 100.271 77.7354 100.565C76.7814 100.853 75.8065 101 74.8106 101C74.0453 101 73.3273 100.906 72.6615 100.722C71.9958 100.533 71.4192 100.245 70.9213 99.852C70.4234 99.4589 70.0354 98.961 69.7524 98.3582C69.4746 97.7554 69.3331 97.0425 69.3331 96.2092C69.3331 95.297 69.4957 94.5423 69.8154 93.9552C70.1351 93.3629 70.5492 92.8912 71.0577 92.54C71.566 92.1888 72.1479 91.9214 72.7979 91.7485C73.453 91.5703 74.1083 91.434 74.7739 91.3292C75.4396 91.2243 76.0896 91.1405 76.7343 91.0828C77.3789 91.0199 77.9503 90.9256 78.4482 90.805C78.9462 90.6793 79.3393 90.501 79.6329 90.2599C79.9212 90.024 80.0575 89.6729 80.0365 89.2169C80.0365 88.7398 79.9579 88.3625 79.8006 88.0794C79.6434 87.7964 79.4389 87.5815 79.1769 87.4242C78.9148 87.267 78.616 87.1673 78.2753 87.1149C77.9346 87.0625 77.5624 87.0363 77.1693 87.0363C76.2992 87.0363 75.6125 87.225 75.1146 87.5971C74.6166 87.9693 74.3283 88.593 74.2445 89.4632H69.8258L69.8363 89.4474ZM80.0417 92.7129C79.8531 92.8806 79.6224 93.0065 79.3393 93.1008C79.0615 93.1952 78.7576 93.2738 78.4378 93.3368C78.1181 93.3996 77.7773 93.452 77.4261 93.494C77.075 93.5359 76.7185 93.5883 76.3674 93.6513C76.0371 93.7141 75.707 93.798 75.3872 93.9029C75.0675 94.0077 74.7844 94.1492 74.5485 94.3222C74.3074 94.5004 74.1187 94.7206 73.972 94.9931C73.8252 95.2603 73.7518 95.6064 73.7518 96.0204C73.7518 96.4345 73.8252 96.749 73.972 97.0163C74.1187 97.2889 74.3127 97.4985 74.5643 97.6558C74.8159 97.813 75.1042 97.9178 75.4343 97.9808C75.7646 98.0437 76.1105 98.0751 76.4617 98.0751C77.3318 98.0751 78.008 97.9283 78.4849 97.64C78.962 97.3517 79.3131 97.0006 79.5437 96.597C79.7691 96.1934 79.9107 95.7846 79.9631 95.3652C80.0155 94.9511 80.0417 94.6157 80.0417 94.3693V92.7129Z" fill="black"/>
<path d="M91.8109 78.3672V100.586H87.3922V78.3672H91.8109Z" fill="black"/>
<path d="M104.506 84.5003V87.4565H101.272V95.4238C101.272 96.1734 101.398 96.6714 101.644 96.9177C101.891 97.1641 102.394 97.2898 103.138 97.2898C103.385 97.2898 103.626 97.2794 103.856 97.2584C104.082 97.2375 104.302 97.206 104.512 97.1641V100.587C104.139 100.65 103.725 100.692 103.269 100.713C102.813 100.734 102.368 100.744 101.933 100.744C101.246 100.744 100.601 100.697 99.9881 100.603C99.3748 100.508 98.8349 100.33 98.3684 100.057C97.902 99.7901 97.535 99.4022 97.2625 98.9043C96.9951 98.4063 96.8589 97.7511 96.8589 96.9439V87.4514H94.1803V84.4951H96.8589V79.6728H101.277V84.4951H104.512L104.506 84.5003Z" fill="black"/>
<path d="M111.29 78.3672V86.7381H111.385C111.946 85.805 112.658 85.1237 113.534 84.699C114.404 84.2745 115.253 84.0597 116.086 84.0597C117.27 84.0597 118.24 84.2221 118.995 84.5418C119.75 84.8616 120.348 85.3071 120.783 85.8784C121.218 86.4498 121.522 87.1417 121.701 87.9647C121.878 88.7822 121.963 89.6944 121.963 90.6903V100.586H117.544V91.4974C117.544 90.1713 117.334 89.1806 116.92 88.5255C116.506 87.8702 115.767 87.5452 114.708 87.5452C113.502 87.5452 112.632 87.9017 112.092 88.6198C111.552 89.3379 111.285 90.5121 111.285 92.1526V100.586H106.866V78.3672H111.29Z" fill="black"/>
</svg>
