<svg width="286" height="97" viewBox="0 0 286 97" fill="none" xmlns="http://www.w3.org/2000/svg">
<path d="M264.745 13.7611C253.001 13.7611 243.48 23.2817 243.48 35.0259C243.48 46.7702 253.001 56.2907 264.745 56.2907C276.489 56.2907 286.01 46.7702 286.01 35.0259C286.01 23.2817 276.489 13.7611 264.745 13.7611ZM276.17 39.2276C273.561 47.7222 262.587 50.4675 256.311 44.1379C249.938 37.7082 252.318 25.0489 261.528 22.8383C271.573 20.4255 279.093 29.7113 276.17 39.2276Z" fill="black"/>
<path d="M234.079 31.9524C231.475 31.672 225.585 31.7068 222.944 31.9459C219.764 32.235 218.242 35.7954 220.244 38.3147C220.657 38.8342 221.994 39.7427 222.633 39.7427H229.23V45.2269C222.068 50.2393 211.452 47.6309 209.245 38.6624C206.652 28.1159 215.664 19.1235 226.106 23.5512C228.604 24.6098 229.612 26.4574 232.634 26.0596C236.17 25.5923 237.37 20.8711 234.871 18.4431C232.114 15.763 225.898 14.3089 222.161 14.1437C208.393 13.5307 197.895 23.9751 199.52 37.8973C201.381 53.8106 217.951 59.5317 231.562 53.6041C235.134 52.05 237.666 50.5523 237.972 46.3419C238.146 43.9488 238.268 36.967 237.664 34.889C237.24 33.4305 235.564 32.1154 234.079 31.9546V31.9524Z" fill="black"/>
<path d="M168.583 17.3302L158.643 43.2401L158.247 42.7641L147.968 16.3195C144.481 11.6961 137.508 15.1696 139.767 20.7037L153.472 53.2607C155.513 56.9841 161.96 56.695 163.633 52.7607L177.047 20.7081C179.666 14.5067 171.065 11.4549 168.583 17.3302Z" fill="black"/>
<path d="M192.504 51.4261L192.51 18.6736C192.465 17.6998 191.861 16.4716 191.176 15.7956C188.707 13.3525 183.905 14.8153 183.442 18.3605L183.457 51.7326C184.596 56.7929 191.743 56.5559 192.504 51.4261Z" fill="black"/>
<path d="M159.967 63.9355C158.058 62.7769 156.947 62.9638 154.915 62.9595C153.324 62.9552 148.933 62.6769 147.72 63.0791C147.146 63.2682 146.614 64.005 146.557 64.618L146.599 81.1182C147.222 83.3875 150.637 83.1071 151.013 80.8356C151.231 79.5249 150.852 77.6795 151.013 76.3057H154.272L158.973 82.0963C160.832 83.457 163.351 81.9137 162.418 79.6053C162.036 78.6576 159.093 75.8188 159.119 75.2732C163.749 73.5387 164.131 66.4591 159.967 63.9333V63.9355ZM157.008 71.8889C156.886 71.9562 155.924 72.3323 155.863 72.3323H150.855V66.9264H156.021C156.089 66.9264 157.134 67.3459 157.269 67.4264C158.871 68.3675 158.638 70.9933 157.008 71.8867V71.8889Z" fill="black"/>
<path d="M101.65 16.213C91.1597 31.885 82.5281 48.8373 72.0837 64.5463C68.0429 69.1022 62.3936 69.9174 58.0897 65.1831C47.9997 50.0719 39.0703 34.1521 29.6214 18.6149C28.6455 17.0085 27.3109 15.8043 27.1652 13.7589C26.7653 8.0944 34.0492 5.48385 37.251 10.1898L55.4705 40.3818L58.1223 38.5059C58.5962 38.3233 58.9918 37.9756 59.4461 37.7625C59.8917 37.5539 61.8719 37.0539 61.8132 36.667L43.8371 6.14681C34.2774 -7.07333 13.882 2.79939 21.1029 19.0235C31.5734 36.1388 41.2505 53.8367 52.5252 70.426C61.948 80.9508 73.0857 77.3034 80.1762 66.5938C89.4533 52.5847 97.1589 36.9213 106.275 22.7426C109.727 15.7543 119.5 18.7344 117.113 26.5856C108.027 41.2339 99.1674 56.1342 89.7142 70.5673C86.1342 76.0362 82.289 80.9225 77.1635 85.0525C77.8134 87.1544 78.0199 89.115 77.883 91.3256C77.8504 91.8473 77.6395 92.4125 77.5743 92.9276C77.5461 93.1428 77.5591 93.2276 77.8026 93.1537C78.2264 93.0254 79.1741 92.3777 79.6197 92.1103C88.3643 86.8327 93.1964 79.0576 98.6174 70.7281C106.747 58.2405 114.405 45.4334 122.48 32.9088C131.385 16.1108 114.874 4.97521 101.648 16.2108L101.65 16.213Z" fill="black"/>
<path d="M42.7807 75.245L17.5446 34.9803C17.3708 34.7086 17.3947 34.8651 17.236 34.9716C16.9252 35.1803 16.6056 35.6563 16.2774 35.9236C14.7363 37.1778 13.0235 38.1864 11.115 38.7929L11.2389 39.2211C21.0529 53.5519 28.8302 70.4347 40.1245 83.6244C43.4589 87.5174 47.2454 91.3126 52.1296 93.1602C51.5471 90.4192 51.6275 87.6565 52.6969 85.0481C48.78 82.4441 45.5108 79.0597 42.7807 75.2471V75.245Z" fill="black"/>
<path d="M67.6321 36.8779C70.2144 37.4735 72.2924 38.5733 74.2269 40.3796L91.1597 11.2875C92.9616 7.10539 88.1557 4.07097 84.9713 7.00758L67.3951 36.6475C67.3451 36.9996 67.443 36.8366 67.6342 36.88L67.6321 36.8779Z" fill="black"/>
<path d="M7.61792 33.3386C11.748 33.2621 15.0342 29.8521 14.9578 25.7219C14.8814 21.5918 11.4713 18.3056 7.34119 18.3821C3.21107 18.4585 -0.0751118 21.8686 0.00130622 25.9987C0.0777242 30.1288 3.4878 33.415 7.61792 33.3386Z" fill="black"/>
<path d="M64.8737 56.8755C68.8617 56.8755 72.0946 53.6426 72.0946 49.6546C72.0946 45.6666 68.8617 42.4337 64.8737 42.4337C60.8857 42.4337 57.6528 45.6666 57.6528 49.6546C57.6528 53.6426 60.8857 56.8755 64.8737 56.8755Z" fill="black"/>
<path d="M72.068 90.0842C72.227 86.109 69.1333 82.7577 65.1581 82.5987C61.1829 82.4397 57.8315 85.5334 57.6725 89.5086C57.5136 93.4838 60.6072 96.8352 64.5824 96.9941C68.5576 97.1531 71.909 94.0594 72.068 90.0842Z" fill="black"/>
<path d="M198.29 68.3784C197.079 68.2567 192.487 68.198 191.654 68.8566C190.561 69.7239 191.184 71.628 192.597 71.8454C194.862 72.1953 199.181 70.7412 199.184 74.3994C195.686 72.9909 189.874 73.7756 190.124 78.6076C190.363 83.1918 196.406 83.8005 199.184 81.0769C199.19 83.0962 202.609 82.8788 202.968 81.2812C202.583 76.6687 205.013 69.0501 198.292 68.3784H198.29ZM194.095 78.1359C194.095 75.9036 197.736 76.021 199.155 76.8122C200.138 79.914 194.091 80.9878 194.095 78.1359Z" fill="black"/>
<path d="M165.159 72.7279C162.816 78.8706 168.203 84.4047 174.469 82.355C175.834 81.9094 178.273 80.5052 176.906 78.7945C175.745 77.3404 174.204 79.1684 172.963 79.4184C170.954 79.8227 169.12 78.9967 168.661 76.9448H176.849C177.643 76.9448 178.21 75.6558 178.212 74.958C178.236 67.6285 167.761 65.9091 165.159 72.7279ZM168.661 74.3994C169.159 70.8303 173.806 70.7542 174.226 74.3994H168.661Z" fill="black"/>
<path d="M187.818 71.8562C188.037 71.8562 188.698 71.1737 188.78 70.9107C189.513 68.5197 187.348 68.1219 185.511 68.3588C185.631 67.1959 185.583 65.0679 184.127 64.7354C181.655 64.1702 181.114 66.383 181.37 68.3523C178.988 68.3306 178.949 72.0084 181.377 71.8562C181.736 74.4298 180.386 80.3378 182.755 82.0028C184.364 83.1331 189.537 83.1571 188.776 80.277C188.28 78.4033 185.779 79.5336 185.511 78.2946V71.8562H187.818Z" fill="black"/>
<path d="M216.781 63.3203C215.932 62.5443 213.84 62.8856 213.458 64.1115L213.347 80.8247C213.78 83.1375 217.184 83.0571 217.47 80.6834V64.7788C217.425 64.4028 217.049 63.5659 216.781 63.3225V63.3203Z" fill="black"/>
<path d="M209.984 69.4C209.845 68.5219 208.748 67.8741 207.887 67.9198C206.991 67.9676 206.124 68.6545 206.033 69.5652C206.276 73.28 205.659 77.5099 206.011 81.1638C206.259 83.7352 209.978 83.5288 210.093 80.9704C210.265 77.16 209.767 73.2278 209.984 69.4Z" fill="black"/>
<path d="M208.048 67.0481C209.185 67.0481 210.106 66.1265 210.106 64.9897C210.106 63.8528 209.185 62.9312 208.048 62.9312C206.911 62.9312 205.989 63.8528 205.989 64.9897C205.989 66.1265 206.911 67.0481 208.048 67.0481Z" fill="black"/>
</svg>
