<svg width="260" height="70" viewBox="0 0 260 70" fill="none" xmlns="http://www.w3.org/2000/svg">
<path d="M40.5788 8.25867L41.3011 3.52671C41.4242 2.78431 41.2088 2.04182 40.7171 1.46957C40.2404 0.897327 39.5333 0.572426 38.7802 0.572426H10.2196C8.95919 0.572426 7.89873 1.48477 7.69874 2.73754L0.0283435 51.5329C-0.0793244 52.2752 0.120689 53.0335 0.612422 53.6057C1.08911 54.1779 1.79617 54.5181 2.53392 54.5181H9.1282C10.3889 54.5181 11.4341 53.6057 11.6494 52.3529L14.616 33.4219H30.9562C32.2013 33.4219 33.2617 32.5096 33.4617 31.2568L34.1381 27.1275C34.2455 26.3853 34.0458 25.6276 33.5538 25.0553C33.0621 24.4677 32.355 24.1424 31.6016 24.1424H16.1838L18.1977 10.4396H38.0425C39.3336 10.4242 40.3944 9.52687 40.5788 8.25867ZM190.283 24.5448L190.083 24.4671C188.316 23.9257 186.257 23.6327 183.997 23.6327C180.322 23.6327 177.525 25.1322 175.696 28.1019C173.912 31.025 172.988 34.3198 172.988 37.8768C172.988 40.1194 173.375 42.0058 174.142 43.4749C174.941 44.9907 176.08 45.7799 177.525 45.7799C179.139 45.7799 180.997 44.7277 183.074 42.6706C185.103 40.6602 186.962 38.2481 188.561 35.5259L190.283 24.5448ZM202.274 18.9309L197.032 52.3989C196.832 53.6671 195.77 54.5649 194.51 54.5649H190.622C189.929 54.5649 189.268 54.286 188.791 53.7758C188.316 53.2807 188.053 52.6005 188.086 51.9045L188.239 47.7592L187.779 48.2697C187.761 48.2851 186.271 49.9554 184.549 51.3011C181.982 53.3116 179.139 54.3943 178.832 54.5181C177.248 55.1057 175.543 55.3992 173.758 55.3992C169.838 55.3992 166.918 53.9918 164.782 51.1153C162.661 48.2539 161.599 44.4499 161.599 39.841C161.599 37.4438 161.844 35.0775 162.307 32.8195C162.782 30.5614 163.614 28.2723 164.797 25.9985C165.98 23.7406 167.472 21.7298 169.225 20.044C170.962 18.3582 173.266 16.9815 176.047 15.9298C178.832 14.8936 182.012 14.3681 185.472 14.3681C189.729 14.3681 194.696 14.9095 200.23 16.0076C201.596 16.286 202.49 17.5544 202.274 18.9309ZM230.126 14.7547C227.513 15.3734 224.961 16.9819 223.271 18.2346C221.351 19.6575 218.598 22.6736 218.551 22.7045L218.091 23.215L218.336 17.894C218.368 17.198 218.12 16.5021 217.628 15.9917C217.153 15.4813 216.477 15.2033 215.784 15.2033H211.864C210.604 15.2033 209.542 16.1002 209.345 17.3684L203.979 51.5946C203.873 52.3372 204.085 53.0795 204.563 53.652C205.041 54.2242 205.746 54.5489 206.501 54.5489H212.557C213.817 54.5489 214.879 53.6366 215.076 52.3838L217.905 34.1645C219.519 31.8754 221.61 29.9112 224.147 28.3026C226.038 27.1118 227.973 26.3387 229.911 26.0448C230.973 25.8745 231.816 25.0556 232.017 23.9884L233.185 17.7241C233.353 16.8735 233.079 16.0074 232.448 15.4042C231.864 14.801 230.973 14.5691 230.126 14.7547ZM108.597 31.8914C108.597 29.6334 108.199 27.7461 107.429 26.2924C106.63 24.7766 105.509 24.0035 104.063 24.0035C102.45 24.0035 100.574 25.0402 98.5147 27.1124C96.4705 29.1386 94.6239 31.5352 93.0104 34.2574L91.2898 45.2234L91.506 45.2851C93.2729 45.8419 95.3171 46.1197 97.5914 46.1197C101.282 46.1197 104.078 44.62 105.892 41.6506C107.677 38.7429 108.597 35.4639 108.597 31.8914ZM116.792 18.6673C118.898 21.5286 119.975 25.3337 119.975 29.9272C119.975 32.9584 119.559 35.9275 118.744 38.7423C117.927 41.5571 116.638 44.2947 114.901 46.8931C113.178 49.4604 110.689 51.5638 107.491 53.1104C104.279 54.6724 100.468 55.4773 96.1785 55.4773C94.4882 55.4773 92.3496 55.3072 89.8293 54.9517L89.5682 54.9205L89.1069 59.5603C89.0916 59.6069 89.0916 59.6526 89.0916 59.7146L87.7544 67.8652C87.5391 69.1025 86.4937 70 85.2485 70H79.2383C78.4852 70 77.7935 69.675 77.3168 69.1028C76.8251 68.5306 76.6098 67.7877 76.7328 67.03L84.5725 17.3684C84.7722 16.1157 85.8329 15.2184 87.0934 15.2184H90.9824C91.6741 15.2184 92.3496 15.4968 92.8275 15.9917C93.3024 16.5021 93.5649 17.1825 93.5354 17.8631L93.3791 22.0702L93.8422 21.4826C93.8865 21.4363 97.5914 16.9045 103.264 15.1104C104.833 14.6155 106.338 14.3681 107.86 14.3681C111.718 14.3835 114.656 15.7752 116.792 18.6673ZM257.025 15.2033H252.291L253.338 8.39837C253.444 7.656 253.229 6.89805 252.754 6.34127C252.276 5.76902 251.554 5.44412 250.816 5.44412H246.035C244.914 5.44412 243.914 6.1864 243.592 7.28448L241.271 15.2033H238.657C237.398 15.2033 236.353 16.1006 236.153 17.3533L235.554 21.0341C235.445 21.7764 235.631 22.534 236.138 23.1063C236.613 23.6785 237.321 24.0035 238.073 24.0035H239.657L236.828 42.2222C236.628 43.3666 236.521 44.5579 236.521 45.8107C236.521 49.0431 237.365 51.394 239.12 53.0023C240.84 54.5801 243.468 55.3992 246.958 55.3992C249.049 55.3992 251.999 54.518 252.353 54.3943C252.63 54.286 253.152 54.1162 253.214 54.0853C253.324 54.039 253.43 53.9921 253.521 53.9455C254.259 53.5434 254.736 52.8168 254.828 51.9974L255.273 48.2236C255.35 47.4348 255.076 46.6302 254.492 46.0888C254.321 45.9342 254.152 45.7956 253.952 45.6718C253.813 45.6101 253.692 45.5475 253.554 45.5012C253.459 45.4703 253.229 45.4237 252.324 45.4391C252.108 45.4391 251.878 45.4552 251.648 45.4552C251.232 45.4552 250.97 45.4391 250.831 45.4083C250.477 45.3465 249.601 45.161 249.155 44.7589C248.94 44.5734 248.279 43.9857 248.279 41.8203C248.279 41.604 248.297 41.2793 248.356 40.8154L250.955 24.0192H256.32C257.533 24.0192 258.595 23.1531 258.825 21.9622L259.533 18.2807C259.686 17.5228 259.486 16.7501 258.993 16.1624C258.518 15.5437 257.795 15.2033 257.025 15.2033ZM160.676 16.2394C160.201 15.5898 159.431 15.2033 158.632 15.2033H152.299C151.178 15.2033 150.178 15.9614 149.856 17.0286C149.316 18.8845 148.304 21.0183 146.812 23.4001C144.738 26.7563 143.03 28.8291 141.585 29.7571L141.355 29.8652C140.847 30.1281 140.048 30.5143 137.252 31.0093L136.898 31.071L141.278 3.52671C141.387 2.78431 141.187 2.02636 140.694 1.46957C140.219 0.897327 139.511 0.556578 138.774 0.556578H132.718C131.455 0.556578 130.396 1.46966 130.196 2.72243L122.494 51.6107C122.37 52.3529 122.585 53.0955 123.063 53.6677C123.541 54.24 124.261 54.5801 125.001 54.5801H131.057C132.317 54.5801 133.378 53.6677 133.576 52.415L135.561 39.6703H139.358L144.582 52.9563C144.968 53.9461 145.906 54.5801 146.951 54.5801H153.529C154.927 54.5801 156.08 53.4353 156.08 52.0122C156.08 51.6721 156.003 51.3168 155.865 50.9921L149.886 35.4793L150.009 35.3713C152.484 33.1287 155.021 29.9423 157.558 25.9368C159.201 23.3384 160.369 20.8328 161.062 18.5284C161.307 17.7241 161.154 16.889 160.676 16.2394ZM72.9821 11.8314C75.503 11.8314 77.3938 11.1818 78.5926 9.86721C79.8071 8.53713 80.4067 6.89808 80.4067 4.8256C80.4067 3.21713 79.9607 2.01102 79.054 1.20679C78.1622 0.402541 76.7791 0 74.9343 0C72.4134 0 70.5225 0.665085 69.3391 1.96424C68.1093 3.29432 67.5099 4.94921 67.5099 7.02167C67.5099 8.63014 67.971 9.83664 68.8627 10.6254C69.7848 11.4451 71.1222 11.8314 72.9821 11.8314ZM75.0266 15.2033H69.0317C67.7712 15.2033 66.7258 16.1006 66.5108 17.3533L61.146 51.5946C61.0383 52.3372 61.2383 53.0952 61.7301 53.652C62.2067 54.2242 62.9138 54.5489 63.6516 54.5489H69.6464C70.9069 54.5489 71.9523 53.6366 72.1674 52.3838L77.5322 18.1576C77.6398 17.4152 77.4398 16.6573 76.9481 16.1005C76.4714 15.5437 75.7797 15.2033 75.0266 15.2033ZM57.6873 1.46957C58.164 2.04182 58.3944 2.78431 58.2714 3.52671L52.3688 41.4188C52.3072 42.0681 52.2919 42.4697 52.2919 42.7327C52.2919 44.0009 52.5379 44.8826 53.0142 45.3314C53.4603 45.749 54.444 45.9808 54.613 46.0116C55.1511 46.0891 55.6582 46.3678 56.0425 46.77C56.5499 47.3113 56.8113 48.053 56.7496 48.7953L56.4115 52.198C56.3346 52.9252 56.0272 53.5279 55.5815 53.8526C55.1664 54.131 54.6591 54.3946 54.0136 54.6418C53.3679 54.8893 51.5541 55.4153 50.2936 55.4153C47.1117 55.4153 44.6521 54.6727 42.9766 53.2033C41.3165 51.7496 40.4711 49.6305 40.4711 46.8931C40.4711 46.1505 40.5481 45.3317 40.7018 44.4499C40.7478 44.0789 47.1117 3.2019 47.1884 2.75339C47.3884 1.50065 48.4491 0.587533 49.7096 0.587533H55.7658C56.5039 0.57207 57.1956 0.897327 57.6873 1.46957Z" fill="black"/>
</svg>
