<svg width="379" height="65" viewBox="0 0 379 65" fill="none" xmlns="http://www.w3.org/2000/svg">
<path d="M44.8094 0H8.5239C5.80965 0 3.75606 0.73458 2.24532 2.24532C0.73458 3.75606 0 5.80965 0 8.52621V57.4266C0 59.136 0.1848 60.4966 0.55209 61.4691C0.87318 62.3284 1.32363 62.9614 1.92654 63.4164C2.58489 63.9131 3.43959 64.2665 4.46061 64.4698C6.85608 64.948 10.2934 64.9295 13.6221 64.5068C14.4698 64.3982 15.2021 64.2896 15.8119 64.1833V40.0947H37.4197C38.9997 40.0947 40.1894 39.6719 41.0579 38.8034C41.9034 37.9602 42.3492 36.3132 42.3492 34.0425C42.3492 32.7466 42.169 31.4992 41.8133 30.3326C41.5915 29.605 41.3398 28.972 41.0649 28.4407H15.5879V11.8734H41.1296C42.7096 11.8734 43.8992 11.453 44.7655 10.5867C45.6109 9.74127 46.0568 8.05497 46.0568 5.71032C46.0568 4.40979 45.8743 3.13929 45.5185 1.93116C45.2945 1.18734 45.0589 0.54285 44.8094 0Z" fill="black"/>
<path d="M100.885 17.9418C98.4984 15.6294 95.5947 13.8022 92.2614 12.5133C88.8957 11.2197 85.0819 10.5636 80.9285 10.5636C76.759 10.5636 72.9406 11.2035 69.5749 12.4647C66.2462 13.7121 63.3494 15.5186 60.9678 17.8309C58.5885 20.1386 56.7174 22.996 55.4007 26.3178C54.0748 29.6719 53.4026 33.4788 53.4026 37.6368C53.4026 41.8664 54.0771 45.7149 55.4007 49.0667C56.7174 52.3931 58.5908 55.2483 60.9655 57.5536C63.3494 59.8659 66.2462 61.6724 69.5749 62.9198C72.9383 64.1833 76.759 64.8209 80.9285 64.8209C85.1027 64.8209 88.9327 64.2134 92.3145 63.0191C95.634 61.8433 98.5238 60.0946 100.898 57.8262C103.266 55.5601 105.133 52.7073 106.449 49.3531C107.778 45.9551 108.454 42.012 108.454 37.6368C108.454 33.5574 107.78 29.7897 106.452 26.4287C105.133 23.1092 103.262 20.2518 100.885 17.9418ZM89.8867 49.1822C87.8262 52.206 84.8509 53.7352 81.0371 53.7352C77.2464 53.7352 74.2411 52.2383 72.109 49.2838C70.1131 46.5234 69.099 42.6079 69.099 37.6414C69.099 32.7558 70.09 28.8819 72.042 26.1238C74.1418 23.16 77.1309 21.6562 80.9285 21.6562C84.7216 21.6562 87.7084 23.1577 89.8105 26.1238C91.7624 28.8842 92.7511 32.7604 92.7511 37.6414C92.7511 42.5109 91.7878 46.3917 89.8867 49.1822Z" fill="black"/>
<path d="M140.136 12.0604C138.055 12.3838 136.024 12.8389 134.093 13.4095C132.16 13.9823 130.33 14.6522 128.655 15.4007C127.052 16.1145 125.703 16.9137 124.645 17.7753C123.659 18.5792 122.899 19.4894 122.391 20.4757C121.896 21.4298 121.647 22.6263 121.647 24.0331V57.7614C121.647 59.3715 121.843 60.6513 122.224 61.566C122.582 62.4138 123.058 63.0537 123.687 63.5249C124.34 64.0169 125.153 64.3426 126.17 64.5182C128.644 64.9409 132.065 64.9178 135.022 64.5067C135.798 64.3958 136.412 64.2964 136.895 64.2087V26.1745L138.018 25.6548C139.104 25.1558 140.413 24.7169 141.913 24.3519C143.326 24.0077 144.842 23.682 146.449 23.3771C148.071 23.0699 149.76 22.8319 151.467 22.6749C152.751 22.5617 154.019 22.4854 155.257 22.4577C155.44 22.0234 155.606 21.5568 155.749 21.0694C155.994 20.2378 156.119 19.3808 156.119 18.5284C156.119 16.0521 155.373 14.3519 153.837 13.3378C152.07 12.169 149.552 11.5776 146.359 11.5776C144.292 11.5776 142.197 11.7393 140.136 12.0604Z" fill="black"/>
<path d="M182.52 15.2807C182.164 14.4352 181.688 13.7953 181.062 13.3241C180.416 12.839 179.582 12.5064 178.579 12.3331C176.114 11.9058 172.649 11.9335 169.73 12.3424C168.951 12.4486 168.334 12.5503 167.852 12.6403V43.2548C167.852 47.1541 168.475 50.4966 169.702 53.1924C170.91 55.8443 172.642 58.0365 174.844 59.702C177.105 61.416 179.847 62.705 182.996 63.5343C186.232 64.3866 189.829 64.8209 193.689 64.8209C197.78 64.8209 201.621 64.4005 205.107 63.5782C208.519 62.772 211.478 61.5869 213.911 60.0577C216.528 58.4985 217.729 56.3479 217.729 53.2617V19.0899C217.729 17.4821 217.533 16.2001 217.147 15.2784C216.791 14.4352 216.315 13.7953 215.689 13.3241C215.045 12.839 214.206 12.5064 213.206 12.3331C210.748 11.9104 207.286 11.9335 204.356 12.3424C203.578 12.4486 202.964 12.5503 202.478 12.6403V51.647L201.409 52.1783C200.686 52.541 199.741 52.8782 198.531 53.2086C197.265 53.5597 195.717 53.7306 193.802 53.7306C190.483 53.7306 187.863 52.9083 186.01 51.2866C184.079 49.6003 183.1 46.8976 183.1 43.2525V19.0899C183.102 17.4821 182.906 16.2001 182.52 15.2807Z" fill="black"/>
<path d="M237.316 62.2683C239.046 63.1161 241.194 63.7605 243.698 64.1787C246.278 64.6106 249.124 64.8255 252.148 64.8255C260 64.8255 265.962 63.3309 269.875 60.3787C273.67 57.5189 275.514 53.6474 275.514 48.5446C275.514 44.4882 274.22 41.2866 271.561 38.7571C268.794 36.1283 263.931 34.0031 257.115 32.4393L253.633 31.6539C251.247 31.1434 249.665 30.5843 248.676 29.889C247.403 28.9951 246.731 27.75 246.731 26.2831C246.731 25.1281 247.149 23.0168 249.944 21.8571C252.301 20.8754 255.888 20.4804 260.707 21.2265C262.208 21.4575 263.714 21.7532 265.183 22.0997C266.655 22.4485 268.039 22.8435 269.297 23.2755C269.937 23.4972 270.503 23.7121 270.995 23.9269C271.402 23.4464 271.76 22.9036 272.069 22.3053C272.562 21.349 272.811 20.1524 272.811 18.7479C272.811 17.3896 272.434 16.2577 271.661 15.2898C270.808 14.2249 269.607 13.3309 268.089 12.6356C266.454 11.8849 264.479 11.312 262.22 10.9285C259.893 10.5382 257.369 10.3372 254.731 10.3372C251.243 10.3372 248.029 10.7299 245.174 11.506C242.368 12.2683 239.935 13.3494 237.948 14.7192C236.043 16.0336 234.546 17.6968 233.499 19.658C232.455 21.61 231.926 23.8391 231.926 26.2831C231.926 30.8338 233.268 34.1972 236.031 36.5649C238.944 39.069 243.541 40.9447 249.702 42.1505L253.084 42.825C255.431 43.2454 257.14 43.8206 258.272 44.576C259.718 45.5416 260.483 46.9507 260.483 48.6531C260.483 49.7111 260.111 51.6908 257.618 53.0491C256.077 53.8876 254.031 54.2965 251.356 54.2965C247.484 54.2965 244.003 53.7883 241.018 52.7904C238.618 51.9911 236.412 51.0879 234.442 50.0946C233.95 50.6097 233.499 51.1965 233.107 51.8479C232.545 52.7719 232.261 53.9708 232.261 55.403C232.261 56.9276 232.668 58.2004 233.497 59.2907C234.403 60.4688 235.682 61.469 237.316 62.2683Z" fill="black"/>
<path d="M302.792 40.8246H306.036V64.8255H302.792V53.6289H290.258V64.8255H287.015V40.8246H290.258V50.7506H302.792V40.8246Z" fill="black"/>
<path d="M325.59 58.8428C325.491 59.6744 324.687 62.153 322.481 63.6198C321.677 64.1558 320.54 64.8233 317.734 64.8233C312.82 64.8233 309.912 61.1135 309.912 56.0638C309.912 50.6492 312.518 46.3387 318.3 46.3387C323.349 46.3387 325.821 50.3489 325.821 56.5328H313.053C313.053 60.1779 314.756 62.2823 318.135 62.2823C320.91 62.2823 322.548 60.1433 322.647 58.8428H325.59ZM322.783 54.1973C322.617 51.4877 321.48 48.9814 317.902 48.9814C315.195 48.9814 313.053 51.4877 313.053 54.1973H322.783Z" fill="black"/>
<path d="M329.233 52.1576C329.367 47.9788 332.141 46.341 336.454 46.341C337.856 46.341 342.938 46.7406 342.938 51.2197V61.2821C342.938 62.0166 343.308 62.3169 343.91 62.3169C344.176 62.3169 344.543 62.2523 344.878 62.183V64.322C344.377 64.4583 343.943 64.6593 343.275 64.6593C340.667 64.6593 340.265 63.3218 340.166 61.9843C339.029 63.2201 337.258 64.8256 333.848 64.8256C330.64 64.8256 328.366 62.7859 328.366 59.7759C328.366 58.3045 328.801 54.8972 333.682 54.2943L338.531 53.6914C339.233 53.6267 340.067 53.3565 340.067 51.6216C340.067 49.7829 338.729 48.7803 335.957 48.7803C332.615 48.7803 332.146 50.8178 331.947 52.1576H329.233ZM340 55.3985C339.531 55.7658 338.796 56.0337 335.151 56.5027C333.714 56.7036 331.406 57.1379 331.406 59.344C331.406 61.2474 332.377 62.3862 334.583 62.3862C337.325 62.3862 340 60.6122 340 58.2721V55.3985Z" fill="black"/>
<path d="M350.928 40.8246H347.988V64.8255H350.928V40.8246Z" fill="black"/>
<path d="M358.953 49.5495V60.9147C358.953 62.2845 360.122 62.2845 360.725 62.2845H361.758V64.5945C360.69 64.6939 359.856 64.8278 359.554 64.8278C356.646 64.8278 356.01 63.19 356.01 61.0833V49.5518H353.638V47.1101H356.01V42.2291H358.953V47.1078H361.758V49.5495H358.953Z" fill="black"/>
<path d="M378.875 64.8255H375.934V53.3933C375.934 51.0209 375.264 49.4824 372.457 49.4824C370.05 49.4824 367.579 50.8869 367.579 55.299V64.8255H364.636V40.8246H367.579V49.6834H367.643C368.48 48.5792 369.949 46.8421 372.758 46.8421C375.465 46.8421 378.875 47.9463 378.875 52.9266V64.8255Z" fill="black"/>
</svg>
