<svg width="281" height="122" viewBox="0 0 281 122" fill="none" xmlns="http://www.w3.org/2000/svg">
<path fill-rule="evenodd" clip-rule="evenodd" d="M7.08945 12.4799C0 21.454 0 34.6404 0 61.0131C0 87.3596 0 100.546 7.08945 109.546C7.49058 110.035 7.90042 110.514 8.31899 110.985C8.73755 111.456 9.17356 111.918 9.627 112.372C10.0805 112.808 10.5426 113.244 11.0135 113.68C11.4844 114.099 11.964 114.5 12.4523 114.884C21.4515 122 34.6101 122 60.9536 122C87.3232 122 100.482 122 109.455 114.884C109.961 114.5 110.449 114.099 110.92 113.68C111.391 113.244 111.853 112.808 112.306 112.372C112.742 111.918 113.178 111.456 113.614 110.985C114.033 110.514 114.434 110.035 114.818 109.546C121.933 100.546 121.933 87.3596 121.933 61.0131C121.933 34.6404 121.933 21.454 114.818 12.4799C114.434 11.9741 114.033 11.4857 113.614 11.0148C113.178 10.5439 112.742 10.0816 112.306 9.62814C111.853 9.19208 111.391 8.76474 110.92 8.34613C110.449 7.92751 109.961 7.51762 109.455 7.11645C100.482 -4.76837e-07 87.3232 0 60.9536 0C34.6101 0 21.4253 -4.76837e-07 12.4523 7.11645C11.964 7.51762 11.4844 7.92751 11.0135 8.34613C10.5426 8.76474 10.0805 9.19208 9.627 9.62814C9.17356 10.0816 8.73755 10.5439 8.31899 11.0148C7.90042 11.4857 7.49058 11.9741 7.08945 12.4799ZM65.584 35.7131V48.3238C65.584 48.4285 65.6014 48.5244 65.6363 48.6116C65.6712 48.6988 65.7235 48.7773 65.7932 48.8471C65.863 48.9169 65.9415 48.9692 66.0287 49.0041C66.1159 49.039 66.2118 49.0564 66.3165 49.0564C66.9393 49.054 67.6393 49.0576 68.3972 49.0615C76.0431 49.1008 89.5734 49.1704 89.0498 43.4574C89.0367 43.4051 89.0105 43.2547 88.9844 43.1042C88.9582 42.9538 88.9321 42.8033 88.919 42.751C86.6954 29.9309 75.6557 19.3348 61.0844 19.3348C44.708 19.3348 32.8574 32.7304 32.8574 47.5912C32.8574 53.3995 35.4211 60.7514 38.9789 68.2342C40.1038 70.4581 41.8304 72.8913 44.6819 72.8913H61.0582C61.2675 72.8913 61.4594 72.9349 61.6338 73.0221C61.8256 73.0918 61.9913 73.1965 62.1308 73.336C62.2878 73.493 62.4011 73.6587 62.4709 73.8331C62.5581 74.025 62.6017 74.2256 62.6017 74.4349V83.3043C62.6017 83.3915 62.593 83.4874 62.5755 83.5921C62.5581 83.6793 62.5232 83.7752 62.4709 83.8799C62.436 83.9671 62.3924 84.0456 62.3401 84.1154C62.2878 84.2026 62.2267 84.2811 62.157 84.3508L61.8954 84.5601C61.8082 84.6125 61.7122 84.6561 61.6076 84.691C61.503 84.7258 61.3983 84.752 61.2937 84.7695C61.189 84.7869 61.0844 84.7956 60.9797 84.7956C60.1949 84.7171 59.6194 84.0107 59.6194 83.2258V76.685C59.6194 76.2402 59.2532 75.8739 58.8084 75.8739H50.6987C44.0802 75.8739 44.2633 78.0716 44.6819 79.0135C50.6464 89.2957 57.1865 98.3744 59.8549 101.985C59.9857 102.194 60.1688 102.351 60.4042 102.456C60.6135 102.561 60.8489 102.613 61.1105 102.613C61.346 102.613 61.5814 102.561 61.7907 102.456C62.0262 102.351 62.2093 102.194 62.3401 101.985C66.7612 96.0197 81.7511 75.1151 87.2709 58.4229L87.3232 58.2659C87.3694 58.1427 87.4065 58.0195 87.4453 57.891C87.4723 57.8011 87.5002 57.7087 87.5325 57.6118C88.8405 53.164 86.643 52.0652 65.5578 52.0652H64.119C63.2819 52.0652 62.6017 51.3849 62.6017 50.5477V35.7131C62.6017 35.5037 62.6453 35.3119 62.7325 35.1375C62.8022 34.963 62.9069 34.8061 63.0464 34.6665C63.1859 34.527 63.3429 34.4136 63.5173 34.3264C63.7091 34.2566 63.901 34.2217 64.0928 34.2217C64.2847 34.2217 64.4765 34.2566 64.6684 34.3264C64.8428 34.4136 64.9997 34.527 65.1392 34.6665C65.2788 34.8061 65.3834 34.963 65.4532 35.1375C65.5404 35.3119 65.584 35.5037 65.584 35.7131Z" fill="black"/>
<path d="M269.722 61.4765L270.042 58.5794L266.083 61.2173C235.211 70.3914 234.632 17.817 265.534 25.9085L270.047 28.6379C269.651 27.7586 269.371 26.4727 270.21 25.7459H280.675V61.4816H269.727L269.722 61.4765ZM270.093 43.6468C270.093 38.9505 266.286 35.1385 261.585 35.1385C256.883 35.1385 253.076 38.9454 253.076 43.6468C253.076 48.3482 256.883 52.155 261.585 52.155C266.286 52.155 270.093 48.3482 270.093 43.6468Z" fill="black"/>
<path d="M160.105 25.7408C160.867 25.9746 160.532 27.9518 160.593 28.6379C167.205 22.0306 179.337 24.1043 182.727 33.0598C183.022 33.8425 183.769 36.1652 183.769 36.8463V61.4715H172.821L172.831 40.0483C172.552 34.61 164.872 33.1004 161.878 37.1665C161.492 37.69 160.587 39.5401 160.587 40.0636V61.4715H149.64V26.2237L150.122 25.7408H160.105Z" fill="black"/>
<path d="M214.494 31.7331C214.621 31.9314 215.318 31.8551 214.967 32.7954L206.088 37.6239L205.65 37.512C204.654 35.1283 201.346 33.4053 198.982 34.9758C197.234 36.1397 198.962 37.4358 200.278 38.0406C205.879 40.6073 214.332 40.1804 215.551 48.5209C218.093 65.8983 190.271 66.0508 185.859 54.6912C185.722 54.3456 185.579 54.1016 185.839 53.7458L195.028 48.5972C194.865 52.7598 204.202 54.2592 204.614 50.9555C204.873 48.8869 198.204 47.6925 196.654 47.1385C192.67 45.7103 188.232 43.7077 187.328 39.0826C184.36 23.9009 207.028 19.8653 214.489 31.7331H214.494Z" fill="black"/>
<path d="M233.346 16.0838V25.7408H240.269L240.752 26.2236V36.3634H233.346V49.4002C233.346 52.399 239.323 50.8793 240.752 51.9771V61.4765C234.876 62.0305 226.342 62.4828 223.623 55.906C223.14 54.742 222.398 51.23 222.398 50.0457V36.3634H216.924V25.7408H222.398V19.4638L233.346 16.0838Z" fill="black"/>
<path d="M145.117 25.7408H134.189V61.4765H145.117V25.7408Z" fill="black"/>
<path d="M139.521 23.0419C143.122 23.0419 146.042 20.1224 146.042 16.521C146.042 12.9195 143.122 10 139.521 10C135.92 10 133 12.9195 133 16.521C133 20.1224 135.92 23.0419 139.521 23.0419Z" fill="black"/>
<path d="M187.307 110.732H176.36V87.7128C176.36 87.2859 175.175 85.4968 174.738 85.1512C172.121 83.0927 168.146 84.1804 166.784 87.1486C166.662 87.418 166.057 89.2071 166.057 89.3189V111.047C165.823 111.133 165.671 110.727 165.574 110.727H155.434C154.835 104.384 155.18 97.9441 155.099 91.5603C155.094 91.0012 155.384 90.4523 155.368 89.9644C155.257 85.8424 152.578 82.9453 148.36 84.5006C145.625 85.512 145 88.2719 144.797 90.9148C144.319 97.202 145.02 103.764 145 110.071C145 110.447 144.98 110.488 144.649 110.727H134.189V74.9911H144.654C145.554 75.6671 144.4 76.9936 144.975 77.8881C149.727 72.648 159.302 72.8767 163.648 78.5285C164.725 76.897 166.835 75.5044 168.71 74.9047C175.536 72.709 183.379 75.1232 186.179 82.0813C186.377 82.5743 187.312 85.512 187.312 85.7763V110.727L187.307 110.732Z" fill="black"/>
<path d="M218.534 110.732V107.835C211.927 113.863 201.696 112.709 195.836 106.229C187.897 97.4512 189.96 81.5732 200.664 75.962C206.224 73.0496 214.077 73.5172 218.529 78.2186C218.656 77.1564 218.128 75.7688 219.017 75.0014H229.482C229.569 75.2352 229.162 75.3876 229.162 75.4842V110.737H218.54L218.534 110.732ZM218.692 92.9429C218.692 88.2415 214.88 84.4245 210.174 84.4245C205.467 84.4245 201.655 88.2364 201.655 92.9429C201.655 97.6494 205.467 101.461 210.174 101.461C214.88 101.461 218.692 97.6494 218.692 92.9429Z" fill="black"/>
<path d="M273.585 65.3392V74.9961H280.991C281.077 75.2299 280.671 75.3824 280.671 75.479V85.6187H273.591V99.3011C273.591 99.4485 275.136 100.75 275.359 100.75H280.671V110.732C274.2 111.499 265.885 111.642 263.456 104.282C263.319 103.865 262.643 101.131 262.643 100.912V85.6187H257.331L256.848 85.1359V75.479L257.331 74.9961H262.643V68.2363L273.591 65.3392H273.585Z" fill="black"/>
<path d="M255.556 74.3558V86.5896C252.553 86.2288 247.831 87.0928 246.072 89.8222C245.874 90.1271 244.929 92.3939 244.929 92.5413V110.732H233.981V75.4791L234.464 74.9962H244.929V80.1449C245.716 79.5807 246.057 78.3203 246.728 77.5985C248.736 75.4537 252.664 74.3762 255.551 74.3457L255.556 74.3558Z" fill="black"/>
</svg>
