<svg width="466" height="145" viewBox="0 0 466 145" fill="none" xmlns="http://www.w3.org/2000/svg">
<path d="M6.88812 6.80563C6.88812 5.69198 3.75341 2.72225 2.72225 2.72225H0.0412456V0.0412487H15.8385L32.0896 40.9575H32.4608L49.578 0.0412487H63.7254V2.72225H61.0444C60.0133 2.72225 56.8785 5.69198 56.8785 6.80563V47.4744C56.8785 48.5881 60.0133 51.5578 61.0444 51.5578H63.7254V54.2388H42.7311V51.5578H45.4121C46.4432 51.5578 49.578 48.5881 49.578 47.4744V8.00177L29.821 55.2287L10.0641 7.17684V47.4744C10.0641 48.5881 13.1988 51.5578 14.2299 51.5578H16.911V54.2388H0V51.5578H2.681C3.71216 51.5578 6.84687 48.5881 6.84687 47.4744V6.80563H6.88812Z" fill="black"/>
<path d="M86.5347 31.0996C87.4833 25.6551 86.6172 20.7469 80.5952 20.7469C73.5833 20.7469 70.1599 26.3151 70.1599 34.6056C70.1599 42.4424 75.1507 48.918 83.1937 48.918C89.2982 48.918 91.8967 46.7732 94.3714 42.6486H96.5162C94.2064 50.3204 89.5044 55.1462 80.7189 55.1462C70.9436 55.1462 64.6329 46.8145 64.6329 36.8329C64.6329 25.4902 72.1397 18.0659 81.3789 18.0659C86.9059 18.0659 90.618 19.7982 93.8352 22.9742L88.6795 30.9347L86.5347 31.0996Z" fill="black"/>
<path d="M157.478 10.7653C160.077 10.7653 162.015 8.99168 162.015 6.22818C162.015 3.46469 160.077 1.7736 157.478 1.7736C154.88 1.7736 152.859 3.46469 152.859 6.22818C152.859 8.99168 154.838 10.7653 157.478 10.7653Z" fill="black"/>
<path d="M207.386 51.599C206.355 51.599 203.509 49.083 203.509 47.8869V28.2949C203.509 22.273 199.178 18.2308 193.734 18.2308C187.382 18.2308 184.123 21.9017 179.875 26.1914L178.514 18.9733H167.419V21.6543H169.563C170.594 21.6543 173.44 24.2528 173.44 25.3664V47.8456C173.44 49.0418 170.594 51.5578 169.563 51.5578H165.274C164.325 51.5578 161.397 49.0418 161.397 47.8456V18.932H148.816V21.613H150.961C151.992 21.613 154.838 24.2115 154.838 25.3252V47.8044C154.838 49.0005 151.992 51.5165 150.961 51.5165H147.043C145.929 51.5165 141.516 48.1756 140.65 46.9794L121.635 21.7368L134.834 7.5893C135.576 6.76438 140.732 2.681 141.763 2.681H144.362V0H124.687V2.681H127.286C128.317 2.681 131.369 6.39316 130.544 7.38307L111.159 28.9961V6.80563C111.159 5.69198 114.293 2.72225 115.325 2.72225H118.006V0.0412487H96.8463V2.72225H99.5273C100.558 2.72225 103.693 5.69198 103.693 6.80563V47.4744C103.693 48.5881 100.558 51.5578 99.5273 51.5578H96.8463V54.2388H118.006V51.5578H115.366C114.335 51.5578 111.2 48.5881 111.2 47.4744V33.0795L116.727 27.14L135.494 54.2388H185.814V51.5578H183.835C182.803 51.5578 179.957 49.0418 179.957 47.8456V29.9035C179.957 27.5112 186.433 22.6029 191.424 22.6029C195.219 22.6029 196.992 25.2014 196.992 28.6249V47.8456C196.992 49.0418 194.146 51.5578 193.115 51.5578H191.094V54.2388H209.118V51.5578H207.386V51.599Z" fill="black"/>
<path d="M213.903 41.9062C213.903 45.1646 218.687 52.259 226.277 52.259C230.69 52.259 233.124 50.6916 233.124 47.4332C233.124 43.4735 229.618 42.1536 226.483 40.7925C224.008 39.7614 222.028 38.9364 219.182 37.6578C214.934 35.7192 211.717 32.8732 211.717 28.0474C211.717 21.6955 215.511 18.0659 222.276 18.0659C226.153 18.0659 228.298 19.9219 230.979 19.9219C232.01 19.9219 232.629 19.7157 232.917 18.9733H234.856V29.8623H232.711C232.711 26.975 228.628 20.7881 222.07 20.7881C217.986 20.7881 216.048 22.5617 216.048 25.4902C216.048 28.5424 218.151 29.656 221.781 31.2234C224.462 32.337 226.483 33.2445 229.37 34.3581C233.165 35.843 237.496 38.8952 237.496 44.5459C237.496 51.2691 232.876 55.1875 226.235 55.1875C221.781 55.1875 219.141 53.0839 216.089 53.0839C214.687 53.0839 214.315 53.4551 213.408 54.28H211.717V41.9062H213.903Z" fill="black"/>
<path d="M239.682 36.6267C239.682 26.1914 246.776 18.0659 255.851 18.1483C263.811 18.2308 268.307 23.6753 268.678 30.5222L268.843 33.0382L245.374 34.8943C245.374 41.9887 250.282 48.9593 258.243 48.9593C264.265 48.9593 267.028 46.6495 269.173 42.6074H271.318C269.049 50.3204 264.677 55.105 256.016 55.105C246.199 55.105 239.682 46.5258 239.682 36.6267ZM262.78 30.8934C263.357 25.9026 262.574 20.8293 255.686 20.8293C248.385 20.8293 245.498 26.8513 245.25 32.3783L262.78 30.8934Z" fill="black"/>
<path d="M274.865 25.6552C274.329 24.459 271.194 21.613 270.328 21.613H268.761V18.932H287.445V21.613H285.3C284.31 21.613 282.166 24.0878 282.166 25.4077L290.374 44.2572L298.417 25.4902C298.499 24.0878 296.313 21.613 295.364 21.613H293.22V18.932H307.285V21.613H305.635C304.81 21.613 302.294 24.294 301.551 25.4902L289.549 52.5477L280.681 72.0572L277.464 70.5723L286.868 51.3515L274.865 25.6552Z" fill="black"/>
<path d="M104.807 82.2862C104.807 86.6171 107.776 90.123 112.478 91.8966C119.49 99.4034 127.904 107.405 135.288 113.963C137.391 110.54 138.134 106.869 138.134 102.414C138.134 97.4236 134.875 94.4539 129.554 94.2889V91.6079H148.775V94.2889H146.672C145.64 94.2889 141.887 98.5372 141.846 100.187C141.681 104.807 140.443 110.54 137.02 115.448C140.98 118.872 144.898 122.089 148.033 124.234H151.291V126.915H145.393C140.113 126.915 136.36 125.512 131.905 121.388C127.575 125.554 122.089 127.863 114.087 127.863C105.302 127.863 96.8873 121.388 96.8873 111.86C96.8873 104.353 100.682 98.826 105.59 95.4025C102.992 92.0616 101.177 88.8444 101.177 84.0598C101.177 76.3055 106.25 71.9747 114.211 71.9747C119.202 71.9747 121.8 73.6245 124.11 73.6245C125.306 73.6245 126.048 73.542 126.626 72.6758H128.936V85.5034H126.626C126.626 81.8325 121.264 74.5319 114.046 74.5319C108.271 74.5319 104.807 77.3779 104.807 82.2862ZM102.497 108.354C102.497 116.108 110.787 123.532 118.5 123.532C123.326 123.532 127.203 122.171 130.256 119.862C122.377 113.097 113.551 104.6 106.786 96.8461C103.982 99.7746 102.497 102.744 102.497 108.354Z" fill="black"/>
<path d="M206.932 91.8966C206.932 86.3284 200.663 74.9856 190.475 74.9856C181.071 74.9856 175.503 80.1827 174.554 92.4328C174.183 97.2174 174.348 101.424 174.719 106.209C175.626 115.654 182.185 123.491 193.197 123.491C202.601 123.491 207.138 119.532 210.644 112.396H213.49C209.984 122.089 202.395 127.905 191.589 127.905C175.998 127.905 165.975 115.077 165.975 99.6096C165.975 84.1011 175.049 71.7684 190.269 71.7684C196.084 71.7684 199.714 74.1607 203.963 74.1607C205.695 74.1607 206.479 73.707 207.303 72.7583H209.325V91.9791H206.932V91.8966Z" fill="black"/>
<path d="M217.079 109.22C217.079 97.8361 225.287 90.6592 234.567 90.6592C243.889 90.6592 252.056 97.7948 252.056 109.22C252.056 120.604 243.848 127.863 234.567 127.863C225.287 127.863 217.079 120.645 217.079 109.22ZM245.002 115.118C245.456 111.53 245.456 106.704 245.002 103.116C244.343 97.4648 241.208 93.6702 234.65 93.6702C228.298 93.6702 225.122 97.4648 224.297 103.074C223.761 106.498 223.761 111.571 224.297 115.077C225.122 120.521 228.174 124.522 234.65 124.522C241.29 124.522 244.343 120.645 245.002 115.118Z" fill="black"/>
<path d="M309.223 120.48C309.223 121.676 311.904 124.192 312.935 124.192H314.585V126.873H297.014V124.192H299.035C300.066 124.192 302.747 121.676 302.747 120.48V100.888C302.747 97.4648 301.015 95.0726 297.221 95.0726C292.601 95.0726 286.868 99.5271 286.868 101.919V120.48C286.868 121.676 289.549 124.192 290.58 124.192H292.601V126.873H274.659V124.192H276.68C277.711 124.192 280.392 121.676 280.392 120.48V100.888C280.392 97.4648 278.618 95.0726 274.824 95.0726C270.204 95.0726 264.471 99.7746 264.471 102.167V120.48C264.471 121.676 267.152 124.192 268.183 124.192H270.204V126.873H252.262V124.192H254.283C255.314 124.192 257.995 121.676 257.995 120.48V98.001C257.995 96.8874 255.314 94.2889 254.283 94.2889H252.262V91.6079H263.027L264.43 98.3723C268.472 94.1239 271.07 90.8654 277.257 90.8654C281.959 90.8654 285.919 93.3814 286.579 98.331C290.91 94.0826 293.673 90.9479 299.613 90.9479C304.892 90.9479 309.223 94.5363 309.223 100.93V120.48Z" fill="black"/>
<path d="M325.02 91.6079L326.217 98.826C329.269 93.1752 333.146 90.7004 338.962 90.7004C347.541 90.7004 352.738 97.9185 352.738 108.725C352.738 119.532 346.798 127.657 338.219 127.657C332.032 127.657 328.774 125.265 326.217 120.728V137.556C326.217 138.752 328.98 141.268 329.929 141.268H332.238V143.949H313.636V141.268H315.946C316.977 141.268 319.658 138.752 319.658 137.556V98.001C319.658 96.8874 316.977 94.2889 315.946 94.2889H313.636V91.6079H325.02ZM326.134 104.477V113.716C326.134 119.243 330.382 123.904 336.322 123.904C342.344 123.904 345.19 120.109 345.932 114.5C346.386 111.159 346.468 107.281 346.015 103.982C345.272 98.3722 342.22 94.8251 337.147 94.8251C331.166 94.8663 327.825 98.9497 326.134 104.477Z" fill="black"/>
<path d="M429.208 124.234C428.177 124.234 425.331 121.718 425.331 120.521V100.888C425.331 94.8663 421 90.8242 415.556 90.8242C409.204 90.8242 405.945 94.4539 401.697 98.7847L400.377 91.5666H389.282V94.2476H391.427C392.458 94.2476 395.304 96.8461 395.304 97.9598V120.439C395.304 121.635 392.458 124.151 391.427 124.151H387.178C386.23 124.151 383.301 121.635 383.301 120.439V101.218C383.301 94.2889 377.733 90.7004 370.102 90.7004C362.967 90.7004 358.842 93.1752 355.955 96.145L360.657 103.239H363.173C360.574 97.2174 362.513 93.3402 368.535 93.3402C374.887 93.3402 376.867 96.1862 376.784 101.177L376.702 105.59L367.628 107.446C362.637 108.478 356.244 110.952 356.244 117.964C356.244 123.697 360.327 127.575 365.194 127.575C370.391 127.575 374.145 123.491 376.949 119.82L377.857 126.915H407.636V124.234H405.615C404.584 124.234 401.738 121.718 401.738 120.521V102.538C401.738 100.146 408.214 95.2375 413.205 95.2375C416.999 95.2375 418.773 97.8361 418.773 101.259V120.48C418.773 121.676 415.927 124.192 414.896 124.192H412.875V126.873H430.899V124.192H429.208V124.234ZM376.826 116.562C375.341 119.16 371.629 122.749 368.164 122.749C364.658 122.749 362.513 120.15 362.513 117.098C362.513 113.592 363.998 111.2 368.411 110.086L376.826 107.941V116.562Z" fill="black"/>
<path d="M433.58 98.2898C433.044 97.0936 429.91 94.2476 429.043 94.2476H427.476V91.5666H446.161V94.2476H444.016C443.026 94.2476 440.881 96.7224 440.881 98.0423L449.089 116.892L457.132 98.1248C457.215 96.7224 455.028 94.2476 454.08 94.2476H451.935V91.5666H466V94.2476H464.35C463.525 94.2476 461.009 96.9286 460.267 98.1248L448.264 125.182L439.396 144.692L436.179 143.207L445.583 123.986L433.58 98.2898Z" fill="black"/>
</svg>
