<svg width="500" height="136" viewBox="0 0 500 136" fill="none" xmlns="http://www.w3.org/2000/svg">
<path d="M44.9583 0C48.8761 21.7487 88.6881 56.7261 68.7821 78.2366C63.2068 84.2633 56.3626 85.5973 48.8999 82.2226C47.0282 81.373 42.6188 77.252 42.2064 77.2202C41.2626 77.1408 26.694 86.5025 26.2895 87.3601C24.7906 90.5759 34.0219 99.5724 36.6232 101.661C53.8645 115.477 78.2037 114.707 94.9374 100.462C123.559 76.0927 115.684 36.232 105.247 4.77217C169.216 42.4731 139.706 140.656 64.3567 135.828C-9.85849 131.072 -24.5699 25.1234 44.9583 0Z" fill="black"/>
<path d="M332.057 36.5258V58.7588C342.438 48.6904 353.795 56.2973 357.427 68.2793C362.36 47.4676 392.441 50.207 394.606 71.9637C397.247 98.5878 366.262 106.473 356.658 82.5879C355.642 95.221 340.725 101.311 331.668 92.1243C330.074 93.4106 331.018 95.499 328.512 96.0945C326.6 96.5471 299.874 96.5153 298.478 95.9674C296.789 95.3084 296.646 90.0916 297.296 89.0514C297.947 88.0112 302.531 88.3288 302.721 88.1303C303.554 87.2727 302.864 66.3975 300.96 64.4997C299.2 62.7449 292.3 63.1578 290.777 65.4446C289.976 66.6516 289.485 86.3596 289.992 87.6697C290.341 88.5829 297.582 87.4553 294.798 96.0707H275.368C274.012 96.0707 273.703 89.9566 274.29 89.0355C274.758 88.297 277.827 88.6861 278.192 87.63C278.517 86.6931 278.461 69.5657 278.184 67.8426C277.256 62.0858 267.961 61.5697 266.993 67.0406C266.692 68.7478 266.621 86.701 266.993 87.6618C267.366 88.6226 271.101 88.1144 271.688 89.0355C272.18 89.8057 272.053 94.9749 271.062 95.7213C269.682 96.7456 238.348 96.6027 236.651 96.1024C235.429 95.7451 235.366 92.4657 235.31 91.3064C224.572 101.184 212.137 97.1744 210.709 82.1988C210.329 78.2286 211.653 65.4208 210.789 63.1816C210.44 62.2685 203.199 63.396 205.983 54.7807H221.051V81.381C221.051 89.0434 232.947 88.9481 234.375 84.3983C234.755 83.1755 234.969 64.1742 234.581 63.1896C234.232 62.2764 226.991 63.4039 229.775 54.7886H245.636V88.1382H255.153V62.729C255.153 62.062 245.565 64.6347 248.808 54.7886H265.066C266.319 54.7886 266.438 58.6159 266.264 59.5529C271.308 54.8363 277.319 51.9777 283.981 55.7018C285.258 56.4164 288.517 60.331 288.858 60.331C289.62 60.331 293.696 53.0656 302.126 54.1613C307.527 54.868 313.047 60.9583 313.047 66.3022V88.1382H320.977V45.2602C320.977 44.9108 314.863 44.6885 314.641 44.4582C314.276 44.0771 314.879 37.9153 314.633 36.5258H332.08H332.057ZM380.212 64.5474C366.055 53.0735 361.273 93.7997 378.824 86.9233C384.351 84.7556 384.05 67.66 380.212 64.5474ZM335.8 63.7057C334 64.1424 332.525 65.1746 332.08 67.12C331.716 68.7161 331.787 83.0326 332.215 84.4062C333.5 88.5035 343.889 89.6469 345.348 81.9924C346.792 74.4411 346.839 60.998 335.792 63.6977L335.8 63.7057Z" fill="black"/>
<path d="M494.635 36.5258V88.1382C494.635 88.7258 502.146 86.8042 499.394 96.0786H445.465C445.259 96.0786 444.981 92.1799 444.268 92.1005C443.689 92.0369 438.018 96.4915 433.72 96.69C429.422 96.8885 425.813 93.9188 423.791 93.8871C421.507 93.8474 415.828 96.8806 411.839 96.7774C393.107 96.2692 403.409 72.2733 400.308 63.2292C399.737 61.5697 394.392 63.7613 393.852 59.1797C393.02 52.1286 399.269 55.7574 400.268 54.7966C400.847 54.2328 399.269 46.0939 401.006 44.8155C401.854 44.1962 410.57 44.1962 411.419 44.8155C413.156 46.0939 411.57 54.2169 412.156 54.7966C412.743 55.3762 418.192 53.5579 419.183 56.0988C422.974 65.8575 412.64 63.0466 412.156 63.523C411.324 64.3488 411.958 86.304 412.902 87.0027C413.758 87.63 418.509 87.638 419.35 87.0027C420.626 86.0499 419.016 78.2763 425.876 74.4808C426.527 74.1235 432.039 72.2575 432.38 72.2575H443.879C444.331 68.057 443.602 63.5866 438.669 62.7766C429.326 61.2362 431.928 67.5409 431.19 68.2952C430.881 68.6128 423.886 68.0649 422.458 68.2952C422.902 65.8496 421.594 60.5216 422.982 58.6794C428.438 51.4457 454.982 53.2958 454.982 64.7141V88.1382C456.069 88.837 462.913 88.5352 462.913 88.1382V62.729C462.913 62.062 453.325 64.6347 456.568 54.7886H474.016V86.9472C474.016 88.7814 481.344 88.6623 482.739 88.1382V45.2602C482.739 44.9346 478.187 44.6011 478.029 44.4185C477.545 43.8785 478.267 37.9947 477.981 36.5258H494.635ZM443.879 78.6098C439.961 78.451 432.07 77.7363 431.317 83.1596C430.151 91.6161 447.86 88.1859 443.879 78.6098Z" fill="black"/>
<path d="M207.149 40.4959C208.727 41.0835 208.814 46.5624 207.989 47.6979C207.053 48.9921 202.438 48.1663 201.962 49.7703C200.138 55.9003 203.025 73.917 201.898 82.0956C199.115 102.304 163.379 101.28 165.512 79.4117H176.615C177.067 79.4117 175.862 85.8276 180.351 87.1774C184.84 88.5273 188.313 87.1854 189.883 82.7705C190.962 79.7214 191.739 52.5097 190.922 49.7782C190.447 48.1822 181.429 49.7385 184.546 40.5118C189.598 41.5917 203.247 39.0667 207.149 40.5118V40.4959Z" fill="black"/>
<path d="M467.275 50.7867C471.142 50.7867 474.277 47.6476 474.277 43.7753C474.277 39.9031 471.142 36.764 467.275 36.764C463.407 36.764 460.272 39.9031 460.272 43.7753C460.272 47.6476 463.407 50.7867 467.275 50.7867Z" fill="black"/>
</svg>
