<svg width="501" height="116" viewBox="0 0 501 116" fill="none" xmlns="http://www.w3.org/2000/svg">
<path d="M57.41 43.96L60.8 38.36H75.6C75.1 37.58 74.53 36.85 73.9 36.16C71.11 33.13 67.47 31.46 63.64 31.46H34.3V64.27H63.64C67.47 64.27 71.11 62.6 73.9 59.57C74.54 58.87 75.11 58.13 75.62 57.34H57.41L60.8 51.74H77.95C78.23 50.48 78.37 49.2 78.37 47.86C78.37 46.52 78.22 45.22 77.94 43.95H57.4L57.41 43.96Z" fill="black"/>
<path d="M110.69 5.31C105.38 0 96.84 0 79.75 0H36.25C19.16 0 10.62 0 5.31 5.31C0 10.62 0 19.16 0 36.25V79.75C0 96.84 0 105.38 5.31 110.69C10.62 116 19.16 116 36.25 116H79.75C96.84 116 105.38 116 110.69 110.69C116 105.38 116 96.84 116 79.75V36.25C116 19.16 116 10.62 110.69 5.31ZM93.04 57.35H85.72C84.56 60.43 82.82 63.27 80.57 65.71C78.19 68.29 75.41 70.27 72.37 71.56L90.29 92.91C90.51 93.18 90.32 93.58 89.98 93.58H82.44C80.27 93.58 78.22 92.62 76.82 90.96L64.22 75.95C62.83 74.29 60.77 73.33 58.6 73.33H34.29V92.92C34.29 93.29 33.99 93.58 33.63 93.58H25.89C25.52 93.58 25.23 93.28 25.23 92.92V23.06C25.23 22.69 25.53 22.4 25.89 22.4H63.63C70.02 22.4 76.03 25.11 80.56 30.03C80.99 30.5 81.4 30.97 81.79 31.47C83.44 33.56 84.75 35.88 85.7 38.37H96.43L93.04 43.97H87.15C87.34 45.25 87.44 46.56 87.44 47.88C87.44 49.2 87.35 50.49 87.16 51.76H96.43L93.04 57.36V57.35Z" fill="black"/>
<path d="M195.89 69.79C201.04 68.04 205.01 65.23 207.8 61.37C210.58 57.52 211.98 52.86 211.98 47.38C211.98 39.67 209.26 33.62 203.83 29.23C198.4 24.84 190.95 22.64 181.47 22.64H153.63C153.25 22.64 152.95 22.94 152.95 23.3V92.95C152.95 93.32 153.25 93.61 153.63 93.61H162.71C163.09 93.61 163.39 93.31 163.39 92.95V72.01H181.46C181.66 72.01 181.87 72.01 182.1 72.01C184.62 71.96 187.01 73.12 188.46 75.13L199.58 90.49C200.99 92.45 203.3 93.61 205.76 93.61H211.91C212.46 93.61 212.79 93.01 212.47 92.57L195.89 69.78V69.79ZM181.16 63.4H163.4V31.46H181.16C187.77 31.46 192.82 32.85 196.31 35.62C199.79 38.32 201.53 42.24 201.53 47.38C201.53 52.52 199.79 56.47 196.31 59.24C192.83 62.01 187.78 63.4 181.16 63.4Z" fill="black"/>
<path d="M274.81 67.05C274.81 61.64 273.63 56.84 271.26 52.65C268.96 48.46 265.72 45.21 261.55 42.92C257.44 40.55 252.74 39.37 247.45 39.37C242.16 39.37 237.39 40.55 233.14 42.92C228.96 45.22 225.66 48.47 223.22 52.65C220.85 56.84 219.67 61.54 219.67 66.74C219.67 71.94 220.89 76.74 223.32 80.93C225.82 85.12 229.35 88.4 233.87 90.77C238.4 93.07 243.58 94.22 249.44 94.22C254.04 94.22 258.18 93.47 261.87 91.99C265.44 90.58 268.44 88.56 270.88 85.93C271.11 85.69 271.11 85.31 270.88 85.06L266.22 79.77C265.96 79.48 265.49 79.46 265.21 79.74C261.24 83.71 256.09 85.7 249.74 85.7C244.31 85.7 239.75 84.28 236.06 81.44C232.44 78.53 230.31 74.71 229.69 69.98H273.99C274.34 69.98 274.63 69.72 274.67 69.38C274.77 68.44 274.81 67.65 274.81 67.04V67.05ZM229.68 62.99C230.24 58.39 232.12 54.68 235.32 51.84C238.59 49 242.63 47.58 247.43 47.58C252.23 47.58 256.24 49.03 259.44 51.94C262.71 54.78 264.63 58.46 265.19 63H229.68V62.99Z" fill="black"/>
<path d="M500.26 67.05C500.26 61.64 499.08 56.84 496.7 52.65C494.4 48.46 491.17 45.21 486.99 42.92C482.88 40.55 478.18 39.37 472.89 39.37C467.6 39.37 462.83 40.55 458.58 42.92C454.4 45.22 451.1 48.47 448.66 52.65C446.29 56.84 445.11 61.54 445.11 66.74C445.11 71.94 446.32 76.74 448.76 80.93C451.27 85.12 454.79 88.4 459.31 90.77C463.84 93.07 469.02 94.22 474.88 94.22C479.48 94.22 483.62 93.47 487.31 91.99C490.88 90.58 493.89 88.56 496.32 85.93C496.55 85.69 496.55 85.31 496.32 85.06L491.66 79.77C491.4 79.48 490.93 79.46 490.66 79.74C486.69 83.71 481.54 85.7 475.19 85.7C469.76 85.7 465.2 84.28 461.51 81.44C457.89 78.53 455.76 74.71 455.14 69.98H499.44C499.79 69.98 500.08 69.72 500.12 69.38C500.22 68.44 500.27 67.65 500.27 67.04L500.26 67.05ZM455.13 62.99C455.68 58.39 457.57 54.68 460.77 51.84C464.04 49 468.08 47.58 472.88 47.58C477.68 47.58 481.69 49.03 484.89 51.94C488.16 54.78 490.08 58.46 490.64 63H455.13V62.99Z" fill="black"/>
<path d="M349.67 98.98C347.31 104.46 344.51 108.31 341.31 110.54C338.17 112.77 334.38 113.89 329.92 113.89C327.2 113.89 324.56 113.45 321.98 112.57C319.67 111.82 317.71 110.73 316.11 109.29C315.88 109.08 315.82 108.74 315.97 108.47L319.57 102.33C319.78 101.97 320.28 101.89 320.61 102.16C323.32 104.43 326.43 105.57 329.92 105.57C332.36 105.57 334.38 104.93 335.98 103.64C337.65 102.42 339.15 100.29 340.47 97.25L342.25 93.5L318.23 40.79C318.03 40.35 318.36 39.86 318.85 39.86H327.8C328.07 39.86 328.32 40.02 328.42 40.26L347.56 82.86L366.5 40.27C366.61 40.03 366.85 39.87 367.13 39.87H375.46C375.95 39.87 376.28 40.36 376.08 40.8L349.66 98.99L349.67 98.98Z" fill="black"/>
<path d="M413.22 39.35C420.26 39.35 425.82 41.34 429.94 45.33C434.12 49.25 436.21 55.03 436.21 62.67V92.93C436.21 93.3 435.91 93.59 435.53 93.59H430.86C428.28 93.59 426.19 91.56 426.19 89.06V63.78C426.19 58.58 424.9 54.65 422.32 52.02C419.74 49.38 416.06 48.07 411.25 48.07C405.81 48.07 401.54 49.62 398.4 52.73C395.26 55.77 393.7 60.17 393.7 65.91V92.93C393.7 93.3 393.4 93.59 393.02 93.59H384.35C383.97 93.59 383.67 93.29 383.67 92.93V40.52C383.67 40.15 383.97 39.86 384.35 39.86H392.59C392.97 39.86 393.27 40.16 393.27 40.52V47.97C395.29 45.2 398.01 43.07 401.42 41.58C404.9 40.09 408.83 39.35 413.22 39.35Z" fill="black"/>
<path d="M308.04 25.78C302.05 25.78 299.06 28.92 299.06 35.21V39.87H312.02C312.4 39.87 312.7 40.17 312.7 40.53V47.22C312.7 47.59 312.39 47.88 312.02 47.88H299.26V92.95C299.26 93.32 298.96 93.61 298.58 93.61H296.79C292.62 93.61 289.24 90.33 289.24 86.28V47.88H277.42L282.44 39.87H289.24V35.1C289.24 29.76 290.84 25.53 294.04 22.43C297.24 19.32 301.74 17.77 307.51 17.77C309.74 17.77 311.83 18.04 313.78 18.58C315.52 19.06 317.05 19.74 318.35 20.6C318.61 20.78 318.72 21.11 318.6 21.39L316.09 27.53C315.93 27.92 315.44 28.07 315.07 27.83C312.95 26.46 310.61 25.77 308.04 25.77V25.78Z" fill="black"/>
</svg>
