<svg width="278" height="110" viewBox="0 0 278 110" fill="none" xmlns="http://www.w3.org/2000/svg">
<path d="M162.582 24.5002V73.715C162.756 76.6322 162.319 79.5535 161.301 82.2921C160.283 85.0307 158.706 87.5264 156.67 89.6195C154.53 91.563 152.029 93.0646 149.31 94.0383C146.59 95.012 143.705 95.4386 140.821 95.2938C134.863 95.567 129.039 93.474 124.614 89.4698C122.499 87.3463 120.856 84.7991 119.792 81.9952C118.729 79.1912 118.269 76.1938 118.444 73.1995H132.498C132.407 75.7188 133.167 78.1952 134.654 80.2287C135.387 81.0785 136.305 81.7473 137.338 82.183C138.371 82.6186 139.49 82.8093 140.609 82.7401C141.697 82.8095 142.787 82.6283 143.795 82.2105C144.803 81.7927 145.702 81.1493 146.424 80.3297C147.852 78.4305 148.562 76.0855 148.427 73.7116V24.5002H162.582ZM175.318 66.5883C175.216 61.3974 176.369 56.2588 178.678 51.6104C180.722 47.4728 183.885 43.9934 187.807 41.5682C191.69 39.2141 196.154 37.9966 200.693 38.0536C204.473 37.9669 208.214 38.8304 211.575 40.565C214.506 42.0876 217.059 44.2491 219.046 46.8906V38.9383H233.187V94.5832H219.046V86.4463C217.106 89.1789 214.539 91.4045 211.561 92.9356C208.172 94.6936 204.398 95.5738 200.582 95.4958C196.061 95.5415 191.623 94.2866 187.793 91.8802C183.873 89.3865 180.714 85.8589 178.664 81.6847C176.353 76.9872 175.201 71.8031 175.304 66.5674L175.318 66.5883ZM219.042 66.7903C219.128 63.7383 218.439 60.7145 217.039 58.0021C215.802 55.6535 213.93 53.7006 211.638 52.3662C209.42 51.076 206.899 50.3992 204.334 50.4052C201.801 50.3859 199.308 51.0449 197.114 52.314C194.85 53.6449 192.994 55.5726 191.748 57.8872C190.323 60.5556 189.614 63.5492 189.692 66.5744C189.621 69.6277 190.324 72.6491 191.737 75.3557C192.985 77.7383 194.857 79.7358 197.152 81.1344C199.313 82.4508 201.795 83.145 204.324 83.1407C206.889 83.1467 209.409 82.4699 211.628 81.1796C213.924 79.8502 215.8 77.9008 217.043 75.5542C218.438 72.8453 219.124 69.8266 219.039 66.7799L219.042 66.7903ZM260.948 47.6046C262.679 44.7304 265.112 42.3449 268.018 40.673C271.064 38.9632 274.509 38.0963 278 38.1615V52.9235H274.303C270.702 52.6546 267.133 53.7679 264.321 56.0376C263.054 57.5216 262.103 59.249 261.525 61.1141C260.947 62.9791 260.756 64.9426 260.962 66.8844V94.6075H246.925V38.9488H260.965L260.948 47.6046Z" fill="black"/>
<path fill-rule="evenodd" clip-rule="evenodd" d="M66.3377 16.9172C82.2179 18.3558 92.0013 28.4851 92.5403 44.0169C93.0064 57.3124 92.9646 70.8483 92.4638 84.2274C91.8447 99.3551 83.0282 108.523 68.2854 109.383C61.2252 109.794 53.9425 110 46.5345 110C39.2587 110 31.8229 109.798 24.3037 109.401C21.1502 109.405 18.0275 108.779 15.1177 107.562C12.208 106.344 9.56939 104.559 7.35577 102.309C5.14215 100.06 3.39777 97.3915 2.22445 94.4599C1.05113 91.5283 0.472289 88.392 0.521687 85.2341C-0.173896 70.0541 -0.173896 55.2503 0.521687 41.2302C0.724953 35.0221 3.20772 29.1074 7.4945 24.6187C11.7813 20.13 17.5708 17.3828 23.7542 16.9033C23.821 16.8914 23.8882 16.8832 23.9559 16.8789C24.3663 16.8347 24.7801 16.7999 25.1975 16.7744C26.0373 16.6656 26.8336 16.3364 27.5054 15.8201C28.1773 15.3038 28.7009 14.6188 29.0232 13.8345C29.2237 13.0354 29.24 12.2011 29.0707 11.3948C28.9013 10.5885 28.5508 9.83141 28.0459 9.18092C27.8003 8.85472 27.6893 8.44642 27.7359 8.04053C27.7825 7.63464 27.9832 7.26221 28.2964 7.00038L36.3337 0.357891C36.6584 0.0929755 37.0743 -0.0330188 37.4911 0.00741887C37.9078 0.0478565 38.2919 0.251393 38.5597 0.573787C40.8409 3.1975 42.2839 6.44612 42.7024 9.89983C43.1209 13.3535 42.4956 16.8536 40.9072 19.9476C39.1574 23.1202 36.4118 25.6263 33.0958 27.0778C32.6274 27.3279 32.1329 27.5253 31.6212 27.6665L31.3569 27.7571C31.2119 27.8052 31.0608 27.8322 30.9082 27.8371C30.7239 27.8789 30.5187 27.9104 30.3274 27.9382C29.3257 28.0653 28.318 28.1409 27.3086 28.1647C26.5991 28.1925 25.9279 28.2204 25.2601 28.2831C16.774 29.119 11.738 33.8981 11.4459 41.4045C10.8512 56.2953 10.8581 71.0086 11.4459 85.1401C11.4267 86.9623 11.7851 88.7687 12.4985 90.4451C13.2118 92.1216 14.2645 93.6316 15.5902 94.8797C16.9159 96.1279 18.4857 97.0872 20.2004 97.6968C21.9151 98.3065 23.7375 98.5533 25.5523 98.4217C39.93 98.7944 54.0051 98.7944 67.4055 98.3973C69.2222 98.5132 71.0431 98.2506 72.7533 97.626C74.4635 97.0014 76.0259 96.0284 77.3417 94.7686C78.6575 93.5087 79.6981 91.9893 80.3979 90.3063C81.0977 88.6232 81.4415 86.8132 81.4076 84.9903C81.9119 71.8132 81.9153 57.713 81.4076 41.8573C81.2708 38.5887 79.9792 35.4751 77.763 33.0718C75.5469 30.6685 72.5503 29.1317 69.3079 28.7358C66.4003 28.1336 63.4189 27.9728 60.4636 28.2586C58.958 28.3034 57.4946 28.7671 56.2373 29.5976C54.9799 30.4281 53.9783 31.5927 53.3443 32.961C53.1002 33.5085 52.908 34.0774 52.77 34.6602C55.9542 35.4157 58.9959 36.7361 61.7451 38.5759C66.2857 41.6145 69.8247 45.9334 71.9145 50.9864C74.0043 56.0394 74.5511 61.5996 73.4857 66.9638C72.4204 72.3281 69.7906 77.2555 65.9292 81.1229C62.0677 84.9903 57.1478 87.624 51.7918 88.691C46.4358 89.7581 40.8841 89.2104 35.8388 87.1174C30.7935 85.0244 26.4812 81.48 23.4473 76.9324C20.4133 72.3848 18.794 67.0382 18.794 61.5689C18.794 54.2347 21.703 47.201 26.8811 42.0149C30.8873 38.0026 35.9979 35.3505 41.4973 34.3556C41.684 33.3966 41.9176 32.4464 42.1975 31.5085C45.3729 21.1285 54.1651 15.813 66.3377 16.9172ZM40.845 41.6454C37.4552 42.5945 34.3324 44.4043 31.7996 46.941C27.926 50.8206 25.7498 56.0824 25.7498 61.5689C25.7498 65.6604 26.9612 69.66 29.2309 73.062C31.5005 76.4639 34.7264 79.1154 38.5007 80.6812C42.2749 82.2469 46.428 82.6566 50.4348 81.8584C54.4415 81.0602 58.1219 79.09 61.0106 76.1968C63.8993 73.3037 65.8666 69.6176 66.6636 65.6047C67.4606 61.5919 67.0515 57.4324 65.4882 53.6523C63.9248 49.8723 61.2774 46.6414 57.8806 44.3683C56.0469 43.1411 54.0392 42.2229 51.9371 41.6376C51.6756 46.6601 51.6762 51.6933 51.9391 56.7168L51.9704 57.7617L56.2031 54.6791L56.2865 54.6233C56.9018 54.2056 57.5965 53.9194 58.3271 53.7828C59.0578 53.6461 59.8088 53.6619 60.5331 53.8291C61.1511 53.9958 61.7278 54.289 62.227 54.6901C62.7263 55.0911 63.1372 55.5914 63.4337 56.1595C63.9512 57.1405 64.1976 58.2423 64.1475 59.3507C64.0974 60.4591 63.7525 61.534 63.1485 62.4641C59.2776 66.341 54.8571 70.3642 49.6194 74.767C48.336 75.8573 45.6267 77.1564 41.881 73.8682C38.504 70.9144 34.9321 67.7239 30.6369 63.8366C29.9788 63.4007 29.424 62.8257 29.0113 62.1521C28.5987 61.4786 28.3382 60.7227 28.2484 59.9376C28.1586 59.1525 28.2415 58.3573 28.4914 57.6077C28.7412 56.8581 29.1518 56.1723 29.6944 55.5986C30.2153 55.0278 30.8497 54.5725 31.5568 54.262C32.2639 53.9515 33.0281 53.7925 33.8001 53.7954C34.5722 53.7984 35.3352 53.9632 36.0398 54.2791C36.7445 54.5951 37.3755 55.0552 37.8919 55.63C38.6362 56.1873 39.4152 56.7063 40.3751 57.3438C40.4758 52.6094 40.6501 46.4298 40.845 41.6454Z" fill="black"/>
</svg>
