<svg width="914" height="701" viewBox="0 0 914 701" fill="none" xmlns="http://www.w3.org/2000/svg">
<g clip-path="url(#clip0_196_11)">
<path fill-rule="evenodd" clip-rule="evenodd" d="M466.3 522.28C464.18 522.98 462.07 523.7 459.96 524.44C459.88 524.47 459.8 524.5 459.71 524.53C457.66 525.25 455.62 525.99 453.59 526.75C453.45 526.81 453.31 526.85 453.18 526.91C451.58 527.5 449.99 528.12 448.41 528.74C448.11 528.85 447.82 528.97 447.53 529.08C444.32 530.35 441.12 531.66 437.95 533.01C437.67 533.12 437.4 533.24 437.12 533.36C435.56 534.03 434 534.7 432.45 535.39C432.25 535.48 432.05 535.57 431.85 535.66C430.38 536.31 428.92 536.97 427.47 537.64C427.28 537.73 427.09 537.81 426.9 537.9C425.36 538.61 423.82 539.33 422.29 540.06C422.01 540.19 421.73 540.32 421.45 540.45C418.35 541.94 415.26 543.45 412.19 545C411.9 545.15 411.62 545.29 411.33 545.43C409.82 546.2 408.32 546.97 406.83 547.74C406.64 547.84 406.45 547.94 406.26 548.04C404.87 548.77 403.48 549.5 402.09 550.24C401.86 550.36 401.63 550.48 401.4 550.61C399.92 551.4 398.45 552.19 396.98 553C396.7 553.15 396.41 553.31 396.12 553.47C394.68 554.26 393.24 555.06 391.8 555.87C391.74 555.9 391.69 555.93 391.63 555.96C390.15 556.79 388.68 557.63 387.21 558.47C386.9 558.64 386.59 558.82 386.28 559C384.84 559.83 383.4 560.66 381.96 561.5C381.77 561.61 381.58 561.72 381.39 561.83C380.08 562.6 378.77 563.38 377.46 564.15C377.18 564.32 376.9 564.49 376.62 564.66C375.22 565.49 373.82 566.34 372.42 567.18L371.49 567.75C370.2 568.54 368.91 569.33 367.62 570.12C367.45 570.23 367.28 570.33 367.11 570.43C365.72 571.3 364.33 572.16 362.94 573.03C362.6 573.25 362.25 573.46 361.91 573.68C360.54 574.54 359.17 575.41 357.8 576.28C357.59 576.41 357.38 576.54 357.18 576.67C355.95 577.45 354.73 578.24 353.51 579.02C353.17 579.24 352.83 579.46 352.49 579.68C351.17 580.53 349.85 581.39 348.53 582.25C348.18 582.48 347.84 582.7 347.49 582.93C346.33 583.69 345.17 584.45 344.01 585.22C343.75 585.38 343.5 585.55 343.24 585.72C341.92 586.59 340.61 587.46 339.3 588.34L338.16 589.09C336.85 589.97 335.55 590.84 334.24 591.72C334.02 591.87 333.8 592.02 333.58 592.17C332.42 592.94 331.27 593.72 330.12 594.5C329.74 594.76 329.36 595.02 328.98 595.28C327.71 596.13 326.45 597 325.18 597.86C324.83 598.1 324.47 598.34 324.11 598.59C323.05 599.32 321.98 600.05 320.92 600.78C320.59 601 320.26 601.23 319.94 601.45C318.68 602.31 317.42 603.18 316.17 604.04C315.77 604.32 315.37 604.59 314.98 604.87C313.74 605.72 312.51 606.57 311.27 607.43C311.08 607.56 310.88 607.7 310.69 607.83C309.48 608.67 308.28 609.5 307.07 610.34C306.75 610.56 306.43 610.78 306.11 611.01C303.24 613 300.39 614.98 297.55 616.96C296.68 617.57 295.8 618.17 294.93 618.78C294.6 619.01 294.27 619.24 293.95 619.46C293.42 619.83 292.89 620.2 292.36 620.57C291.11 621.44 289.85 622.31 288.6 623.18C288.41 623.31 288.22 623.44 288.03 623.58C286.83 624.41 285.62 625.24 284.42 626.07C284.14 626.27 283.85 626.47 283.57 626.67C282.26 627.57 280.95 628.47 279.65 629.37C279.4 629.55 279.14 629.72 278.89 629.9C277.59 630.79 276.3 631.68 275.01 632.57C274.93 632.62 274.85 632.68 274.77 632.73C273.42 633.66 272.07 634.58 270.73 635.49C270.49 635.66 270.25 635.82 270.01 635.98C268.67 636.89 267.33 637.8 265.99 638.71C265.84 638.82 265.68 638.92 265.52 639.03C264.26 639.88 263 640.73 261.74 641.58C261.57 641.69 261.39 641.81 261.22 641.92C259.91 642.8 258.59 643.68 257.27 644.55C257.03 644.72 256.78 644.88 256.54 645.04C255.2 645.93 253.87 646.81 252.54 647.68C252.46 647.73 252.38 647.78 252.31 647.83C251.04 648.66 249.77 649.49 248.5 650.31C248.27 650.46 248.03 650.61 247.8 650.76C246.51 651.6 245.22 652.43 243.93 653.25C243.69 653.4 243.46 653.55 243.22 653.7C241.93 654.52 240.63 655.34 239.35 656.15C239.3 656.18 239.25 656.21 239.21 656.24C237.9 657.06 236.59 657.87 235.28 658.68C235.02 658.84 234.76 659 234.5 659.16C233.22 659.95 231.94 660.73 230.66 661.5C230.47 661.62 230.27 661.74 230.07 661.86C228.87 662.58 227.67 663.3 226.47 664.01C226.3 664.11 226.12 664.22 225.95 664.32C224.67 665.07 223.4 665.81 222.13 666.55C221.86 666.71 221.59 666.86 221.32 667.02C220.04 667.75 218.76 668.49 217.47 669.21C217.36 669.27 217.24 669.34 217.13 669.4C215.92 670.08 214.71 670.75 213.5 671.42C213.26 671.55 213.03 671.68 212.79 671.81C211.53 672.49 210.28 673.17 209.02 673.84C208.77 673.97 208.52 674.11 208.26 674.24C207 674.91 205.74 675.57 204.48 676.22C204.44 676.24 204.4 676.26 204.36 676.28C203.07 676.94 201.79 677.58 200.51 678.22C200.25 678.35 199.98 678.48 199.72 678.61C198.46 679.23 197.21 679.84 195.96 680.44C195.75 680.54 195.54 680.64 195.33 680.74C194.15 681.3 192.97 681.85 191.79 682.39C191.63 682.47 191.46 682.54 191.3 682.62C190.04 683.19 188.78 683.75 187.52 684.31C187.26 684.42 187 684.54 186.74 684.65C185.47 685.2 184.2 685.74 182.93 686.27C182.81 686.32 182.68 686.37 182.55 686.42C181.36 686.92 180.16 687.4 178.96 687.87C178.75 687.96 178.53 688.05 178.31 688.13C177.06 688.62 175.81 689.1 174.55 689.57C174.31 689.66 174.07 689.74 173.82 689.83C171.24 690.78 168.66 691.67 166.08 692.51C165.85 692.58 165.61 692.66 165.37 692.74C164.11 693.14 162.84 693.53 161.58 693.9C161.39 693.96 161.2 694.02 161.01 694.07C159.79 694.43 158.57 694.78 157.34 695.11C157.26 695.13 157.18 695.15 157.1 695.18C157.07 695.18 157.03 695.19 157 695.2C155.93 695.49 154.87 695.76 153.81 696.03C153.58 696.08 153.36 696.13 153.13 696.19C152.29 696.39 151.46 696.59 150.62 696.78C150.31 696.85 150.01 696.92 149.71 696.99C148.85 697.18 148 697.36 147.14 697.53C146.94 697.58 146.73 697.62 146.52 697.66C145.46 697.88 144.4 698.08 143.34 698.27C143.14 698.3 142.94 698.34 142.74 698.37C141.88 698.52 141.02 698.67 140.16 698.8C139.86 698.85 139.55 698.89 139.25 698.94C138.42 699.07 137.58 699.18 136.75 699.3C136.52 699.33 136.28 699.36 136.05 699.39C134.99 699.53 133.92 699.65 132.86 699.77C132.7 699.77 132.55 699.8 132.39 699.81C131.49 699.9 130.58 699.99 129.68 700.06C129.39 700.09 129.09 700.11 128.8 700.13C127.97 700.19 127.14 700.25 126.31 700.3C126.06 700.31 125.82 700.33 125.57 700.34C124.5 700.4 123.43 700.44 122.36 700.47C122.26 700.47 122.16 700.47 122.06 700.48C121.11 700.5 120.15 700.51 119.19 700.52H118.32C117.5 700.51 116.68 700.5 115.86 700.48C115.59 700.48 115.33 700.47 115.06 700.47C113.99 700.44 112.92 700.4 111.85 700.34C111.81 700.34 111.77 700.34 111.73 700.34C110.72 700.28 109.7 700.21 108.69 700.13C108.39 700.11 108.09 700.08 107.79 700.06C107 699.99 106.2 699.91 105.41 699.83C105.11 699.8 104.81 699.77 104.5 699.73C103.45 699.61 102.39 699.48 101.33 699.33C100.19 699.18 99.05 699 97.93 698.82C97.89 698.81 97.86 698.8 97.82 698.8C97.54 698.75 97.26 698.7 96.97 698.65C96.11 698.5 95.24 698.35 94.38 698.19C93.97 698.11 93.56 698.02 93.15 697.93C92.43 697.79 91.7 697.65 90.99 697.49C90.53 697.39 90.09 697.28 89.63 697.18C88.96 697.02 88.29 696.87 87.62 696.71C87.52 696.68 87.43 696.66 87.33 696.64C87.17 696.6 87.02 696.56 86.86 696.52C86.47 696.42 86.08 696.31 85.7 696.21C85.25 696.09 84.8 695.98 84.36 695.86C83.72 695.68 83.08 695.49 82.45 695.31C82.07 695.2 81.7 695.09 81.33 694.98C80.6 694.76 79.88 694.53 79.16 694.29C78.88 694.2 78.6 694.12 78.32 694.02C77.32 693.69 76.33 693.35 75.34 692.99L61.67 688.01C60.57 687.61 59.48 687.19 58.4 686.76C58.1 686.64 57.8 686.51 57.51 686.39C56.73 686.07 55.96 685.75 55.19 685.42C54.84 685.26 54.49 685.09 54.13 684.93C53.44 684.62 52.74 684.3 52.06 683.98C51.67 683.79 51.3 683.6 50.92 683.41C50.27 683.09 49.63 682.78 48.99 682.44C48.6 682.24 48.21 682.02 47.82 681.81C47.21 681.48 46.6 681.16 45.99 680.81C45.6 680.59 45.21 680.36 44.82 680.13C44.24 679.79 43.65 679.44 43.07 679.09C42.68 678.85 42.29 678.6 41.9 678.35C41.34 677.99 40.78 677.64 40.22 677.27C39.83 677.01 39.45 676.74 39.06 676.47C38.52 676.1 37.98 675.73 37.46 675.35C37.07 675.07 36.69 674.79 36.3 674.5C35.79 674.12 35.27 673.73 34.77 673.34C34.38 673.04 34.01 672.74 33.63 672.44C33.14 672.04 32.65 671.64 32.16 671.23C31.78 670.91 31.42 670.59 31.05 670.27C30.57 669.86 30.1 669.45 29.64 669.03C29.27 668.69 28.91 668.35 28.55 668.01C28.09 667.58 27.65 667.15 27.2 666.72C26.85 666.37 26.49 666.01 26.14 665.65C25.71 665.21 25.28 664.77 24.86 664.32C24.51 663.95 24.16 663.57 23.82 663.19C23.41 662.74 23 662.28 22.6 661.82C22.26 661.43 21.93 661.03 21.6 660.64C21.21 660.17 20.82 659.69 20.44 659.22C20.11 658.81 19.79 658.4 19.47 657.98C19.3 657.76 19.12 657.54 18.95 657.31C18.74 657.03 18.53 656.74 18.32 656.45C18.06 656.09 17.79 655.72 17.53 655.35C17.14 654.8 16.76 654.25 16.38 653.69C16.14 653.32 15.89 652.96 15.65 652.59C15.26 651.99 14.88 651.38 14.5 650.77C14.29 650.42 14.08 650.09 13.87 649.74C13.43 649.01 13.01 648.27 12.6 647.52C12.46 647.28 12.32 647.04 12.19 646.79C11.64 645.79 11.11 644.78 10.6 643.74C10.5 643.54 10.41 643.33 10.31 643.13C9.90003 642.3 9.51002 641.46 9.12002 640.61C8.96002 640.24 8.80003 639.86 8.64003 639.48C8.34003 638.78 8.03003 638.08 7.75003 637.37C7.57003 636.94 7.41003 636.5 7.24003 636.07C6.98003 635.4 6.72003 634.72 6.48003 634.04C6.31003 633.57 6.15003 633.1 5.99003 632.63C5.75003 631.96 5.53003 631.28 5.31003 630.59C5.15003 630.11 5.00003 629.62 4.86003 629.14C4.65003 628.44 4.44003 627.74 4.25003 627.04C4.11003 626.55 3.97003 626.05 3.84003 625.56C3.65003 624.83 3.47003 624.09 3.29003 623.35C3.17003 622.86 3.05003 622.38 2.94003 621.88C2.76003 621.09 2.60003 620.29 2.43003 619.49C2.34003 619.03 2.24003 618.58 2.16003 618.12C1.97003 617.15 1.81003 616.16 1.64003 615.17C1.60003 614.87 1.54003 614.57 1.49003 614.27C1.29003 612.96 1.11003 611.64 0.940025 610.3C0.910025 610 0.880025 609.69 0.850025 609.38C0.740025 608.46 0.630025 607.54 0.550025 606.6C0.540025 606.49 0.530025 606.39 0.520025 606.28C0.440025 605.3 0.370025 604.29 0.300025 603.29C0.270025 602.78 0.230025 602.27 0.200025 601.75C0.110025 600.23 0.0500252 598.68 0.0200252 597.11C-0.859975 556.54 36.3 505.84 36.3 505.84L49.98 510.82C49.98 510.82 49.98 510.92 49.97 511.09V511.12C49.97 511.21 49.96 511.32 49.96 511.44V511.53C49.96 511.63 49.95 511.75 49.95 511.88V512.03C49.95 512.2 49.95 512.38 49.95 512.58V513.25C49.95 513.31 49.95 513.38 49.94 513.44V514.26C49.94 514.54 49.94 514.84 49.95 515.15V516.15C49.95 516.24 49.95 516.33 49.95 516.43C49.95 516.91 49.96 517.42 49.97 517.95C49.98 518.2 49.98 518.45 49.99 518.71C49.99 518.81 50 518.92 50 519.03C50 519.37 50.02 519.73 50.03 520.08C50.03 520.17 50.03 520.26 50.04 520.35C50.05 520.79 50.07 521.25 50.09 521.72C50.09 521.81 50.09 521.91 50.1 522.01C50.11 522.4 50.13 522.8 50.15 523.2C50.15 523.33 50.16 523.45 50.17 523.58C50.19 524.09 50.22 524.61 50.24 525.14C50.25 525.14 50.25 525.15 50.25 525.15C50.27 525.67 50.3 526.2 50.34 526.73C50.35 526.88 50.36 527.03 50.37 527.18C50.39 527.63 50.42 528.1 50.46 528.57C50.47 528.68 50.47 528.79 50.48 528.91C50.52 529.48 50.56 530.06 50.61 530.65C50.62 530.78 50.63 530.91 50.64 531.05C50.65 531.17 50.66 531.31 50.68 531.44C50.7 531.79 50.73 532.15 50.76 532.51C50.78 532.68 50.79 532.84 50.81 533C50.86 533.62 50.92 534.25 50.98 534.9C50.98 534.92 50.99 534.94 50.99 534.97C51.05 535.58 51.11 536.2 51.18 536.83C51.2 537.01 51.22 537.18 51.23 537.36C51.29 537.91 51.36 538.46 51.42 539.02C51.43 539.15 51.45 539.27 51.46 539.4C51.54 540.07 51.62 540.75 51.71 541.44C51.73 541.59 51.75 541.74 51.77 541.9C51.84 542.46 51.92 543.03 51.99 543.6C52.02 543.78 52.04 543.96 52.07 544.14C52.16 544.85 52.27 545.57 52.37 546.29C52.37 546.34 52.39 546.38 52.39 546.43C52.49 547.11 52.6 547.79 52.71 548.48C52.74 548.67 52.77 548.87 52.8 549.06C52.9 549.68 53.01 550.3 53.11 550.93C53.14 551.06 53.16 551.19 53.18 551.33C53.31 552.07 53.44 552.82 53.58 553.57C53.61 553.74 53.65 553.91 53.68 554.09C53.79 554.7 53.91 555.32 54.03 555.93C54.07 556.12 54.11 556.31 54.14 556.5C54.3 557.27 54.45 558.05 54.62 558.83C54.62 558.89 54.65 558.95 54.66 559.01C54.81 559.72 54.97 560.44 55.13 561.16C55.18 561.37 55.23 561.58 55.27 561.79C55.43 562.45 55.58 563.11 55.74 563.77C55.77 563.91 55.8 564.04 55.83 564.17C56.02 564.96 56.22 565.74 56.42 566.53C56.47 566.71 56.52 566.9 56.57 567.08C56.73 567.72 56.9 568.35 57.08 568.99C57.13 569.19 57.18 569.39 57.24 569.59C57.46 570.38 57.68 571.18 57.92 571.97C57.94 572.05 57.96 572.13 57.99 572.2C58.2 572.92 58.42 573.64 58.64 574.36C58.71 574.58 58.77 574.8 58.84 575.02C59.06 575.69 59.27 576.37 59.5 577.04C59.54 577.17 59.58 577.3 59.62 577.43C59.89 578.22 60.16 579.01 60.43 579.8C60.5 579.99 60.57 580.18 60.64 580.37C60.86 581 61.09 581.63 61.33 582.26C61.4 582.46 61.48 582.67 61.55 582.87C61.85 583.66 62.15 584.45 62.47 585.23C62.5 585.32 62.54 585.4 62.57 585.49C62.85 586.19 63.14 586.89 63.44 587.59C63.53 587.8 63.62 588.02 63.71 588.23C64 588.9 64.29 589.56 64.58 590.22C64.64 590.34 64.69 590.46 64.74 590.59C65.09 591.35 65.45 592.12 65.81 592.88C65.9 593.07 66 593.26 66.09 593.45C66.38 594.05 66.68 594.65 66.98 595.25C67.08 595.44 67.18 595.64 67.28 595.84C67.67 596.59 68.06 597.34 68.46 598.08C68.52 598.18 68.58 598.28 68.63 598.38C68.97 599 69.32 599.62 69.68 600.24C69.85 600.53 70.01 600.82 70.18 601.1C70.47 601.59 70.75 602.07 71.05 602.55C71.22 602.83 71.4 603.11 71.57 603.4C71.88 603.89 72.2 604.39 72.52 604.88C72.68 605.13 72.84 605.38 73.01 605.63C73.45 606.3 73.91 606.96 74.37 607.62C74.41 607.68 74.45 607.74 74.5 607.8C75 608.52 75.52 609.22 76.04 609.91C76.21 610.14 76.39 610.37 76.56 610.6C76.93 611.07 77.29 611.53 77.66 612C77.87 612.26 78.08 612.51 78.3 612.77C78.65 613.2 79 613.62 79.36 614.04C79.59 614.3 79.81 614.56 80.04 614.82C80.41 615.24 80.8 615.67 81.18 616.09C81.39 616.32 81.6 616.55 81.82 616.77C82.3 617.29 82.79 617.79 83.29 618.29C83.41 618.41 83.53 618.54 83.66 618.66C84.28 619.28 84.92 619.89 85.57 620.48C85.75 620.65 85.94 620.81 86.12 620.98C86.59 621.4 87.07 621.82 87.56 622.24C87.8 622.44 88.05 622.65 88.29 622.85C88.74 623.22 89.18 623.58 89.64 623.94C89.9 624.15 90.16 624.35 90.42 624.55C90.45 624.57 90.47 624.58 90.49 624.6C90.93 624.94 91.39 625.27 91.84 625.6C92.09 625.79 92.34 625.97 92.6 626.15C92.73 626.24 92.87 626.33 93.01 626.43C93.44 626.73 93.87 627.02 94.32 627.31C94.49 627.43 94.66 627.54 94.83 627.66C95.05 627.8 95.28 627.93 95.5 628.07C96.21 628.52 96.94 628.96 97.68 629.39C97.95 629.54 98.23 629.69 98.5 629.84C98.57 629.88 98.63 629.91 98.69 629.95C99.34 630.31 99.99 630.65 100.66 630.99C100.92 631.13 101.2 631.26 101.47 631.4C101.48 631.4 101.5 631.4 101.51 631.41C102.56 631.67 103.62 631.91 104.71 632.12C104.85 632.15 105 632.18 105.15 632.21C106.29 632.43 107.44 632.63 108.61 632.8C109.46 632.93 110.32 633.04 111.19 633.14C111.44 633.16 111.7 633.19 111.96 633.22C112.59 633.28 113.23 633.34 113.87 633.39C114.16 633.42 114.45 633.44 114.74 633.46C115.44 633.51 116.15 633.55 116.86 633.58C117.07 633.59 117.27 633.61 117.48 633.61C118.39 633.65 119.3 633.67 120.23 633.68H121C121.69 633.68 122.38 633.67 123.08 633.66C123.42 633.65 123.76 633.64 124.1 633.63C124.76 633.61 125.42 633.58 126.09 633.54C126.42 633.54 126.74 633.51 127.07 633.49C128.03 633.43 129 633.36 129.98 633.28C130.16 633.26 130.35 633.24 130.53 633.22C131.35 633.14 132.18 633.06 133.01 632.96C133.4 632.92 133.78 632.87 134.16 632.82C134.83 632.73 135.49 632.64 136.16 632.55C136.57 632.49 136.98 632.43 137.39 632.37C138.12 632.25 138.86 632.13 139.61 632C139.94 631.95 140.27 631.9 140.6 631.84C141.62 631.65 142.66 631.45 143.71 631.24C144.11 631.15 144.52 631.06 144.93 630.97C145.63 630.82 146.33 630.67 147.04 630.51C147.51 630.4 147.98 630.29 148.45 630.18C149.14 630.01 149.84 629.84 150.54 629.66C150.99 629.54 151.44 629.43 151.9 629.31C152.95 629.03 154.02 628.74 155.1 628.43C155.5 628.31 155.91 628.19 156.31 628.07C157.11 627.84 157.91 627.6 158.72 627.35C159.23 627.19 159.75 627.02 160.26 626.86C160.97 626.63 161.67 626.4 162.38 626.16C162.94 625.98 163.49 625.8 164.05 625.6C164.53 625.44 165.02 625.26 165.51 625.09C166.12 624.88 166.73 624.66 167.35 624.44C167.9 624.24 168.47 624.03 169.03 623.82C169.59 623.61 170.14 623.4 170.71 623.19C171.39 622.92 172.09 622.65 172.79 622.37C173.24 622.2 173.69 622.02 174.14 621.84C175.3 621.37 176.47 620.89 177.66 620.4C179.33 619.69 181.03 618.97 182.73 618.25L184.41 617.53C185.82 616.92 187.24 616.31 188.66 615.69C188.98 615.55 189.3 615.42 189.61 615.28C191.51 614.46 193.42 613.62 195.35 612.78C195.94 612.52 196.52 612.26 197.11 612C198.94 611.19 200.78 610.38 202.64 609.55C203.25 609.28 203.87 609 204.48 608.73C205.89 608.1 207.3 607.47 208.72 606.84C209.46 606.5 210.2 606.17 210.95 605.84C212.71 605.05 214.47 604.25 216.25 603.45C217.09 603.06 217.94 602.68 218.8 602.29C220.17 601.67 221.56 601.04 222.95 600.41C224.07 599.9 225.19 599.39 226.32 598.87C227.71 598.24 229.09 597.61 230.49 596.97C231.3 596.6 232.11 596.24 232.92 595.87C234.93 594.94 236.95 594.02 238.99 593.09C239.19 593 239.39 592.9 239.59 592.81C241.93 591.74 244.27 590.67 246.62 589.59C254.25 586.1 261.96 582.56 269.72 579.03C270.07 578.87 270.42 578.72 270.77 578.56C271.8 578.09 272.83 577.62 273.85 577.16C274.48 576.87 275.1 576.59 275.73 576.31C276.65 575.89 277.56 575.47 278.48 575.06C279.2 574.74 279.91 574.41 280.63 574.09C281.5 573.69 282.38 573.3 283.26 572.9C284.03 572.56 284.79 572.21 285.56 571.87C286.39 571.49 287.22 571.12 288.05 570.75C288.87 570.38 289.68 570.02 290.5 569.65C291.3 569.29 292.11 568.94 292.91 568.58C293.74 568.21 294.57 567.84 295.4 567.47C296.2 567.11 296.99 566.76 297.78 566.41C298.64 566.03 299.49 565.66 300.34 565.28C301.11 564.94 301.88 564.6 302.65 564.26C303.53 563.87 304.41 563.49 305.29 563.1C306.04 562.77 306.78 562.45 307.52 562.13C308.41 561.73 309.31 561.34 310.21 560.95C310.94 560.63 311.67 560.32 312.4 560C313.33 559.6 314.26 559.2 315.19 558.79C315.88 558.5 316.56 558.2 317.25 557.91C318.24 557.48 319.23 557.06 320.22 556.64C320.85 556.37 321.48 556.1 322.11 555.83C323.22 555.36 324.33 554.89 325.43 554.42C325.94 554.21 326.44 554 326.94 553.78C330.17 552.42 333.39 551.09 336.59 549.77C337.04 549.59 337.48 549.41 337.93 549.22C339.08 548.75 340.23 548.28 341.38 547.82C341.94 547.59 342.5 547.37 343.06 547.14C344.08 546.73 345.11 546.31 346.12 545.91C346.75 545.66 347.36 545.41 347.98 545.17C348.94 544.79 349.9 544.41 350.86 544.03C351.5 543.78 352.14 543.53 352.78 543.28C353.71 542.92 354.63 542.56 355.55 542.2C356.21 541.95 356.87 541.69 357.52 541.44C358.42 541.1 359.32 540.75 360.22 540.41C360.88 540.16 361.54 539.91 362.2 539.66C363.09 539.33 363.98 539 364.86 538.67C365.52 538.42 366.18 538.18 366.84 537.94C367.72 537.61 368.59 537.29 369.47 536.97C370.12 536.73 370.78 536.5 371.43 536.26C372.3 535.95 373.17 535.64 374.03 535.33C374.68 535.1 375.33 534.87 375.98 534.64C376.85 534.34 377.71 534.04 378.57 533.74C379.21 533.52 379.84 533.3 380.48 533.08C381.35 532.78 382.21 532.49 383.08 532.2C383.69 531.99 384.31 531.78 384.92 531.58C385.82 531.28 386.7 530.99 387.59 530.7C388.17 530.51 388.74 530.32 389.32 530.14C390.26 529.83 391.19 529.54 392.12 529.25C392.63 529.08 393.15 528.92 393.66 528.76C394.73 528.42 395.79 528.1 396.85 527.78C397.22 527.67 397.59 527.55 397.95 527.44C399.43 527 400.9 526.57 402.36 526.15C403.57 525.8 404.76 525.47 405.95 525.14C406.45 525 406.93 524.87 407.42 524.74C408.18 524.54 408.93 524.33 409.68 524.14C410.24 523.99 410.79 523.85 411.34 523.71C412.02 523.53 412.69 523.36 413.36 523.19C413.93 523.05 414.51 522.91 415.08 522.77C415.72 522.61 416.36 522.46 416.99 522.31C417.57 522.18 418.14 522.04 418.72 521.91L420.58 521.49C421.15 521.37 421.72 521.24 422.28 521.12C422.92 520.98 423.54 520.86 424.17 520.73C424.71 520.62 425.24 520.5 425.78 520.4C426.51 520.25 427.24 520.12 427.96 519.98C428.72 519.84 429.46 519.71 430.21 519.58C430.95 519.45 431.7 519.32 432.43 519.2C432.93 519.12 433.43 519.05 433.92 518.97C434.53 518.88 435.14 518.78 435.74 518.7C436.25 518.62 436.76 518.56 437.26 518.49C437.84 518.41 438.42 518.34 439 518.26C439.5 518.2 439.99 518.15 440.49 518.09C441.07 518.03 441.64 517.97 442.21 517.91C442.68 517.86 443.16 517.82 443.63 517.77C444.22 517.72 444.81 517.68 445.39 517.63C445.83 517.6 446.27 517.57 446.7 517.54C447.34 517.5 447.97 517.46 448.61 517.43C448.97 517.42 449.34 517.39 449.7 517.38C450.68 517.34 451.66 517.32 452.62 517.31L466.3 522.29V522.28Z" fill="black"/>
<path d="M88.8501 685.7C141.72 693.07 193.93 663.05 253.27 622.53C261.62 616.82 270.1 610.93 278.7 604.94C306.59 585.53 335.88 565.14 366.95 547.21C353.68 552.17 339.9 557.76 325.86 563.73C301.03 574.29 275.57 585.94 250.91 597.24L250.18 597.57C225.83 608.72 202.24 619.54 181.04 628.45C142.77 644.55 112.96 645.83 89.9501 636.91C66.9401 628 52.5201 609.59 43.5201 590.13C34.6501 570.94 30.7001 550.01 28.9301 534C27.8201 536 26.6901 538.09 25.5701 540.27C16.5301 557.75 8.34006 578.92 8.73006 596.91C9.33006 624.71 18.2901 645.1 32.1501 659.33C46.1101 673.66 65.7401 682.47 88.8401 685.69L88.8501 685.7Z" fill="#5CBE6D"/>
<path d="M913.81 113.67C913.8 113.82 913.8 113.96 913.8 114.11C913.8 114.25 913.79 114.4 913.79 114.54C913.77 115.1 913.75 115.65 913.72 116.21C913.71 116.4 913.71 116.59 913.7 116.78C913.7 116.91 913.68 117.04 913.67 117.18C913.67 117.25 913.66 117.32 913.66 117.39C913.62 117.98 913.58 118.58 913.52 119.18C913.51 119.31 913.5 119.45 913.48 119.58C913.47 119.69 913.46 119.79 913.45 119.9C913.43 120.09 913.42 120.28 913.4 120.47C913.36 120.86 913.31 121.25 913.27 121.64C913.24 121.86 913.21 122.08 913.19 122.3C913.15 122.58 913.12 122.86 913.08 123.15C913.06 123.26 913.04 123.37 913.03 123.48C912.99 123.8 912.94 124.11 912.89 124.42C912.88 124.53 912.86 124.64 912.85 124.75C912.78 125.15 912.71 125.56 912.65 125.97C912.62 126.13 912.59 126.29 912.56 126.46C912.52 126.71 912.48 126.97 912.43 127.22C912.4 127.4 912.36 127.58 912.33 127.76C912.24 128.23 912.15 128.71 912.06 129.18C912.03 129.32 912 129.46 911.97 129.59C911.96 129.65 911.95 129.7 911.94 129.76C911.9 129.96 911.86 130.16 911.81 130.36C911.69 130.94 911.56 131.52 911.43 132.1C911.4 132.23 911.37 132.36 911.34 132.49C911.13 133.41 910.9 134.33 910.66 135.24C910.64 135.32 910.62 135.39 910.6 135.47C910.56 135.62 910.52 135.78 910.48 135.93C910.3 136.6 910.12 137.27 909.93 137.94C909.89 138.09 909.85 138.25 909.8 138.4C909.79 138.44 909.78 138.47 909.77 138.51C909.54 139.31 909.3 140.11 909.06 140.91C909.02 141.04 908.98 141.16 908.94 141.29C908.89 141.44 908.85 141.59 908.8 141.74C908.63 142.29 908.45 142.84 908.27 143.38C908.2 143.59 908.14 143.8 908.07 144.01C907.83 144.73 907.58 145.45 907.33 146.17C907.3 146.26 907.27 146.36 907.24 146.45C907.14 146.73 907.04 147.01 906.94 147.29C906.89 147.43 906.84 147.57 906.78 147.72C906.65 148.1 906.51 148.49 906.37 148.87C906.3 149.06 906.23 149.25 906.16 149.43C905.92 150.07 905.68 150.7 905.44 151.33C905.36 151.53 905.28 151.74 905.2 151.95C905.04 152.36 904.87 152.78 904.71 153.19C904.65 153.32 904.6 153.45 904.55 153.59C904.45 153.82 904.36 154.06 904.26 154.3C904.26 154.34 904.23 154.38 904.22 154.41C903.91 155.15 903.61 155.89 903.3 156.62C903.2 156.85 903.11 157.07 903.01 157.29C902.78 157.85 902.53 158.41 902.29 158.96C902.25 159.05 902.22 159.14 902.18 159.23C902.12 159.36 902.06 159.5 902 159.63L901.01 161.85C900.93 162.02 900.84 162.2 900.76 162.38C900.5 162.95 900.24 163.52 899.97 164.08C899.88 164.29 899.78 164.49 899.68 164.7C899.66 164.74 899.64 164.79 899.62 164.84C899.35 165.39 899.09 165.94 898.82 166.49C898.74 166.66 898.66 166.82 898.58 166.99C898.52 167.12 898.46 167.25 898.39 167.38C898.36 167.45 898.32 167.52 898.29 167.58C898.06 168.06 897.82 168.54 897.58 169.02C897.46 169.26 897.34 169.51 897.21 169.75C897.18 169.83 897.14 169.91 897.1 169.98C897.07 170.04 897.04 170.09 897.02 170.15C896.85 170.48 896.68 170.8 896.52 171.13C896.38 171.38 896.25 171.64 896.12 171.89C896 172.12 895.89 172.35 895.77 172.58C895.72 172.66 895.68 172.75 895.64 172.83C895.5 173.09 895.37 173.35 895.23 173.6C895.09 173.87 894.96 174.13 894.82 174.39C894.69 174.64 894.55 174.89 894.42 175.14C894.41 175.16 894.4 175.18 894.39 175.2C894.29 175.37 894.2 175.55 894.11 175.72C893.95 176.01 893.8 176.29 893.65 176.56C893.48 176.88 893.31 177.19 893.14 177.5C893.1 177.58 893.05 177.66 893.01 177.73C892.87 177.98 892.74 178.23 892.6 178.48C892.3 179.03 891.99 179.57 891.69 180.11C891.53 180.4 891.37 180.69 891.2 180.97C891.03 181.28 890.86 181.58 890.69 181.87C890.52 182.18 890.35 182.47 890.17 182.77C890.01 183.05 889.85 183.32 889.69 183.6C889.39 184.11 889.1 184.62 888.8 185.12C888.66 185.36 888.52 185.6 888.38 185.83C888.19 186.15 888 186.46 887.82 186.78C887.7 186.97 887.58 187.16 887.47 187.35C887.27 187.67 887.08 187.99 886.89 188.3C886.82 188.41 886.76 188.53 886.69 188.64C886.48 188.98 886.27 189.32 886.07 189.65C885.93 189.87 885.8 190.08 885.67 190.29C885.66 190.31 885.64 190.33 885.63 190.35C885.56 190.47 885.49 190.58 885.41 190.7C885.4 190.72 885.38 190.75 885.37 190.77C885.16 191.1 884.96 191.42 884.76 191.74C884.7 191.83 884.65 191.92 884.59 192.02C884.58 192.02 884.57 192.04 884.56 192.06C884.56 192.07 884.55 192.07 884.55 192.08C884.37 192.36 884.2 192.63 884.03 192.89C883.97 192.99 883.91 193.09 883.84 193.19C883.28 194.07 882.75 194.9 882.24 195.67C882.17 195.77 882.1 195.88 882.03 195.99C881.91 196.18 881.79 196.36 881.67 196.54C881.64 196.58 881.62 196.62 881.59 196.65C881.55 196.71 881.51 196.77 881.47 196.83C881.42 196.91 881.37 196.98 881.32 197.05C881.24 197.19 881.15 197.32 881.07 197.44C880.93 197.65 880.79 197.85 880.66 198.04C880.61 198.12 880.55 198.21 880.5 198.29C880.32 198.56 880.14 198.81 879.97 199.06C879.93 199.12 879.9 199.18 879.86 199.24C879.74 199.4 879.63 199.57 879.52 199.73C879.51 199.74 879.51 199.75 879.5 199.76C879.48 199.78 879.47 199.8 879.45 199.82C879.42 199.87 879.39 199.92 879.35 199.97C879.28 200.08 879.2 200.19 879.13 200.29C879.11 200.32 879.1 200.34 879.08 200.37C879.03 200.43 878.99 200.5 878.95 200.56C878.95 200.57 878.92 200.59 878.91 200.6C878.87 200.67 878.82 200.73 878.78 200.8C878.76 200.83 878.74 200.85 878.72 200.88C878.65 200.98 878.58 201.09 878.51 201.18C878.51 201.19 878.51 201.19 878.51 201.2C878.49 201.22 878.48 201.24 878.47 201.25C878.45 201.27 878.44 201.3 878.42 201.32C878.34 201.43 878.27 201.54 878.2 201.64C878.18 201.67 878.16 201.69 878.15 201.71C878 201.92 877.87 202.1 877.78 202.23C877.78 202.23 877.773 202.237 877.76 202.25C877.76 202.25 877.72 202.31 877.7 202.34L877.68 202.36C877.64 202.42 877.61 202.47 877.58 202.5C877.58 202.51 877.58 202.52 877.56 202.53C877.54 202.56 877.53 202.57 877.53 202.57L864.67 189.71V189.45C864.67 189.45 864.67 189.39 864.68 189.36V189C864.69 188.9 864.69 188.79 864.69 188.67V188.53C864.7 188.17 864.71 187.73 864.71 187.22V185.21C864.71 184.95 864.71 184.68 864.71 184.41V184.14C864.7 183.81 864.7 183.47 864.69 183.12V182.99C864.67 182.18 864.65 181.29 864.62 180.35C864.62 180.26 864.62 180.15 864.61 180.06C864.6 179.69 864.59 179.31 864.57 178.92C864.57 178.79 864.56 178.66 864.56 178.53C864.54 178.15 864.52 177.76 864.51 177.36C864.5 177.23 864.49 177.1 864.49 176.97C864.47 176.54 864.45 176.11 864.42 175.66C864.42 175.55 864.41 175.45 864.41 175.34C864.34 174.22 864.27 173.04 864.19 171.82C864.18 171.72 864.17 171.61 864.16 171.5C864.13 171 864.09 170.5 864.05 169.99C864.04 169.82 864.02 169.65 864.01 169.48C863.97 169.02 863.93 168.55 863.89 168.08C863.88 167.89 863.86 167.7 863.84 167.51C863.8 167.02 863.76 166.53 863.71 166.03C863.69 165.86 863.68 165.69 863.66 165.51C863.6 164.9 863.54 164.28 863.47 163.66C863.47 163.6 863.47 163.54 863.45 163.48C863.38 162.78 863.3 162.06 863.22 161.34C863.2 161.22 863.19 161.09 863.17 160.96C863.1 160.39 863.03 159.81 862.96 159.22C862.93 158.99 862.9 158.76 862.87 158.53C862.81 158.04 862.74 157.55 862.68 157.06C862.64 156.79 862.6 156.52 862.57 156.25C862.5 155.77 862.43 155.28 862.36 154.79C862.32 154.52 862.28 154.26 862.24 153.99C862.16 153.46 862.08 152.93 862 152.39C861.96 152.16 861.93 151.94 861.89 151.71C861.77 150.96 861.64 150.2 861.51 149.43C861.48 149.26 861.45 149.08 861.42 148.9C861.32 148.31 861.21 147.71 861.1 147.12C861.05 146.81 860.99 146.51 860.93 146.21C860.84 145.73 860.75 145.25 860.65 144.77C860.59 144.42 860.52 144.08 860.45 143.74C860.36 143.29 860.27 142.84 860.17 142.39C860.1 142.03 860.03 141.67 859.95 141.31C859.85 140.86 859.75 140.4 859.65 139.95C859.57 139.59 859.49 139.24 859.41 138.89C859.3 138.37 859.17 137.84 859.05 137.32C858.92 136.79 858.79 136.26 858.66 135.73C858.54 135.22 858.41 134.7 858.28 134.19C858.19 133.84 858.1 133.5 858.01 133.15C857.89 132.69 857.77 132.23 857.64 131.77C857.55 131.42 857.45 131.07 857.35 130.72C857.22 130.26 857.09 129.8 856.96 129.34C856.86 128.99 856.76 128.64 856.65 128.29C856.52 127.83 856.38 127.37 856.24 126.91C856.13 126.56 856.03 126.21 855.92 125.86C855.77 125.39 855.62 124.91 855.46 124.44C855.36 124.11 855.25 123.78 855.14 123.44C854.97 122.92 854.79 122.4 854.61 121.88C854.52 121.6 854.42 121.31 854.33 121.03C854.05 120.23 853.76 119.44 853.47 118.64C853.45 118.58 853.42 118.51 853.4 118.45C853.12 117.71 852.84 116.98 852.56 116.24C852.45 115.97 852.34 115.7 852.23 115.43C852.02 114.9 851.81 114.38 851.6 113.86C851.47 113.54 851.34 113.23 851.21 112.92C851 112.44 850.79 111.95 850.58 111.47C850.44 111.15 850.3 110.83 850.16 110.51C849.95 110.04 849.73 109.56 849.51 109.09C849.37 108.78 849.22 108.46 849.07 108.15C848.84 107.66 848.61 107.18 848.37 106.69C848.23 106.4 848.09 106.11 847.94 105.82C847.67 105.27 847.39 104.73 847.11 104.19C846.99 103.96 846.88 103.74 846.76 103.52C846.36 102.75 845.94 101.99 845.52 101.24C845.48 101.17 845.44 101.1 845.4 101.04C845.02 100.35 844.62 99.67 844.22 99C844.09 98.77 843.95 98.55 843.81 98.32C843.5 97.81 843.19 97.3 842.87 96.79C842.76 96.61 842.64 96.44 842.53 96.27C841.79 95.11 841.02 93.96 840.23 92.84C840.15 92.72 840.07 92.61 839.99 92.5C839.17 91.36 838.34 90.24 837.48 89.14C837.07 88.83 836.66 88.52 836.25 88.21C836.06 88.07 835.87 87.92 835.68 87.78C834.97 87.27 834.26 86.78 833.54 86.29C833.49 86.26 833.44 86.23 833.39 86.2C832.72 85.76 832.04 85.32 831.35 84.9C831.12 84.76 830.89 84.63 830.66 84.49C830.15 84.19 829.65 83.9 829.14 83.61C828.74 83.39 828.34 83.17 827.93 82.96C827.5 82.73 827.06 82.5 826.62 82.27C826.2 82.06 825.78 81.86 825.36 81.66C824.91 81.45 824.47 81.24 824.01 81.03C823.58 80.84 823.14 80.65 822.7 80.46C822.25 80.27 821.79 80.08 821.32 79.89C820.87 79.71 820.42 79.54 819.96 79.37C819.49 79.2 819.02 79.02 818.54 78.85C818.07 78.69 817.6 78.54 817.12 78.38C816.64 78.23 816.16 78.07 815.67 77.92C815.19 77.78 814.69 77.64 814.2 77.51C813.71 77.37 813.21 77.23 812.71 77.11C812.2 76.98 811.7 76.86 811.19 76.74C810.68 76.63 810.17 76.51 809.65 76.4C809.13 76.3 808.61 76.2 808.08 76.1C807.57 76 807.05 75.91 806.53 75.83C805.89 75.72 805.24 75.63 804.59 75.54C804.1 75.47 803.62 75.4 803.13 75.34C802.45 75.26 801.75 75.19 801.06 75.13C800.58 75.08 800.11 75.03 799.63 75C798.87 74.94 798.1 74.9 797.32 74.86C796.89 74.84 796.46 74.81 796.02 74.79C795.03 74.76 794.01 74.75 792.99 74.74C792.76 74.74 792.54 74.73 792.3 74.74C791.05 74.74 789.77 74.78 788.48 74.83C788.09 74.85 787.68 74.88 787.28 74.91C786.38 74.96 785.47 75.01 784.54 75.09C784.02 75.13 783.49 75.19 782.96 75.24C782.14 75.32 781.32 75.4 780.48 75.5C779.91 75.57 779.32 75.65 778.73 75.73C777.93 75.84 777.13 75.95 776.31 76.07C775.7 76.17 775.07 76.28 774.45 76.38C773.64 76.52 772.83 76.66 772.02 76.82C771.37 76.94 770.72 77.07 770.07 77.21C769.25 77.37 768.43 77.55 767.6 77.74C766.93 77.88 766.26 78.04 765.58 78.2C764.75 78.4 763.9 78.61 763.05 78.83C762.36 79.01 761.68 79.18 760.98 79.37C760.12 79.61 759.24 79.86 758.36 80.11C757.67 80.31 756.97 80.51 756.27 80.72C755.36 81 754.44 81.29 753.52 81.59C752.83 81.81 752.14 82.03 751.44 82.26C750.46 82.58 749.47 82.93 748.48 83.28C747.81 83.51 747.15 83.74 746.48 83.98C745.37 84.39 744.25 84.82 743.12 85.25C742.54 85.47 741.98 85.67 741.4 85.9C739.68 86.58 737.94 87.28 736.18 88.02C733.67 89.08 731.12 90.16 728.54 91.27C728.36 91.35 728.18 91.43 728 91.51C725.42 92.61 722.82 93.74 720.19 94.9C720.17 94.9 720.15 94.9 720.13 94.92C719.52 95.19 718.89 95.47 718.27 95.74C716.29 96.61 714.29 97.49 712.28 98.39C711.23 98.85 710.16 99.33 709.11 99.8C707.48 100.53 705.84 101.26 704.19 102C703.04 102.52 701.87 103.04 700.71 103.57C699.13 104.28 697.54 104.99 695.94 105.72C694.74 106.26 693.54 106.8 692.33 107.35C690.71 108.09 689.08 108.83 687.44 109.58C686.28 110.11 685.12 110.64 683.95 111.17C682.12 112 680.28 112.84 678.44 113.69C677.52 114.11 676.61 114.52 675.69 114.94C675.08 115.23 674.46 115.51 673.84 115.79C672.32 116.49 670.8 117.18 669.27 117.89C666.31 119.24 663.34 120.6 660.35 121.97C660.28 122 660.22 122.03 660.16 122.06C658.97 122.6 657.78 123.15 656.59 123.69C656.44 123.76 656.28 123.83 656.13 123.9C655.17 124.34 654.21 124.78 653.25 125.22C653.24 125.22 653.23 125.23 653.23 125.23C652.68 125.48 652.14 125.73 651.59 125.98C651.14 126.18 650.68 126.39 650.22 126.6C649.05 127.14 647.87 127.68 646.69 128.21C646.46 128.32 646.23 128.42 646.01 128.52C645.6 128.71 645.2 128.89 644.79 129.08C643.67 129.59 642.55 130.1 641.42 130.61C640.8 130.89 640.17 131.18 639.55 131.46C639.35 131.55 639.15 131.64 638.96 131.73C638.01 132.16 637.05 132.59 636.1 133.02C635.51 133.29 634.92 133.55 634.34 133.82C633.77 134.08 633.2 134.33 632.63 134.59C632.18 134.79 631.72 135 631.26 135.21C630.86 135.39 630.47 135.57 630.07 135.74C629.77 135.88 629.47 136.01 629.17 136.15C627.92 136.71 626.67 137.27 625.43 137.83C625.21 137.93 624.99 138.03 624.77 138.13C624.54 138.23 624.31 138.33 624.08 138.44C623.55 138.67 623.02 138.91 622.5 139.14C621.31 139.67 620.13 140.2 618.95 140.72C618.63 140.86 618.31 141.01 617.99 141.15C617.68 141.29 617.36 141.43 617.04 141.57C617.03 141.58 617.01 141.58 616.99 141.59C615.93 142.06 614.87 142.53 613.81 143C613.1 143.31 612.4 143.62 611.7 143.93C611.56 143.99 611.43 144.05 611.3 144.11C611.04 144.22 610.78 144.34 610.53 144.45C609.91 144.72 609.29 144.99 608.67 145.26C607.95 145.58 607.22 145.9 606.5 146.21C605.76 146.54 605.01 146.86 604.27 147.19C603.84 147.37 603.41 147.56 602.98 147.75C602.45 147.98 601.91 148.21 601.38 148.44C600.2 148.95 599.03 149.46 597.85 149.96C597.32 150.19 596.79 150.43 596.25 150.66C594.58 151.37 592.92 152.08 591.25 152.79C590.87 152.95 590.48 153.12 590.1 153.28C589.62 153.48 589.14 153.68 588.66 153.89C587.84 154.23 587.01 154.58 586.2 154.93C585.52 155.21 584.84 155.5 584.16 155.78C583.8 155.93 583.43 156.08 583.07 156.23C582.82 156.34 582.56 156.45 582.3 156.56C581.92 156.72 581.53 156.87 581.15 157.03C580.42 157.34 579.7 157.63 578.98 157.93C578.05 158.31 577.13 158.7 576.2 159.07C575.89 159.2 575.59 159.33 575.28 159.45C574.82 159.64 574.37 159.82 573.92 160.01C572.94 160.41 571.96 160.8 570.98 161.2C570.31 161.47 569.64 161.74 568.97 162.01C568.79 162.08 568.61 162.15 568.43 162.22C567.52 162.59 566.62 162.94 565.72 163.3C565.13 163.54 564.53 163.77 563.94 164.01C563.43 164.21 562.93 164.41 562.42 164.61C561.91 164.81 561.4 165 560.89 165.2C560.29 165.44 559.69 165.68 559.09 165.91C558.77 166.03 558.45 166.15 558.13 166.28C557.23 166.63 556.32 166.97 555.42 167.32C555.21 167.4 555 167.48 554.78 167.56C554.59 167.64 554.39 167.71 554.2 167.79C553.6 168.01 553.01 168.24 552.41 168.46C551.38 168.85 550.36 169.24 549.33 169.62C549.01 169.74 548.68 169.86 548.35 169.98C548.05 170.09 547.75 170.2 547.45 170.31C547.42 170.32 547.4 170.33 547.37 170.34C546.41 170.7 545.45 171.05 544.49 171.4C543.82 171.64 543.16 171.88 542.5 172.12C542.33 172.18 542.16 172.25 541.99 172.31C541.8 172.37 541.62 172.44 541.43 172.51C540.83 172.72 540.24 172.93 539.64 173.14C539 173.37 538.35 173.6 537.71 173.83C537.03 174.07 536.35 174.3 535.67 174.54C535.23 174.69 534.79 174.84 534.35 175C533.9 175.15 533.45 175.31 533 175.46C531.7 175.91 530.41 176.34 529.12 176.77C529.01 176.81 528.9 176.85 528.78 176.89C528.68 176.92 528.58 176.95 528.48 176.99C528.44 177 528.39 177.02 528.34 177.03C526.81 177.54 525.29 178.03 523.78 178.52C523.43 178.63 523.08 178.74 522.73 178.85C522.29 178.99 521.86 179.13 521.43 179.26C520.7 179.49 519.96 179.73 519.24 179.95C518.66 180.13 518.08 180.3 517.5 180.48C517.08 180.61 516.66 180.74 516.24 180.86C516.11 180.9 515.97 180.95 515.84 180.99C515.47 181.1 515.1 181.2 514.73 181.31C514.13 181.49 513.54 181.67 512.94 181.84C512.11 182.08 511.27 182.32 510.44 182.56C510.14 182.64 509.84 182.73 509.54 182.82C509.19 182.91 508.85 183.01 508.5 183.1C507.58 183.36 506.66 183.61 505.74 183.86C505.21 184 504.68 184.14 504.16 184.28C504.12 184.29 504.08 184.3 504.04 184.31C503.93 184.34 503.83 184.37 503.72 184.4C502.79 184.64 501.87 184.87 500.95 185.1C500.65 185.18 500.33 185.26 500.03 185.34C499.99 185.35 499.95 185.36 499.91 185.37C499.45 185.48 499 185.59 498.55 185.7C498.12 185.8 497.69 185.91 497.25 186.01C496.56 186.17 495.86 186.34 495.17 186.5C494.75 186.59 494.34 186.68 493.92 186.78C493.4 186.89 492.88 187.01 492.37 187.12C492.3 187.14 492.22 187.16 492.15 187.17C491.53 187.31 490.92 187.43 490.31 187.56C489.89 187.64 489.48 187.73 489.07 187.81C488.45 187.94 487.83 188.06 487.21 188.18C486.81 188.26 486.4 188.33 486 188.41C485.51 188.5 485.02 188.59 484.54 188.68C484.36 188.71 484.18 188.74 483.99 188.78C483.09 188.93 482.2 189.09 481.31 189.23C481.26 189.24 481.21 189.25 481.16 189.26C480.8 189.32 480.45 189.36 480.1 189.42C479.68 189.48 479.27 189.55 478.85 189.61C478.07 189.72 477.28 189.83 476.51 189.94C476.13 189.99 475.74 190.04 475.36 190.08C475.36 190.08 475.353 190.08 475.34 190.08C475.06 190.11 474.78 190.15 474.5 190.19C473.28 190.33 472.08 190.46 470.9 190.57C470.88 190.57 470.86 190.57 470.83 190.57C470.67 190.59 470.52 190.6 470.36 190.61C470.03 190.64 469.71 190.66 469.39 190.69C468.41 190.77 467.44 190.84 466.48 190.89C466.24 190.91 466 190.93 465.76 190.94C465.54 190.94 465.33 190.96 465.11 190.97C463.79 191.03 462.49 191.08 461.22 191.09L448.36 178.22C449.74 177.77 451.13 177.3 452.5 176.82C452.89 176.69 453.28 176.55 453.67 176.42C454.72 176.05 455.77 175.68 456.82 175.3C457.17 175.17 457.52 175.05 457.86 174.93C459.45 174.35 461.04 173.76 462.63 173.16C462.93 173.04 463.24 172.92 463.55 172.81C465.14 172.2 466.74 171.58 468.32 170.95C468.36 170.93 468.4 170.92 468.44 170.9C470.06 170.25 471.67 169.6 473.28 168.93C473.6 168.8 473.91 168.67 474.22 168.54C475.79 167.88 477.36 167.22 478.93 166.54C479.16 166.44 479.4 166.34 479.63 166.23C481.12 165.59 482.61 164.93 484.09 164.26C484.23 164.2 484.36 164.14 484.5 164.08C484.54 164.06 484.58 164.04 484.63 164.02C486.2 163.32 487.77 162.6 489.33 161.87C489.63 161.73 489.92 161.59 490.22 161.45C491.79 160.72 493.36 159.98 494.92 159.22C495.04 159.17 495.15 159.11 495.26 159.06C496.77 158.33 498.28 157.59 499.78 156.84C500.01 156.73 500.25 156.61 500.48 156.5C502.02 155.73 503.56 154.95 505.09 154.16C505.35 154.03 505.61 153.9 505.87 153.76C509.02 152.15 512.14 150.5 515.25 148.82C515.51 148.68 515.77 148.54 516.03 148.4C517.55 147.57 519.07 146.74 520.58 145.9C520.78 145.79 520.98 145.68 521.18 145.57C522.67 144.74 524.15 143.91 525.63 143.07C525.73 143.01 525.83 142.96 525.93 142.9C527.46 142.03 528.99 141.15 530.52 140.26C530.76 140.12 531.01 139.98 531.25 139.84C532.77 138.95 534.3 138.06 535.81 137.16C535.9 137.11 535.99 137.06 536.08 137C537.57 136.12 539.05 135.24 540.53 134.34C540.7 134.24 540.87 134.14 541.04 134.04C542.54 133.13 544.05 132.21 545.55 131.29C545.76 131.16 545.96 131.04 546.17 130.91C549.23 129.03 552.27 127.13 555.29 125.22C555.48 125.09 555.68 124.97 555.87 124.85C557.36 123.9 558.85 122.95 560.33 122C560.49 121.9 560.64 121.8 560.8 121.7C562.29 120.74 563.79 119.77 565.28 118.8C565.31 118.78 565.33 118.77 565.36 118.75C566.87 117.77 568.37 116.78 569.86 115.8C570.06 115.67 570.26 115.54 570.45 115.41C571.94 114.43 573.43 113.45 574.91 112.46C574.96 112.43 575.01 112.4 575.05 112.36C576.55 111.37 578.05 110.37 579.54 109.36C579.63 109.3 579.73 109.24 579.82 109.18C581.3 108.18 582.78 107.18 584.26 106.18C584.43 106.07 584.59 105.96 584.76 105.85C587.75 103.82 590.72 101.79 593.69 99.76C593.81 99.67 593.94 99.58 594.06 99.5C595.54 98.48 597.02 97.47 598.49 96.45C598.58 96.39 598.67 96.33 598.75 96.27C601.78 94.19 604.79 92.1 607.79 90.02C607.86 89.97 607.93 89.92 607.99 89.87C611.04 87.76 614.08 85.65 617.1 83.54C619.63 81.78 622.16 80.03 624.67 78.28C625.25 77.88 625.82 77.48 626.4 77.08C626.76 76.83 627.13 76.57 627.5 76.32C628.15 75.87 628.8 75.41 629.46 74.96C629.84 74.7 630.22 74.43 630.6 74.17C631.22 73.74 631.85 73.31 632.47 72.87C632.87 72.6 633.27 72.32 633.67 72.05C634.31 71.6 634.95 71.16 635.59 70.72C635.95 70.47 636.3 70.23 636.66 69.99C637.36 69.5 638.06 69.02 638.76 68.54C639.06 68.33 639.37 68.12 639.67 67.91C640.62 67.27 641.56 66.62 642.51 65.97C642.55 65.94 642.6 65.91 642.65 65.87C643.67 65.18 644.69 64.48 645.71 63.79L646.25 63.43C647.06 62.87 647.87 62.32 648.69 61.77C648.99 61.57 649.28 61.37 649.58 61.17C650.28 60.7 650.97 60.23 651.67 59.76C652.01 59.53 652.34 59.31 652.68 59.08C653.34 58.64 654 58.2 654.66 57.75C655.01 57.52 655.36 57.29 655.7 57.06C656.37 56.62 657.03 56.18 657.69 55.74C658.02 55.52 658.35 55.3 658.68 55.08C659.39 54.61 660.1 54.15 660.8 53.68C661.09 53.5 661.37 53.31 661.65 53.12C662.56 52.53 663.47 51.93 664.38 51.34C664.46 51.29 664.53 51.24 664.6 51.2C665.6 50.55 666.59 49.9 667.59 49.26C667.79 49.13 667.98 49.01 668.18 48.88C668.96 48.38 669.75 47.87 670.53 47.37C670.83 47.18 671.14 46.99 671.44 46.79C672.12 46.36 672.79 45.93 673.47 45.51C673.8 45.29 674.14 45.08 674.47 44.87C675.12 44.47 675.77 44.06 676.42 43.65C676.77 43.44 677.11 43.22 677.46 43.01C678.11 42.6 678.75 42.2 679.4 41.81C679.73 41.6 680.06 41.39 680.4 41.19C681.09 40.77 681.78 40.35 682.46 39.93C682.75 39.75 683.04 39.58 683.32 39.4C684.23 38.85 685.13 38.31 686.04 37.77C686.1 37.73 686.16 37.69 686.23 37.65C687.21 37.06 688.19 36.48 689.18 35.9C689.39 35.78 689.61 35.65 689.83 35.52C690.58 35.08 691.32 34.65 692.07 34.21C692.39 34.03 692.71 33.84 693.03 33.66C693.67 33.29 694.32 32.91 694.97 32.55C695.32 32.34 695.67 32.14 696.03 31.94C696.64 31.59 697.26 31.25 697.88 30.9C698.24 30.7 698.6 30.5 698.96 30.3C699.58 29.95 700.2 29.61 700.82 29.27C701.17 29.08 701.51 28.88 701.86 28.69C702.53 28.33 703.19 27.97 703.86 27.61C704.15 27.45 704.45 27.29 704.75 27.13C705.63 26.66 706.51 26.2 707.38 25.73C707.46 25.69 707.54 25.65 707.62 25.61C708.59 25.1 709.56 24.6 710.52 24.11C710.77 23.98 711.02 23.85 711.26 23.73C711.97 23.37 712.68 23.01 713.39 22.65C713.72 22.49 714.06 22.32 714.39 22.15C715.01 21.85 715.64 21.54 716.26 21.24C716.62 21.06 716.99 20.88 717.36 20.7C717.95 20.41 718.55 20.13 719.15 19.84C719.51 19.67 719.88 19.49 720.25 19.32C720.85 19.04 721.46 18.76 722.06 18.48C722.42 18.31 722.77 18.15 723.13 17.98C723.78 17.69 724.42 17.4 725.07 17.11C725.37 16.97 725.68 16.83 725.99 16.69C726.87 16.3 727.74 15.92 728.62 15.54C728.69 15.51 728.77 15.48 728.84 15.45C729.8 15.04 730.75 14.63 731.71 14.23C731.98 14.12 732.24 14.02 732.51 13.91C733.19 13.63 733.87 13.35 734.56 13.07C734.9 12.93 735.25 12.8 735.6 12.66C736.2 12.42 736.81 12.19 737.41 11.95C737.78 11.81 738.15 11.67 738.53 11.53C739.11 11.3 739.7 11.08 740.28 10.87C740.66 10.73 741.03 10.59 741.41 10.45C742 10.24 742.59 10.03 743.18 9.81998C743.55 9.68998 743.91 9.55998 744.27 9.42998C744.9 9.20998 745.54 8.99998 746.17 8.77998C746.49 8.67998 746.8 8.56998 747.12 8.45998C747.98 8.17998 748.85 7.89998 749.72 7.61998C749.8 7.59998 749.88 7.56998 749.96 7.53998C750.91 7.24998 751.85 6.95998 752.8 6.66998C753.09 6.58998 753.37 6.50998 753.66 6.41998C754.32 6.22998 754.98 6.03998 755.64 5.84998C756 5.74998 756.35 5.65998 756.71 5.55998C757.3 5.39998 757.9 5.22998 758.49 5.07998C758.87 4.97998 759.25 4.87998 759.62 4.77998C760.2 4.63998 760.78 4.48998 761.35 4.34998C761.73 4.25998 762.11 4.16998 762.49 4.06998C763.08 3.93998 763.67 3.79998 764.25 3.66998C764.62 3.58998 764.98 3.49998 765.34 3.41998C765.98 3.27998 766.62 3.14998 767.26 3.01998C767.57 2.94998 767.88 2.88998 768.19 2.81998C769.08 2.64998 769.97 2.46998 770.86 2.30998C770.92 2.29998 770.97 2.28998 771.03 2.27998C771.97 2.10998 772.92 1.94998 773.87 1.79998C774.17 1.74998 774.46 1.69998 774.76 1.65998C775.41 1.55998 776.06 1.45998 776.71 1.36998C777.07 1.30998 777.43 1.26998 777.8 1.21998C778.38 1.13998 778.97 1.05998 779.56 0.98998C779.94 0.93998 780.32 0.89998 780.7 0.85998C781.28 0.78998 781.85 0.72998 782.43 0.66998C782.81 0.62998 783.19 0.59998 783.58 0.55998C784.16 0.50998 784.75 0.45998 785.34 0.40998C785.7 0.37998 786.07 0.34998 786.43 0.31998C787.07 0.27998 787.71 0.23998 788.35 0.19998C788.66 0.17998 788.97 0.15998 789.28 0.14998C790.19 0.0999805 791.11 0.0599805 792.02 0.0399805C792.05 0.0399805 792.09 0.0299805 792.13 0.0299805C793.08 -1.95336e-05 794.03 -0.0100195 794.98 -0.0200195H795.89C796.53 -0.0200195 797.18 -0.0200195 797.83 -0.0100195C798.19 -1.95317e-05 798.56 0.00998047 798.92 0.0199805C799.51 0.0299805 800.1 0.0499805 800.69 0.0699805C801.08 0.0799805 801.46 0.0999805 801.84 0.11998C802.42 0.14998 803 0.17998 803.57 0.20998C803.96 0.22998 804.34 0.25998 804.73 0.27998C805.32 0.32998 805.91 0.36998 806.5 0.41998C806.86 0.44998 807.23 0.47998 807.6 0.51998C808.24 0.57998 808.89 0.63998 809.53 0.70998C809.84 0.74998 810.15 0.77998 810.46 0.80998C811.42 0.91998 812.37 1.03998 813.33 1.17998C814.75 1.36998 816.16 1.59998 817.56 1.83998C818.01 1.90998 818.46 1.99998 818.91 2.07998C819.86 2.24998 820.8 2.42998 821.73 2.61998C822.27 2.72998 822.8 2.83998 823.33 2.95998C824.17 3.13998 825.01 3.32998 825.85 3.51998C826.4 3.65998 826.95 3.78998 827.5 3.92998C827.91 4.02998 828.33 4.11998 828.73 4.22998C829.27 4.36998 829.8 4.51998 830.34 4.66998C830.59 4.73998 830.84 4.80998 831.08 4.87998C832.31 5.21998 833.52 5.58998 834.72 5.96998C834.99 6.04998 835.25 6.13998 835.51 6.21998C836.6 6.57998 837.67 6.93998 838.74 7.31998C838.91 7.38998 839.08 7.43998 839.26 7.50998C839.35 7.53998 839.44 7.56998 839.53 7.59998C840.62 7.99998 841.71 8.42998 842.78 8.85998C843.02 8.95998 843.25 9.04998 843.49 9.14998C844.66 9.62998 845.83 10.13 846.97 10.65C847.04 10.68 847.11 10.71 847.18 10.75C848.28 11.25 849.37 11.77 850.44 12.31C850.65 12.41 850.85 12.51 851.06 12.61C852.15 13.17 853.23 13.74 854.3 14.34C854.5 14.45 854.69 14.56 854.89 14.67C855.91 15.25 856.93 15.84 857.93 16.46C858.01 16.51 858.09 16.55 858.17 16.6C859.22 17.25 860.24 17.92 861.26 18.6C861.47 18.75 861.68 18.89 861.89 19.03C862.89 19.72 863.87 20.42 864.84 21.14C864.97 21.24 865.09 21.34 865.22 21.43C866.12 22.11 867 22.8 867.87 23.51C868.03 23.64 868.19 23.77 868.35 23.9C869.27 24.67 870.17 25.45 871.06 26.25C871.24 26.42 871.43 26.59 871.61 26.76C872.52 27.59 873.41 28.43 874.28 29.31L887.15 42.17C888.17 43.2 889.17 44.25 890.14 45.33C890.48 45.7 890.8 46.1 891.13 46.48C891.76 47.2 892.38 47.91 892.99 48.65C893.36 49.11 893.72 49.6 894.08 50.07C894.62 50.76 895.15 51.44 895.67 52.14C896.04 52.66 896.4 53.2 896.76 53.72C897.24 54.41 897.73 55.1 898.19 55.8C898.55 56.36 898.89 56.93 899.24 57.5C899.68 58.21 900.12 58.91 900.54 59.63C900.88 60.22 901.2 60.83 901.53 61.44C901.93 62.16 902.33 62.89 902.71 63.63C903.04 64.26 903.34 64.9 903.65 65.54C904.01 66.29 904.37 67.03 904.71 67.8C905.01 68.46 905.29 69.14 905.57 69.82C905.9 70.58 906.22 71.35 906.52 72.13C906.61 72.36 906.71 72.57 906.8 72.8C907.17 73.79 907.53 74.79 907.88 75.8C907.9 75.85 907.91 75.91 907.93 75.96C908.37 77.25 908.78 78.57 909.18 79.9C909.27 80.2 909.36 80.51 909.44 80.82C909.84 82.2 910.21 83.6 910.56 85.03C910.59 85.16 910.62 85.3 910.65 85.43C910.96 86.75 911.25 88.09 911.52 89.45C911.58 89.78 911.65 90.11 911.71 90.44C911.99 91.91 912.24 93.39 912.46 94.9C912.5 95.13 912.53 95.36 912.56 95.59C912.67 96.39 912.79 97.19 912.89 98C912.96 98.58 913.02 99.18 913.08 99.77C913.11 100.05 913.14 100.34 913.17 100.63C913.33 102.17 913.46 103.73 913.56 105.31C913.58 105.64 913.6 105.96 913.61 106.29C913.71 107.94 913.78 109.6 913.82 111.29C913.84 112.07 913.84 112.86 913.83 113.65L913.81 113.67Z" fill="black"/>
<path d="M810.99 58.64C834 67.55 848.42 85.96 857.42 105.42C866.29 124.61 870.24 145.54 872 161.55C873.11 159.55 874.23 157.45 875.36 155.28C884.4 137.8 892.59 116.63 892.2 98.64C891.6 70.84 882.64 50.45 868.78 36.22C854.82 21.89 835.19 13.08 812.09 9.85997C759.23 2.48998 707.01 32.51 647.68 73.03C639.33 78.74 630.85 84.63 622.25 90.62C594.36 110.03 565.08 130.41 534 148.35C547.27 143.39 561.05 137.8 575.09 131.83C599.92 121.27 625.38 109.62 650.04 98.32L650.77 97.99C675.12 86.83 698.71 76.02 719.91 67.11C758.19 51.01 787.99 49.73 811 58.65L810.99 58.64Z" fill="#FA8D0B"/>
<path fill-rule="evenodd" clip-rule="evenodd" d="M821.18 150.75V174.54C821.18 174.97 821.14 175.4 821.08 175.82C820.68 178.79 818.89 181.39 816.26 182.83C815.89 183.04 815.51 183.22 815.11 183.38L793.97 191.49V337.09C793.97 337.52 793.93 337.94 793.87 338.36C793.46 341.33 791.67 343.93 789.05 345.37C788.68 345.58 788.3 345.77 787.89 345.92L763.32 355.35C762.97 355.49 762.62 355.6 762.26 355.68C760.12 356.23 757.97 355.98 756.11 355.16C756.02 355.12 755.94 355.08 755.85 355.04C755.68 354.96 755.51 354.88 755.34 354.79C755.05 354.63 754.77 354.46 754.5 354.27L739.6 343.84L728.76 336.25C728.73 336.36 728.72 336.48 728.69 336.6C728.55 337.32 728.39 338.03 728.23 338.74C728.19 338.93 728.16 339.12 728.11 339.31C727.96 339.94 727.8 340.57 727.64 341.19C727.57 341.45 727.51 341.71 727.44 341.97C727.3 342.5 727.13 343.02 726.98 343.55C726.88 343.89 726.78 344.24 726.67 344.59C726.54 345.01 726.39 345.43 726.25 345.85C726.11 346.29 725.97 346.73 725.82 347.16C725.7 347.48 725.58 347.79 725.46 348.1C725.27 348.63 725.07 349.16 724.86 349.69C724.78 349.9 724.69 350.1 724.6 350.31C724.35 350.93 724.09 351.55 723.82 352.17C723.77 352.27 723.72 352.37 723.68 352.47C722.26 355.62 720.6 358.66 718.71 361.56C716.8 364.53 714.67 367.3 712.34 369.86C712.31 369.89 712.29 369.92 712.26 369.95C711.68 370.59 711.08 371.22 710.47 371.84C710.46 371.85 710.45 371.86 710.44 371.86C703.63 378.73 695.23 384.03 685.4 387.8C684.55 388.13 683.7 388.43 682.86 388.73C682.7 388.78 682.54 388.83 682.39 388.88C681.7 389.11 681.01 389.34 680.33 389.55C680.11 389.62 679.89 389.67 679.67 389.73C679.05 389.92 678.43 390.1 677.81 390.26C677.56 390.33 677.32 390.38 677.08 390.44C676.49 390.58 675.9 390.73 675.31 390.86C675.05 390.91 674.79 390.95 674.53 391C673.96 391.12 673.39 391.23 672.83 391.32C672.56 391.37 672.3 391.4 672.03 391.44C671.48 391.52 670.93 391.6 670.38 391.66C670.1 391.69 669.83 391.7 669.55 391.73C669.02 391.78 668.49 391.83 667.96 391.86C667.67 391.87 667.39 391.87 667.11 391.88C666.6 391.89 666.08 391.91 665.57 391.91C665.28 391.91 664.99 391.88 664.7 391.87C664.21 391.85 663.71 391.84 663.23 391.8C662.93 391.78 662.63 391.74 662.33 391.7C661.86 391.65 661.39 391.61 660.93 391.54C660.62 391.49 660.32 391.42 660.02 391.37C659.57 391.28 659.12 391.21 658.68 391.11C658.37 391.03 658.07 390.94 657.76 390.86C657.33 390.74 656.9 390.63 656.48 390.5C656.17 390.4 655.87 390.27 655.57 390.16C655.16 390.01 654.75 389.87 654.34 389.7C654.04 389.58 653.74 389.42 653.44 389.28C653.05 389.1 652.65 388.92 652.26 388.72C651.96 388.56 651.67 388.38 651.38 388.21C651 387.99 650.62 387.78 650.25 387.54C649.96 387.35 649.68 387.14 649.39 386.93C649.07 386.71 648.75 386.5 648.43 386.25L620.68 366.82C620.63 366.79 620.58 366.75 620.53 366.72C620.38 366.62 620.23 366.52 620.08 366.42C619.52 366.04 618.96 365.65 618.43 365.23C618.42 365.22 618.41 365.22 618.4 365.21L618.35 365.17L618.29 365.12C618.11 364.97 617.95 364.81 617.77 364.65C617.76 364.65 617.75 364.64 617.74 364.63C616.87 363.88 616.05 363.09 615.29 362.25V405.68C615.29 406.11 615.25 406.53 615.19 406.95C614.79 409.92 613 412.52 610.37 413.96C610 414.17 609.62 414.35 609.22 414.51L584.64 423.94C584.29 424.08 583.94 424.18 583.59 424.27C581.44 424.82 579.27 424.57 577.41 423.74C577.35 423.72 577.29 423.68 577.23 423.66C577.03 423.56 576.84 423.47 576.65 423.37C576.39 423.23 576.15 423.08 575.9 422.91C575.88 422.89 575.85 422.88 575.82 422.86L571.3 419.7V422.56C571.3 422.99 571.27 423.41 571.2 423.83C570.8 426.81 569.01 429.41 566.38 430.85C566.01 431.06 565.63 431.24 565.23 431.39L497.82 457.27C497.47 457.41 497.11 457.51 496.75 457.6C494.62 458.15 492.47 457.9 490.62 457.08C490.52 457.04 490.43 456.99 490.33 456.95C490.17 456.87 490.01 456.79 489.85 456.71C489.56 456.55 489.28 456.38 489 456.19L487.35 455.03C487.26 458.5 485.26 461.69 482.11 463.25C482.02 463.3 481.93 463.34 481.84 463.38C481.66 463.47 481.47 463.55 481.28 463.62L456.66 473.07C456.66 473.07 456.65 473.08 456.64 473.08L416.35 488.55C416.29 488.57 416.24 488.59 416.18 488.61L393.77 497.21C393.51 497.31 393.26 497.4 393 497.47C390.47 498.2 387.91 497.81 385.84 496.67C385.53 496.51 385.24 496.33 384.96 496.13L384.74 495.97L373.76 488.29V498.39C373.76 498.51 373.76 498.63 373.76 498.75C373.75 498.85 373.75 498.94 373.74 499.03C373.73 499.18 373.7 499.32 373.68 499.47C373.66 499.66 373.64 499.86 373.61 500.05C373.56 500.32 373.49 500.58 373.42 500.84C373.38 501.01 373.34 501.18 373.29 501.34C373.18 501.67 373.05 501.98 372.91 502.29C372.87 502.38 372.84 502.48 372.79 502.56C372.6 502.96 372.38 503.34 372.13 503.7C372.06 503.8 371.98 503.9 371.9 504C371.71 504.25 371.52 504.5 371.31 504.73C371.2 504.86 371.08 504.97 370.96 505.09C370.76 505.28 370.57 505.47 370.36 505.64C370.22 505.76 370.06 505.88 369.91 505.99C369.71 506.14 369.5 506.28 369.29 506.41C369.14 506.5 369 506.59 368.85 506.68C368.79 506.71 368.72 506.74 368.66 506.78C368.61 506.8 368.57 506.83 368.52 506.86C368.43 506.9 368.34 506.94 368.25 506.99C368.08 507.07 367.91 507.14 367.74 507.2C367.72 507.21 367.71 507.22 367.69 507.22L356.17 511.65L343.12 516.66C342.87 516.76 342.61 516.84 342.35 516.92C342.29 516.93 342.23 516.94 342.17 516.96C342.14 516.96 342.1 516.98 342.07 516.99C341.92 517.02 341.78 517.05 341.63 517.08C341.43 517.12 341.23 517.16 341.03 517.19C340.86 517.21 340.69 517.23 340.52 517.24C340.32 517.26 340.12 517.27 339.92 517.27C339.75 517.27 339.58 517.27 339.42 517.27C339.21 517.27 339 517.25 338.8 517.23C338.65 517.21 338.49 517.2 338.34 517.18C338.1 517.14 337.86 517.09 337.62 517.03C337.51 517.01 337.4 516.99 337.3 516.97C336.96 516.88 336.63 516.77 336.3 516.64C336.19 516.6 336.09 516.54 335.98 516.5C335.94 516.48 335.91 516.46 335.87 516.45C335.85 516.44 335.83 516.43 335.81 516.42C335.66 516.35 335.5 516.28 335.35 516.2C335.27 516.17 335.2 516.12 335.13 516.08C335.03 516.03 334.93 515.97 334.84 515.91C334.76 515.86 334.67 515.82 334.6 515.77C334.59 515.77 334.59 515.76 334.59 515.76C334.49 515.71 334.4 515.64 334.3 515.58L323.46 507.98L321.47 506.59L323.04 516.31C323.11 516.74 323.14 517.16 323.15 517.59V517.61C323.23 521.15 321.32 524.44 318.21 526.12C318.19 526.14 318.16 526.15 318.14 526.16C317.8 526.34 317.45 526.51 317.09 526.65L292.47 536.1C292.12 536.23 291.77 536.34 291.41 536.43C289.28 536.98 287.13 536.73 285.26 535.91C285.17 535.87 285.08 535.83 284.99 535.78C284.82 535.7 284.65 535.63 284.49 535.54C284.2 535.38 283.92 535.21 283.64 535.02L261.33 519.4L258.15 543.96C258.1 544.35 258.02 544.73 257.92 545.1C257.8 545.55 257.66 546 257.48 546.43C256.49 548.76 254.59 550.64 252.16 551.58L229.58 560.24L229.56 560.25C229.22 560.38 228.87 560.48 228.53 560.57C226.38 561.12 224.23 560.87 222.38 560.05C222.29 560.01 222.2 559.97 222.11 559.92C221.94 559.84 221.77 559.77 221.6 559.67C221.32 559.52 221.04 559.35 220.76 559.16L213.21 553.87C213.13 554 213.06 554.14 212.98 554.27C212.93 554.36 212.87 554.45 212.81 554.55C212.43 555.18 212.03 555.82 211.63 556.44C211.62 556.45 211.61 556.46 211.61 556.47C211.6 556.48 211.59 556.49 211.59 556.5C211.19 557.12 210.78 557.72 210.37 558.31C210.3 558.42 210.23 558.52 210.16 558.63C209.72 559.26 209.26 559.87 208.8 560.48C208.74 560.56 208.68 560.65 208.62 560.73C208.12 561.38 207.61 562.01 207.09 562.64C207.06 562.68 207.03 562.72 207 562.75C199.79 571.37 190.38 577.83 179.01 582.19C178.16 582.51 177.32 582.82 176.48 583.11C176.28 583.18 176.08 583.24 175.88 583.31C175.24 583.52 174.6 583.73 173.96 583.93C173.69 584.01 173.43 584.08 173.16 584.16C172.59 584.32 172.02 584.49 171.46 584.63C171.16 584.71 170.87 584.77 170.57 584.84C170.04 584.97 169.5 585.11 168.97 585.22C168.65 585.29 168.33 585.34 168 585.4C167.5 585.5 167.01 585.6 166.51 585.68C166.17 585.74 165.84 585.77 165.5 585.82C165.02 585.89 164.55 585.96 164.07 586.01C163.71 586.05 163.36 586.07 163 586.1C162.56 586.14 162.11 586.18 161.67 586.21C161.29 586.21 160.92 586.21 160.54 586.23C160.13 586.24 159.71 586.26 159.29 586.25C158.91 586.25 158.53 586.22 158.15 586.2C157.75 586.19 157.35 586.18 156.96 586.15C156.57 586.12 156.19 586.06 155.81 586.02C155.43 585.98 155.04 585.95 154.66 585.89C154.28 585.83 153.9 585.75 153.52 585.67C153.16 585.6 152.78 585.55 152.42 585.46C152.04 585.37 151.66 585.26 151.28 585.16C150.93 585.06 150.57 584.98 150.22 584.87C149.84 584.75 149.47 584.6 149.1 584.46C148.76 584.34 148.42 584.23 148.08 584.09C147.71 583.94 147.34 583.75 146.97 583.58C146.65 583.43 146.32 583.29 146 583.13C145.63 582.94 145.27 582.72 144.91 582.51C144.6 582.33 144.29 582.17 143.98 581.98C143.62 581.75 143.27 581.49 142.92 581.25C142.7 581.1 142.48 580.96 142.27 580.8C142.27 580.79 142.24 580.78 142.23 580.78L119.05 564.55L113.79 560.86C113.79 560.86 113.77 560.85 113.77 560.84L112.42 559.9C112.36 559.86 112.31 559.82 112.25 559.77C112.21 559.74 112.17 559.72 112.13 559.69C112.12 559.68 112.11 559.68 112.11 559.67L112.07 559.64L112.01 559.6C111.83 559.45 111.67 559.3 111.49 559.15C111.48 559.14 111.47 559.13 111.45 559.12C110.18 558.05 109.02 556.89 107.97 555.65C103.36 550.18 100.78 543.04 99.67 534.95C99.2 531.54 98.99 527.97 98.99 524.28V428.96C98.99 413.7 102.57 400.03 110.08 388.33L110.1 388.3L110.12 388.27C117.85 376.43 128.94 367.86 142.94 362.49C144.57 361.86 146.21 361.3 147.83 360.8C147.87 360.79 147.91 360.78 147.94 360.77C148.67 360.55 149.39 360.35 150.1 360.16C150.21 360.13 150.32 360.09 150.43 360.06C151.13 359.88 151.83 359.72 152.52 359.57C152.65 359.54 152.78 359.51 152.91 359.48C153.57 359.34 154.24 359.22 154.9 359.1C155.05 359.08 155.21 359.04 155.36 359.02C155.98 358.92 156.6 358.84 157.21 358.77C157.4 358.74 157.6 358.71 157.79 358.69C158.38 358.62 158.96 358.59 159.54 358.55C159.76 358.53 159.98 358.51 160.19 358.5C160.74 358.47 161.29 358.47 161.83 358.46C162.07 358.46 162.32 358.45 162.56 358.45C163.07 358.46 163.58 358.49 164.09 358.52C164.36 358.54 164.63 358.54 164.89 358.56C165.38 358.6 165.85 358.66 166.33 358.73C166.61 358.76 166.9 358.78 167.18 358.83C167.63 358.9 168.08 359 168.53 359.09C168.83 359.15 169.12 359.19 169.41 359.26C169.85 359.36 170.27 359.49 170.69 359.61C170.99 359.7 171.3 359.77 171.6 359.87C172.01 360 172.4 360.16 172.8 360.31C173.11 360.43 173.43 360.53 173.73 360.66C174.11 360.82 174.48 361.01 174.85 361.19C175.17 361.34 175.49 361.48 175.8 361.64C176.16 361.83 176.5 362.04 176.84 362.25C177.17 362.44 177.49 362.61 177.81 362.82C178.14 363.03 178.46 363.27 178.78 363.5C179.04 363.69 179.3 363.86 179.55 364.05L207.44 383.58C207.44 383.58 207.5 383.62 207.53 383.64C207.65 383.72 207.77 383.8 207.89 383.88L213.76 343.04C213.81 342.65 213.89 342.28 214 341.91C214.78 339.02 216.89 336.64 219.73 335.55L253.76 322.49C253.76 322.49 253.84 322.46 253.88 322.45C254.21 322.33 254.54 322.22 254.88 322.14C254.99 322.11 255.1 322.1 255.2 322.07C255.48 322.01 255.75 321.96 256.02 321.93C256.13 321.91 256.24 321.91 256.35 321.9C256.62 321.88 256.89 321.86 257.16 321.86C257.27 321.86 257.37 321.87 257.48 321.87C257.75 321.88 258.01 321.9 258.28 321.93C258.38 321.94 258.49 321.96 258.6 321.98C258.86 322.02 259.11 322.07 259.36 322.13C259.47 322.16 259.58 322.18 259.69 322.21C259.93 322.28 260.16 322.36 260.39 322.44C260.51 322.49 260.63 322.53 260.74 322.57C260.96 322.66 261.17 322.76 261.38 322.87C261.49 322.93 261.61 322.98 261.72 323.05C261.91 323.15 262.09 323.26 262.26 323.38C262.32 323.41 262.38 323.45 262.44 323.49C262.49 323.52 262.53 323.54 262.57 323.57L273.24 331.04V321.51C273.24 321.08 273.28 320.65 273.34 320.24C273.74 317.27 275.53 314.66 278.16 313.22C278.53 313.02 278.91 312.83 279.31 312.68L358.32 282.35C358.66 282.22 359.01 282.11 359.36 282.02C361.53 281.46 363.69 281.71 365.57 282.56C365.6 282.57 365.62 282.58 365.65 282.59C365.82 282.68 366.01 282.75 366.18 282.84C366.22 282.87 366.25 282.89 366.29 282.91C366.48 283.02 366.67 283.13 366.85 283.25C366.94 283.31 367.02 283.35 367.1 283.41C367.11 283.42 367.13 283.42 367.14 283.43L376.52 290L377.96 280.01C378 279.72 378.05 279.44 378.12 279.17C378.13 279.1 378.16 279.04 378.18 278.97C378.22 278.81 378.27 278.65 378.32 278.49C378.39 278.27 378.47 278.05 378.55 277.84C378.61 277.69 378.67 277.55 378.73 277.41C378.84 277.18 378.96 276.95 379.08 276.73C379.15 276.62 379.2 276.5 379.27 276.4C379.47 276.07 379.68 275.76 379.92 275.46C379.94 275.43 379.97 275.41 379.99 275.38C380.21 275.11 380.44 274.85 380.69 274.61C380.78 274.52 380.88 274.44 380.97 274.36C381.16 274.18 381.36 274.01 381.57 273.85C381.68 273.77 381.8 273.68 381.92 273.6C382.12 273.46 382.33 273.33 382.54 273.21C382.67 273.13 382.8 273.05 382.94 272.98C383 272.95 383.05 272.91 383.11 272.88C383.19 272.84 383.27 272.8 383.34 272.77C383.54 272.67 383.73 272.59 383.93 272.52L395.38 268.12L417.96 259.46C417.96 259.46 418 259.45 418.01 259.44C418.13 259.39 418.26 259.35 418.38 259.31C418.41 259.3 418.44 259.29 418.48 259.28C418.58 259.25 418.69 259.22 418.8 259.19C418.87 259.17 418.94 259.15 419.01 259.13C419.47 259.01 419.93 258.93 420.39 258.88H420.42C420.82 258.84 421.21 258.83 421.61 258.84C421.64 258.84 421.68 258.84 421.72 258.84C421.81 258.84 421.9 258.84 422 258.86C422.19 258.87 422.38 258.89 422.57 258.92C422.59 258.92 422.61 258.92 422.63 258.93H422.67C422.79 258.95 422.9 258.96 423.01 258.98C423.11 259 423.2 259.02 423.3 259.04C423.37 259.06 423.44 259.07 423.51 259.09C423.54 259.09 423.58 259.11 423.62 259.12C423.86 259.18 424.1 259.26 424.33 259.34C424.44 259.38 424.56 259.4 424.67 259.44C424.7 259.45 424.73 259.47 424.77 259.48C424.79 259.49 424.82 259.5 424.84 259.51C424.89 259.53 424.93 259.54 424.98 259.56C425.1 259.61 425.22 259.67 425.35 259.73C425.42 259.76 425.5 259.8 425.58 259.84C425.59 259.84 425.61 259.84 425.62 259.86C425.65 259.88 425.68 259.89 425.71 259.91C425.73 259.91 425.75 259.93 425.77 259.94C425.81 259.96 425.85 259.98 425.9 260.01C425.93 260.02 425.95 260.04 425.98 260.06C426 260.07 426.03 260.08 426.05 260.09C426.05 260.09 426.06 260.09 426.07 260.09C426.19 260.16 426.31 260.23 426.42 260.31C426.49 260.35 426.56 260.39 426.63 260.44C426.68 260.47 426.72 260.5 426.76 260.53C426.76 260.53 426.767 260.533 426.78 260.54L443.78 272.44L455.17 280.42V251.68C455.17 251.25 455.2 250.82 455.26 250.4C455.67 247.43 457.46 244.83 460.09 243.39C460.46 243.18 460.84 243 461.24 242.84L485.82 233.41C486.16 233.28 486.51 233.17 486.87 233.08C486.89 233.07 486.91 233.06 486.94 233.06C486.95 233.05 486.97 233.05 486.99 233.04C487.03 233.03 487.07 233.03 487.11 233.02C489.48 232.47 491.84 232.88 493.81 233.99C493.94 234.05 494.06 234.13 494.18 234.21C494.33 234.3 494.49 234.39 494.63 234.49L517.1 250.22L511.24 233.49C511.15 233.23 511.07 232.97 511.01 232.72C510.97 232.55 510.93 232.38 510.9 232.22C510.89 232.17 510.88 232.13 510.87 232.08C510.13 228.07 512.05 224 515.66 222.05C515.68 222.04 515.69 222.03 515.71 222.02C516.05 221.84 516.4 221.67 516.78 221.52L543.07 211.43C543.07 211.43 543.13 211.41 543.16 211.4C543.49 211.28 543.81 211.18 544.14 211.09C544.26 211.06 544.38 211.04 544.5 211.02C544.75 210.96 544.99 210.92 545.24 210.89C545.36 210.87 545.49 210.86 545.62 210.85C545.86 210.82 546.11 210.81 546.36 210.81H546.7C546.98 210.82 547.25 210.84 547.52 210.87C547.6 210.88 547.69 210.88 547.77 210.89C548.48 210.99 549.18 211.18 549.85 211.43C549.92 211.46 549.99 211.5 550.06 211.53C550.32 211.63 550.56 211.74 550.81 211.87C550.89 211.91 550.96 211.95 551.04 211.99C551.11 212.03 551.17 212.07 551.23 212.1C551.39 212.19 551.54 212.29 551.69 212.39C551.76 212.43 551.82 212.47 551.88 212.51L569.18 224.62L574.32 203.77C575.07 200.77 577.23 198.31 580.12 197.2L603.74 188.14C604.09 188 604.44 187.89 604.8 187.81C604.86 187.79 604.93 187.77 605 187.75C605.24 187.7 605.47 187.67 605.71 187.63C605.87 187.61 606.03 187.57 606.2 187.56C606.51 187.52 606.82 187.51 607.12 187.51H607.36C607.7 187.52 608.03 187.55 608.37 187.59C608.41 187.6 608.45 187.6 608.49 187.61C608.84 187.66 609.17 187.72 609.51 187.81C609.54 187.82 609.58 187.83 609.61 187.84C609.94 187.93 610.26 188.03 610.57 188.16C610.63 188.18 610.69 188.21 610.75 188.23C611.03 188.35 611.32 188.48 611.59 188.62C611.63 188.65 611.68 188.68 611.72 188.7C611.91 188.8 612.09 188.92 612.27 189.03C612.36 189.09 612.46 189.15 612.55 189.21H612.56L617.85 192.91C625.56 181.39 636.5 173.02 650.27 167.73C651.95 167.08 653.63 166.51 655.31 166C655.35 165.99 655.38 165.98 655.42 165.97C656.22 165.73 657.01 165.51 657.8 165.31C657.93 165.27 658.05 165.25 658.17 165.22C658.88 165.04 659.58 164.88 660.28 164.73C660.47 164.69 660.65 164.66 660.84 164.63C661.47 164.5 662.11 164.38 662.73 164.28C662.97 164.25 663.2 164.22 663.44 164.19C664.01 164.11 664.59 164.03 665.16 163.97C665.43 163.94 665.7 163.93 665.97 163.91C666.5 163.87 667.04 163.82 667.56 163.8C667.86 163.79 668.15 163.79 668.44 163.79C668.94 163.78 669.44 163.77 669.93 163.78C670.23 163.78 670.53 163.81 670.84 163.83C671.31 163.85 671.78 163.87 672.25 163.91C672.56 163.94 672.86 163.99 673.17 164.03C673.63 164.09 674.08 164.14 674.53 164.21C674.84 164.27 675.14 164.34 675.45 164.4C675.89 164.49 676.33 164.58 676.76 164.69C677.06 164.76 677.36 164.86 677.65 164.95C678.08 165.08 678.52 165.19 678.94 165.34C679.23 165.44 679.51 165.56 679.79 165.67C680.22 165.84 680.64 166 681.06 166.18C681.33 166.3 681.59 166.45 681.86 166.58C682.28 166.79 682.7 166.99 683.12 167.22C683.37 167.36 683.61 167.53 683.86 167.68C684.28 167.93 684.7 168.18 685.1 168.46C685.33 168.62 685.56 168.8 685.78 168.97C686.14 169.24 686.51 169.49 686.86 169.78L693.44 174.38V160.2C693.44 159.77 693.47 159.34 693.54 158.92C693.94 155.95 695.73 153.35 698.36 151.91C698.73 151.7 699.11 151.52 699.51 151.36L778.52 121.04C778.86 120.9 779.22 120.8 779.57 120.71C779.72 120.67 779.86 120.64 780.01 120.61C782.02 120.19 784.03 120.46 785.78 121.25C785.79 121.26 785.81 121.26 785.82 121.27C786.01 121.35 786.2 121.43 786.38 121.53C786.42 121.56 786.46 121.58 786.51 121.61C786.66 121.69 786.81 121.79 786.96 121.88C787.08 121.96 787.2 122.03 787.32 122.11C787.32 122.11 787.33 122.11 787.34 122.12L811.34 138.93L817.14 142.99H817.15C817.42 143.18 817.67 143.38 817.91 143.59C818.06 143.73 818.21 143.88 818.36 144.02C818.41 144.08 818.47 144.13 818.52 144.19C818.79 144.47 819.05 144.77 819.29 145.09C819.34 145.16 819.41 145.23 819.46 145.31C819.51 145.37 819.54 145.43 819.58 145.49C820.39 146.7 820.94 148.11 821.11 149.66C821.16 150.02 821.18 150.38 821.18 150.74V150.75Z" fill="black"/>
<path d="M184.39 399.53V417.79C184.39 418.09 184.21 418.36 183.93 418.47L160.77 427.36C160.29 427.54 159.78 427.19 159.78 426.68V407.2C159.78 396.22 155.44 392.39 146.76 395.72C138.09 399.06 133.75 406.21 133.75 417.2V516.31C133.75 527.13 138.09 530.87 146.76 527.54C155.44 524.21 159.78 517.14 159.78 506.32V479.7C159.78 479.39 159.97 479.12 160.25 479.02L183.4 470.13C183.88 469.94 184.39 470.3 184.39 470.81V494.85C184.39 508.7 181.08 520.71 174.45 530.85C167.98 540.94 158.52 548.38 146.05 553.16C133.59 557.95 124.04 557.81 117.42 552.75C110.95 547.63 107.72 538.14 107.72 524.28V428.96C107.72 415.11 110.95 403.13 117.42 393.04C124.04 382.9 133.59 375.43 146.05 370.65C158.52 365.86 167.98 366.03 174.45 371.15C181.08 376.21 184.39 385.67 184.39 399.53Z" fill="#FDFDEF"/>
<path d="M257.86 331.2C257.79 330.75 257.31 330.47 256.88 330.64L222.85 343.7C222.61 343.8 222.43 344.02 222.4 344.28L195.65 530.43C195.57 530.98 196.12 531.41 196.63 531.21L219.21 522.55C219.46 522.45 219.64 522.23 219.67 521.96L224.29 486.28C224.33 486.01 224.5 485.79 224.75 485.69L253.46 474.67C253.75 474.56 253.93 474.29 253.93 473.99L258.54 506.5C258.6 506.96 259.08 507.24 259.52 507.08L284.14 497.62C284.47 497.5 284.66 497.17 284.6 496.83L257.86 331.2ZM250.32 451.8L228.56 460.15C228.04 460.35 227.51 459.93 227.57 459.38L238.77 368.68C238.78 368.58 238.84 368.49 238.94 368.46C239.1 368.39 239.28 368.5 239.31 368.67L250.78 451.02C250.82 451.35 250.63 451.68 250.32 451.8Z" fill="#FDFDEF"/>
<path d="M362.43 291.18V314.97C362.43 315.27 362.24 315.54 361.96 315.65L335.68 325.74C335.4 325.85 335.21 326.12 335.21 326.42V477.52C335.21 477.82 335.03 478.09 334.75 478.2L310.17 487.63C309.69 487.81 309.18 487.46 309.18 486.95V336.97C309.18 336.46 308.67 336.11 308.19 336.29L282.95 345.98C282.48 346.16 281.96 345.81 281.96 345.3V321.51C281.96 321.21 282.15 320.94 282.43 320.83L361.44 290.5C361.92 290.32 362.43 290.67 362.43 291.18Z" fill="#FDFDEF"/>
<path d="M607.83 197.16L576.77 309.66C576.75 309.73 576.74 309.79 576.74 309.86V384.8C576.74 385.1 576.56 385.37 576.28 385.48L551.7 394.92C551.22 395.1 550.71 394.75 550.71 394.24V319.88C550.71 319.79 550.7 319.71 550.67 319.64L519.47 230.6C519.34 230.23 519.52 229.82 519.89 229.68L546.19 219.58C546.59 219.43 547.03 219.65 547.15 220.05L564.57 277.31C564.63 277.49 564.82 277.58 564.99 277.52C565.09 277.48 565.16 277.39 565.19 277.29L582.8 205.86C582.86 205.63 583.03 205.44 583.25 205.36L606.87 196.29C607.43 196.08 607.99 196.59 607.83 197.16Z" fill="#FDFDEF"/>
<path d="M685.59 271.78C689.69 278.49 691.74 287.42 691.74 298.57C691.74 313.1 688.35 325.56 681.56 335.94C674.94 346.26 665.24 353.87 652.46 358.77C639.83 363.62 630.29 363.48 623.82 358.36C617.35 353.07 614.12 343.24 614.12 328.88V319.24C614.12 318.93 614.3 318.66 614.59 318.56L637.74 309.67C638.22 309.48 638.73 309.83 638.73 310.35V321.45C638.73 332.95 643.23 336.97 652.22 333.52C656.64 331.82 659.95 329.2 662.16 325.64C664.52 321.86 665.71 316.85 665.71 310.59C665.71 303.16 664.13 297.26 660.97 292.89C657.82 288.35 651.98 283.75 643.46 279.08C632.73 273.06 625.24 266.81 620.98 260.33C616.72 253.69 614.59 245.21 614.59 234.9C614.59 220.87 617.9 208.79 624.53 198.64C631.16 188.32 640.78 180.74 653.4 175.89C665.87 171.11 675.25 171.39 681.56 176.74C688.03 181.87 691.27 191.61 691.27 205.97V212.82C691.27 213.13 691.08 213.4 690.8 213.5L667.64 222.39C667.17 222.58 666.65 222.22 666.65 221.71V213.65C666.65 207.56 665.55 203.59 663.34 201.74C661.13 199.71 657.9 199.52 653.64 201.15C644.96 204.48 640.62 211.81 640.62 223.13C640.62 229.55 642.2 234.95 645.36 239.31C648.67 243.62 654.59 248.11 663.1 252.78C673.99 258.74 681.49 265.07 685.59 271.78Z" fill="#FDFDEF"/>
<path d="M782.64 129.88V153.67C782.64 153.97 782.45 154.24 782.17 154.35L755.89 164.44C755.61 164.55 755.43 164.82 755.43 165.12V316.22C755.43 316.52 755.24 316.79 754.96 316.89L730.38 326.33C729.9 326.51 729.39 326.16 729.39 325.65V175.67C729.39 175.16 728.88 174.81 728.4 174.99L703.16 184.68C702.69 184.86 702.18 184.51 702.18 184V160.21C702.18 159.91 702.36 159.64 702.64 159.53L781.65 129.2C782.13 129.02 782.64 129.37 782.64 129.88Z" fill="#FDFDEF"/>
<path d="M532.76 377.9V401.69C532.76 401.99 532.58 402.26 532.3 402.37L464.89 428.24C464.41 428.43 463.9 428.07 463.9 427.56V251.67C463.9 251.37 464.08 251.1 464.36 251L488.94 241.56C489.42 241.38 489.93 241.73 489.93 242.24V392.22C489.93 392.73 490.44 393.08 490.92 392.9L531.77 377.22C532.25 377.03 532.76 377.38 532.76 377.9Z" fill="#FDFDEF"/>
<path d="M448.8 433.79C448.81 433.87 448.81 433.95 448.8 434.02C448.8 434.04 448.8 434.06 448.79 434.08C448.79 434.08 448.78 434.11 448.78 434.13H448.77C448.77 434.13 448.77 434.16 448.76 434.18C448.76 434.19 448.74 434.21 448.74 434.23C448.72 434.27 448.7 434.29 448.68 434.32C448.68 434.32 448.65 434.36 448.63 434.38C448.63 434.39 448.63 434.4 448.63 434.4C448.63 434.4 448.63 434.4 448.62 434.4C448.6 434.43 448.57 434.45 448.55 434.47H448.54C448.54 434.47 448.49 434.52 448.46 434.53C448.46 434.53 448.4 434.57 448.37 434.58H448.35L440.9 437.45L440.81 437.48L440.21 437.71L439.89 437.84H439.88L433.57 440.26L433.47 440.3L427.47 442.61L426.95 442.8L423.74 444.04H423.73L423.64 444.07L423.38 444.17L418.05 446.22L415.58 447.17L415.03 447.38L414.97 447.4L414.93 447.42L411.17 448.86L410.33 449.18L403.76 451.71L394.42 455.29L394.1 455.41L393.26 455.74L385.08 458.87L384.27 459.19L383.43 459.51L375.88 462.4L375.27 462.64L373.78 463.21L370.78 464.36L370.69 464.4L365.04 466.57L360.94 468.14L360.85 468.17C360.76 468.21 360.67 468.22 360.59 468.22H360.5C360.5 468.22 360.47 468.21 360.45 468.21H360.44C360.41 468.21 360.39 468.21 360.37 468.2C360.37 468.2 360.363 468.197 360.35 468.19C360.35 468.19 360.32 468.18 360.31 468.18C360.3 468.17 360.28 468.16 360.27 468.16C360.27 468.16 360.24 468.14 360.22 468.13C360.22 468.13 360.2 468.12 360.19 468.11H360.18L360.17 468.1L360.12 468.05C360.12 468.05 360.1 468.04 360.09 468.03C359.99 467.93 359.92 467.8 359.89 467.66C359.88 467.61 359.87 467.57 359.87 467.52C359.87 467.48 359.88 467.45 359.88 467.41L361.03 459.42L361.12 458.77V458.74L365.05 431.43L373.79 370.63L376.5 351.76L377.92 341.86L378.49 337.88L378.62 336.96L379.88 328.19L380.01 327.28L380.35 324.93L381.28 318.5L381.4 317.59L381.73 315.36V315.34L381.77 315.03L383.12 305.67L383.17 305.32L383.2 305.13L384.51 295.98L384.56 295.63L385.23 290.95L385.35 290.13L386.62 281.26C386.62 281.26 386.64 281.2 386.64 281.17C386.65 281.14 386.66 281.12 386.67 281.1C386.7 281.01 386.74 280.94 386.81 280.87C386.82 280.86 386.83 280.85 386.84 280.84C386.84 280.82 386.86 280.81 386.88 280.81C386.89 280.79 386.91 280.78 386.93 280.77C386.97 280.73 387.03 280.7 387.08 280.68L396.09 277.22L396.92 276.91L412.95 270.75L413.52 270.53L413.61 270.5L421.11 267.62C421.28 267.55 421.46 267.56 421.62 267.62C421.66 267.63 421.7 267.65 421.73 267.67C421.76 267.69 421.8 267.71 421.82 267.74C421.85 267.75 421.87 267.77 421.9 267.81C421.92 267.83 421.94 267.85 421.96 267.88C421.97 267.89 421.98 267.91 422 267.93C422 267.94 422.01 267.96 422.02 267.97C422.03 267.99 422.04 268.02 422.05 268.05C422.07 268.09 422.08 268.14 422.09 268.18L422.11 268.32L424.03 280.2L424.05 280.34L425.44 288.92L426.86 297.73L428.28 306.54L429.32 312.94L429.34 313.05V313.1L429.4 313.49L431.26 324.95L431.28 325.08V325.12L431.34 325.5L432.23 331.07L432.91 335.24V335.26L437.22 361.96L442.85 396.84L443.05 398.08L444.79 408.86H444.8V408.94L444.81 408.98L446.19 417.49L446.3 418.16V418.25L446.63 420.24L446.82 421.39L447.43 425.18L447.55 425.91L448.82 433.8L448.8 433.79Z" fill="#FDFDEF"/>
<path d="M404.29 320.05L388.92 425.73L420.48 413.92L404.29 320.05Z" fill="#3CA3F9"/>
<path d="M407.56 288.95L399.59 291.6L378.14 439.09L430.32 419.58L407.56 288.96V288.95ZM420.48 413.92L388.92 425.72L404.29 320.05L420.48 413.92Z" fill="black"/>
</g>
<defs>
<clipPath id="clip0_196_11">
<rect width="913.81" height="700.52" fill="white"/>
</clipPath>
</defs>
</svg>
