<svg width="177" height="101" viewBox="0 0 177 101" fill="none" xmlns="http://www.w3.org/2000/svg">
<path d="M136.295 35.0696C136.95 39.9208 139.989 44.0867 144.717 45.6046C150.529 47.4706 157.478 45.4993 160.644 40.1247H175.893C172.706 50.1936 163.568 57.7721 153.04 58.9764C132.78 61.2933 118.356 44.3109 122.219 24.6164C124.394 13.5261 133.182 4.92446 144.352 3.10655C163.385 0.00842817 178.357 14.2138 176.902 33.2981C176.863 33.813 176.769 34.7089 176.483 35.0688H136.295L136.295 35.0696ZM162.414 25.128C160.737 17.7864 153.409 13.6786 146.096 15.2968C141.462 16.3225 137.464 20.4294 136.801 25.128H162.414Z" fill="black"/>
<path d="M115.569 57.649H101.078L101.085 26.7217C101.07 18.6486 96.1455 13.714 87.9332 16.1118C83.6341 17.3667 79.8466 22.4058 79.8466 26.897V57.649H65.3556V4.23337H75.2972L77.9958 10.6361C78.2318 10.69 78.2723 10.6015 78.4189 10.4726C78.9499 10.0057 79.5499 9.09631 80.1812 8.52827C86.6117 2.73909 98.0628 0.925392 105.679 5.2776C112.625 9.24633 115.317 16.8366 115.578 24.5305L115.569 57.649Z" fill="black"/>
<path d="M59.4121 29.7061C59.4121 46.112 46.112 59.4121 29.7061 59.4121C13.3002 59.4121 0 46.112 0 29.7061C0 13.3002 13.3002 0 29.7061 0C46.112 0 59.4121 13.3002 59.4121 29.7061ZM26.431 25.4643V46.9489C26.431 47.4293 26.8549 47.9552 27.3673 48.0285C29.0268 48.2662 33.5459 48.2114 35.2845 48.0521C36.1476 47.9729 36.5412 47.7411 36.5487 46.7879L36.5471 13.4097C36.4737 12.5375 36.3945 12.0925 35.448 11.9812C32.9272 11.6845 29.8089 12.1784 27.2232 12.0191C26.372 12.4608 26.4975 13.4173 25.9978 14.1632C25.2376 15.2985 23.1575 16.3536 21.8773 16.7826C20.6266 17.2023 18.6755 16.9975 18.507 18.4674C18.3148 20.1412 18.3494 24.013 18.5028 25.7247C18.6562 27.4364 20.2592 26.9855 21.6051 26.7892C23.257 26.549 24.8735 26.0332 26.4301 25.4643H26.431Z" fill="black"/>
<path d="M138.823 66.0736V100.027L138.57 100.28H135.874L135.114 96.7422C128.557 103.407 116.915 101.737 113.419 92.7423C110.744 85.8608 113.814 77.5196 121.04 75.1682C125.964 73.5661 130.894 74.7485 134.778 78.0388V66.0753H138.822L138.823 66.0736ZM135.127 87.6349C135.127 82.4686 130.939 78.2807 125.773 78.2807C120.607 78.2807 116.419 82.4686 116.419 87.6349C116.419 92.8013 120.607 96.9891 125.773 96.9891C130.939 96.9891 135.127 92.8013 135.127 87.6349Z" fill="black"/>
<path d="M85.9131 100.28L85.5751 96.5736L83.0332 98.6637C72.2842 105.523 59.2225 95.478 63.2561 83.2675C66.4782 73.5164 78.7063 71.5653 85.5743 78.7114L86.0816 75.0047H89.2834V100.28H85.9131ZM85.2633 87.6307C85.2633 82.4787 81.0864 78.3018 75.9343 78.3018C70.7823 78.3018 66.6054 82.4787 66.6054 87.6307C66.6054 92.7827 70.7823 96.9596 75.9343 96.9596C81.0864 96.9596 85.2633 92.7827 85.2633 87.6307Z" fill="black"/>
<path d="M55.1602 83.5979C51.1106 75.1497 38.3245 77.2339 37.7126 86.8764C37.0376 97.5066 50.5687 100.803 55.1602 91.5177H58.952C57.1003 100.06 46.8882 103.233 39.6915 98.8989C33.068 94.9099 31.5889 85.0248 36.5378 79.1285C43.0661 71.3487 56.4261 73.4489 58.9528 83.5979H55.1602Z" fill="black"/>
<path d="M111.02 74.8362V78.7114H106.723C104.404 78.7114 101.247 82.4829 101.247 84.6935V100.28H97.2032V75.0047H100.068C100.288 76.0389 100.341 77.2693 100.59 78.2739C100.638 78.4728 100.653 78.6785 100.908 78.7114C101.735 77.266 103.411 76.0271 104.993 75.4641C105.486 75.2888 106.966 74.8362 107.398 74.8362H111.021H111.02Z" fill="black"/>
</svg>
