<svg width="252" height="59" viewBox="0 0 252 59" fill="none" xmlns="http://www.w3.org/2000/svg">
<path d="M2.22117 53.7247C2.22117 54.0024 2.08235 54.1412 2.08235 54.4188C2.08235 54.5577 1.94353 54.6965 1.94353 54.8353C1.94353 54.9741 1.94353 54.9741 2.08235 55.1129C2.08235 55.1129 2.22117 55.2518 2.36 55.2518C2.49882 55.2518 2.63765 55.2518 2.77647 55.3906C2.91529 55.3906 3.05412 55.3906 3.19294 55.3906H3.33177V55.8071C3.05412 55.8071 2.77647 55.8071 2.49883 55.8071C2.22118 55.8071 1.94352 55.8071 1.66588 55.8071C1.38823 55.8071 1.11059 55.8071 0.832939 55.8071C0.555292 55.8071 0.277647 55.8071 0 55.8071V55.3906H0.138821C0.416468 55.3906 0.694113 55.2518 0.97176 55.1129C1.24941 54.9741 1.38823 54.6965 1.52706 54.4188L3.88706 47.7553C4.02589 47.4777 4.02588 47.2 4.16471 46.7835C4.30353 46.5059 4.30352 46.0894 4.44235 45.8118C4.72 45.6729 4.85882 45.6729 5.13647 45.5341C5.41411 45.3953 5.55294 45.2565 5.69176 45.2565H5.96942V45.5341L8.60705 53.1694C8.74588 53.4471 8.74588 53.7247 8.88471 54.0024C9.02353 54.28 9.02353 54.5577 9.16235 54.6965C9.30117 55.1129 9.57883 55.2518 10.1341 55.2518H10.2729V55.6682C9.99529 55.6682 9.57882 55.6682 9.30117 55.6682C9.02352 55.6682 8.60706 55.6682 8.32941 55.6682C7.91294 55.6682 7.63529 55.6682 7.21882 55.6682C6.80235 55.6682 6.52471 55.6682 6.10824 55.6682V55.2518H6.24706C6.38588 55.2518 6.38588 55.2518 6.5247 55.2518C6.66352 55.2518 6.66353 55.2518 6.80235 55.2518C6.94118 55.2518 6.94117 55.1129 7.08 55.1129C7.08 55.1129 7.21882 54.9741 7.21882 54.8353C7.21882 54.6965 7.21882 54.5577 7.08 54.4188C7.08 54.28 6.94118 54.0024 6.94118 53.7247L6.38588 52.0588H3.05411L2.22117 53.7247ZM4.44235 47.2L3.05411 51.3647H5.83058L4.44235 47.2Z" fill="black"/>
<path d="M19.1576 48.5882C19.0188 48.1718 18.88 47.8941 18.7412 47.6165C18.6024 47.3388 18.4635 47.0612 18.1859 46.7835C17.9082 46.5059 17.6306 46.3671 17.2141 46.2282C16.7976 46.0894 16.3812 46.0894 15.8259 46.0894C15.2706 46.0894 14.7153 46.2282 14.2988 46.3671C13.8824 46.6447 13.4659 46.9224 13.1882 47.3388C12.9106 47.7553 12.6329 48.1718 12.4941 48.7271C12.3553 49.2824 12.2165 49.8377 12.2165 50.5318C12.2165 51.0871 12.3553 51.7812 12.4941 52.3365C12.6329 52.8918 12.9106 53.4471 13.1882 53.8635C13.4659 54.28 13.8824 54.6965 14.4376 54.9741C14.9929 55.2518 15.5482 55.3906 16.2423 55.3906C17.0753 55.3906 17.6306 55.1129 18.1859 54.6965C18.7412 54.28 19.0188 53.7247 19.2965 52.8918H19.7129C19.5741 53.3082 19.5741 53.7247 19.4353 54.0024C19.4353 54.4188 19.2965 54.8353 19.2965 55.2518C18.88 55.3906 18.3247 55.5294 17.7694 55.6682C17.2141 55.8071 16.6588 55.8071 15.9647 55.8071C15.1318 55.8071 14.4376 55.6682 13.7435 55.5294C13.0494 55.2518 12.4941 54.9741 11.9388 54.5577C11.3835 54.1412 10.9671 53.5859 10.6894 52.8918C10.4118 52.1976 10.2729 51.3647 10.2729 50.5318C10.2729 49.6988 10.4118 49.0047 10.6894 48.3106C10.9671 47.6165 11.3835 47.0612 11.9388 46.6447C12.4941 46.2282 13.0494 45.8118 13.7435 45.6729C14.4376 45.3953 15.1318 45.2565 15.8259 45.2565C16.2424 45.2565 16.6588 45.2565 16.9365 45.3953C17.2141 45.3953 17.4918 45.5341 17.7694 45.5341C18.0471 45.5341 18.3247 45.6729 18.6024 45.8118C18.88 45.9506 19.1576 45.9506 19.5741 45.9506C19.5741 46.3671 19.5741 46.7835 19.5741 47.2C19.5741 47.6165 19.5741 48.0329 19.7129 48.4494L19.1576 48.5882Z" fill="black"/>
<path d="M22.0729 53.7247C21.9341 54.0024 21.9341 54.1412 21.7953 54.4188C21.7953 54.5577 21.6565 54.6965 21.6565 54.8353C21.6565 54.9741 21.6565 54.9741 21.7953 55.1129C21.7953 55.1129 21.9341 55.2518 22.0729 55.2518C22.2118 55.2518 22.3506 55.2518 22.4894 55.3906C22.6282 55.3906 22.7671 55.3906 22.9059 55.3906H23.0447V55.8071C22.7671 55.8071 22.4894 55.8071 22.2118 55.8071C21.9341 55.8071 21.6565 55.8071 21.3788 55.8071C21.1012 55.8071 20.8235 55.8071 20.5459 55.8071C20.2682 55.8071 19.9906 55.8071 19.7129 55.8071V55.3906H19.8518C20.1294 55.3906 20.4071 55.2518 20.6847 55.1129C20.9624 54.9741 21.1012 54.6965 21.24 54.4188L23.6 47.7553C23.7388 47.4777 23.7388 47.2 23.8776 46.7835C24.0165 46.5059 24.0165 46.0894 24.1553 45.8118C24.4329 45.6729 24.5718 45.6729 24.8494 45.5341C25.1271 45.3953 25.2659 45.2565 25.4047 45.2565H25.6823V45.5341L28.32 53.1694C28.4588 53.4471 28.4588 53.7247 28.5976 54.0024C28.7365 54.28 28.7365 54.5577 28.8753 54.6965C29.0141 55.1129 29.2918 55.2518 29.8471 55.2518V55.6682C29.5694 55.6682 29.1529 55.6682 28.8753 55.6682C28.5976 55.6682 28.1812 55.6682 27.9035 55.6682C27.4871 55.6682 27.2094 55.6682 26.7929 55.6682C26.3765 55.6682 26.0988 55.6682 25.6823 55.6682V55.2518H25.8212C25.96 55.2518 25.96 55.2518 26.0988 55.2518C26.2376 55.2518 26.2376 55.2518 26.3765 55.2518C26.5153 55.2518 26.5153 55.1129 26.6541 55.1129C26.6541 55.1129 26.7929 54.9741 26.7929 54.8353C26.7929 54.6965 26.7929 54.5577 26.6541 54.4188C26.6541 54.28 26.5153 54.0024 26.5153 53.7247L25.96 52.0588H22.6282L22.0729 53.7247ZM24.2941 47.2L22.9059 51.3647H25.6823L24.2941 47.2Z" fill="black"/>
<path d="M30.68 55.3906C30.9576 55.3906 31.0965 55.3906 31.2353 55.3906C31.3741 55.3906 31.5129 55.3906 31.6518 55.2518C31.7906 55.2518 31.7906 55.1129 31.9294 54.9741C31.9294 54.8353 32.0682 54.6965 32.0682 54.5577V46.9224C32.0682 46.7835 32.0682 46.6447 31.9294 46.5059C31.9294 46.3671 31.7906 46.3671 31.6518 46.2282C31.5129 46.2282 31.3741 46.0894 31.2353 46.0894C31.0965 46.0894 30.9576 46.0894 30.8188 46.0894H30.68V45.6729C30.9576 45.6729 31.2353 45.6729 31.6518 45.6729C32.0682 45.6729 32.4847 45.6729 33.04 45.6729C33.4565 45.6729 33.8729 45.6729 34.2894 45.6729C34.7059 45.6729 34.9835 45.6729 35.4 45.6729C36.2329 45.6729 37.0659 45.8118 37.76 46.0894C38.4541 46.3671 39.1482 46.6447 39.5647 47.0612C40.12 47.4777 40.3976 48.0329 40.6753 48.5882C40.9529 49.1435 41.0918 49.8376 41.0918 50.6706C41.0918 51.3647 40.9529 52.0588 40.6753 52.7529C40.3976 53.4471 39.9812 54.0024 39.5647 54.4188C39.0094 54.8353 38.4541 55.2518 37.8988 55.5294C37.2047 55.8071 36.5106 55.9459 35.8165 55.8071C35.5388 55.8071 35.1223 55.8071 34.5671 55.8071C34.1506 55.8071 33.5953 55.8071 33.1788 55.8071C32.9012 55.8071 32.6235 55.8071 32.4847 55.8071C32.2071 55.8071 32.0682 55.8071 31.7906 55.8071C31.5129 55.8071 31.3741 55.8071 31.2353 55.8071C31.0965 55.8071 30.9576 55.8071 30.8188 55.8071L30.68 55.3906ZM33.7341 54.1412C33.7341 54.4188 33.7341 54.5577 33.8729 54.6965C33.8729 54.8353 34.0118 54.9741 34.1506 55.1129C34.2894 55.2518 34.4282 55.2518 34.5671 55.2518C34.7059 55.2518 34.9835 55.2518 35.2612 55.2518C35.8165 55.2518 36.3718 55.1129 36.9271 54.8353C37.3435 54.5576 37.76 54.28 38.0376 53.8635C38.3153 53.4471 38.5929 53.0306 38.7318 52.4753C38.8706 51.92 39.0094 51.3647 39.0094 50.8094C39.0094 49.8377 38.8706 49.0047 38.7318 48.4494C38.4541 47.8941 38.1765 47.3388 37.76 46.9224C37.3435 46.5059 36.927 46.3671 36.3718 46.2282C35.8165 46.0894 35.2612 45.9506 34.7059 45.9506C34.5671 45.9506 34.4282 45.9506 34.1506 45.9506C34.0118 45.9506 33.8729 45.9506 33.5953 45.9506L33.7341 54.1412Z" fill="black"/>
<path d="M41.9247 55.3906C42.2023 55.3906 42.3412 55.3906 42.48 55.3906C42.6188 55.3906 42.7576 55.3906 42.8965 55.2518C43.0353 55.2518 43.0353 55.1129 43.1741 54.9741C43.1741 54.8353 43.3129 54.6965 43.3129 54.5577V46.9224C43.3129 46.7835 43.3129 46.6447 43.1741 46.5059C43.1741 46.3671 43.0353 46.3671 42.8965 46.2282C42.7576 46.2282 42.6188 46.0894 42.48 46.0894C42.3412 46.0894 42.2024 46.0894 42.0635 46.0894H41.9247V45.6729C42.2023 45.6729 42.3412 45.6729 42.7576 45.6729C43.0353 45.6729 43.3129 45.6729 43.7294 45.6729C44.0071 45.6729 44.4235 45.6729 44.7012 45.6729C44.9788 45.6729 45.3953 45.6729 45.6729 45.6729C45.9506 45.6729 46.2282 45.6729 46.6447 45.6729C46.9223 45.6729 47.3388 45.6729 47.6165 45.6729C47.8941 45.6729 48.3106 45.6729 48.5882 45.6729C48.8659 45.6729 49.1435 45.6729 49.4212 45.6729C49.4212 45.8118 49.4212 45.9506 49.4212 46.2282C49.4212 46.3671 49.4212 46.6447 49.4212 46.7835C49.4212 46.9224 49.4212 47.2 49.4212 47.3388C49.4212 47.4777 49.4212 47.7553 49.4212 47.8941L49.0047 48.0329C49.0047 47.7553 49.0047 47.6165 48.8659 47.3388C48.8659 47.0612 48.7271 46.9224 48.5882 46.7835C48.4494 46.6447 48.3106 46.5059 48.0329 46.3671C47.7553 46.2282 47.4776 46.2282 47.0612 46.2282H45.1176V50.1153H46.7835C47.0612 50.1153 47.2 50.1153 47.3388 49.9765C47.4776 49.9765 47.6165 49.8377 47.6165 49.6988C47.7553 49.56 47.7553 49.4212 47.7553 49.2824C47.7553 49.1435 47.8941 49.0047 47.8941 48.7271H48.3106C48.3106 49.2824 48.3106 49.8377 48.3106 50.3929C48.3106 50.9482 48.3106 51.5035 48.3106 52.0588L47.8941 52.1976C47.8941 51.92 47.8941 51.7812 47.7553 51.6424C47.7553 51.5035 47.6165 51.3647 47.6165 51.2259C47.4776 51.0871 47.4776 50.9482 47.3388 50.9482C47.2 50.9482 47.0612 50.8094 46.7835 50.8094H45.1176V54.1412C45.1176 54.4188 45.1176 54.5577 45.2565 54.6965C45.3953 54.8353 45.5341 54.9741 45.6729 54.9741C45.8118 54.9741 46.0894 55.1129 46.2282 55.1129C46.5059 55.1129 46.6447 55.1129 46.9224 55.1129C47.3388 55.1129 47.7553 55.1129 48.0329 55.1129C48.3106 55.1129 48.5882 54.9741 48.8659 54.8353C49.1435 54.6965 49.2823 54.5576 49.4212 54.28C49.56 54.0024 49.6988 53.7247 49.8376 53.3082L50.2541 53.4471C50.1153 53.8635 50.1153 54.28 49.9765 54.5577C49.8376 54.9741 49.8376 55.3906 49.6988 55.6682C49.4212 55.6682 49.1435 55.6682 48.8659 55.6682C48.5882 55.6682 48.1718 55.6682 47.8941 55.6682C47.4776 55.6682 47.2 55.6682 46.7835 55.6682C46.367 55.6682 46.0894 55.6682 45.8118 55.6682C45.5341 55.6682 45.1176 55.6682 44.7012 55.6682C44.2847 55.6682 44.0071 55.6682 43.5906 55.6682C43.1741 55.6682 42.8965 55.6682 42.6188 55.6682C42.3412 55.6682 42.0635 55.6682 41.7859 55.6682L41.9247 55.3906Z" fill="black"/>
<path d="M58.0282 53.1694L61.4988 45.5341C61.7765 45.5341 61.9153 45.5341 62.1929 45.5341C62.4706 45.5341 62.7482 45.5341 63.0259 45.5341C63.3035 45.5341 63.5812 45.5341 63.8588 45.5341C64.1365 45.5341 64.4141 45.5341 64.6918 45.5341V45.9506H64.5529C64.4141 45.9506 64.2753 45.9506 64.1365 45.9506C63.9976 45.9506 63.8588 45.9506 63.72 46.0894C63.5812 46.0894 63.4423 46.2282 63.3035 46.2282C63.1647 46.3671 63.1647 46.5059 63.1647 46.6447C63.1647 46.7835 63.1647 47.0612 63.1647 47.2C63.1647 47.3388 63.1647 47.6165 63.1647 47.7553L63.72 54.4188C63.72 54.5577 63.72 54.6965 63.8588 54.8353C63.8588 54.9741 63.9976 54.9741 64.1365 55.1129C64.2753 55.1129 64.4141 55.2518 64.5529 55.2518C64.6918 55.2518 64.8306 55.2518 65.1082 55.2518V55.6682C64.8306 55.6682 64.4141 55.6682 63.9976 55.6682C63.5812 55.6682 63.3035 55.6682 62.8871 55.6682C62.4706 55.6682 62.0541 55.6682 61.6376 55.6682C61.2212 55.6682 60.8047 55.6682 60.3882 55.6682V55.2518C60.5271 55.2518 60.8047 55.2518 60.9435 55.2518C61.0823 55.2518 61.2212 55.2518 61.36 55.1129C61.4988 55.1129 61.4988 54.9741 61.6376 54.9741C61.6376 54.8353 61.7765 54.8353 61.7765 54.5577C61.7765 54.4188 61.7765 54.4188 61.7765 54.28C61.7765 54.1412 61.7765 54.0024 61.7765 53.8635L61.36 47.7553L57.6118 55.9459H57.1953L53.7247 47.8941L53.1694 54.28C53.1694 54.5576 53.1694 54.6965 53.3082 54.8353C53.3082 54.9741 53.447 55.1129 53.5859 55.1129C53.7247 55.1129 53.8635 55.2518 54.0023 55.2518C54.1412 55.2518 54.28 55.2518 54.5576 55.2518H54.6965V55.6682C54.4188 55.6682 54.0023 55.6682 53.7247 55.6682C53.447 55.6682 53.0306 55.6682 52.7529 55.6682C52.4753 55.6682 52.1976 55.6682 51.92 55.6682C51.6423 55.6682 51.3647 55.6682 51.0871 55.6682V55.2518H51.2259C51.5035 55.2518 51.7812 55.2518 51.92 55.1129C52.0588 54.9741 52.1976 54.9741 52.3365 54.8353C52.4753 54.6965 52.4753 54.5576 52.4753 54.28C52.4753 54.1412 52.4753 53.8635 52.6141 53.5859L53.0306 49.56C53.0306 49.0047 53.1694 48.5882 53.1694 48.1718C53.1694 47.7553 53.1694 47.3388 53.1694 47.0612C53.1694 46.9224 53.1694 46.6447 53.0306 46.5059C52.8918 46.3671 52.8918 46.2282 52.7529 46.2282C52.6141 46.0894 52.4753 46.0894 52.3365 46.0894C52.1976 46.0894 52.0588 46.0894 51.92 46.0894H51.7812V45.6729C52.0588 45.6729 52.3365 45.6729 52.6141 45.6729C52.8918 45.6729 53.1694 45.6729 53.4471 45.6729C53.7247 45.6729 53.8635 45.6729 54.1412 45.6729C54.4188 45.6729 54.5576 45.6729 54.8353 45.6729L58.0282 53.1694Z" fill="black"/>
<path d="M69.8282 51.0871L66.9129 47.0612C66.7741 46.9224 66.6353 46.7835 66.6353 46.6447C66.4965 46.5059 66.4965 46.3671 66.3576 46.3671C66.2188 46.2282 66.08 46.2282 66.08 46.2282C65.9412 46.2282 65.8023 46.2282 65.6635 46.2282H65.5247V45.8118C65.9412 45.8118 66.3576 45.8118 66.6353 45.8118C67.0518 45.8118 67.3294 45.8118 67.7459 45.8118C68.1623 45.8118 68.44 45.8118 68.8565 45.8118C69.2729 45.8118 69.5506 45.8118 69.9671 45.8118V46.2282H69.8282C69.6894 46.2282 69.4118 46.2282 69.2729 46.3671C69.1341 46.3671 68.9953 46.5059 68.9953 46.6447C68.9953 46.7835 68.9953 46.7835 69.1341 46.9224C69.1341 47.0612 69.2729 47.0612 69.2729 47.2L71.4941 50.2541L73.2988 47.6165C73.4376 47.3388 73.5765 47.2 73.5765 47.0612C73.7153 46.9224 73.7153 46.7835 73.7153 46.6447C73.7153 46.5059 73.7153 46.5059 73.5765 46.5059C73.5765 46.5059 73.4376 46.3671 73.2988 46.3671C73.16 46.3671 73.16 46.3671 73.0212 46.3671C72.8823 46.3671 72.8823 46.3671 72.7435 46.3671H72.4659V45.9506C72.7435 45.9506 73.0212 45.9506 73.2988 45.9506C73.5765 45.9506 73.8541 45.9506 74.1318 45.9506C74.4094 45.9506 74.5482 45.9506 74.8259 45.9506C75.1035 45.9506 75.2423 45.9506 75.52 45.9506V46.3671C75.2423 46.3671 75.1035 46.5059 74.8259 46.6447C74.6871 46.7835 74.4094 46.9224 74.4094 47.0612L71.6329 50.9482V54.4188C71.6329 54.6965 71.6329 54.9741 71.7718 55.1129C71.7718 55.2518 71.9106 55.3906 72.0494 55.5294C72.1882 55.6682 72.327 55.6682 72.4659 55.6682C72.6047 55.6682 72.7435 55.6682 73.0212 55.6682H73.2988V56.0847C72.8823 56.0847 72.4659 56.0847 72.0494 56.0847C71.6329 56.0847 71.2165 56.0847 70.9388 56.0847C70.5223 56.0847 70.1059 56.0847 69.6894 56.0847C69.2729 56.0847 68.8565 56.0847 68.44 56.0847V55.6682H68.7176C68.9953 55.6682 69.1341 55.6682 69.2729 55.6682C69.4118 55.6682 69.5506 55.5294 69.6894 55.5294C69.8282 55.3906 69.8282 55.2518 69.9671 55.1129C69.9671 54.9741 69.9671 54.6965 69.9671 54.5577L69.8282 51.0871Z" fill="black"/>
<path d="M84.4047 49.1435C86.0706 49.1435 87.1812 50.3929 87.1812 52.0588C87.1812 54.1412 85.3765 55.9459 83.2941 55.9459C81.4894 55.9459 80.3788 54.8353 80.3788 53.0306C80.3788 50.9482 82.1835 49.1435 84.4047 49.1435ZM83.2941 55.6682C85.2376 55.6682 85.9317 53.1694 85.9317 51.6424C85.9317 50.6706 85.5153 49.56 84.2659 49.56C82.3223 49.56 81.4894 52.0588 81.4894 53.5859C81.6282 54.6965 82.0447 55.6682 83.2941 55.6682Z" fill="black"/>
<path d="M93.0118 49.2824L92.8729 49.8377H91.3459L88.847 58.7224L88.0141 59V58.8612L90.2353 49.8377H88.9859L89.1247 49.2824H90.3741C90.7906 47.6165 91.207 46.5059 92.5953 45.2565C93.0117 44.84 93.567 44.5624 94.1223 44.5624C94.4 44.5624 94.6776 44.7012 94.6776 44.9788C94.6776 45.1177 94.5388 45.6729 94.2612 45.6729C93.9835 45.6729 93.7059 45.3953 93.2894 45.3953C92.4565 45.3953 92.1788 46.3671 91.9012 47.2L91.3459 49.1435L93.0118 49.2824Z" fill="black"/>
<path d="M105.784 50.2541V47.0612C105.784 46.0894 105.228 46.0894 104.395 45.9506V45.5341C105.228 45.5341 105.784 45.5341 106.616 45.5341C107.311 45.5341 107.866 45.5341 108.56 45.5341V45.9506C107.727 45.9506 107.172 45.9506 107.172 47.0612V54.4188C107.172 55.3906 107.727 55.3906 108.56 55.5294V55.9459C107.866 55.9459 107.311 55.9459 106.616 55.9459C105.922 55.9459 105.228 55.9459 104.534 55.9459V55.5294C105.367 55.5294 105.922 55.5294 105.922 54.4188V50.9482H100.092V54.4188C100.092 55.3906 100.647 55.3906 101.48 55.5294V55.9459C100.786 55.9459 100.092 55.9459 99.5365 55.9459C98.8423 55.9459 98.1482 55.9459 97.4541 55.9459V55.5294C98.287 55.5294 98.8423 55.5294 98.8423 54.4188V47.0612C98.8423 46.0894 98.287 46.0894 97.4541 45.9506V45.5341C98.1482 45.5341 98.8423 45.5341 99.3976 45.5341C100.092 45.5341 100.786 45.5341 101.48 45.5341V45.9506C100.647 45.9506 100.092 45.9506 100.092 47.0612V50.2541H105.784Z" fill="black"/>
<path d="M110.92 47.0612C110.92 46.0894 110.365 46.0894 109.532 45.9506V45.5341C110.226 45.5341 110.92 45.5341 111.475 45.5341C112.169 45.5341 112.864 45.5341 113.558 45.5341V45.9506C112.725 45.9506 112.169 45.9506 112.169 47.0612V54.4188C112.169 55.3906 112.725 55.3906 113.558 55.5294V55.9459C112.864 55.9459 112.169 55.9459 111.614 55.9459C110.92 55.9459 110.226 55.9459 109.532 55.9459V55.5294C110.365 55.5294 110.92 55.5294 110.92 54.4188V47.0612Z" fill="black"/>
<path d="M124.247 48.1718H123.969C123.553 46.5059 122.165 45.8118 120.499 45.8118C117.861 45.8118 116.473 48.0329 116.473 50.3929C116.473 52.8918 118 55.3906 120.638 55.3906C121.748 55.3906 122.442 54.9741 122.581 54.8353V52.7529C122.581 51.6424 122.026 51.6424 121.193 51.6424V51.3647C121.887 51.3647 122.581 51.3647 123.136 51.3647C123.831 51.3647 124.525 51.3647 124.941 51.3647V51.7812C124.525 51.7812 123.969 51.7812 123.969 52.8918V54.8353L124.247 55.1129V55.3906C123.136 55.8071 121.748 56.2235 120.499 56.2235C116.473 56.2235 114.946 53.0306 114.946 50.9482C114.946 47.8941 117.306 45.6729 120.36 45.6729C121.609 45.6729 122.859 45.9506 124.108 46.5059L124.247 48.1718Z" fill="black"/>
<path d="M134.381 50.2541V47.0612C134.381 46.0894 133.826 46.0894 132.993 45.9506V45.5341C133.826 45.5341 134.381 45.5341 135.214 45.5341C135.908 45.5341 136.464 45.5341 137.158 45.5341V45.9506C136.325 45.9506 135.769 45.9506 135.769 47.0612V54.4188C135.769 55.3906 136.325 55.3906 137.158 55.5294V55.9459C136.464 55.9459 135.908 55.9459 135.214 55.9459C134.52 55.9459 133.826 55.9459 133.132 55.9459V55.5294C133.965 55.5294 134.52 55.5294 134.52 54.4188V50.9482H128.689V54.4188C128.689 55.3906 129.245 55.3906 130.078 55.5294V55.9459C129.384 55.9459 128.689 55.9459 128.134 55.9459C127.44 55.9459 126.746 55.9459 126.052 55.9459V55.5294C126.885 55.5294 127.44 55.5294 127.44 54.4188V47.0612C127.44 46.0894 126.885 46.0894 126.052 45.9506V45.5341C126.746 45.5341 127.44 45.5341 127.995 45.5341C128.689 45.5341 129.384 45.5341 130.078 45.5341V45.9506C129.245 45.9506 128.689 45.9506 128.689 47.0612V50.2541H134.381Z" fill="black"/>
<path d="M140.767 50.2541H142.711C143.821 50.2541 143.821 49.2824 143.96 49.0047H144.238C144.238 49.2824 144.238 50.1153 144.238 50.6706C144.238 51.0871 144.376 51.7812 144.238 52.3365H143.96C143.96 50.9482 143.544 50.9482 142.433 50.9482H140.906V53.4471C140.906 55.1129 140.906 55.5294 142.433 55.5294H143.266C144.654 55.3906 145.348 55.2518 145.904 53.7247H146.32C146.042 54.4188 145.904 55.2518 145.765 55.9459C144.376 55.9459 142.849 55.9459 141.461 55.9459C140.351 55.9459 139.24 55.9459 138.268 55.9459V55.5294C139.518 55.5294 139.656 55.2518 139.656 53.8635V47.3388C139.656 46.0894 139.379 46.0894 138.268 46.0894V45.6729C139.24 45.6729 140.212 45.6729 141.184 45.6729C142.572 45.6729 143.96 45.6729 145.348 45.6729V47.8941L145.071 48.0329C144.793 46.6447 144.238 46.2282 142.711 46.2282H141.045V50.2541H140.767Z" fill="black"/>
<path d="M149.652 50.9482V54.28C149.652 55.2518 150.207 55.2518 151.04 55.3906V55.8071C150.346 55.8071 149.652 55.8071 149.096 55.8071C148.402 55.8071 147.708 55.8071 147.014 55.8071V55.3906C147.708 55.3906 148.402 55.2518 148.402 54.4188V47.0612C148.402 46.0894 147.847 46.0894 147.014 45.9506V45.5341C147.847 45.5341 148.541 45.5341 149.235 45.5341C149.791 45.5341 150.207 45.5341 151.179 45.5341C153.955 45.5341 154.511 47.0612 154.511 48.1718C154.511 49.4212 153.539 50.3929 152.428 50.6706C153.816 52.6141 154.511 53.7247 155.066 54.4188C155.482 54.9741 155.899 55.3906 156.732 55.3906V55.8071C156.315 55.8071 156.038 55.8071 155.621 55.8071C155.205 55.8071 154.788 55.8071 154.372 55.8071C152.984 54.4188 152.012 52.6141 151.04 50.9482H149.652ZM150.624 46.0894C150.207 46.0894 150.068 46.0894 149.791 46.2282V50.5318C150.068 50.5318 150.346 50.6706 150.624 50.6706C152.428 50.6706 153.122 49.56 153.122 48.4494C152.984 47.0612 152.289 46.0894 150.624 46.0894Z" fill="black"/>
<path d="M164.506 50.2541H166.449C167.56 50.2541 167.56 49.2824 167.699 49.0047H167.976C167.976 49.2824 167.976 50.1153 167.976 50.6706C167.976 51.0871 168.115 51.7812 167.976 52.3365H167.699C167.699 50.9482 167.282 50.9482 166.172 50.9482H164.506V53.4471C164.506 55.1129 164.506 55.5294 166.033 55.5294H167.005C168.393 55.3906 169.087 55.2518 169.642 53.7247H170.059C169.781 54.4188 169.642 55.2518 169.504 55.9459C168.115 55.9459 166.588 55.9459 165.2 55.9459C164.089 55.9459 162.979 55.9459 162.007 55.9459V55.5294C163.256 55.5294 163.395 55.2518 163.395 53.8635V47.3388C163.395 46.0894 163.118 46.0894 162.007 46.0894V45.6729C162.979 45.6729 163.951 45.6729 164.922 45.6729C166.311 45.6729 167.699 45.6729 169.087 45.6729V47.8941L168.809 48.0329C168.532 46.6447 167.976 46.2282 166.449 46.2282H164.506V50.2541Z" fill="black"/>
<path d="M172.002 47.2C172.002 45.9506 171.308 45.9506 170.614 45.9506V45.5341C171.169 45.5341 171.725 45.5341 172.28 45.5341C172.835 45.5341 173.668 45.5341 174.779 45.5341C178.527 45.5341 180.609 48.0329 180.609 50.6706C180.609 52.0588 179.776 55.8071 174.64 55.8071C173.946 55.8071 173.252 55.8071 172.558 55.8071C171.864 55.8071 171.308 55.8071 170.614 55.8071V55.3906C171.447 55.2518 171.863 55.2518 172.002 54.28V47.2ZM173.391 54.0024C173.391 55.1129 174.224 55.2518 174.918 55.2518C178.111 55.2518 179.082 52.8918 179.082 50.6706C179.082 47.8941 177.278 45.9506 174.501 45.9506C173.946 45.9506 173.668 45.9506 173.391 45.9506V54.0024Z" fill="black"/>
<path d="M191.576 45.9506C190.466 45.9506 190.466 46.5059 190.466 48.3106V52.4753C190.466 54.4188 189.216 55.9459 186.718 55.9459C184.358 55.9459 182.831 54.8353 182.831 52.3365V47.0612C182.831 46.0894 182.275 46.0894 181.442 45.9506V45.5341C182.136 45.5341 182.831 45.5341 183.386 45.5341C184.08 45.5341 184.774 45.5341 185.468 45.5341V45.9506C184.635 45.9506 184.08 45.9506 184.08 47.0612V52.0588C184.08 53.7247 184.635 55.5294 186.856 55.5294C189.216 55.5294 189.494 53.7247 189.494 52.6141V48.4494C189.494 46.0894 189.355 46.0894 188.106 46.0894V45.6729C188.661 45.6729 189.355 45.6729 189.911 45.6729C190.466 45.6729 190.882 45.6729 191.438 45.6729L191.576 45.9506Z" fill="black"/>
<path d="M201.572 48.3106H201.155C200.878 46.6447 199.628 45.9506 198.101 45.9506C196.435 45.9506 193.936 47.0612 193.936 50.5318C193.936 53.4471 196.019 55.5294 198.24 55.5294C199.628 55.5294 200.878 54.5577 201.155 53.0306L201.433 53.1694L201.155 55.2518C200.6 55.6682 198.934 56.0847 197.962 56.0847C194.492 56.0847 192.409 53.8635 192.409 50.6706C192.409 47.6165 195.047 45.5341 197.962 45.5341C199.073 45.5341 200.322 45.9506 201.433 46.3671L201.572 48.3106Z" fill="black"/>
<path d="M210.04 52.8918C210.179 53.4471 210.595 54.6965 210.873 54.9741C211.151 55.2518 211.567 55.3906 211.983 55.3906V55.8071C211.428 55.8071 210.873 55.8071 210.318 55.8071C209.623 55.8071 208.929 55.8071 208.235 55.8071V55.3906H208.513C208.929 55.3906 209.346 55.2518 209.346 54.9741C209.346 54.8353 209.207 54.4188 209.068 54.1412L208.374 52.0588H204.904L204.626 53.0306C204.487 53.5859 204.209 54.28 204.209 54.6965C204.209 55.3906 204.626 55.3906 205.181 55.3906H205.459V55.8071C204.903 55.8071 204.348 55.8071 203.793 55.8071C203.238 55.8071 202.682 55.8071 201.988 55.8071V55.3906C202.821 55.2518 203.099 55.1129 203.376 54.4188C203.654 53.8635 203.793 53.3082 203.932 52.7529L205.736 47.6165C205.875 47.3388 206.014 46.7835 206.014 46.3671C206.014 46.2282 206.014 46.0894 206.014 45.9506C206.292 45.8118 206.708 45.6729 206.847 45.2565H207.125L210.04 52.8918ZM205.042 51.3647H208.096L206.569 47.0612L205.042 51.3647Z" fill="black"/>
<path d="M220.452 47.4777H220.035C220.035 46.6447 220.035 46.2282 218.925 46.2282H216.704V54.4188C216.704 55.3906 217.259 55.3906 218.092 55.5294V55.9459C217.398 55.9459 216.703 55.9459 216.148 55.9459C215.454 55.9459 214.76 55.9459 214.066 55.9459V55.5294C214.899 55.5294 215.454 55.5294 215.454 54.4188V46.2282H213.511C212.261 46.2282 212.122 46.6447 211.845 47.4777H211.428L211.567 45.1176H211.845C211.984 45.5341 212.4 45.5341 212.816 45.5341H219.48C220.035 45.5341 220.313 45.3953 220.452 45.1176H220.729L220.452 47.4777Z" fill="black"/>
<path d="M222.812 47.0612C222.812 46.0894 222.256 46.0894 221.423 45.9506V45.5341C222.118 45.5341 222.812 45.5341 223.367 45.5341C224.061 45.5341 224.755 45.5341 225.449 45.5341V45.9506C224.616 45.9506 224.061 45.9506 224.061 47.0612V54.4188C224.061 55.3906 224.616 55.3906 225.449 55.5294V55.9459C224.755 55.9459 224.061 55.9459 223.506 55.9459C222.812 55.9459 222.118 55.9459 221.423 55.9459V55.5294C222.256 55.5294 222.812 55.5294 222.812 54.4188V47.0612Z" fill="black"/>
<path d="M232.113 45.3953C235.028 45.3953 237.249 47.8941 237.249 50.6706C237.249 53.3082 235.167 56.0847 231.974 56.0847C229.059 56.0847 226.838 53.5859 226.838 50.8094C226.838 48.0329 228.92 45.3953 232.113 45.3953ZM232.252 55.5294C234.334 55.5294 235.722 53.7247 235.722 51.0871C235.722 48.8659 234.473 45.9506 231.974 45.9506C229.892 45.9506 228.504 47.7553 228.504 50.3929C228.504 52.6141 229.753 55.5294 232.252 55.5294Z" fill="black"/>
<path d="M248.633 55.9459H248.355L240.72 47.6165V53.0306C240.72 54.9741 240.859 55.3906 242.386 55.3906V55.8071C241.692 55.8071 241.136 55.8071 240.442 55.8071C239.748 55.8071 239.193 55.8071 238.499 55.8071V55.3906C239.332 55.3906 240.026 55.3906 240.026 53.5859V47.7553C240.026 46.5059 239.471 46.0894 238.221 46.0894V45.6729C238.638 45.6729 239.054 45.6729 239.609 45.6729C240.026 45.6729 240.442 45.6729 240.859 45.6729C241.414 46.5059 242.802 47.8941 244.468 49.6988C245.718 51.0871 247.106 52.4753 248.078 53.5859V47.7553C248.078 46.3671 247.8 45.9506 246.273 45.9506V45.5341C246.967 45.5341 247.661 45.5341 248.355 45.5341C248.911 45.5341 249.466 45.5341 250.021 45.5341V45.9506C249.188 45.9506 248.633 46.0894 248.633 47.4777V55.9459Z" fill="black"/>
<path d="M28.7367 29.1529L41.3697 1.38824C42.2026 1.38824 43.0356 1.38824 44.0073 1.52706C44.9791 1.66588 45.812 1.66588 46.7838 1.66588C47.7556 1.66588 48.5885 1.66588 49.5603 1.52706C50.532 1.38824 51.5038 1.38824 52.3367 1.38824V2.91529H51.9203C51.5038 2.91529 51.0873 2.91529 50.532 2.91529C49.9767 2.91529 49.4214 3.05412 49.005 3.19294C48.4497 3.33176 48.0332 3.60941 47.7556 3.88706C47.3391 4.1647 47.2003 4.72 47.2003 5.27529C47.2003 5.96941 47.2003 6.66353 47.2003 7.49647C47.3391 8.19059 47.3391 8.88471 47.4779 9.44L49.5603 33.7341C49.5603 34.4282 49.6991 34.9835 49.9767 35.2612C50.2544 35.6776 50.532 35.9553 50.8097 36.0941C51.2261 36.3718 51.6426 36.3718 52.1979 36.5106C52.7532 36.5106 53.4473 36.6494 54.2803 36.6494V38.1765C53.0309 38.0376 51.7814 38.0376 50.532 38.0376C49.2826 38.0376 47.8944 38.0376 46.645 38.0376C45.1179 38.0376 43.7297 38.0376 42.2026 38.0376C40.8144 38.0376 39.2873 38.1765 37.7603 38.1765V36.6494C38.4544 36.6494 39.0097 36.5106 39.565 36.5106C40.1203 36.5106 40.6756 36.3718 41.092 36.2329C41.5085 36.0941 41.7862 35.8165 42.0638 35.5388C42.3414 35.2612 42.3414 34.8447 42.3414 34.1506C42.3414 33.8729 42.3414 33.4565 42.3414 33.1788C42.3414 32.7624 42.3414 32.3459 42.3414 31.6518L40.8144 9.16235H40.6756L27.0709 39.1482H25.6826L12.772 9.71764H12.6332L10.8285 33.3176C10.8285 34.1506 10.9673 34.8447 11.1062 35.2612C11.245 35.6776 11.5226 36.0941 11.9391 36.3718C12.3556 36.6494 12.772 36.7882 13.3273 36.7882C13.8826 36.7882 14.5767 36.9271 15.2709 36.9271H15.965V38.4541C14.7156 38.3153 13.605 38.3153 12.3556 38.3153C11.1062 38.3153 9.99557 38.3153 8.74616 38.3153C7.7744 38.3153 6.6638 38.3153 5.55322 38.3153C4.44263 38.3153 3.47086 38.4541 2.36027 38.4541V36.9271H3.05439C4.16498 36.9271 4.99792 36.7882 5.55322 36.5106C6.10851 36.2329 6.52498 35.9553 6.94145 35.4C7.2191 34.9835 7.49674 34.2894 7.63557 33.5953C7.77439 32.9012 7.91321 32.0682 7.91321 31.0965L9.44028 16.2424C9.71793 14.2988 9.85674 12.4941 9.85674 10.9671C9.99557 9.30118 9.99556 8.05176 9.99556 6.94117C9.99556 6.24706 9.85675 5.55294 9.5791 4.99765C9.30145 4.44235 9.0238 4.02588 8.60733 3.74823C8.19086 3.47059 7.63557 3.19294 7.08027 3.05412C6.52498 2.91529 5.96969 2.77647 5.41439 2.77647H4.72028V1.38824C5.83086 1.38824 6.94145 1.38824 7.91321 1.52706C9.0238 1.66588 9.99557 1.66588 11.1062 1.66588C11.9391 1.66588 12.772 1.66588 13.4662 1.52706C14.5767 1.38824 15.4097 1.38824 16.2426 1.38824L28.7367 29.1529Z" fill="black"/>
<path d="M64.2756 30.9576C63.9979 31.9294 63.7203 32.6235 63.4426 33.3176C63.165 34.0118 63.0262 34.5671 63.0262 35.1224C63.0262 35.5388 63.165 35.8165 63.4426 36.0941C63.7203 36.3718 63.9979 36.5106 64.4144 36.6494C64.8309 36.7882 65.2473 36.9271 65.6638 36.9271C66.0803 36.9271 66.6356 36.9271 67.052 36.9271H67.6073V38.4541C66.4967 38.3153 65.525 38.3153 64.4144 38.3153C63.3038 38.3153 62.1932 38.3153 61.2214 38.3153C60.2497 38.3153 59.2779 38.3153 58.3061 38.3153C57.3344 38.3153 56.3626 38.4541 55.3909 38.4541V36.9271H55.6685C56.6403 36.9271 57.612 36.6494 58.445 36.0941C59.2779 35.5388 59.8332 34.7059 60.2497 33.4565L68.7179 9.02353C69.1344 8.05176 69.412 6.94118 69.8285 5.69176C70.245 4.44235 70.5226 3.33176 70.6614 2.36C71.4944 2.08235 72.4662 1.66588 73.2991 1.24941C74.2709 0.832941 74.965 0.416471 75.5203 0.138824C75.7979 5.27501e-07 75.9367 0 75.9367 0C76.0756 0 76.2144 5.27501e-07 76.3532 0.138824C76.492 0.416471 76.492 0.555295 76.6308 0.832942C76.7697 1.11059 76.7697 1.24941 76.9085 1.52706L86.765 29.2918C87.0426 30.2635 87.4591 31.0965 87.7367 32.0682C88.0144 33.04 88.4308 33.8729 88.7085 34.7059C89.2638 36.0941 90.5132 36.7882 92.1791 36.7882H92.4567V38.3153C91.2073 38.1765 90.0967 38.1765 88.8473 38.1765C87.5979 38.1765 86.3485 38.1765 85.0991 38.1765C83.8497 38.1765 82.4614 38.1765 81.0732 38.1765C79.685 38.1765 78.4356 38.3153 77.0473 38.3153V36.7882H77.6026C77.8803 36.7882 78.2967 36.7882 78.5744 36.7882C78.9909 36.7882 79.2685 36.6494 79.685 36.5106C79.9626 36.3718 80.2403 36.2329 80.5179 36.0941C80.7956 35.8165 80.7956 35.6776 80.7956 35.2612C80.7956 34.8447 80.6567 34.4282 80.5179 33.7341C80.2403 33.04 80.1014 32.3459 79.8238 31.5129L77.7414 25.4047H65.9414L64.2756 30.9576ZM72.0497 7.35765L67.052 22.3506H77.0473L72.0497 7.35765Z" fill="black"/>
<path d="M128.551 28.0423L128.69 8.05177C128.69 6.94118 128.551 6.10823 128.134 5.41412C127.857 4.72 127.44 4.30353 126.885 3.88706C126.468 3.47059 125.913 3.33176 125.358 3.19294C124.803 3.05412 124.386 3.05412 123.97 3.05412H122.859V1.38824C124.108 1.38824 125.358 1.38824 126.607 1.52706C127.857 1.66588 129.106 1.66588 130.356 1.66588C131.466 1.66588 132.577 1.66588 133.687 1.52706C134.798 1.38824 135.908 1.38824 137.019 1.38824V2.91529H136.186C135.631 2.91529 135.076 2.91529 134.52 3.05412C133.965 3.19294 133.41 3.47059 132.993 3.88706C132.577 4.30353 132.16 4.99765 131.883 5.96941C131.605 6.80235 131.466 8.05176 131.466 9.71764V33.8729C131.466 34.8447 131.466 35.6776 131.466 36.6494C131.466 37.6212 131.605 38.4541 131.744 39.2871H129.661L102.313 8.74588V30.68C102.313 31.7906 102.452 32.7623 102.591 33.5953C102.73 34.4282 103.007 34.9835 103.424 35.5388C103.84 36.0941 104.257 36.3718 104.951 36.6494C105.645 36.9271 106.478 36.9271 107.45 36.9271H108.421V38.4541C107.311 38.4541 106.2 38.4541 104.951 38.3153C103.84 38.1765 102.591 38.1765 101.48 38.1765C100.231 38.1765 99.1203 38.1765 97.8708 38.3153C96.6214 38.4541 95.5108 38.4541 94.2614 38.4541V36.9271H94.9555C96.7603 36.9271 98.0097 36.3718 98.7038 35.1224C99.3979 33.8729 99.6756 32.2071 99.6756 30.1247V7.77412C99.6756 7.08 99.5367 6.38588 99.2591 5.83059C98.9814 5.27529 98.565 4.72 98.1485 4.30353C97.732 3.88706 97.1767 3.60941 96.6214 3.33176C96.0662 3.05412 95.5109 3.05412 94.8167 3.05412H94.1226V1.38824C95.0944 1.38824 96.205 1.38824 97.1767 1.52706C98.1485 1.66588 99.2591 1.66588 100.231 1.66588C101.064 1.66588 101.897 1.66588 102.591 1.52706C103.285 1.38824 104.118 1.38824 104.951 1.38824L128.551 28.0423Z" fill="black"/>
<path d="M138.268 36.9271H138.963C139.379 36.9271 139.934 36.9271 140.351 36.7882C140.767 36.7882 141.323 36.6494 141.6 36.3718C141.878 36.0941 142.294 35.8165 142.572 35.4C142.85 34.9835 142.85 34.4282 142.85 33.7341V5.96941C142.85 5.27529 142.711 4.72 142.572 4.30353C142.294 3.88706 142.017 3.60941 141.6 3.33176C141.184 3.05412 140.767 3.05412 140.351 2.91529C139.934 2.91529 139.379 2.77647 138.963 2.77647H138.268V1.38824C139.24 1.38824 140.49 1.38824 142.017 1.52706C143.405 1.66588 144.793 1.66588 146.181 1.66588C147.57 1.66588 148.958 1.66588 150.485 1.52706C152.012 1.38824 153.4 1.38824 154.65 1.38824V2.91529H153.956C153.4 2.91529 152.984 2.91529 152.567 3.05412C152.151 3.05412 151.734 3.19294 151.318 3.47059C150.901 3.74824 150.624 4.02588 150.346 4.44235C150.068 4.85882 150.068 5.41412 150.068 6.10823V34.0118C150.068 34.7059 150.207 35.2612 150.346 35.6776C150.624 36.0941 150.901 36.3718 151.318 36.6494C151.734 36.9271 152.151 36.9271 152.567 37.0659C152.984 37.0659 153.539 37.2047 153.956 37.2047H154.65V38.7318C153.4 38.7318 152.012 38.7318 150.485 38.5929C148.958 38.4541 147.57 38.4541 146.181 38.4541C144.932 38.4541 143.544 38.4541 142.017 38.5929C140.628 38.7318 139.379 38.7318 138.268 38.7318V36.9271Z" fill="black"/>
<path d="M167.421 32.4847C167.421 33.5953 167.56 34.4282 167.838 34.9835C168.116 35.5388 168.532 36.0941 168.948 36.3718C169.365 36.6494 169.92 36.7882 170.614 36.9271C171.17 36.9271 171.864 37.0659 172.558 37.0659H173.391V38.5929C172.003 38.5929 170.753 38.5929 169.365 38.4541C167.977 38.3153 166.727 38.3153 165.339 38.3153C163.812 38.3153 162.424 38.3153 160.897 38.4541C159.508 38.5929 157.981 38.5929 156.454 38.5929V37.0659H157.287C157.704 37.0659 158.12 37.0659 158.537 36.9271C158.953 36.9271 159.37 36.6494 159.647 36.5106C159.925 36.2329 160.203 35.8165 160.48 35.2612C160.619 34.7059 160.758 33.8729 160.758 32.7624V7.21882C160.758 6.38588 160.758 5.55294 160.619 4.99765C160.48 4.44235 160.341 4.02588 159.925 3.74823C159.647 3.47059 159.231 3.19294 158.814 3.19294C158.398 3.05412 157.843 3.05412 157.148 3.05412H156.454V1.38824C157.426 1.38824 158.537 1.38824 159.925 1.52706C161.313 1.66588 162.563 1.66588 163.951 1.66588C165.339 1.66588 166.727 1.66588 167.977 1.52706C169.226 1.38824 170.476 1.38824 171.725 1.38824C173.53 1.38824 175.196 1.52706 176.723 1.94353C178.25 2.22118 179.499 2.77647 180.748 3.60941C181.859 4.44235 182.692 5.41412 183.386 6.66353C183.941 7.91294 184.358 9.57882 184.358 11.5224C184.358 13.0494 184.08 14.4376 183.525 15.6871C182.97 16.9365 182.276 18.0471 181.304 19.0188C180.332 19.9906 179.221 20.6847 177.972 21.24C176.723 21.7953 175.334 22.2118 173.946 22.3506C173.113 22.4894 172.419 22.4894 171.725 22.4894C171.031 22.4894 170.337 22.4894 169.781 22.4894V20.8235H170.892C172.003 20.8235 172.836 20.5459 173.668 20.1294C174.501 19.7129 175.057 19.0188 175.612 18.1859C176.167 17.3529 176.445 16.3812 176.723 15.2706C177 14.16 177.139 12.9106 177.139 11.6612C177.139 9.16235 176.445 7.08 175.196 5.55294C173.946 4.02588 171.864 3.19294 169.087 3.19294H167.56L167.421 32.4847Z" fill="black"/>
<path d="M191.299 30.9576C191.021 31.9294 190.744 32.6235 190.466 33.3176C190.188 34.0118 190.05 34.5671 190.05 35.1224C190.05 35.5388 190.188 35.8165 190.466 36.0941C190.744 36.3718 191.021 36.5106 191.438 36.6494C191.854 36.7882 192.271 36.9271 192.687 36.9271C193.104 36.9271 193.659 36.9271 194.076 36.9271H194.631V38.4541C193.52 38.3153 192.548 38.3153 191.438 38.3153C190.327 38.3153 189.217 38.3153 188.245 38.3153C187.273 38.3153 186.301 38.3153 185.33 38.3153C184.358 38.3153 183.386 38.4541 182.414 38.4541V36.9271H182.692C183.664 36.9271 184.636 36.6494 185.468 36.0941C186.301 35.5388 186.857 34.7059 187.273 33.4565L195.741 9.02353C196.158 8.05176 196.436 6.94118 196.852 5.69176C197.268 4.44235 197.546 3.33176 197.685 2.36C198.518 2.08235 199.49 1.66588 200.323 1.24941C201.294 0.832941 201.988 0.416471 202.544 0.138824C202.821 5.27501e-07 202.96 0 202.96 0C203.099 0 203.238 5.27501e-07 203.377 0.138824C203.516 0.416471 203.516 0.555295 203.654 0.832942C203.793 1.11059 203.793 1.24941 203.932 1.52706L213.788 29.2918C214.066 30.2635 214.483 31.0965 214.76 32.0682C215.038 33.04 215.454 33.8729 215.732 34.7059C216.287 36.0941 217.537 36.7882 219.203 36.7882H219.48V38.3153C218.231 38.1765 217.12 38.1765 215.871 38.1765C214.621 38.1765 213.372 38.1765 212.123 38.1765C210.873 38.1765 209.485 38.1765 208.097 38.1765C206.708 38.1765 205.459 38.3153 204.071 38.3153V36.7882H204.626C204.904 36.7882 205.32 36.7882 205.598 36.7882C206.014 36.7882 206.292 36.6494 206.708 36.5106C206.986 36.3718 207.264 36.2329 207.541 36.0941C207.819 35.8165 207.819 35.6776 207.819 35.2612C207.819 34.8447 207.68 34.4282 207.541 33.7341C207.264 33.04 207.125 32.3459 206.847 31.5129L204.765 25.4047H192.687L191.299 30.9576ZM199.073 7.35765L194.076 22.3506H204.071L199.073 7.35765Z" fill="black"/>
<path d="M232.946 33.3176C232.946 34.4282 233.224 35.1224 233.918 35.5388C234.612 35.9553 235.306 36.2329 236.139 36.3718C237.25 36.5106 238.36 36.5106 239.61 36.5106C240.72 36.5106 241.97 36.3718 243.219 36.2329C244.33 36.0941 245.301 35.6776 246.273 35.2612C247.106 34.7059 247.8 34.1506 248.356 33.4565C248.772 32.9012 249.05 32.2071 249.327 31.5129C249.605 30.8188 249.744 30.2635 250.021 29.5694H251.548C251.271 31.0965 250.993 32.6235 250.577 34.1506C250.16 35.6776 249.883 37.2047 249.605 38.7318C247.245 38.7318 244.885 38.7318 242.525 38.5929C240.165 38.4541 237.805 38.4541 235.445 38.4541C233.085 38.4541 230.725 38.4541 228.365 38.5929C226.005 38.7318 223.645 38.7318 221.285 38.7318V37.2047H221.979C222.396 37.2047 222.951 37.2047 223.367 37.0659C223.784 37.0659 224.339 36.9271 224.617 36.6494C225.033 36.3718 225.311 36.0941 225.588 35.5388C225.866 35.1224 225.866 34.4282 225.866 33.5953V5.96941C225.866 5.27529 225.727 4.72 225.588 4.30353C225.311 3.88706 225.033 3.60941 224.617 3.33176C224.2 3.05412 223.784 3.05412 223.367 2.91529C222.951 2.91529 222.396 2.77647 221.979 2.77647H221.285V1.38824C222.673 1.38824 224.061 1.38824 225.45 1.52706C226.838 1.66588 228.226 1.66588 229.614 1.66588C231.003 1.66588 232.252 1.66588 233.64 1.52706C235.167 1.38824 236.556 1.38824 237.944 1.38824V2.91529H236.556C236 2.91529 235.584 2.91529 235.167 2.91529C234.751 2.91529 234.334 3.05412 234.057 3.19294C233.779 3.33176 233.501 3.60941 233.224 4.02588C233.085 4.44235 232.946 4.99765 232.946 5.69176V33.3176Z" fill="black"/>
</svg>
