<svg width="285" height="111" viewBox="0 0 285 111" fill="none" xmlns="http://www.w3.org/2000/svg">
<path d="M0.521973 0.557702H11.4178V90.9471H0.521973V0.557702ZM111.322 58.1061C111.527 74.6289 121.757 87.7756 134.188 87.5709C146.669 87.3663 156.389 73.7593 156.184 57.4411C155.979 40.9183 145.749 27.7717 133.318 27.9763C120.837 28.181 111.066 41.5322 111.322 58.1061ZM201.507 38.156C201.711 38.821 201.046 37.2352 201.046 37.2352L201.507 38.156ZM208.975 106.345C209.436 105.424 210.101 104.298 211.021 102.508L208.975 106.345ZM209.64 32.4779C209.845 32.9383 209.845 33.1429 210.101 33.6033L213.733 42.6576L209.64 32.4779ZM163.857 77.8005C170.661 83.939 176.543 87.1106 184.472 87.1106C192.401 87.1106 199.409 83.274 199.409 75.8055C199.409 69.4624 193.987 65.8304 184.012 61.7381C175.623 58.1061 169.535 55.5996 166.108 50.433C166.568 52.6838 166.773 54.9857 166.773 57.4411C166.773 77.5959 152.041 93.9141 133.932 93.9141C115.823 93.9141 101.091 77.5959 101.091 57.4411C101.091 45.2153 106.513 34.5752 114.698 27.7717H92.4972V91.2029H82.7779V80.7674C82.7779 80.5628 82.7779 80.307 82.7779 80.307V27.7206H74.184V21.1728H83.0336C84.159 7.82159 92.3437 0.353088 103.853 0.353088C111.322 0.353088 115.414 1.01809 117.665 2.14348V11.1978C117.665 11.8628 117.665 12.3232 117.665 12.3232H117.205C113.573 8.94699 110.197 6.64505 102.012 6.64505C95.4641 6.64505 91.116 11.8628 92.7018 21.1217H129.635C131.221 20.9171 132.807 20.6613 134.392 20.6613C147.539 20.6613 158.844 29.2552 164.062 41.7368C164.062 41.0718 164.062 40.3556 164.062 39.486C164.062 26.5952 176.748 20.9171 189.639 20.9171C190.099 20.9171 190.56 20.9171 191.02 20.9171C195.573 20.9171 202.121 22.2982 206.213 23.4236L209.845 32.2733L224.833 69.6158L226.214 73.9128L227.595 69.6158L241.663 34.9333C244.169 25.4186 254.554 21.3263 265.654 21.3263C271.332 21.3263 275.373 21.9913 280.386 23.8328V34.3195C274.248 29.7667 269.951 27.3113 262.943 27.3113C256.804 27.3113 249.592 30.0225 249.592 39.0768C249.387 45.8803 253.428 47.0057 265.449 52.8884C275.169 57.1854 284.274 61.7381 284.274 72.5828C284.274 90.6913 266.37 93.8629 257.776 93.8629C250.052 93.8629 242.839 92.0725 238.952 88.6452V76.624L239.617 77.0843C246.625 83.6321 252.968 87.0594 260.897 87.0594C268.826 87.0594 275.834 83.2228 275.834 75.7543C275.834 69.4112 270.411 65.7793 260.436 61.6869C250.922 57.5946 244.783 54.8834 242.328 48.0799C238.491 57.39 220.587 101.076 216.29 110.386H206.776L209.026 106.089L211.073 102.252V102.048C213.579 97.2902 216.955 89.8217 220.127 82.5578L201.558 37.6956C201.353 37.491 201.097 36.7749 200.432 35.4449C199.051 32.2733 197.721 29.1017 193.629 27.7206C191.583 27.0556 189.076 26.5952 186.621 26.5952C180.482 26.5952 172.809 29.3063 172.809 38.3606C172.605 45.1641 177.106 46.2895 189.127 52.1723C198.847 56.4692 207.952 61.0219 207.952 71.8666C207.952 89.9752 190.048 93.1468 181.454 93.1468C174.651 93.1468 168.103 91.561 164.011 89.0544L163.857 77.8005ZM31.7772 21.8378L31.9818 29.7667V30.2271C32.1864 30.0225 32.1864 29.5621 32.4422 29.3064C36.5345 25.0094 41.4965 20.7124 53.5177 20.7124C65.0785 20.7124 72.3424 30.4317 72.7517 36.5702V90.9471H63.0324V41.123C63.0324 33.3987 56.2289 27.9763 48.0954 27.9763C41.2918 27.9763 32.4422 34.1148 32.2376 40.458V90.9471H22.2625V21.8378H31.7772Z" fill="black"/>
</svg>
