<svg width="257" height="96" viewBox="0 0 257 96" fill="none" xmlns="http://www.w3.org/2000/svg">
<path d="M89.492 0.000700724C89.3926 0.715734 89.7929 2.80583 89.0673 3.11199L1.47209 3.24651C-0.686267 3.33134 0.216968 1.47649 0.0493094 0.000700724C29.86 -0.00195 59.6813 0.00401413 89.492 0.000700724Z" fill="black"/>
<path d="M256.364 30.4767V56.3809C254.903 56.2776 252.888 56.9442 253.025 54.8555C248.129 59.3266 241.567 55.326 240.397 49.5666C239.662 45.949 240.395 41.5303 243.203 38.9504C245.003 37.2957 247.888 36.5277 250.271 37.2288C251.058 37.4601 252.126 38.5621 252.931 38.8577V31.1434C252.931 31.103 253.115 30.7703 253.173 30.7173L256.364 30.4767ZM247.546 40.4322C243.861 40.9988 243.671 47.2936 244.479 50.061C245.833 54.6938 251.84 54.6288 252.912 49.7919C253.8 45.792 252.97 39.5985 247.546 40.4329V40.4322Z" fill="black"/>
<path d="M87.3947 6.28623H2.43297V91.8092H87.1084C87.732 91.8092 87.3768 90.7582 87.3966 90.5726C87.9778 85.1817 87.5716 79.4429 88.1594 74.0023C88.2522 73.1468 88.4914 72.2899 88.5398 71.4278H89.1097C89.7074 78.0977 89.4748 84.8272 89.4828 91.5309C89.4834 92.348 90.0175 93.2803 88.9785 93.8681L0.0486467 93.7137V4.38169L88.9785 4.22794C90.0467 4.80249 89.4854 5.55861 89.4828 6.37437C89.4669 12.4459 89.887 19.245 89.2767 25.2144C89.2495 25.4815 89.0613 26.667 88.8247 26.6637L88.3973 25.7611C87.6398 19.3059 87.7393 12.7646 87.394 6.28689L87.3947 6.28623Z" fill="black"/>
<path d="M89.2561 56.1457C88.16 56.4936 85.8844 56.8461 85.724 55.2875C85.9705 50.0086 85.2376 44.1598 85.6704 38.9458C85.7095 38.4753 85.7472 38.0061 86.062 37.6224C86.5822 37.1214 88.8578 37.1692 89.2064 37.9047C89.38 38.2705 89.1256 39.2467 89.5848 39.0465C89.7564 38.9716 90.2647 38.3819 90.61 38.1645C93.6822 36.2288 97.6291 36.6476 99.6953 39.8066C103.021 35.3236 110.563 36.2103 111.05 42.3745C111.388 46.6534 110.865 51.4976 110.943 55.8057C110.572 56.701 107.688 56.5784 107.451 55.874C107.133 51.8873 107.78 47.4851 107.394 43.5494C107.264 42.2201 106.73 40.7092 105.237 40.5608C101.948 40.2327 100.602 41.6886 100.356 44.8516C100.089 48.2843 100.573 52.051 100.359 55.5208C100.129 56.7262 96.8319 56.8203 96.5893 55.4837C96.2626 51.605 96.8829 47.3506 96.5556 43.5176C96.3223 40.7927 95.1069 40.1771 92.4608 40.5846C91.7193 40.6986 90.5384 41.6853 90.2137 42.3401C88.4781 45.8443 90.225 52.3174 89.2568 56.1457H89.2561Z" fill="black"/>
<path d="M51.5025 30.1527C55.6701 29.8505 59.4819 31.2355 61.731 34.8703C62.0935 35.4561 62.9775 37.1599 62.7635 37.7775C62.6488 38.1088 59.8775 38.8961 59.5031 38.8278C58.6502 38.6721 58.4706 36.9876 57.9173 36.203C56.2433 33.8279 54.0081 33.4687 51.248 33.708C44.439 34.2978 43.6484 43.5395 45.4814 48.6243C47.4602 54.1126 55.7861 54.9535 58.4839 49.6965C59.4785 47.7588 58.8 46.3016 61.8808 47.2923C63.9357 47.953 63.3208 48.9258 62.5507 50.5209C60.3937 54.9906 56.3639 57.045 51.4475 56.7607C36.9759 55.9224 36.5345 31.2388 51.5025 30.1527Z" fill="black"/>
<path d="M118.672 55.049L118.578 62.86C118.251 63.6128 115.31 63.2775 115.139 63.0515C114.679 62.4412 115.056 61.5936 115.049 61.0482C114.959 53.7614 114.681 46.0789 114.854 38.7603C114.864 38.3282 115.095 37.5098 115.561 37.37C116.168 37.1871 117.888 37.2208 118.27 37.8292C118.525 38.2354 118.341 39.2274 118.764 39.0465C119.975 37.5893 121.452 37.0015 123.344 36.9909C132.425 36.9405 134.159 51.3896 127.004 55.656C124.769 56.9886 122.157 57.1854 119.874 55.8468C119.422 55.5818 119.189 55.0808 118.673 55.0483L118.672 55.049ZM122.435 40.2367C118.172 40.8828 117.72 47.7654 119.095 50.9099C120.449 54.0046 124.317 54.3777 126.299 51.7143C128.596 48.6263 128.048 39.3858 122.435 40.2367H122.435Z" fill="black"/>
<path d="M78.4299 54.4764C77.8004 54.3472 77.6122 54.9436 77.1602 55.2073C74.5559 56.7249 70.709 57.5499 68 55.8462C63.6766 53.1278 64.9059 47.2737 69.5553 45.7065C71.0761 45.1936 76.9607 44.8218 77.583 44.2009C78.0641 43.7204 77.7937 41.8643 77.4213 41.3865C76.469 40.1658 72.4094 40.1227 71.1119 40.7847C69.9814 41.3619 69.6626 43.4235 69.1444 43.5799C68.6978 43.7151 66.6441 43.5183 66.3015 43.2565C65.2492 42.4521 67.0875 39.7192 67.8409 39.0412C70.3492 36.7822 76.3239 36.3242 79.1728 38.02C83.4948 40.5926 81.347 49.2266 81.8639 53.6182C81.9521 54.3697 83.0965 55.9953 81.9209 56.3419C80.5975 56.7315 77.9462 56.4346 78.4299 54.4757V54.4764ZM77.858 47.4281C76.8686 47.4513 76.0018 47.9596 75.0449 48.1418C73.1762 48.4977 69.5924 48.22 69.2895 50.782C68.8111 54.8349 76.2629 54.3399 77.522 50.8071C77.8825 49.7965 77.8633 48.4911 77.8574 47.4288L77.858 47.4281Z" fill="black"/>
<path d="M185.61 41.1433L196.682 41.2274C197.762 41.5766 197.689 44.2267 196.957 44.953H185.896L185.609 45.2386V55.7149C185.609 56.5546 182.587 56.597 181.971 56.1112C181.185 55.491 181.62 54.9681 181.614 54.2001C181.557 46.4865 181.553 38.7629 181.703 31.0526L182.18 30.5761L198.439 30.5178C198.676 30.5735 198.891 30.6669 199.042 30.8671C199.285 31.1891 199.383 33.1593 199.265 33.531C199.187 33.7782 198.683 34.2858 198.481 34.2858H185.894L185.608 34.5714V41.1426L185.61 41.1433Z" fill="black"/>
<path d="M152.853 50.3293C153.044 50.1438 154.904 49.7661 155.249 49.7594C156.619 49.7329 156.44 51.0749 157.002 51.9059C158.132 53.5758 160.732 53.7634 162.542 53.2451C164.985 52.546 165.286 49.9894 162.69 49.0822C159.793 48.0689 154.349 47.7668 153.276 44.1989C150.954 36.4853 164.83 34.5284 167.185 40.5932C167.971 42.6184 167.547 42.9868 165.498 43.0551C163.24 43.1306 164.225 41.7211 162.635 40.7563C161.69 40.183 158.812 40.238 157.822 40.7211C156.323 41.4521 156.585 43.2214 158.007 43.8536C159.909 44.6985 162.804 44.894 164.869 45.7628C169.079 47.5342 169.534 52.2226 166.056 55.041C162.937 57.5685 156.591 57.4187 154.06 54.0821C153.575 53.4433 152.198 50.9635 152.852 50.3287L152.853 50.3293Z" fill="black"/>
<path d="M214.262 37.5694C214.677 37.1552 217.782 37.026 217.8 38.2314L217.7 55.764C217.26 56.7222 214.519 56.6129 214.245 55.6732C214.103 55.1855 214.691 54.3584 214.12 54.4731C213.716 54.5539 212.785 55.6261 212.178 55.9635C208.528 57.9926 203.251 56.1464 202.439 51.8595L202.278 38.2831C202.593 37.138 204.36 37.1579 205.309 37.3752C206.072 37.5495 206.156 38.0929 206.217 38.7543C206.576 42.684 205.894 47.1153 206.252 51.1C207.104 54.324 212.352 53.8237 213.451 51.1391C214.968 47.4288 213.314 41.517 214.264 37.5701L214.262 37.5694Z" fill="black"/>
<path d="M225.279 39.2374C225.468 39.4614 226.503 38.2851 226.739 38.1267C230.708 35.4727 236.778 37.4488 237.29 42.5733C237.637 46.0365 237.237 50.4161 237.283 54.0072C237.292 54.7123 237.662 54.9244 237.267 55.6878C236.716 56.7507 233.911 56.701 233.562 55.6301C233.153 51.7137 233.833 47.4228 233.454 43.5481C233.324 42.2188 232.811 40.747 231.289 40.5667C227.186 40.0823 225.906 41.7635 225.651 45.6111C225.434 48.8867 225.86 52.3783 225.622 55.6772C225.325 56.6679 222.34 56.6493 221.939 55.8097L221.849 38.1956C222.55 36.6284 226.071 36.92 225.278 39.2374H225.279Z" fill="black"/>
<path d="M146.323 54.4771C146.134 54.2531 145.098 55.4293 144.862 55.5877C140.687 58.3789 134.79 56.2 134.301 50.9602C133.988 47.6051 134.294 43.1777 134.319 39.7052C134.324 38.9882 133.922 37.8623 134.885 37.4316C135.513 37.1506 137.828 37.1745 138.087 38.0366C138.445 41.9762 137.711 46.4527 138.177 50.3274C138.385 52.0576 139.207 53.2438 141.074 53.3426C144.482 53.5235 145.721 51.6123 145.95 48.4824C146.202 45.0471 145.665 41.3646 146.043 37.908C146.476 36.9273 150.134 36.922 149.766 38.7523L149.754 55.5188C148.952 57.041 145.563 56.8196 146.324 54.4764L146.323 54.4771Z" fill="black"/>
<path d="M89.498 94.8396H0.047984V96H89.498V94.8396Z" fill="black"/>
</svg>
