<svg width="299" height="36" viewBox="0 0 299 36" fill="none" xmlns="http://www.w3.org/2000/svg">
<path d="M229.853 0.119474C218.386 1.17482 211.748 9.64951 212.896 21.1785C214.719 39.5091 243.202 41.1233 248.646 23.7972C252.938 10.1387 244.026 -1.18555 229.853 0.119474ZM243.067 20.2487C242.003 28.2182 234.984 31.9903 227.499 30.1649C215.315 27.1934 217.039 7.20277 229.248 5.43467C239.167 3.99826 244.34 10.7078 243.067 20.2487Z" fill="black"/>
<path d="M189.574 0.119474C178.361 1.15159 171.896 9.01152 172.569 20.338C173.75 40.2117 204.186 40.7989 208.545 23.3842C211.982 9.65242 203.841 -1.19354 189.574 0.119474ZM202.07 23.0808C198.695 33.8738 180.341 32.9948 179.085 20.8816C178.319 13.4833 181.309 6.48275 189.262 5.43321C200.389 3.96488 205.151 13.2249 202.07 23.0808Z" fill="black"/>
<path d="M161.898 0.968685L161.457 1.41289L160.821 14.8442H144.209C143.267 14.0298 144.041 12.7894 144.074 11.7457C144.163 8.92804 144.4 5.54862 144.382 2.84639C144.364 0.0926185 141.973 0.404722 139.785 0.608677C138.104 0.765455 137.735 1.1349 137.58 2.83114C137.216 6.82099 137.752 11.4924 137.606 15.5969C137.398 21.4115 136.604 27.25 136.413 33.0732L137.504 34.9335C140.472 34.7368 142.798 36.3293 143.177 32.4686C143.538 28.7865 143.08 24.4338 143.458 20.6581C143.493 20.5281 144.425 20.1768 144.504 20.1768H160.087C160.137 20.1768 160.605 20.6348 160.671 20.7742L160.095 34.0959C160.529 35.4692 165.823 35.1469 166.269 34.702C166.502 34.3848 166.623 34.0255 166.682 33.6372C167.294 29.6539 166.806 23.6434 166.984 19.4234C167.088 16.9665 167.502 14.1997 167.596 11.745C167.725 8.41199 167.554 5.05216 167.815 1.72136C167.318 -0.0119001 163.293 0.55787 161.9 0.967959L161.898 0.968685Z" fill="black"/>
<path d="M12.9482 17.3606L25.0059 3.45535L25.1554 1.492L19.1169 1.37006L8.39329 13.9703L7.35183 14.2505C7.7295 11.2434 7.58645 8.24505 7.64725 5.21837C7.66871 4.13036 8.50559 2.40218 7.22523 1.48983C6.61079 1.05215 2.47643 1.02893 1.88488 1.48474C1.62738 1.7562 1.48075 2.09734 1.37274 2.45009C0.62383 4.90409 1.29477 11.4045 1.18819 14.4116C1.04728 18.4102 0.789062 22.5191 0.585205 26.5437C0.492217 28.3757 -0.593591 34.0277 0.450015 35.2783C1.20608 36.1841 5.74887 36.2451 6.32396 34.993L7.49775 20.4795L19.2499 35.295C20.8686 36.1304 27.558 36.8649 26.013 33.5145L12.949 17.3606H12.9482Z" fill="black"/>
<path d="M48.1075 0.957798C44.6956 1.24377 41.4647 1.50797 42.029 5.82153C42.3602 8.35029 45.1634 6.55751 46.6741 6.32743C50.1847 5.7925 57.9327 4.9549 57.339 10.5539C57.035 13.4231 48.6311 22.6933 46.3093 25.2184C43.7242 28.0295 37.9225 31.398 40.6971 35.6056L62.3318 35.7355C63.1801 35.2304 63.0957 32.0774 62.5528 31.21C61.4155 30.0611 51.5395 31.6071 49.3915 31.1382C49.3164 30.5887 49.3965 30.2636 49.6719 29.7911C50.2849 28.7372 53.1954 26.3935 54.2476 25.2177C56.8684 22.2911 63.4076 14.723 64.0227 11.0699C65.6579 1.35555 55.0423 0.376414 48.1075 0.957798Z" fill="black"/>
<path d="M131.544 1.23869C128.062 0.301655 124.098 -0.233276 120.481 0.118022C111.313 1.00861 104.632 7.04454 103.788 16.4795C102.469 31.2267 113.895 37.4354 127.082 35.5084C127.849 35.3966 130.449 34.7746 130.811 34.2295C133.155 26.6192 128.514 30.0988 124.475 30.5118C105.673 32.4367 105.886 7.31164 121.008 5.38894C124.71 4.91788 127.673 6.15033 131.215 6.19242C132.446 5.80629 132.251 1.73588 131.545 1.23942L131.544 1.23869Z" fill="black"/>
<path d="M88.0435 12.4853C83.8927 7.73915 88.0435 4.82425 93.0548 5.36136C94.6277 5.52975 98.8487 7.62737 99.1012 4.92514C99.1813 4.06577 98.868 1.53047 98.1834 1.08191C96.8265 0.193507 91.0592 -0.0576269 89.3167 0.117296C82.0272 0.84965 77.1783 7.0968 81.6109 13.9304C84.0651 17.7134 91.3775 21.6038 92.8724 24.801C95.0562 29.471 90.0363 30.9517 86.3218 30.5154C84.7138 30.3267 80.1961 28.0948 79.2262 29.0602C78.4901 29.7925 78.6446 33.1465 79.3664 33.9696C80.1839 34.9023 86.8769 35.9105 88.3532 35.9032C94.7858 35.8727 100.378 32.5245 99.6641 25.3657C99.1055 19.7595 91.3374 16.2516 88.0435 12.4853Z" fill="black"/>
<path d="M293.572 18.0959C290.964 15.6441 280.993 9.61975 287.14 6.00081C290.39 4.08754 293.96 6.56404 297.242 6.1046C298.285 5.59217 298.011 1.8012 296.943 1.0703C290.106 -1.55645 277.408 0.34956 278.795 10.1765C279.642 16.1703 288.339 19.8241 291.362 24.1754C294.627 28.8751 289.172 30.9553 285.121 30.4646C283.524 30.2716 278.837 28.0629 277.909 29.1407C277.447 29.6778 277.749 33.0544 278.11 33.6771C278.571 34.4719 282.245 35.3879 283.299 35.5592C288.621 36.4243 295.931 35.5911 298.056 29.7395C299.96 24.494 297.12 21.4289 293.573 18.0959H293.572Z" fill="black"/>
<path d="M275.042 29.9544H261.518C260.365 28.9368 260.723 26.3137 260.771 24.7575C260.972 18.249 261.497 11.75 261.653 5.20313C261.698 3.29059 263.022 0.895377 260.065 0.604322C258.367 0.437384 255.541 0.190604 255.215 2.27081C254.679 5.68435 255.334 11.001 255.209 14.7078C255.02 20.2567 254.176 26.0886 254.01 31.5701C253.917 34.625 253.984 35.0656 257.097 35.2979C261.115 35.5976 266.328 34.8747 270.644 34.9785C271.868 35.0083 273.098 35.5388 274.448 35.2783C276.562 34.8704 276.605 30.3891 275.042 29.9536V29.9544Z" fill="black"/>
<path d="M32.2231 1.83822C31.7589 2.02185 28.6875 4.0048 28.4972 4.30529C28.0294 5.04635 27.6145 9.12329 28.7053 9.48838L31.4563 8.91788C30.9134 16.4897 30.7353 24.0157 30.5873 31.5962C30.5594 33.0398 29.6359 34.6454 31.0164 35.88H35.7202C36.4533 35.88 36.6858 34.8486 36.7488 34.2556C37.4555 27.6426 36.9962 20.2451 37.3246 13.4993C37.4905 10.0836 38.0813 6.60251 38.2144 3.17155C38.0227 0.967959 33.7302 1.24159 32.2217 1.83895L32.2231 1.83822Z" fill="black"/>
</svg>
