<svg width="569" height="129" viewBox="0 0 569 129" fill="none" xmlns="http://www.w3.org/2000/svg">
<path d="M214.163 79.2083C210.562 81.7419 206.429 83.0754 201.628 83.0754C191.627 83.0754 183.226 75.4746 183.226 65.2068C183.226 53.3389 192.427 42.8045 204.962 42.8045C209.629 42.8045 213.896 44.2713 217.497 47.2049L213.496 52.4055C211.096 50.1386 208.429 48.8051 204.962 48.8051C196.294 48.8051 190.56 56.4059 190.56 65.0735C190.56 71.3408 195.228 77.0747 201.895 77.0747C205.362 77.0747 208.296 76.008 210.562 74.0078L214.163 79.2083Z" fill="black"/>
<path d="M224.831 82.4086H218.03L225.364 40.8043H232.165L224.831 82.4086Z" fill="black"/>
<path d="M262.435 66.2736C262.435 75.2079 255.634 83.0754 246.7 83.0754C238.699 83.0754 233.098 77.7415 233.098 69.874C233.098 60.9397 239.899 53.2056 248.833 53.2056C256.834 53.0722 262.435 58.4061 262.435 66.2736ZM239.899 69.474C239.899 73.7411 242.566 77.0747 246.833 77.0747C252.167 77.0747 255.634 72.2742 255.634 66.5403C255.634 62.2732 252.967 58.9395 248.7 58.9395C243.366 58.9395 239.899 63.74 239.899 69.474Z" fill="black"/>
<path d="M274.302 69.0739C274.169 70.0073 273.902 71.3408 273.902 72.4076C273.902 75.2079 275.236 77.0747 278.17 77.0747C281.237 77.0747 284.037 75.2079 286.17 72.8076L289.504 53.739H296.305L291.238 82.4086H285.104L285.637 78.4082C283.103 81.3419 280.17 83.0754 276.169 83.0754C270.435 83.0754 267.235 79.475 267.235 73.4744C267.235 71.8742 267.502 69.874 267.768 68.1405L270.302 53.739H277.103L274.302 69.0739Z" fill="black"/>
<path d="M319.774 82.4086L320.041 79.6083C317.774 81.8752 314.573 83.0754 311.64 83.0754C305.239 83.0754 299.238 78.1415 299.238 70.1407C299.238 61.3398 305.772 53.2056 314.84 53.2056C318.44 53.2056 321.507 54.8057 323.641 57.206L326.575 40.8043H333.375L326.041 82.4086H319.774ZM320.841 73.6077L322.574 63.8734C320.974 60.8064 318.307 59.0729 315.24 59.0729C309.906 59.0729 306.039 63.74 306.039 69.3406C306.039 74.0078 308.706 77.2081 313.373 77.2081C315.773 77.0747 318.84 76.008 320.841 73.6077Z" fill="black"/>
<path d="M345.11 53.739L344.843 56.5393C347.11 54.2724 350.444 53.0722 353.244 53.0722C359.645 53.0722 365.645 58.0061 365.645 66.0069C365.645 74.8078 359.111 82.942 350.044 82.942C346.443 82.942 343.376 81.3419 341.243 78.9416L338.176 96.2768H331.375L338.843 53.739H345.11ZM344.043 62.5399L342.31 72.2742C343.91 75.3412 346.577 77.0747 349.644 77.0747C354.978 77.0747 358.845 72.4076 358.845 66.807C358.845 62.1398 356.178 58.9395 351.511 58.9395C349.11 58.9395 346.043 60.1396 344.043 62.5399Z" fill="black"/>
<path d="M379.78 57.206C382.18 54.6724 384.981 53.0722 388.714 53.0722C394.448 53.0722 397.649 56.6726 397.649 62.6732C397.649 64.2734 397.382 66.2736 397.115 68.0071L394.582 82.4086H387.781L390.448 67.0737C390.581 66.1403 390.848 64.8068 390.848 63.74C390.848 60.9397 389.515 59.0729 386.581 59.0729C383.514 59.0729 380.714 60.9397 378.58 63.34L375.246 82.4086H368.446L375.78 40.8043H382.581L379.78 57.206Z" fill="black"/>
<path d="M401.249 92.4097L407.516 81.0752L402.049 53.739H409.25L412.45 73.0743H412.584L422.585 53.739H430.052L406.85 95.3433L401.249 92.4097Z" fill="black"/>
<path d="M431.252 74.0078C432.852 76.008 435.386 77.6081 437.92 77.6081C439.92 77.6081 441.92 76.5414 441.92 74.0078C441.92 72.0075 439.253 70.9408 436.453 69.6073C433.786 68.1405 430.986 66.2736 430.986 62.1398C430.986 56.2726 436.319 53.0722 440.987 53.0722C444.587 53.0722 448.454 54.539 450.988 57.0726L446.854 61.0731C445.654 59.7396 443.254 58.2728 441.12 58.2728C439.253 58.2728 437.52 59.4729 437.52 61.3398C437.52 63.4733 440.32 64.4067 443.12 65.8736C445.92 67.3404 448.721 69.3406 448.721 73.6077C448.721 79.7417 443.12 82.8087 437.653 82.8087C433.386 82.8087 429.252 80.9418 426.985 77.2081L431.252 74.0078Z" fill="black"/>
<path d="M452.988 82.4086L458.055 53.739H464.856L459.789 82.4086H452.988ZM458.855 49.0718L459.922 42.8045H466.723L465.656 49.0718H458.855Z" fill="black"/>
<path d="M489.392 61.6065C487.925 59.8729 485.925 58.9395 483.658 58.9395C478.324 58.9395 474.723 63.8734 474.723 69.474C474.723 73.7411 477.524 77.0747 481.658 77.0747C483.791 77.0747 485.525 76.408 487.125 74.9412L490.725 79.6083C487.925 81.7419 484.991 82.942 481.391 82.942C473.39 82.942 467.656 77.6081 467.656 69.7406C467.656 60.8064 474.59 52.9389 483.524 52.9389C487.258 52.9389 490.592 54.0057 493.259 56.6726L489.392 61.6065Z" fill="black"/>
<path d="M494.859 82.4086L499.926 53.739H506.727L501.66 82.4086H494.859ZM500.726 49.0718L501.793 42.8045H508.594L507.527 49.0718H500.726Z" fill="black"/>
<path d="M524.862 53.0722C531.663 53.0722 535.797 56.0059 535.797 62.4065C535.797 63.34 535.663 64.4067 535.53 65.0735L532.463 82.4086H526.462L526.596 80.1417C524.329 82.1419 521.795 83.0754 518.861 83.0754C514.061 83.0754 509.527 80.1417 509.527 74.5411C509.527 67.3404 516.728 64.8068 522.995 64.8068C524.595 64.8068 526.462 64.9401 528.596 65.4735L528.729 64.5401C528.862 64.0067 528.996 63.2066 528.996 62.6732C528.996 59.7396 526.196 58.5395 523.529 58.5395C520.462 58.5395 517.528 59.4729 514.461 61.0731L512.727 56.2726C516.194 54.2724 520.595 53.0722 524.862 53.0722ZM527.929 69.7406C526.196 69.2073 524.595 69.0739 523.262 69.0739C520.462 69.0739 516.194 70.1407 516.194 74.0078C516.194 76.5414 518.328 77.8748 520.462 77.8748C522.862 77.8748 524.862 76.9414 526.862 75.3412L527.929 69.7406Z" fill="black"/>
<path d="M561.933 66.9403C562.066 66.0069 562.333 64.6734 562.333 63.6067C562.333 60.8064 560.999 58.9395 558.065 58.9395C554.998 58.9395 552.198 60.8064 550.065 63.2066L546.731 82.2753H539.93L544.997 53.739H551.131L550.598 57.7394C553.132 54.8057 556.065 53.0722 560.066 53.0722C565.8 53.0722 569 56.6726 569 62.6732C569 64.2734 568.733 66.2736 568.467 68.0071L565.933 82.4086H559.132L561.933 66.9403Z" fill="black"/>
<path d="M73.2147 123.213C69.481 123.213 65.8806 121.879 62.6803 119.479L60.1467 116.946C56.413 112.678 54.6795 107.345 53.0793 102.144C52.2792 99.7438 51.4791 97.3435 50.5457 94.9433C46.4119 85.2089 36.2775 83.2087 26.9432 82.1419C18.9424 81.2085 10.8082 78.4082 11.0749 65.7402L11.2082 60.8064C11.4749 48.5384 22.2761 46.5382 32.0104 44.6713C38.011 43.6046 44.2784 42.4044 47.612 38.8041C51.2124 34.937 53.346 29.8698 55.4795 24.9359C57.3464 20.4021 59.3466 15.8683 62.4136 12.0013L62.5469 11.8679L64.8139 9.46766C68.8143 6.13398 74.0148 4.66716 79.2154 5.46724C84.0159 6.13398 88.0163 8.66758 90.5499 12.4013C90.8166 12.8013 92.0167 14.2682 92.5501 16.6684C93.0835 18.9353 93.4835 21.2022 93.8836 23.3358C94.1503 24.9359 94.417 26.6695 94.817 28.2696L95.7504 32.0034C99.8842 44.8047 109.352 46.1382 120.42 47.7383C122.287 48.005 124.153 48.2717 126.02 48.5384C132.288 49.6052 138.555 54.9391 138.422 62.8066L138.288 67.7404C138.155 75.6079 131.354 81.8752 122.953 81.8752C122.82 81.8752 122.82 81.8752 122.687 81.8752C103.218 81.6085 96.5505 91.743 94.6836 96.1434C93.6169 98.5437 92.9501 101.077 92.2834 103.878C91.75 105.878 91.35 107.878 90.6832 109.745C88.5497 116.012 84.0159 120.546 78.1486 122.279C76.4151 122.946 74.8149 123.213 73.2147 123.213ZM64.8139 117.079C68.2809 119.879 72.8147 120.813 77.0818 119.479C81.8823 118.012 85.7494 114.279 87.4829 108.945C88.1496 107.078 88.5497 105.211 89.0831 103.344C89.7498 100.544 90.4165 97.7436 91.6167 95.0766C93.7502 90.1428 101.218 78.5416 122.553 78.8083C122.687 78.8083 122.687 78.8083 122.82 78.8083C129.354 78.8083 134.821 73.8744 134.955 67.7404L135.088 62.8066C135.221 56.6726 130.287 52.5388 125.354 51.7388C123.487 51.4721 121.62 51.2054 119.886 50.9387C108.818 49.3385 97.3506 47.7383 92.6834 32.9368L91.6167 29.0697C91.2166 27.3362 90.9499 25.6027 90.6832 24.0025C90.2832 21.869 89.8831 19.6021 89.3498 17.6018C88.8164 15.735 87.8829 14.5349 87.8829 14.5349L87.7496 14.4015C85.7494 11.3345 82.549 9.33431 78.5486 8.80092C74.2815 8.13419 69.8811 9.46766 66.6807 12.0013L64.5471 14.1348C61.8802 17.6018 60.0133 21.7356 58.1465 26.2694C56.0129 31.47 53.746 36.8039 49.7456 41.071C45.7452 45.3381 38.9445 46.6716 32.4105 47.8717C22.8094 49.6052 14.4086 51.2054 14.2752 60.9397V65.8736C14.1419 75.4746 19.2091 78.0082 27.3433 79.075C38.2777 80.4084 48.9455 83.0754 53.4793 93.8765C54.5461 96.2767 55.3462 98.8104 56.1463 101.344C57.7464 106.411 59.3466 111.078 62.5469 114.945L64.8139 117.079Z" fill="black"/>
<path d="M61.0801 122.279C57.4797 122.279 54.0127 121.079 51.2124 118.679L48.8122 116.412C45.2118 112.278 43.4783 106.945 41.8781 101.877C41.078 99.4771 40.2779 96.9435 39.3445 94.6766C35.0774 84.5422 24.543 82.4086 15.0753 81.2085C7.07446 80.2751 -0.259638 77.7415 0.00705618 65.7402C0.140403 60.8064 0.140407 60.8064 0.140407 60.8064C0.273754 49.3385 10.4081 47.4716 20.1425 45.6048C26.4098 44.4047 32.8105 43.2045 36.1442 39.4708C39.7446 35.4704 42.0115 30.2698 44.145 25.336C46.0119 20.9355 48.0121 16.4017 50.9457 12.668L53.2126 10.4011C56.9464 7.3341 62.0136 5.86728 66.9474 6.53402C71.4812 7.20075 75.2149 9.46766 77.6152 13.068C77.6152 13.068 78.8153 14.5349 79.4821 16.9351C80.0154 19.0687 80.4155 21.3356 80.8155 23.6025C81.0822 25.2026 81.3489 26.9362 81.749 28.5363L82.6824 32.27C86.9495 45.6048 97.2172 47.0716 108.018 48.6718C109.885 48.9385 111.752 49.2052 113.619 49.4719C119.486 50.5386 125.354 55.4725 125.22 62.8066L125.087 67.7404C124.953 75.2079 118.419 81.0752 110.419 80.9418C90.4165 80.5418 83.6158 91.2096 81.6156 95.7434C80.5488 98.277 79.8821 100.944 79.2154 103.611C78.682 105.478 78.2819 107.478 77.6152 109.478C75.615 115.479 71.2145 119.746 65.6139 121.346C64.1471 122.146 62.6803 122.279 61.0801 122.279ZM64.2805 7.86749C60.5467 7.86749 56.813 9.20096 54.0127 11.4679L51.7458 13.7348C48.9455 17.2018 47.0787 21.4689 45.2118 26.0027C43.0782 31.0699 40.8113 36.4038 36.9443 40.5376C33.2105 44.6713 26.5432 45.8715 20.1425 47.0716C10.5415 48.8051 1.47388 50.5386 1.20718 60.9397C1.20718 61.0731 1.07383 65.8736 1.07383 65.8736C0.940486 76.1413 6.54108 78.9416 14.942 80.0084C25.6097 81.3419 36.0108 83.8755 40.4113 94.2765C41.4781 96.6768 42.2782 99.2104 43.0782 101.611C44.6784 106.811 46.2786 111.612 49.7456 115.612L52.0125 117.879C55.7462 120.813 60.5467 121.746 65.0805 120.546C70.1477 119.079 74.2815 115.079 76.1484 109.478C76.8151 107.611 77.2151 105.611 77.7485 103.744C78.4153 101.077 79.082 98.277 80.2821 95.61C82.4157 90.8095 89.6164 79.6083 110.419 79.875C110.552 79.875 110.552 79.875 110.685 79.875C117.753 79.875 123.62 74.5411 123.753 68.0071L123.887 63.0733C124.02 56.4059 118.686 52.0054 113.352 51.072C111.485 50.8053 109.619 50.5386 107.885 50.2719C97.0839 48.6718 85.8827 47.2049 81.3489 32.9368L80.2821 29.0697C79.8821 27.3362 79.6154 25.736 79.3487 24.0025C78.9487 21.869 78.5486 19.6021 78.0152 17.4685C77.4818 15.3349 76.4151 14.0015 76.4151 14.0015C74.1482 10.6678 70.6811 8.53423 66.5474 8.00084C65.7473 7.86749 64.9472 7.86749 64.2805 7.86749Z" fill="black"/>
<path d="M81.6156 128.947H75.7483C70.8145 128.947 66.414 126.947 63.6137 123.48C60.9468 120.146 59.88 115.879 60.8134 111.478L64.6805 92.143C65.0805 90.1428 64.6805 88.1426 63.4804 86.6758C62.1469 85.0756 60.1467 84.2755 57.7464 84.2755L35.6108 84.0088C30.6769 84.0088 26.2765 82.0086 23.4762 78.5416C20.8092 75.2079 19.7425 70.9408 20.6759 66.5403L21.7427 61.2064C23.6095 52.1388 32.5438 45.0714 42.1448 45.0714C42.1448 45.0714 42.1448 45.0714 42.2782 45.0714L64.4138 45.2047C69.6143 45.2047 74.8149 41.2043 75.7483 36.2705L79.7487 16.135C81.6156 7.06741 90.5499 0 100.151 0C100.151 0 100.151 0 100.284 0H106.152C111.085 0 115.486 2.00021 118.286 5.46724C120.953 8.80092 122.02 13.068 121.086 17.4685L117.086 37.6039C116.686 39.6042 117.086 41.6044 118.286 43.0712C119.62 44.6713 121.62 45.4714 124.02 45.4714L146.156 45.6048C151.09 45.6048 155.49 47.605 158.29 51.072C160.957 54.4057 162.024 58.6728 161.091 63.0733L160.024 68.4072C158.157 77.4748 149.223 84.5422 139.622 84.5422C139.622 84.5422 139.622 84.5422 139.488 84.5422L117.219 84.4088C112.019 84.4088 106.818 88.4093 105.885 93.3431L102.018 112.678C100.151 121.879 91.2166 128.947 81.6156 128.947ZM57.6131 78.2749C61.7469 78.2749 65.6139 80.0084 67.8808 82.942C70.1477 85.7423 71.0812 89.476 70.2811 93.2098L66.414 112.545C65.8806 115.212 66.414 117.746 68.0142 119.746C69.7477 121.879 72.4146 122.946 75.615 122.946H81.4823C88.1496 122.946 94.817 117.746 96.0171 111.478L99.8842 92.143C101.351 84.4089 108.952 78.4082 117.086 78.4082C117.086 78.4082 117.086 78.4082 117.219 78.4082L139.355 78.5416C146.022 78.5416 152.69 73.341 153.89 67.0737L154.957 61.7398C155.49 59.0729 154.957 56.5393 153.356 54.539C151.623 52.4055 148.956 51.3387 145.756 51.3387L123.62 51.2054C119.486 51.2054 115.619 49.4718 113.352 46.5382C111.085 43.7379 110.152 40.0042 110.952 36.2705L114.952 16.135C115.486 13.4681 114.952 10.9345 113.352 8.93427C111.619 6.80071 108.952 5.73393 105.751 5.73393H99.8842C93.2168 5.73393 86.5495 10.9345 85.3493 17.2018L81.3489 37.3372C79.8821 45.0714 72.4146 51.072 64.2805 51.072C64.2805 51.072 64.2805 51.072 64.1471 51.072L42.0115 50.9387C35.3441 50.9387 28.6767 56.1392 27.4766 62.4065L26.4098 67.7404C25.8764 70.4074 26.4098 72.941 28.01 74.9412C29.7435 77.0747 32.4105 78.1415 35.6108 78.1415L57.6131 78.2749Z" fill="black"/>
</svg>
