<svg width="684" height="78" viewBox="0 0 684 78" fill="none" xmlns="http://www.w3.org/2000/svg">
<path d="M416.268 28.6895C408.24 22.9386 387.92 23.8252 378.359 25.4786C376.107 25.862 373.879 26.8684 374.717 29.5522C375.963 33.5778 385.524 30.7982 388.903 30.6784C393.504 30.5346 408.935 30.319 411.93 33.6018C414.902 36.8367 411.93 41.5093 409.247 43.9295C392.234 59.2413 347.856 51.3577 349.126 25.6703C350.204 3.74494 390.101 4.58361 404.862 10.0949C407.857 11.2211 409.774 14.0247 413.416 12.8026C415.621 12.0598 415.716 9.56774 414.399 7.93832C413.057 6.30889 405.125 3.40947 402.801 2.76249C385.86 -1.76636 359.837 -1.31107 347.4 12.7307C335.803 25.838 343.087 40.8144 355.715 49.7043C371.219 60.6311 398.272 61.1343 413.368 49.1293C419.862 43.9534 424.63 34.6082 416.315 28.6416L416.268 28.6895Z" fill="black"/>
<path d="M126.469 42.0842C127.571 55.5509 139.816 61.7571 150.839 53.61C152.372 52.4598 158.123 44.7679 159.369 45.966C158.171 52.5077 158.459 58.1628 154.769 63.9856C149.473 72.3484 141.781 73.211 132.699 70.4793C130.279 69.7365 125.391 65.9984 122.971 68.4186C117.963 73.4027 133.035 77.3565 136.078 77.6919C156.925 79.9923 165.959 65.9265 166.462 46.8766C166.582 42.0362 166.175 32.7868 165.12 28.1861C160.424 7.50678 124.361 16.5165 126.445 42.0842H126.469ZM157.5 32.6191C157.069 34.2725 153.187 40.6944 151.989 42.3957C133.418 68.8259 124.648 25.3586 148.083 23.2259C154.289 22.6509 159.249 25.8618 157.5 32.6191Z" fill="black"/>
<path d="M47.5619 3.26567C39.1033 0.917377 14.2066 0.294361 5.36455 1.37266C-1.96787 2.28322 0.859662 8.96866 0.931548 13.9528C1.0274 20.2309 1.00343 26.5329 0.931548 32.811C0.859662 39.3287 -0.60203 46.8528 0.28457 53.3705C0.644002 56.0064 2.32135 56.3898 4.69361 56.6054C14.3024 57.4681 31.5312 57.2764 41.2838 56.6054C43.7998 56.4377 50.653 56.0543 49.7185 52.2922C48.8319 48.7219 43.9676 50.1356 41.8589 50.1356C31.7708 50.1356 21.8026 50.7826 11.7864 50.2315C10.2049 50.1356 8.50359 51.8609 7.66491 49.0094C8.71925 44.4326 7.13775 38.3223 7.95246 33.9612C8.09623 33.2184 8.38378 32.5235 9.10264 32.188C10.5164 31.4931 19.4783 31.8286 21.8026 31.8765C28.0567 32.0203 34.862 33.3142 41.164 32.4276C46.6274 31.6608 46.1002 26.5329 41.8349 25.9818C32.4178 24.7597 19.9335 27.2997 10.5404 26.0297C9.65377 25.9099 8.16812 25.4546 7.9285 24.5201V7.79451C14.7337 7.00376 22.5214 6.85999 29.4225 7.21942C31.7948 7.33923 35.2933 7.57886 37.5936 7.8664C40.6368 8.2498 50.054 11.317 51.9709 9.42394C54.9902 6.42867 50.006 3.96057 47.514 3.26567H47.5619Z" fill="black"/>
<path d="M276.137 18.7212C273.549 20.111 272.351 22.9145 269.595 23.0583L269.787 3.16972C268.541 -0.999697 263.293 -1.16743 262.55 3.40934C263.581 19.1045 261.089 36.7167 262.478 52.1723C262.694 54.5446 263.82 57.3481 266.648 56.9168C271.8 56.1261 269.811 48.8655 270.17 45.1035C271.177 34.9196 274.699 21.0455 287.878 23.3219C293.485 24.3043 298.661 30.2949 299.476 35.8541C300.506 42.9709 298.206 47.7633 295.043 53.8257C296.361 57.0127 298.661 58.1868 301.441 55.6948C304.7 52.7953 307.36 43.498 307.36 39.2088C307.36 24.0887 290.298 11.1252 276.137 18.6972V18.7212Z" fill="black"/>
<path d="M590.137 36.2855C590.137 35.327 597.877 31.2295 599.267 30.1272C602.046 27.8988 609.355 20.6862 603.676 18.0743C599.602 16.2052 598.859 20.6143 597.206 22.7709C596.175 24.1127 593.3 26.4371 591.862 27.4435C590.377 28.4739 581.031 33.9372 580.121 33.0746C580.552 24.9514 580.528 16.8043 580.672 8.65716C580.696 7.07566 581.415 5.63793 581.319 3.98454C581.007 -1.19129 574.466 -1.1194 573.651 3.98454C572.74 9.73546 573.268 17.9545 573.052 23.945C572.692 33.1704 571.351 44.1211 572.429 53.3226C573.028 58.4745 579.306 58.1869 580.097 54.4968C580.911 50.6628 579.498 44.2649 580.097 40.0955C580.935 40.0476 581.774 40.0715 582.613 40.2393C586.255 41.0061 600.345 47.7634 603.388 50.0877C604.874 51.2379 608.66 56.222 609.379 56.4377C612.062 57.2764 614.315 56.2939 614.315 53.3226C614.291 46.0381 595.72 39.1131 590.137 36.2855Z" fill="black"/>
<path d="M250.162 37.4596C242.806 31.6847 232.909 36.1896 225.074 33.0984C220.401 31.2534 217.717 27.1319 223.468 24.3762C229.722 21.381 238.732 23.8491 244.651 26.4849C247.238 27.6351 249.659 31.0377 252.798 27.7789C254.475 24.3762 251.025 22.8906 248.556 21.4289C242.877 18.0742 234.802 16.3968 228.237 16.7802C219.323 17.2834 208.3 23.9689 214.89 33.8413C220.521 42.2999 230.968 39.4484 239.259 40.0954C241.967 40.3111 248.149 41.8207 247.095 45.5588C245.226 52.2202 230.968 51.0701 225.84 49.3448C222.629 48.2665 217.573 43.2105 214.506 46.5891C211.727 49.6563 217.573 52.4599 219.874 53.5382C227.829 57.2044 239.69 58.5942 247.598 54.3289C255.074 50.3033 257.518 43.2105 250.138 37.4596H250.162Z" fill="black"/>
<path d="M105.79 21.5967C95.4622 13.0662 80.5338 15.726 72.4825 26.0057C70.3259 23.1063 68.3131 15.1988 63.1852 16.7324C58.1532 18.218 62.682 22.2197 63.4728 23.8252C65.1501 27.2278 66.3722 35.4228 66.3482 39.2328C66.3243 43.3304 62.3945 55.2875 68.5048 56.4856C74.7589 57.7076 73.1055 46.0141 73.3691 42.7792C74.3755 30.7982 83.8406 19.3682 96.9239 23.9929C110.127 28.6416 106.796 44.6243 99.9192 53.3465C103.202 61.7573 108.33 53.8977 110.606 49.3449C115.614 39.3047 114.704 28.977 105.79 21.6206V21.5967Z" fill="black"/>
<path d="M469.296 38.6816C469.248 34.2486 471.404 22.2675 468.745 19.2483C467.307 17.6189 464.503 17.4512 462.994 19.1045C460.789 21.5008 462.107 32.5952 461.604 36.2375C460.406 45.0076 447.778 56.9408 439.894 48.578C436.06 44.5044 435.797 36.9084 436.324 31.5888C436.683 27.8747 441.044 19.9432 437.738 17.8345C432.154 14.2642 430.046 24.5439 429.399 28.2102C426.811 43.0188 431.316 59.1213 449.503 57.0606C454.679 56.4855 461.796 50.0636 462.538 50.0636C464.216 50.0636 464 52.5557 464.695 53.8257C466.324 56.773 471.764 60.9425 473.729 56.5334C474.879 53.9695 472.411 52.8912 471.548 51.094C470.039 47.955 469.32 42.1801 469.296 38.6577V38.6816Z" fill="black"/>
<path d="M561.262 22.7707C560.711 18.146 555.775 15.8935 554.026 19.6795C551.582 24.9033 554.242 33.4817 551.27 40.4308C548.491 46.9485 538.45 55.455 531.789 49.2488C525.679 43.5698 527.092 33.961 528.554 26.5806C528.842 25.095 530.567 21.1652 530.519 20.5182C530.327 18.4575 527.859 16.876 525.775 17.3073C523.354 17.8105 522.659 20.3265 521.965 22.3633C516.813 37.5793 519.88 59.2411 540.343 57.1563C545.855 56.5813 549.689 52.6275 553.882 49.5364C555.2 52.6275 559.345 61.206 563.659 57.5158C566.846 54.7841 563.179 52.7233 562.197 50.6626C558.651 43.1625 562.221 30.798 561.262 22.7946V22.7707Z" fill="black"/>
<path d="M663.15 36.8844C663.197 30.9657 667.343 22.3633 660.993 17.8824C657.878 17.3552 656.536 20.1588 656.177 22.8426C655.362 28.6654 656.752 33.961 654.643 39.5202C651.911 46.7568 642.422 55.3352 634.898 49.2249C630.681 45.7983 629.89 39.0649 630.202 33.937C630.417 30.3906 633.484 21.908 633.149 19.8712C632.694 17.0916 629.363 16.4447 627.278 18.122C624.882 20.039 622.51 32.9785 622.486 36.2853C622.342 51.3815 635.018 62.3082 649.659 55.1196C652.678 53.6339 654.236 51.1658 656.991 49.5124C657.423 49.6083 659.364 55.2394 660.418 56.3896C662.047 58.1148 665.785 59.4328 667.343 56.8928C669.332 53.6339 666.169 53.0828 665.234 50.6866C664.18 48.0028 663.102 39.8317 663.126 36.8604L663.15 36.8844Z" fill="black"/>
<path d="M506.317 17.3074C503.705 17.6668 499.081 19.9193 496.852 21.4049C495.486 22.3155 491.341 26.6047 490.862 26.6047C488.681 26.6047 489.64 22.9385 489.112 21.2611C488.657 19.7515 486.572 18.0023 484.967 17.8106C479.552 17.8106 482.739 28.8811 482.906 32.1639C483.146 37.3397 482.906 44.0252 482.283 49.177C482.139 50.3991 481.109 51.3097 481.109 52.7234C481.061 57.0846 486.956 58.5462 488.945 54.6404C490.263 42.7312 493.186 29.0249 505.551 24.2085C507.252 23.5375 510.583 23.7292 511.469 21.8842C513.075 18.5534 509.073 16.924 506.317 17.3074Z" fill="black"/>
<path d="M178.084 0.270193C177.101 0.557739 176.239 1.97151 176.023 2.92999C175.664 4.6313 175.496 8.39336 175.304 10.4541C174.202 23.8969 174.897 37.5553 174.106 51.022C173.747 55.1196 177.844 59.4807 181.223 55.7186C183.284 53.4182 181.798 52.2201 181.774 49.8479C181.63 39.5202 182.061 28.4736 182.397 18.098C182.541 14.0724 183.739 8.44129 183.619 4.58338C183.523 1.20472 181.558 -0.784142 178.084 0.294155V0.270193Z" fill="black"/>
<path d="M683.733 0.821277L678.509 0.437883C677.551 1.63599 676.904 3.00183 676.736 4.53541C675.921 11.5084 676.425 19.2721 676.185 26.317C675.897 34.7996 674.579 44.2407 675.562 52.7473C675.969 56.3176 678.629 58.2346 681.768 55.9582C685.482 53.2744 682.966 52.4357 682.607 49.2488C681.984 43.6896 683.637 38.993 683.853 33.9609C684.308 22.9623 683.541 11.8199 683.757 0.821277H683.733Z" fill="black"/>
<path d="M200.608 20.4703C200.536 18.3856 198.308 16.9958 196.343 17.3073C194.666 17.5709 193.276 19.416 193.012 21.0454C191.79 28.8811 193.659 39.7359 192.988 48.0508C192.773 50.5908 189.681 56.8209 195.097 57.1564C199.722 57.4439 200.44 50.2553 200.68 46.9006C201.279 38.3461 200.225 29.0967 200.608 20.4703Z" fill="black"/>
<path d="M192.389 6.90793C187.549 13.6892 198.643 16.996 203.412 11.7243C208.228 6.38077 197.445 -0.184863 192.389 6.90793Z" fill="black"/>
</svg>
