<svg width="650" height="186" viewBox="0 0 650 186" fill="none" xmlns="http://www.w3.org/2000/svg">
<path d="M0 35.1209H22.3862V185.981L57.5641 150.661V35.1209H91.9432V116.538L127.121 81.2172V35.1209H150.308V0H0V35.1209Z" fill="black"/>
<path d="M199.875 0H196.047V186H199.875V0Z" fill="black"/>
<path d="M534.87 104.166H479.704V117.336H499.093L499.692 117.934V173.21H514.882V117.934L515.483 117.336H534.87V104.166Z" fill="black"/>
<path d="M620.417 159.641V104.166H605.227V172.612C605.227 172.733 604.721 172.918 604.828 173.21H650V159.641H620.417Z" fill="black"/>
<path d="M553.843 104.137L523.676 173.21H540.066L546.726 158.507L575.689 158.679L581.64 173.21H598.429L568.658 104.553L553.839 104.137H553.843ZM552.46 144.873L561.25 124.919L569.65 144.873H552.46Z" fill="black"/>
<path d="M469.311 104.166H453.72V173.21H469.311V104.166Z" fill="black"/>
<path d="M339.974 104.139L309.808 173.21H325.998L332.857 158.508L361.82 158.679L367.771 173.21H384.56L354.79 104.553L339.971 104.139H339.974ZM338.591 144.873L347.38 124.919L355.78 144.873H338.591Z" fill="black"/>
<path d="M390.96 104.166V173.21H406.551C406.657 172.918 406.151 172.733 406.151 172.612V154.651C406.502 154.082 406.948 154.1 407.531 154.033C418.3 152.771 430.03 155.958 439.335 147.472C448.075 139.501 448.038 119.392 439.689 111.191C428.769 100.466 404.939 105.3 390.961 104.166H390.96ZM425.872 138.822C425.256 139.221 422.067 140.484 421.541 140.484H406.149V117.934L406.749 117.336H417.941C420.055 117.336 424.993 118.8 426.733 120.131C431.653 123.896 430.946 135.533 425.87 138.822H425.872Z" fill="black"/>
<path d="M298.678 126.438H299.753L308.513 116.742C296.158 101.1 271.47 99.6053 256.637 112.74C239.988 127.481 241.395 155.608 260.115 167.947C275.115 177.833 297.057 175.069 308.183 160.693L298.416 150.862C285.641 167.067 259.795 160.093 260.626 137.871C261.381 117.681 286.975 111.764 298.68 126.438H298.678Z" fill="black"/>
<path d="M435.331 57.4707L401.952 11.973H387.361V81.8158H402.551V41.1083L434.732 81.8158H450.523V11.973H435.331V57.4707Z" fill="black"/>
<path d="M341.447 81.8039C360.736 81.8039 376.372 66.1922 376.372 46.935C376.372 27.6777 360.736 12.066 341.447 12.066C322.157 12.066 306.521 27.6777 306.521 46.935C306.521 66.1922 322.157 81.8039 341.447 81.8039ZM341.435 26.2692C352.859 26.2692 362.12 35.5149 362.12 46.9214C362.12 58.328 352.859 67.5737 341.435 67.5737C330.011 67.5737 320.749 58.328 320.749 46.9214C320.749 35.5149 330.011 26.2692 341.435 26.2692Z" fill="black"/>
<path d="M514.882 67.4485H480.902V53.4803H510.685L511.284 52.8817V40.3102H480.902V25.9429H514.882C514.989 25.6504 514.483 25.4661 514.483 25.3443V11.9747H464.914V81.8175H514.882V67.4485Z" fill="black"/>
<path d="M560.854 81.8158H576.044V67.4485H587.638V52.6822H576.044V41.1083H561.454L560.854 41.7068V52.6822H544.465L572.448 24.1455V11.973H563.452L526.076 49.2887V67.4485H560.854V81.8158Z" fill="black"/>
<path d="M294.577 55.7173C293.409 45.239 284.228 40.109 274.633 38.9152L289.821 23.7482V11.9747H248.647V23.5487H270.234L268.654 25.7535L254.244 40.5114V52.2849C260.625 50.9508 277.463 48.5413 279.555 57.1478C282.385 68.7945 267.948 70.7711 259.846 67.6447C258.352 67.0681 257.191 65.9893 255.699 65.5125C252.993 68.1942 247.924 71.789 245.839 74.8241C245.609 75.1589 245.292 75.2434 245.452 75.8234C263.61 87.377 297.673 83.5083 294.577 55.7173Z" fill="black"/>
</svg>
