<svg width="426" height="99" viewBox="0 0 426 99" fill="none" xmlns="http://www.w3.org/2000/svg">
<path d="M412.491 66.6394C410.579 67.1029 408.571 66.9327 406.763 66.154C405.908 65.8222 405.13 65.3162 404.477 64.6676C403.825 64.0191 403.312 63.2418 402.971 62.3845L421.894 58.0264C422.533 57.8798 423.137 57.6078 423.672 57.2257C424.206 56.8437 424.661 56.3592 425.009 55.7999C425.358 55.2406 425.593 54.6176 425.702 53.9664C425.811 53.3153 425.793 52.6488 425.646 52.0052C425.269 49.8677 424.422 47.8425 423.166 46.079C421.909 44.3155 420.276 42.8585 418.387 41.8157C414.589 39.7948 410.18 39.2707 406.019 40.3453C401.666 41.2845 397.848 43.8981 395.378 47.6303C394.078 49.5951 393.214 51.8192 392.844 54.151C392.474 56.4829 392.608 58.8677 393.235 61.1429C393.649 63.4637 394.546 65.6698 395.867 67.6156C397.188 69.5615 398.903 71.203 400.9 72.4318C404.935 74.7858 409.731 75.4319 414.238 74.2285C416.64 73.7001 418.916 72.6994 420.934 71.2837C422.952 69.868 424.674 68.0651 426 65.9781L420.09 61.8878C420.032 61.8483 419.968 61.8206 419.9 61.8064C419.832 61.7922 419.762 61.7917 419.694 61.805C419.626 61.8182 419.56 61.8449 419.502 61.8836C419.445 61.9222 419.394 61.972 419.356 62.0302C418.569 63.2162 417.558 64.2338 416.379 65.0247C415.201 65.8157 413.88 66.3644 412.491 66.6394ZM403.322 50.6995C404.504 49.2928 406.109 48.3131 407.893 47.9093C409.55 47.4794 411.306 47.6707 412.834 48.4478C413.608 48.8718 414.29 49.4465 414.841 50.1387C415.392 50.8308 415.802 51.6266 416.046 52.4796L401.725 55.7775C401.62 54.8665 401.708 53.9433 401.983 53.069C402.257 52.1946 402.713 51.3889 403.319 50.705L403.322 50.6995Z" fill="black"/>
<path d="M377.888 66.6395C375.977 67.103 373.968 66.9328 372.16 66.154C371.306 65.8221 370.527 65.3159 369.875 64.6674C369.223 64.0188 368.712 63.2417 368.371 62.3845L387.295 58.0263C387.933 57.8798 388.537 57.6078 389.071 57.2258C389.606 56.8437 390.06 56.3592 390.409 55.7999C390.757 55.2406 390.993 54.6176 391.102 53.9665C391.211 53.3153 391.192 52.6489 391.045 52.0053C390.67 49.8673 389.823 47.8416 388.566 46.078C387.31 44.3143 385.677 42.8576 383.787 41.8157C379.988 39.7954 375.579 39.2713 371.418 40.3454C367.066 41.2853 363.25 43.8988 360.78 47.6304C359.48 49.5955 358.616 51.8201 358.246 54.1524C357.876 56.4848 358.01 58.8701 358.637 61.1457C359.051 63.4668 359.949 65.6731 361.271 67.619C362.592 69.5649 364.308 71.2062 366.306 72.4345C370.34 74.7878 375.134 75.434 379.64 74.2314C382.042 73.7028 384.318 72.702 386.336 71.2863C388.355 69.8706 390.076 68.0679 391.402 65.981L385.492 61.8907C385.435 61.8507 385.37 61.8227 385.302 61.8083C385.233 61.7938 385.163 61.7931 385.095 61.8064C385.026 61.8196 384.961 61.8465 384.903 61.8854C384.845 61.9243 384.795 61.9744 384.756 62.033C383.969 63.2188 382.956 64.2362 381.778 65.0268C380.599 65.8173 379.278 66.3653 377.888 66.6395ZM368.72 50.7023C369.901 49.2954 371.505 48.3157 373.29 47.9121C374.947 47.4822 376.703 47.6736 378.231 48.4507C379.004 48.8747 379.687 49.4494 380.238 50.1416C380.789 50.8337 381.199 51.6294 381.442 52.4824L367.122 55.7803C367.017 54.8675 367.105 53.9426 367.381 53.0667C367.657 52.1908 368.114 51.384 368.722 50.6995L368.72 50.7023Z" fill="black"/>
<path d="M352.431 55.2168C350.749 53.3035 348.482 52.0095 345.989 51.5393C346.736 51.2045 347.255 50.9636 347.545 50.8167C348.092 50.4929 348.612 50.1253 349.1 49.7174C350.225 48.8041 351.113 47.6292 351.688 46.2936C352.263 44.9581 352.507 43.5019 352.401 42.0501C352.407 39.2163 351.363 36.4822 349.474 34.3829C348.143 33.0133 346.481 32.0169 344.652 31.4923C342.183 30.7311 339.61 30.3705 337.029 30.4237H320.765C320.677 30.4237 320.589 30.4412 320.508 30.4751C320.427 30.5091 320.353 30.5588 320.291 30.6215C320.229 30.6842 320.18 30.7586 320.146 30.8405C320.112 30.9224 320.095 31.0103 320.095 31.0989V74.3459H339.141C345.116 74.3459 349.307 72.9843 351.714 70.2611C353.735 68.0545 354.848 65.1561 354.828 62.153C354.906 59.6219 354.052 57.1512 352.431 55.2168ZM329.806 38.7215H334.476C336.55 38.5855 338.628 38.9074 340.566 39.6646C341.204 40.0652 341.714 40.6429 342.034 41.3284C342.354 42.0139 342.471 42.778 342.371 43.5289C342.475 44.2892 342.342 45.0633 341.991 45.7444C341.64 46.4254 341.088 46.9801 340.411 47.3319C338.485 48.0193 336.444 48.3179 334.404 48.2107H329.798L329.806 38.7215ZM342.722 65.0212C340.738 65.8223 338.604 66.1765 336.469 66.0592H329.808V55.9422H335.536C337.931 55.812 340.329 56.1425 342.601 56.9159C343.343 57.2668 343.956 57.8444 344.353 58.5667C344.751 59.289 344.913 60.1192 344.816 60.9393C344.911 61.752 344.764 62.5751 344.393 63.3029C344.021 64.0307 343.442 64.63 342.731 65.024L342.722 65.0212Z" fill="black"/>
<path d="M313.343 72.4039C312.217 73.2116 310.946 73.7898 309.601 74.1059C308.074 74.4865 306.506 74.6738 304.933 74.6639C301.36 74.8941 297.836 73.7224 295.1 71.3938C293.882 70.1288 292.942 68.6186 292.343 66.9621C291.744 65.3057 291.499 63.5404 291.623 61.7818V47.0333H288.595V39.0228H291.623V30.5715C291.623 30.4975 291.652 30.4265 291.704 30.3742C291.756 30.3219 291.827 30.2925 291.9 30.2925H301.65C301.724 30.2925 301.794 30.3219 301.845 30.3742C301.897 30.4265 301.927 30.4975 301.927 30.5715V39.0228H310.802V47.0333H301.949V61.6507C301.867 62.9266 302.283 64.1843 303.109 65.1551C303.538 65.5813 304.052 65.9115 304.617 66.1245C305.182 66.3374 305.785 66.4283 306.386 66.3911C307.887 66.4342 309.357 65.9642 310.558 65.0575L313.343 72.4039Z" fill="black"/>
<path d="M273.518 31.7127C272.955 31.1837 272.505 30.5432 272.197 29.8314C271.89 29.1195 271.731 28.3514 271.731 27.5749C271.731 26.7985 271.89 26.0304 272.197 25.3185C272.505 24.6066 272.955 23.9662 273.518 23.4372C274.79 22.2931 276.453 21.6927 278.155 21.7631C279.845 21.6892 281.5 22.2612 282.789 23.3646C283.362 23.8574 283.82 24.4721 284.129 25.1644C284.438 25.8567 284.591 26.6094 284.578 27.3685C284.6 28.1729 284.452 28.9729 284.144 29.7152C283.835 30.4575 283.374 31.1251 282.789 31.6736C281.528 32.8352 279.862 33.447 278.155 33.3756C276.454 33.45 274.791 32.8535 273.518 31.7127ZM273.281 38.3867H283.03C283.104 38.3867 283.174 38.4161 283.226 38.4684C283.278 38.5207 283.307 38.5917 283.307 38.6657V74.2816H272.979V38.6796C272.979 38.6429 272.986 38.6066 273 38.5728C273.014 38.5389 273.034 38.5082 273.06 38.4823C273.086 38.4564 273.116 38.4359 273.149 38.4218C273.183 38.4078 273.219 38.4006 273.256 38.4006L273.281 38.3867Z" fill="black"/>
<path d="M265.698 25.22V74.2844H255.832V70.155C254.557 71.7221 252.93 72.9623 251.088 73.7742C249.245 74.586 247.237 74.9463 245.23 74.8257C242.131 74.869 239.073 74.107 236.352 72.6131C233.718 71.1524 231.556 68.961 230.12 66.299C228.635 63.3554 227.861 60.0997 227.861 56.7973C227.861 53.4948 228.635 50.2392 230.12 47.2956C231.556 44.6337 233.718 42.4425 236.352 40.9815C239.074 39.4882 242.131 38.7262 245.23 38.7689C247.117 38.6314 249.012 38.9293 250.768 39.64C252.525 40.3507 254.097 41.4554 255.367 42.8703V25.2172C255.367 25.0981 255.414 24.9839 255.498 24.8996C255.581 24.8154 255.694 24.7681 255.813 24.7681H265.25C265.309 24.7677 265.367 24.7791 265.422 24.8017C265.476 24.8243 265.526 24.8576 265.568 24.8996C265.61 24.9417 265.642 24.9917 265.665 25.0467C265.687 25.1017 265.699 25.1606 265.698 25.22ZM252.798 64.2176C254.452 62.1721 255.355 59.6144 255.355 56.9758C255.355 54.3373 254.452 51.7796 252.798 49.7341C251.951 48.8773 250.945 48.1973 249.837 47.7334C248.729 47.2695 247.541 47.0307 246.341 47.0307C245.141 47.0307 243.953 47.2695 242.845 47.7334C241.737 48.1973 240.731 48.8773 239.884 49.7341C238.112 51.7152 237.193 54.3246 237.329 56.9884C237.298 58.2873 237.528 59.579 238.004 60.7866C238.479 61.9941 239.191 63.0927 240.097 64.0167C240.875 64.9287 241.838 65.6612 242.921 66.1643C244.005 66.6675 245.183 66.9294 246.376 66.9324C247.575 66.9642 248.768 66.7397 249.875 66.2737C250.983 65.8078 251.98 65.1109 252.801 64.2288L252.798 64.2176Z" fill="black"/>
<path d="M211.307 66.7957C209.396 67.2592 207.388 67.089 205.58 66.3102C204.725 65.9781 203.947 65.4719 203.295 64.8234C202.643 64.1748 202.131 63.3978 201.79 62.5407L220.714 58.1853C221.353 58.0391 221.957 57.7674 222.492 57.3855C223.027 57.0036 223.481 56.519 223.83 55.9597C224.179 55.4004 224.414 54.7773 224.524 54.126C224.633 53.4747 224.614 52.8081 224.468 52.1643C224.092 50.027 223.244 48.002 221.989 46.2385C220.733 44.475 219.101 43.0179 217.212 41.9747C213.413 39.9532 209.005 39.4281 204.843 40.5016C200.49 41.4405 196.673 44.0542 194.202 47.7866C192.902 49.7512 192.038 51.9753 191.668 54.3072C191.298 56.6391 191.432 59.0239 192.06 61.2991C192.473 63.6199 193.37 65.826 194.691 67.7719C196.013 69.7177 197.728 71.3592 199.725 72.588C203.759 74.9423 208.556 75.5885 213.063 74.3848C215.465 73.8562 217.74 72.8555 219.758 71.4398C221.777 70.0241 223.498 68.2212 224.825 66.1344L218.914 62.0441C218.857 62.0046 218.793 61.9769 218.725 61.9627C218.657 61.9484 218.587 61.948 218.518 61.9612C218.45 61.9744 218.385 62.0012 218.327 62.0398C218.269 62.0785 218.22 62.1283 218.181 62.1864C217.393 63.3729 216.379 64.3907 215.2 65.1817C214.02 65.9726 212.698 66.5211 211.307 66.7957ZM202.142 50.8557C203.323 49.449 204.928 48.4694 206.712 48.0656C208.369 47.6357 210.125 47.827 211.653 48.6041C212.427 49.0281 213.109 49.6028 213.661 50.2949C214.212 50.9871 214.621 51.7828 214.865 52.6358L200.544 55.931C200.439 55.0193 200.528 54.0955 200.803 53.2207C201.078 52.3459 201.535 51.5398 202.142 50.8557Z" fill="black"/>
<path d="M188.514 48.9919L188.542 48.8245C189.529 46.0442 191.252 43.5893 193.525 41.7264C191.948 40.7156 190.12 40.1715 188.251 40.1562C186.382 40.1409 184.546 40.655 182.953 41.6399C181.248 42.5252 179.719 43.7176 178.441 45.1582V41.1684C178.441 41.0433 178.392 40.9234 178.304 40.8349C178.216 40.7465 178.097 40.6968 177.973 40.6968H169.253C169.117 40.6968 168.987 40.7513 168.891 40.8481C168.795 40.9449 168.741 41.0762 168.741 41.2131V74.5076H178.43V59.8651C178.297 57.0859 179.014 54.3325 180.484 51.9773C181.182 50.9853 182.12 50.1901 183.209 49.6675C184.299 49.1449 185.503 48.9123 186.707 48.9919H188.514Z" fill="black"/>
<path d="M165.327 30.7724H154.78C154.67 30.7702 154.562 30.7963 154.465 30.848C154.368 30.8998 154.286 30.9756 154.227 31.0682C152.748 33.3701 143.001 48.3056 138.63 49.0562C138.59 49.0641 138.548 49.0628 138.508 49.0523C138.468 49.0419 138.431 49.0225 138.399 48.9958C138.368 48.969 138.342 48.9355 138.325 48.8977C138.308 48.8599 138.3 48.8187 138.301 48.7771V31.4197C138.301 31.2466 138.233 31.0805 138.111 30.9581C137.99 30.8356 137.825 30.7669 137.653 30.7669H129.257C129.085 30.7669 128.92 30.8356 128.799 30.9581C128.677 31.0805 128.609 31.2466 128.609 31.4197V74.6164H138.298V57.8757C138.298 57.8091 138.312 57.7433 138.339 57.6826C138.366 57.6218 138.406 57.5677 138.455 57.5236C138.505 57.4795 138.563 57.4466 138.626 57.427C138.689 57.4073 138.756 57.4014 138.821 57.4098C143.763 58.3029 148.278 60.8029 151.677 64.5273C153.008 65.8264 154.043 67.4008 154.713 69.142C155.382 70.8833 155.668 72.7501 155.553 74.6137H165.241C165.105 70.1166 163.779 65.7377 161.402 61.9291C159.026 58.1206 155.684 55.0203 151.721 52.9483C149.288 51.6202 149.473 51.5729 151.292 49.43C160.757 38.2695 164.439 33.6239 165.809 31.8159C165.881 31.7192 165.926 31.604 165.937 31.4832C165.948 31.3625 165.925 31.2411 165.872 31.1324C165.819 31.0238 165.736 30.9323 165.634 30.8682C165.532 30.8042 165.414 30.77 165.294 30.7696L165.327 30.7724Z" fill="black"/>
<path d="M20.2181 22.6225C21.1788 22.0634 21.8797 21.1426 22.1668 20.0626C22.4539 18.9826 22.3035 17.832 21.7489 16.8637C21.1942 15.8955 20.2807 15.189 19.2092 14.8996C18.1376 14.6102 16.9959 14.7617 16.0352 15.3207C15.0746 15.8798 14.3736 16.8006 14.0865 17.8806C13.7994 18.9606 13.9498 20.1113 14.5044 21.0795C15.0591 22.0478 15.9727 22.7543 17.0442 23.0437C18.1157 23.333 19.2574 23.1815 20.2181 22.6225Z" fill="black"/>
<path d="M6.27403 30.739C7.23468 30.1799 7.93565 29.259 8.22274 28.1791C8.50983 27.0991 8.35954 25.9483 7.8049 24.9801C7.25019 24.0118 6.33659 23.3053 5.26508 23.016C4.19357 22.7266 3.05192 22.8782 2.09123 23.4372C1.13058 23.9963 0.429605 24.9171 0.142519 25.9971C-0.144567 27.077 0.00572227 28.2277 0.560359 29.196C1.11507 30.1642 2.02867 30.8707 3.10018 31.1601C4.17169 31.4494 5.31333 31.298 6.27403 30.739Z" fill="black"/>
<path d="M86.7729 12.6757C83.4665 6.90865 78.0424 2.68364 71.6717 0.912922C65.3011 -0.8578 58.4951 -0.0321626 52.7233 3.21157L52.4022 3.39571C51.639 3.83651 50.8998 4.31806 50.1876 4.83824L50.135 4.87451C41.9838 10.5615 36.1061 18.9859 33.5531 28.6408C33.3944 29.2416 33.2477 29.8452 33.113 30.4516C33.0565 30.6998 32.9445 30.9318 32.7855 31.1299C32.6266 31.3279 32.425 31.4868 32.1959 31.5945C31.9669 31.7021 31.7164 31.7556 31.4638 31.751C31.2111 31.7463 30.9628 31.6836 30.7378 31.5676C27.4206 29.8541 23.9324 28.4999 20.3319 27.5275C19.0585 27.1834 17.7741 26.8886 16.4785 26.643C15.5096 26.459 14.5074 26.6312 13.6536 27.1282C12.7998 27.6253 12.151 28.4144 11.8251 29.3523C11.3895 30.6041 11.002 31.8727 10.6624 33.158C8.87087 39.8704 8.41329 46.8736 9.31593 53.7648C10.2186 60.6561 12.4637 67.2996 15.9221 73.3135L15.9857 73.4251L16.1325 73.679L16.2958 73.958C20.0981 80.4014 25.2186 85.9546 31.3164 90.2478C37.4142 94.5411 44.3494 97.476 51.6603 98.8571C52.6293 99.0411 53.6315 98.8689 54.4853 98.3719C55.3391 97.8748 55.9878 97.0858 56.3138 96.1479C56.7493 94.8942 57.1368 93.6256 57.4764 92.3421C58.4331 88.7442 59.012 85.0549 59.2038 81.3351C59.2167 81.0801 59.2875 80.8315 59.4104 80.6083C59.5334 80.3851 59.7053 80.1932 59.9132 80.0473C60.121 79.9013 60.3592 79.8052 60.6095 79.7663C60.8599 79.7274 61.1157 79.7468 61.3575 79.8228C70.2454 82.6773 79.8252 82.4534 88.5722 79.1867C90.5585 78.6149 92.4673 77.7987 94.2555 76.7565C95.2399 76.183 96.1851 75.5435 97.0847 74.8425C100.69 72.0268 103.469 68.2765 105.124 63.9925C106.779 59.7084 107.248 55.0516 106.48 50.5198C105.712 45.9881 103.737 41.7518 100.766 38.2637C97.7946 34.7757 93.9387 32.167 89.6103 30.7166C90.9297 24.5568 89.9177 18.1223 86.7729 12.6757ZM82.9333 52.0723C83.1511 53.1931 83.1477 54.3462 82.9234 55.4657C82.699 56.5852 82.258 57.6492 81.6257 58.597C80.9933 59.5447 80.1819 60.3577 79.2378 60.9893C78.2937 61.621 77.2354 62.0591 76.1234 62.2785C75.1898 62.4589 74.2336 62.4862 73.2915 62.3594L48.8449 58.975H48.7592C47.4679 58.7963 46.2999 58.1081 45.5119 57.0617C44.7239 56.0153 44.3805 54.6964 44.557 53.3948C44.6139 52.9953 44.7171 52.6039 44.8642 52.2285L54.2763 28.5125C55.0785 26.4559 56.648 24.7979 58.6484 23.8935C60.6488 22.9892 62.9211 22.9105 64.9783 23.6744C66.007 24.07 66.9473 24.6679 67.7446 25.4331C68.5419 26.1984 69.1803 27.1158 69.6226 28.132C70.0649 29.1482 70.3023 30.2429 70.321 31.3524C70.3397 32.462 70.1393 33.5641 69.7315 34.5949C69.4251 35.357 69.0121 36.0711 68.5052 36.7154L63.406 43.1327C63.1275 43.4838 62.9626 43.9125 62.9336 44.3611C62.9046 44.8097 63.0128 45.2564 63.2437 45.641C63.4746 46.0255 63.8171 46.3294 64.2249 46.5115C64.6326 46.6936 65.086 46.7453 65.5238 46.6594L72.807 45.2225C75.0505 44.7797 77.3767 45.2522 79.2747 46.5365C81.1728 47.8208 82.4876 49.8118 82.9305 52.0723H82.9333Z" fill="black"/>
</svg>
